G04 #@! TF.GenerationSoftware,KiCad,Pcbnew,7.0.1*
G04 #@! TF.CreationDate,2023-04-23T23:40:00+02:00*
G04 #@! TF.ProjectId,keyb_15x5,6b657962-5f31-4357-9835-2e6b69636164,rev?*
G04 #@! TF.SameCoordinates,Original*
G04 #@! TF.FileFunction,Soldermask,Top*
G04 #@! TF.FilePolarity,Negative*
%FSLAX46Y46*%
G04 Gerber Fmt 4.6, Leading zero omitted, Abs format (unit mm)*
G04 Created by KiCad (PCBNEW 7.0.1) date 2023-04-23 23:40:00*
%MOMM*%
%LPD*%
G01*
G04 APERTURE LIST*
%ADD10C,3.000000*%
%ADD11C,3.987800*%
%ADD12C,4.000000*%
%ADD13C,3.200000*%
%ADD14R,0.700000X0.700000*%
%ADD15R,1.700000X1.700000*%
%ADD16O,1.700000X1.700000*%
G04 APERTURE END LIST*
D10*
X77630000Y-110734000D03*
D11*
X81440000Y-113274000D03*
D10*
X83980000Y-108194000D03*
D12*
X66920000Y-68750000D03*
D13*
X66910000Y-203980000D03*
X362660000Y-204000000D03*
D12*
X362670000Y-68750000D03*
D14*
X347235000Y-175390000D03*
X347235000Y-176490000D03*
X349065000Y-176490000D03*
X349065000Y-175390000D03*
X290085000Y-175390000D03*
X290085000Y-176490000D03*
X291915000Y-176490000D03*
X291915000Y-175390000D03*
D10*
X115730000Y-167884000D03*
D11*
X119540000Y-170424000D03*
D10*
X122080000Y-165344000D03*
D14*
X291915000Y-119340000D03*
X291915000Y-118240000D03*
X290085000Y-118240000D03*
X290085000Y-119340000D03*
D10*
X325280000Y-167884000D03*
D11*
X329090000Y-170424000D03*
D10*
X331630000Y-165344000D03*
D14*
X328185000Y-175390000D03*
X328185000Y-176490000D03*
X330015000Y-176490000D03*
X330015000Y-175390000D03*
D10*
X163355000Y-186934000D03*
D11*
X167165000Y-189474000D03*
D10*
X169705000Y-184394000D03*
X153830000Y-110734000D03*
D11*
X157640000Y-113274000D03*
D10*
X160180000Y-108194000D03*
X134780000Y-148834000D03*
D11*
X138590000Y-151374000D03*
D10*
X141130000Y-146294000D03*
X115730000Y-129784000D03*
D11*
X119540000Y-132324000D03*
D10*
X122080000Y-127244000D03*
D14*
X82365000Y-119340000D03*
X82365000Y-118240000D03*
X80535000Y-118240000D03*
X80535000Y-119340000D03*
X93420000Y-94150000D03*
X93420000Y-95250000D03*
X95250000Y-95250000D03*
X95250000Y-94150000D03*
X253815000Y-157440000D03*
X253815000Y-156340000D03*
X251985000Y-156340000D03*
X251985000Y-157440000D03*
D10*
X344330000Y-129784000D03*
D11*
X348140000Y-132324000D03*
D10*
X350680000Y-127244000D03*
D14*
X177615000Y-119340000D03*
X177615000Y-118240000D03*
X175785000Y-118240000D03*
X175785000Y-119340000D03*
D10*
X210980000Y-110734000D03*
D11*
X214790000Y-113274000D03*
D10*
X217330000Y-108194000D03*
X172880000Y-148834000D03*
D11*
X176690000Y-151374000D03*
D10*
X179230000Y-146294000D03*
D14*
X83895000Y-94150000D03*
X83895000Y-95250000D03*
X85725000Y-95250000D03*
X85725000Y-94150000D03*
D10*
X96680000Y-186934000D03*
D11*
X100490000Y-189474000D03*
D10*
X103030000Y-184394000D03*
X325280000Y-129784000D03*
D11*
X329090000Y-132324000D03*
D10*
X331630000Y-127244000D03*
X230030000Y-129784000D03*
D11*
X233840000Y-132324000D03*
D10*
X236380000Y-127244000D03*
X172880000Y-129784000D03*
D11*
X176690000Y-132324000D03*
D10*
X179230000Y-127244000D03*
D14*
X206190000Y-195540000D03*
X206190000Y-194440000D03*
X204360000Y-194440000D03*
X204360000Y-195540000D03*
D10*
X115730000Y-148834000D03*
D11*
X119540000Y-151374000D03*
D10*
X122080000Y-146294000D03*
D14*
X101415000Y-119340000D03*
X101415000Y-118240000D03*
X99585000Y-118240000D03*
X99585000Y-119340000D03*
X251985000Y-137290000D03*
X251985000Y-138390000D03*
X253815000Y-138390000D03*
X253815000Y-137290000D03*
X80535000Y-175390000D03*
X80535000Y-176490000D03*
X82365000Y-176490000D03*
X82365000Y-175390000D03*
D10*
X210980000Y-129784000D03*
D11*
X214790000Y-132324000D03*
D10*
X217330000Y-127244000D03*
X249080000Y-148834000D03*
D11*
X252890000Y-151374000D03*
D10*
X255430000Y-146294000D03*
D14*
X99585000Y-137290000D03*
X99585000Y-138390000D03*
X101415000Y-138390000D03*
X101415000Y-137290000D03*
D10*
X96680000Y-148834000D03*
D11*
X100490000Y-151374000D03*
D10*
X103030000Y-146294000D03*
D14*
X194835000Y-137290000D03*
X194835000Y-138390000D03*
X196665000Y-138390000D03*
X196665000Y-137290000D03*
X310965000Y-119340000D03*
X310965000Y-118240000D03*
X309135000Y-118240000D03*
X309135000Y-119340000D03*
D13*
X165500000Y-68740000D03*
D10*
X268130000Y-129784000D03*
D11*
X271940000Y-132324000D03*
D10*
X274480000Y-127244000D03*
D14*
X102945000Y-94150000D03*
X102945000Y-95250000D03*
X104775000Y-95250000D03*
X104775000Y-94150000D03*
D10*
X191930000Y-129784000D03*
D11*
X195740000Y-132324000D03*
D10*
X198280000Y-127244000D03*
D14*
X349065000Y-157440000D03*
X349065000Y-156340000D03*
X347235000Y-156340000D03*
X347235000Y-157440000D03*
X271035000Y-175390000D03*
X271035000Y-176490000D03*
X272865000Y-176490000D03*
X272865000Y-175390000D03*
X158565000Y-119340000D03*
X158565000Y-118240000D03*
X156735000Y-118240000D03*
X156735000Y-119340000D03*
X320490000Y-157440000D03*
X320490000Y-156340000D03*
X318660000Y-156340000D03*
X318660000Y-157440000D03*
D10*
X249080000Y-110734000D03*
D11*
X252890000Y-113274000D03*
D10*
X255430000Y-108194000D03*
D14*
X101415000Y-195540000D03*
X101415000Y-194440000D03*
X99585000Y-194440000D03*
X99585000Y-195540000D03*
X175785000Y-175390000D03*
X175785000Y-176490000D03*
X177615000Y-176490000D03*
X177615000Y-175390000D03*
X310965000Y-195540000D03*
X310965000Y-194440000D03*
X309135000Y-194440000D03*
X309135000Y-195540000D03*
D10*
X268130000Y-148834000D03*
D11*
X271940000Y-151374000D03*
D10*
X274480000Y-146294000D03*
D14*
X213885000Y-175390000D03*
X213885000Y-176490000D03*
X215715000Y-176490000D03*
X215715000Y-175390000D03*
X82365000Y-195540000D03*
X82365000Y-194440000D03*
X80535000Y-194440000D03*
X80535000Y-195540000D03*
D10*
X96680000Y-110734000D03*
D11*
X100490000Y-113274000D03*
D10*
X103030000Y-108194000D03*
X325280000Y-110734000D03*
D11*
X329090000Y-113274000D03*
D10*
X331630000Y-108194000D03*
D14*
X118635000Y-175390000D03*
X118635000Y-176490000D03*
X120465000Y-176490000D03*
X120465000Y-175390000D03*
D10*
X96680000Y-167884000D03*
D11*
X100490000Y-170424000D03*
D10*
X103030000Y-165344000D03*
D14*
X194835000Y-175390000D03*
X194835000Y-176490000D03*
X196665000Y-176490000D03*
X196665000Y-175390000D03*
X349065000Y-195540000D03*
X349065000Y-194440000D03*
X347235000Y-194440000D03*
X347235000Y-195540000D03*
D10*
X344330000Y-186934000D03*
D11*
X348140000Y-189474000D03*
D10*
X350680000Y-184394000D03*
X306230000Y-167884000D03*
D11*
X310040000Y-170424000D03*
D10*
X312580000Y-165344000D03*
D14*
X196665000Y-119340000D03*
X196665000Y-118240000D03*
X194835000Y-118240000D03*
X194835000Y-119340000D03*
X101415000Y-157440000D03*
X101415000Y-156340000D03*
X99585000Y-156340000D03*
X99585000Y-157440000D03*
D10*
X210980000Y-148834000D03*
D11*
X214790000Y-151374000D03*
D10*
X217330000Y-146294000D03*
D14*
X139510000Y-119330000D03*
X139510000Y-118230000D03*
X137680000Y-118230000D03*
X137680000Y-119330000D03*
X168090000Y-195540000D03*
X168090000Y-194440000D03*
X166260000Y-194440000D03*
X166260000Y-195540000D03*
D10*
X77630000Y-129784000D03*
D11*
X81440000Y-132324000D03*
D10*
X83980000Y-127244000D03*
X134780000Y-110734000D03*
D11*
X138590000Y-113274000D03*
D10*
X141130000Y-108194000D03*
X77630000Y-148834000D03*
D11*
X81440000Y-151374000D03*
D10*
X83980000Y-146294000D03*
D14*
X120465000Y-195540000D03*
X120465000Y-194440000D03*
X118635000Y-194440000D03*
X118635000Y-195540000D03*
X290085000Y-137290000D03*
X290085000Y-138390000D03*
X291915000Y-138390000D03*
X291915000Y-137290000D03*
X120465000Y-157440000D03*
X120465000Y-156340000D03*
X118635000Y-156340000D03*
X118635000Y-157440000D03*
D10*
X153830000Y-148834000D03*
D11*
X157640000Y-151374000D03*
D10*
X160180000Y-146294000D03*
X287180000Y-167884000D03*
D11*
X290990000Y-170424000D03*
D10*
X293530000Y-165344000D03*
X96680000Y-129784000D03*
D11*
X100490000Y-132324000D03*
D10*
X103030000Y-127244000D03*
X239555000Y-186934000D03*
D11*
X243365000Y-189474000D03*
D10*
X245905000Y-184394000D03*
D14*
X156735000Y-137290000D03*
X156735000Y-138390000D03*
X158565000Y-138390000D03*
X158565000Y-137290000D03*
D10*
X268130000Y-167884000D03*
D11*
X271940000Y-170424000D03*
D10*
X274480000Y-165344000D03*
X134780000Y-167884000D03*
D11*
X138590000Y-170424000D03*
D10*
X141130000Y-165344000D03*
X306230000Y-129784000D03*
D11*
X310040000Y-132324000D03*
D10*
X312580000Y-127244000D03*
X268130000Y-110734000D03*
D11*
X271940000Y-113274000D03*
D10*
X274480000Y-108194000D03*
X172880000Y-110734000D03*
D11*
X176690000Y-113274000D03*
D10*
X179230000Y-108194000D03*
D14*
X82365000Y-157440000D03*
X82365000Y-156340000D03*
X80535000Y-156340000D03*
X80535000Y-157440000D03*
X156735000Y-175390000D03*
X156735000Y-176490000D03*
X158565000Y-176490000D03*
X158565000Y-175390000D03*
D10*
X153830000Y-129784000D03*
D11*
X157640000Y-132324000D03*
D10*
X160180000Y-127244000D03*
D14*
X215715000Y-157440000D03*
X215715000Y-156340000D03*
X213885000Y-156340000D03*
X213885000Y-157440000D03*
D13*
X165500000Y-203990000D03*
D10*
X268130000Y-186934000D03*
D11*
X271940000Y-189474000D03*
D10*
X274480000Y-184394000D03*
X249080000Y-167884000D03*
D11*
X252890000Y-170424000D03*
D10*
X255430000Y-165344000D03*
X210980000Y-167884000D03*
D11*
X214790000Y-170424000D03*
D10*
X217330000Y-165344000D03*
D13*
X264080000Y-203990000D03*
D10*
X115730000Y-186934000D03*
D11*
X119540000Y-189474000D03*
D10*
X122080000Y-184394000D03*
D14*
X137685000Y-137290000D03*
X137685000Y-138390000D03*
X139515000Y-138390000D03*
X139515000Y-137290000D03*
X112470000Y-94150000D03*
X112470000Y-95250000D03*
X114300000Y-95250000D03*
X114300000Y-94150000D03*
X215715000Y-119340000D03*
X215715000Y-118240000D03*
X213885000Y-118240000D03*
X213885000Y-119340000D03*
X349065000Y-119340000D03*
X349065000Y-118240000D03*
X347235000Y-118240000D03*
X347235000Y-119340000D03*
D10*
X191930000Y-110734000D03*
D11*
X195740000Y-113274000D03*
D10*
X198280000Y-108194000D03*
X134780000Y-129784000D03*
D11*
X138590000Y-132324000D03*
D10*
X141130000Y-127244000D03*
X230030000Y-148834000D03*
D11*
X233840000Y-151374000D03*
D10*
X236380000Y-146294000D03*
D14*
X347235000Y-137290000D03*
X347235000Y-138390000D03*
X349065000Y-138390000D03*
X349065000Y-137290000D03*
D10*
X172880000Y-167884000D03*
D11*
X176690000Y-170424000D03*
D10*
X179230000Y-165344000D03*
D14*
X309135000Y-137290000D03*
X309135000Y-138390000D03*
X310965000Y-138390000D03*
X310965000Y-137290000D03*
D10*
X201455000Y-186934000D03*
D11*
X205265000Y-189474000D03*
D10*
X207805000Y-184394000D03*
X191930000Y-148834000D03*
D11*
X195740000Y-151374000D03*
D10*
X198280000Y-146294000D03*
X115730000Y-110734000D03*
D11*
X119540000Y-113274000D03*
D10*
X122080000Y-108194000D03*
X344330000Y-148834000D03*
D11*
X348140000Y-151374000D03*
D10*
X350680000Y-146294000D03*
D14*
X175785000Y-137290000D03*
X175785000Y-138390000D03*
X177615000Y-138390000D03*
X177615000Y-137290000D03*
X232935000Y-137290000D03*
X232935000Y-138390000D03*
X234765000Y-138390000D03*
X234765000Y-137290000D03*
X330015000Y-119340000D03*
X330015000Y-118240000D03*
X328185000Y-118240000D03*
X328185000Y-119340000D03*
D10*
X77630000Y-186934000D03*
D11*
X81440000Y-189474000D03*
D10*
X83980000Y-184394000D03*
X306230000Y-186934000D03*
D11*
X310040000Y-189474000D03*
D10*
X312580000Y-184394000D03*
X287180000Y-148834000D03*
D11*
X290990000Y-151374000D03*
D10*
X293530000Y-146294000D03*
D14*
X234765000Y-119340000D03*
X234765000Y-118240000D03*
X232935000Y-118240000D03*
X232935000Y-119340000D03*
X253815000Y-119340000D03*
X253815000Y-118240000D03*
X251985000Y-118240000D03*
X251985000Y-119340000D03*
D10*
X249080000Y-129784000D03*
D11*
X252890000Y-132324000D03*
D10*
X255430000Y-127244000D03*
D14*
X244290000Y-195540000D03*
X244290000Y-194440000D03*
X242460000Y-194440000D03*
X242460000Y-195540000D03*
D13*
X264080000Y-68750000D03*
D14*
X213885000Y-137290000D03*
X213885000Y-138390000D03*
X215715000Y-138390000D03*
X215715000Y-137290000D03*
D10*
X287180000Y-110734000D03*
D11*
X290990000Y-113274000D03*
D10*
X293530000Y-108194000D03*
D14*
X232935000Y-175390000D03*
X232935000Y-176490000D03*
X234765000Y-176490000D03*
X234765000Y-175390000D03*
D10*
X134780000Y-186934000D03*
D11*
X138590000Y-189474000D03*
D10*
X141130000Y-184394000D03*
D14*
X234765000Y-157440000D03*
X234765000Y-156340000D03*
X232935000Y-156340000D03*
X232935000Y-157440000D03*
X99585000Y-175390000D03*
X99585000Y-176490000D03*
X101415000Y-176490000D03*
X101415000Y-175390000D03*
D10*
X153830000Y-167884000D03*
D11*
X157640000Y-170424000D03*
D10*
X160180000Y-165344000D03*
D14*
X118635000Y-137290000D03*
X118635000Y-138390000D03*
X120465000Y-138390000D03*
X120465000Y-137290000D03*
D10*
X287180000Y-129784000D03*
D11*
X290990000Y-132324000D03*
D10*
X293530000Y-127244000D03*
D14*
X291915000Y-195540000D03*
X291915000Y-194440000D03*
X290085000Y-194440000D03*
X290085000Y-195540000D03*
X328185000Y-137290000D03*
X328185000Y-138390000D03*
X330015000Y-138390000D03*
X330015000Y-137290000D03*
X272865000Y-195540000D03*
X272865000Y-194440000D03*
X271035000Y-194440000D03*
X271035000Y-195540000D03*
X177615000Y-157440000D03*
X177615000Y-156340000D03*
X175785000Y-156340000D03*
X175785000Y-157440000D03*
X291915000Y-157440000D03*
X291915000Y-156340000D03*
X290085000Y-156340000D03*
X290085000Y-157440000D03*
X158565000Y-157440000D03*
X158565000Y-156340000D03*
X156735000Y-156340000D03*
X156735000Y-157440000D03*
X196665000Y-157440000D03*
X196665000Y-156340000D03*
X194835000Y-156340000D03*
X194835000Y-157440000D03*
X272865000Y-157440000D03*
X272865000Y-156340000D03*
X271035000Y-156340000D03*
X271035000Y-157440000D03*
X271035000Y-137290000D03*
X271035000Y-138390000D03*
X272865000Y-138390000D03*
X272865000Y-137290000D03*
D10*
X77630000Y-167884000D03*
D11*
X81440000Y-170424000D03*
D10*
X83980000Y-165344000D03*
X287180000Y-186934000D03*
D11*
X290990000Y-189474000D03*
D10*
X293530000Y-184394000D03*
D15*
X189000000Y-86360000D03*
D16*
X186460000Y-86360000D03*
X189000000Y-88900000D03*
X186460000Y-88900000D03*
X189000000Y-91440000D03*
X186460000Y-91440000D03*
D10*
X230030000Y-110734000D03*
D11*
X233840000Y-113274000D03*
D10*
X236380000Y-108194000D03*
D14*
X80535000Y-137290000D03*
X80535000Y-138390000D03*
X82365000Y-138390000D03*
X82365000Y-137290000D03*
D10*
X230030000Y-167884000D03*
D11*
X233840000Y-170424000D03*
D10*
X236380000Y-165344000D03*
X191930000Y-167884000D03*
D11*
X195740000Y-170424000D03*
D10*
X198280000Y-165344000D03*
X306230000Y-110734000D03*
D11*
X310040000Y-113274000D03*
D10*
X312580000Y-108194000D03*
D14*
X137685000Y-175390000D03*
X137685000Y-176490000D03*
X139515000Y-176490000D03*
X139515000Y-175390000D03*
X330015000Y-195540000D03*
X330015000Y-194440000D03*
X328185000Y-194440000D03*
X328185000Y-195540000D03*
D10*
X344330000Y-110734000D03*
D11*
X348140000Y-113274000D03*
D10*
X350680000Y-108194000D03*
D14*
X139515000Y-195540000D03*
X139515000Y-194440000D03*
X137685000Y-194440000D03*
X137685000Y-195540000D03*
D10*
X325280000Y-186934000D03*
D11*
X329090000Y-189474000D03*
D10*
X331630000Y-184394000D03*
X315755000Y-148834000D03*
D11*
X319565000Y-151374000D03*
D10*
X322105000Y-146294000D03*
D14*
X272865000Y-119340000D03*
X272865000Y-118240000D03*
X271035000Y-118240000D03*
X271035000Y-119340000D03*
D10*
X344330000Y-167884000D03*
D11*
X348140000Y-170424000D03*
D10*
X350680000Y-165344000D03*
D14*
X139515000Y-157440000D03*
X139515000Y-156340000D03*
X137685000Y-156340000D03*
X137685000Y-157440000D03*
X120465000Y-119340000D03*
X120465000Y-118240000D03*
X118635000Y-118240000D03*
X118635000Y-119340000D03*
X309135000Y-175390000D03*
X309135000Y-176490000D03*
X310965000Y-176490000D03*
X310965000Y-175390000D03*
X251985000Y-175390000D03*
X251985000Y-176490000D03*
X253815000Y-176490000D03*
X253815000Y-175390000D03*
D15*
X203200000Y-86360000D03*
D16*
X200660000Y-86360000D03*
X203200000Y-88900000D03*
X200660000Y-88900000D03*
X203200000Y-91440000D03*
X200660000Y-91440000D03*
M02*
