M48
; DRILL file {KiCad 7.0.1} date Sun Apr 23 23:40:48 2023
; FORMAT={-:-/ absolute / inch / decimal}
; #@! TF.CreationDate,2023-04-23T23:40:48+02:00
; #@! TF.GenerationSoftware,Kicad,Pcbnew,7.0.1
; #@! TF.FileFunction,NonPlated,1,2,NPTH
FMAT,2
INCH
; #@! TA.AperFunction,NonPlated,NPTH,ComponentDrill
T1C0.0787
; #@! TA.AperFunction,NonPlated,NPTH,ComponentDrill
T2C0.1181
; #@! TA.AperFunction,NonPlated,NPTH,ComponentDrill
T3C0.1260
; #@! TA.AperFunction,NonPlated,NPTH,ComponentDrill
T4C0.1570
%
G90
G05
T1
X2.6346Y-2.7067
X14.2783Y-2.7067
T2
X3.0563Y-4.3596
X3.0563Y-5.1096
X3.0563Y-5.8596
X3.0563Y-6.6096
X3.0563Y-7.3596
X3.3063Y-4.2596
X3.3063Y-5.0096
X3.3063Y-5.7596
X3.3063Y-6.5096
X3.3063Y-7.2596
X3.8063Y-4.3596
X3.8063Y-5.1096
X3.8063Y-5.8596
X3.8063Y-6.6096
X3.8063Y-7.3596
X4.0563Y-4.2596
X4.0563Y-5.0096
X4.0563Y-5.7596
X4.0563Y-6.5096
X4.0563Y-7.2596
X4.5563Y-4.3596
X4.5563Y-5.1096
X4.5563Y-5.8596
X4.5563Y-6.6096
X4.5563Y-7.3596
X4.8063Y-4.2596
X4.8063Y-5.0096
X4.8063Y-5.7596
X4.8063Y-6.5096
X4.8063Y-7.2596
X5.3063Y-4.3596
X5.3063Y-5.1096
X5.3063Y-5.8596
X5.3063Y-6.6096
X5.3063Y-7.3596
X5.5563Y-4.2596
X5.5563Y-5.0096
X5.5563Y-5.7596
X5.5563Y-6.5096
X5.5563Y-7.2596
X6.0563Y-4.3596
X6.0563Y-5.1096
X6.0563Y-5.8596
X6.0563Y-6.6096
X6.3063Y-4.2596
X6.3063Y-5.0096
X6.3063Y-5.7596
X6.3063Y-6.5096
X6.4313Y-7.3596
X6.6813Y-7.2596
X6.8063Y-4.3596
X6.8063Y-5.1096
X6.8063Y-5.8596
X6.8063Y-6.6096
X7.0563Y-4.2596
X7.0563Y-5.0096
X7.0563Y-5.7596
X7.0563Y-6.5096
X7.5563Y-4.3596
X7.5563Y-5.1096
X7.5563Y-5.8596
X7.5563Y-6.6096
X7.8063Y-4.2596
X7.8063Y-5.0096
X7.8063Y-5.7596
X7.8063Y-6.5096
X7.9313Y-7.3596
X8.1813Y-7.2596
X8.3063Y-4.3596
X8.3063Y-5.1096
X8.3063Y-5.8596
X8.3063Y-6.6096
X8.5563Y-4.2596
X8.5563Y-5.0096
X8.5563Y-5.7596
X8.5563Y-6.5096
X9.0563Y-4.3596
X9.0563Y-5.1096
X9.0563Y-5.8596
X9.0563Y-6.6096
X9.3063Y-4.2596
X9.3063Y-5.0096
X9.3063Y-5.7596
X9.3063Y-6.5096
X9.4313Y-7.3596
X9.6813Y-7.2596
X9.8063Y-4.3596
X9.8063Y-5.1096
X9.8063Y-5.8596
X9.8063Y-6.6096
X10.0563Y-4.2596
X10.0563Y-5.0096
X10.0563Y-5.7596
X10.0563Y-6.5096
X10.5563Y-4.3596
X10.5563Y-5.1096
X10.5563Y-5.8596
X10.5563Y-6.6096
X10.5563Y-7.3596
X10.8063Y-4.2596
X10.8063Y-5.0096
X10.8063Y-5.7596
X10.8063Y-6.5096
X10.8063Y-7.2596
X11.3063Y-4.3596
X11.3063Y-5.1096
X11.3063Y-5.8596
X11.3063Y-6.6096
X11.3063Y-7.3596
X11.5563Y-4.2596
X11.5563Y-5.0096
X11.5563Y-5.7596
X11.5563Y-6.5096
X11.5563Y-7.2596
X12.0563Y-4.3596
X12.0563Y-5.1096
X12.0563Y-6.6096
X12.0563Y-7.3596
X12.3063Y-4.2596
X12.3063Y-5.0096
X12.3063Y-6.5096
X12.3063Y-7.2596
X12.4313Y-5.8596
X12.6813Y-5.7596
X12.8063Y-4.3596
X12.8063Y-5.1096
X12.8063Y-6.6096
X12.8063Y-7.3596
X13.0563Y-4.2596
X13.0563Y-5.0096
X13.0563Y-6.5096
X13.0563Y-7.2596
X13.5563Y-4.3596
X13.5563Y-5.1096
X13.5563Y-5.8596
X13.5563Y-6.6096
X13.5563Y-7.3596
X13.8063Y-4.2596
X13.8063Y-5.0096
X13.8063Y-5.7596
X13.8063Y-6.5096
X13.8063Y-7.2596
T3
X2.6343Y-8.0307
X6.5157Y-2.7063
X6.5157Y-8.0311
X10.3969Y-2.7067
X10.3969Y-8.0311
X14.278Y-8.0315
T4
X3.2063Y-4.4596
X3.2063Y-5.2096
X3.2063Y-5.9596
X3.2063Y-6.7096
X3.2063Y-7.4596
X3.9563Y-4.4596
X3.9563Y-5.2096
X3.9563Y-5.9596
X3.9563Y-6.7096
X3.9563Y-7.4596
X4.7063Y-4.4596
X4.7063Y-5.2096
X4.7063Y-5.9596
X4.7063Y-6.7096
X4.7063Y-7.4596
X5.4563Y-4.4596
X5.4563Y-5.2096
X5.4563Y-5.9596
X5.4563Y-6.7096
X5.4563Y-7.4596
X6.2063Y-4.4596
X6.2063Y-5.2096
X6.2063Y-5.9596
X6.2063Y-6.7096
X6.5813Y-7.4596
X6.9563Y-4.4596
X6.9563Y-5.2096
X6.9563Y-5.9596
X6.9563Y-6.7096
X7.7063Y-4.4596
X7.7063Y-5.2096
X7.7063Y-5.9596
X7.7063Y-6.7096
X8.0813Y-7.4596
X8.4563Y-4.4596
X8.4563Y-5.2096
X8.4563Y-5.9596
X8.4563Y-6.7096
X9.2063Y-4.4596
X9.2063Y-5.2096
X9.2063Y-5.9596
X9.2063Y-6.7096
X9.5813Y-7.4596
X9.9563Y-4.4596
X9.9563Y-5.2096
X9.9563Y-5.9596
X9.9563Y-6.7096
X10.7063Y-4.4596
X10.7063Y-5.2096
X10.7063Y-5.9596
X10.7063Y-6.7096
X10.7063Y-7.4596
X11.4563Y-4.4596
X11.4563Y-5.2096
X11.4563Y-5.9596
X11.4563Y-6.7096
X11.4563Y-7.4596
X12.2063Y-4.4596
X12.2063Y-5.2096
X12.2063Y-6.7096
X12.2063Y-7.4596
X12.5813Y-5.9596
X12.9563Y-4.4596
X12.9563Y-5.2096
X12.9563Y-6.7096
X12.9563Y-7.4596
X13.7063Y-4.4596
X13.7063Y-5.2096
X13.7063Y-5.9596
X13.7063Y-6.7096
X13.7063Y-7.4596
T0
M30
