M48
; DRILL file {KiCad 7.0.1} date Sun Apr 23 23:40:48 2023
; FORMAT={-:-/ absolute / inch / decimal}
; #@! TF.CreationDate,2023-04-23T23:40:48+02:00
; #@! TF.GenerationSoftware,Kicad,Pcbnew,7.0.1
; #@! TF.FileFunction,Plated,1,2,PTH
FMAT,2
INCH
; #@! TA.AperFunction,Plated,PTH,ViaDrill
T1C0.0157
; #@! TA.AperFunction,Plated,PTH,ComponentDrill
T2C0.0394
%
G90
G05
T1
X2.8303Y-6.8992
X2.8441Y-6.4902
X2.8453Y-6.2567
X2.8492Y-5.4157
X2.8594Y-4.7602
X2.8594Y-4.9685
X2.9941Y-6.185
X2.9941Y-7.6772
X3.0118Y-4.6831
X3.0283Y-6.9524
X3.0398Y-5.4157
X3.052Y-6.2579
X3.0531Y-6.4902
X3.0606Y-4.7594
X3.0606Y-4.9693
X3.1937Y-5.5697
X3.3406Y-6.8327
X3.3406Y-7.0429
X3.3413Y-6.0803
X3.3413Y-6.2965
X3.3417Y-7.5783
X3.3421Y-7.7953
X3.3425Y-5.3346
X3.3425Y-5.5315
X3.3445Y-4.5866
X3.3445Y-4.7835
X3.3799Y-5.2953
X3.3937Y-6.815
X3.4299Y-3.511
X3.4764Y-3.6299
X3.4764Y-3.8287
X3.565Y-3.6299
X3.5669Y-3.8287
X3.6024Y-6.7972
X3.6043Y-4.5492
X3.6043Y-5.2992
X3.6063Y-6.0512
X3.7362Y-5.2992
X3.7362Y-6.0512
X3.7382Y-6.7972
X3.7402Y-4.5492
X3.7984Y-3.5098
X3.9449Y-3.6299
X3.9449Y-3.8287
X4.0909Y-6.298
X4.0917Y-6.0791
X4.0917Y-6.8319
X4.0917Y-7.0461
X4.0925Y-4.5866
X4.0925Y-5.3346
X4.0925Y-5.5315
X4.0925Y-7.5803
X4.0925Y-7.7961
X4.0945Y-4.7835
X4.3169Y-3.6299
X4.3169Y-3.8268
X4.3524Y-5.2972
X4.3543Y-4.5492
X4.3563Y-6.0492
X4.3583Y-6.8012
X4.4843Y-6.0492
X4.4862Y-4.5492
X4.4862Y-5.2972
X4.4862Y-6.8012
X4.8413Y-6.8331
X4.8417Y-4.5874
X4.8417Y-7.0449
X4.8421Y-5.5291
X4.8421Y-6.0791
X4.8421Y-6.2988
X4.8421Y-7.5815
X4.8421Y-7.7949
X4.8425Y-4.7835
X4.8425Y-5.3346
X4.935Y-3.8858
X5.0996Y-6.798
X5.1004Y-5.2972
X5.1008Y-6.0465
X5.1024Y-4.5492
X5.2008Y-3.7854
X5.2028Y-3.4094
X5.2362Y-4.5492
X5.237Y-6.0488
X5.2382Y-5.2972
X5.2386Y-6.7996
X5.2579Y-3.8465
X5.3673Y-3.9988
X5.4067Y-3.9984
X5.4134Y-3.563
X5.4134Y-3.6043
X5.4484Y-4.0059
X5.4783Y-3.8563
X5.4882Y-3.7362
X5.4902Y-4.0055
X5.5906Y-6.3
X5.5917Y-4.5874
X5.5917Y-4.7827
X5.5917Y-6.0807
X5.5917Y-6.8315
X5.5917Y-7.0441
X5.5921Y-5.335
X5.5925Y-5.5315
X5.5929Y-7.5811
X5.5929Y-7.7961
X5.5945Y-3.7894
X5.5945Y-3.9803
X5.6102Y-4.0256
X5.6398Y-3.6772
X5.6398Y-3.7185
X5.6398Y-3.7579
X5.6587Y-4.0232
X5.6594Y-3.5236
X5.6713Y-3.6457
X5.6988Y-3.6142
X5.8488Y-6.0488
X5.8496Y-6.798
X5.8504Y-5.2992
X5.8524Y-4.5492
X5.8543Y-3.3622
X5.987Y-6.7969
X5.9874Y-6.0488
X5.9882Y-4.5492
X5.9882Y-5.2992
X6.1134Y-3.887
X6.122Y-3.9961
X6.1803Y-3.872
X6.2697Y-3.7894
X6.3406Y-5.5315
X6.3409Y-6.2988
X6.3413Y-7.0425
X6.3417Y-4.5874
X6.3421Y-5.3331
X6.3425Y-4.7835
X6.3429Y-6.8315
X6.3433Y-6.0807
X6.4681Y-3.7244
X6.6004Y-6.7996
X6.602Y-6.0476
X6.6024Y-4.5472
X6.6024Y-5.2992
X6.7181Y-7.5803
X6.7181Y-7.7933
X6.7366Y-6.798
X6.7382Y-4.5492
X6.7398Y-6.0476
X6.7402Y-5.2972
X6.8209Y-3.4213
X6.8228Y-3.2461
X7.0098Y-3.4213
X7.0669Y-3.2146
X7.0669Y-3.8583
X7.0906Y-5.5315
X7.0909Y-6.8315
X7.0909Y-7.0413
X7.0917Y-4.5874
X7.0917Y-6.0807
X7.0917Y-6.2988
X7.0925Y-4.7815
X7.0925Y-5.3327
X7.3386Y-3.0736
X7.3472Y-6.7969
X7.3492Y-6.0476
X7.35Y-3.7012
X7.3504Y-4.5512
X7.3504Y-5.2972
X7.3807Y-3.0882
X7.3894Y-3.1693
X7.439Y-3.1697
X7.4862Y-4.5512
X7.4862Y-5.2972
X7.4862Y-6.7969
X7.4866Y-6.0488
X7.8406Y-5.5315
X7.8417Y-7.0453
X7.8421Y-6.0795
X7.8421Y-6.2988
X7.8425Y-4.5866
X7.8425Y-4.7815
X7.8425Y-5.3346
X7.8433Y-6.8299
X8.1004Y-4.5492
X8.1008Y-6.05
X8.1024Y-5.2972
X8.1591Y-3.6291
X8.2173Y-7.7961
X8.2181Y-7.5795
X8.2362Y-4.5492
X8.2362Y-5.2992
X8.2362Y-6.05
X8.3976Y-3.1417
X8.4055Y-3.8583
X8.4055Y-4.0354
X8.4961Y-3.1437
X8.5827Y-3.622
X8.5827Y-4.0354
X8.5913Y-6.8287
X8.5917Y-4.7827
X8.5917Y-6.0783
X8.5925Y-4.5866
X8.5925Y-5.3346
X8.5925Y-5.5315
X8.5929Y-6.2976
X8.5929Y-7.0469
X8.848Y-6.7969
X8.8492Y-6.05
X8.8504Y-4.5492
X8.8524Y-5.2972
X8.9854Y-6.7969
X8.9862Y-4.5492
X8.9862Y-5.2992
X8.9866Y-6.0488
X9.0551Y-3.622
X9.0551Y-4.0354
X9.2323Y-3.622
X9.2323Y-4.0354
X9.3409Y-6.2965
X9.3409Y-7.048
X9.3413Y-6.8311
X9.3425Y-4.5866
X9.3425Y-4.7835
X9.3425Y-5.3346
X9.3425Y-5.5315
X9.3433Y-6.0795
X9.5984Y-5.2972
X9.6004Y-4.5492
X9.6004Y-6.0488
X9.7177Y-7.5803
X9.7177Y-7.7953
X9.7366Y-6.05
X9.7382Y-4.5492
X9.7382Y-5.2972
X9.7835Y-3.622
X9.7835Y-4.0354
X9.9409Y-3.622
X9.9409Y-4.0354
X10.0917Y-4.7827
X10.0917Y-6.8299
X10.0917Y-7.048
X10.0921Y-6.0783
X10.0921Y-6.2976
X10.0925Y-4.5866
X10.0925Y-5.3327
X10.0925Y-5.5315
X10.3492Y-6.798
X10.3496Y-6.0492
X10.3504Y-4.5472
X10.3504Y-5.2972
X10.4862Y-4.5492
X10.4862Y-5.2972
X10.487Y-6.048
X10.487Y-6.7969
X10.5118Y-3.622
X10.5118Y-3.9173
X10.6693Y-3.622
X10.6693Y-3.9173
X10.8406Y-4.5866
X10.8406Y-5.5315
X10.8413Y-6.8299
X10.8417Y-7.5811
X10.8425Y-4.7835
X10.8425Y-5.3327
X10.8425Y-6.0787
X10.8425Y-7.0469
X10.8429Y-7.7953
X10.8437Y-6.298
X11.098Y-6.0484
X11.0984Y-4.5492
X11.0988Y-6.7969
X11.1004Y-5.2972
X11.2366Y-6.0484
X11.2378Y-6.798
X11.2382Y-4.5492
X11.2382Y-5.2992
X11.3583Y-3.622
X11.3583Y-3.9173
X11.5551Y-3.622
X11.5551Y-3.9173
X11.5917Y-7.5811
X11.5921Y-6.0803
X11.5921Y-6.2996
X11.5921Y-6.8287
X11.5925Y-4.5866
X11.5925Y-4.7835
X11.5925Y-5.3327
X11.5929Y-7.7941
X11.5933Y-7.048
X11.5945Y-5.5295
X11.8476Y-6.7976
X11.8484Y-5.2992
X11.8524Y-4.5492
X11.9862Y-5.2992
X11.9866Y-6.7992
X11.9882Y-4.5492
X12.126Y-3.622
X12.126Y-3.9173
X12.2047Y-3.9173
X12.224Y-6.0496
X12.3417Y-4.7827
X12.3417Y-7.0469
X12.3417Y-7.7953
X12.3421Y-7.5815
X12.3425Y-4.5886
X12.3425Y-5.3346
X12.3425Y-5.5315
X12.3429Y-6.826
X12.3614Y-6.0484
X12.5984Y-5.2992
X12.5992Y-6.8004
X12.6004Y-4.5492
X12.7167Y-6.0829
X12.7181Y-6.2984
X12.7354Y-6.7992
X12.7362Y-4.5492
X12.7362Y-5.2972
X12.7953Y-3.9173
X12.9724Y-3.6614
X12.9724Y-3.9173
X13.0484Y-6.0496
X13.0906Y-5.5315
X13.0917Y-4.7827
X13.0917Y-6.8287
X13.0917Y-7.5803
X13.0917Y-7.7953
X13.0925Y-4.5886
X13.0925Y-5.3346
X13.0933Y-7.0469
X13.2677Y-5.8071
X13.2677Y-5.9055
X13.3504Y-4.5492
X13.3504Y-5.2992
X13.3524Y-6.7976
X13.4598Y-6.0496
X13.4858Y-6.7976
X13.4882Y-4.5492
X13.4882Y-5.2992
X13.565Y-6.8291
X13.5654Y-7.0469
X13.5689Y-6.0827
X13.5701Y-6.2972
X13.5736Y-5.3354
X13.574Y-4.5874
X13.5768Y-4.7815
X13.5768Y-5.5335
X13.8421Y-7.5819
X13.8421Y-7.7949
T2
X7.3409Y-3.4
X7.3409Y-3.5
X7.3409Y-3.6
X7.4409Y-3.4
X7.4409Y-3.5
X7.4409Y-3.6
X7.9Y-3.4
X7.9Y-3.5
X7.9Y-3.6
X8.0Y-3.4
X8.0Y-3.5
X8.0Y-3.6
T0
M30
