  0
SECTION
  2
HEADER
  9
$ACADVER
  1
AC1009
  9
$FILLMODE
 70
 0
  9
$SPLFRAME
 70
 1
  9
$EXTMIN
 10
0
 20
0
 30
0.0
  9
$EXTMAX
 10
1058.33
 20
1058.33
 30
0.0
  0
ENDSEC
  0
SECTION
  2
TABLES
  0
TABLE
  2
LAYER
 70
1
  0
LAYER
  2
0
 70
     0
 62
     7
  6
CONTINUOUS
  0
ENDTAB
  0
ENDSEC
  0
SECTION
  2
ENTITIES
  0
LINE
  8
0
 62
     0
 10
303.997
 20
125.846
 30
0.0
 11
304.152
 21
125.84
 31
0.0
  0
LINE
  8
0
 62
     0
 10
304.152
 20
125.84
 30
0.0
 11
304.308
 21
125.822
 31
0.0
  0
LINE
  8
0
 62
     0
 10
304.308
 20
125.822
 30
0.0
 11
304.462
 21
125.791
 31
0.0
  0
LINE
  8
0
 62
     0
 10
304.462
 20
125.791
 30
0.0
 11
304.614
 21
125.749
 31
0.0
  0
LINE
  8
0
 62
     0
 10
304.614
 20
125.749
 30
0.0
 11
304.762
 21
125.694
 31
0.0
  0
LINE
  8
0
 62
     0
 10
304.762
 20
125.694
 30
0.0
 11
304.903
 21
125.629
 31
0.0
  0
LINE
  8
0
 62
     0
 10
304.903
 20
125.629
 30
0.0
 11
305.041
 21
125.552
 31
0.0
  0
LINE
  8
0
 62
     0
 10
305.041
 20
125.552
 30
0.0
 11
305.172
 21
125.465
 31
0.0
  0
LINE
  8
0
 62
     0
 10
305.172
 20
125.465
 30
0.0
 11
305.295
 21
125.367
 31
0.0
  0
LINE
  8
0
 62
     0
 10
305.295
 20
125.367
 30
0.0
 11
305.41
 21
125.261
 31
0.0
  0
LINE
  8
0
 62
     0
 10
305.41
 20
125.261
 30
0.0
 11
305.516
 21
125.145
 31
0.0
  0
LINE
  8
0
 62
     0
 10
305.516
 20
125.145
 30
0.0
 11
305.615
 21
125.023
 31
0.0
  0
LINE
  8
0
 62
     0
 10
305.615
 20
125.023
 30
0.0
 11
305.701
 21
124.891
 31
0.0
  0
LINE
  8
0
 62
     0
 10
305.701
 20
124.891
 30
0.0
 11
305.778
 21
124.754
 31
0.0
  0
LINE
  8
0
 62
     0
 10
305.778
 20
124.754
 30
0.0
 11
305.843
 21
124.612
 31
0.0
  0
LINE
  8
0
 62
     0
 10
305.843
 20
124.612
 30
0.0
 11
305.898
 21
124.466
 31
0.0
  0
LINE
  8
0
 62
     0
 10
305.898
 20
124.466
 30
0.0
 11
305.941
 21
124.313
 31
0.0
  0
LINE
  8
0
 62
     0
 10
305.941
 20
124.313
 30
0.0
 11
305.971
 21
124.16
 31
0.0
  0
LINE
  8
0
 62
     0
 10
305.971
 20
124.16
 30
0.0
 11
305.989
 21
124.003
 31
0.0
  0
LINE
  8
0
 62
     0
 10
305.989
 20
124.003
 30
0.0
 11
305.996
 21
123.846
 31
0.0
  0
LINE
  8
0
 62
     0
 10
305.996
 20
123.846
 30
0.0
 11
305.996
 21
2.44602
 31
0.0
  0
LINE
  8
0
 62
     0
 10
305.996
 20
2.44602
 30
0.0
 11
305.989
 21
2.2903
 31
0.0
  0
LINE
  8
0
 62
     0
 10
305.989
 20
2.2903
 30
0.0
 11
305.971
 21
2.1332
 31
0.0
  0
LINE
  8
0
 62
     0
 10
305.971
 20
2.1332
 30
0.0
 11
305.941
 21
1.98024
 31
0.0
  0
LINE
  8
0
 62
     0
 10
305.941
 20
1.98024
 30
0.0
 11
305.898
 21
1.82728
 31
0.0
  0
LINE
  8
0
 62
     0
 10
305.898
 20
1.82728
 30
0.0
 11
305.843
 21
1.67983
 31
0.0
  0
LINE
  8
0
 62
     0
 10
305.843
 20
1.67983
 30
0.0
 11
305.778
 21
1.53789
 31
0.0
  0
LINE
  8
0
 62
     0
 10
305.778
 20
1.53789
 30
0.0
 11
305.701
 21
1.40147
 31
0.0
  0
LINE
  8
0
 62
     0
 10
305.701
 20
1.40147
 30
0.0
 11
305.615
 21
1.27055
 31
0.0
  0
LINE
  8
0
 62
     0
 10
305.615
 20
1.27055
 30
0.0
 11
305.516
 21
1.14653
 31
0.0
  0
LINE
  8
0
 62
     0
 10
305.516
 20
1.14653
 30
0.0
 11
305.41
 21
1.03077
 31
0.0
  0
LINE
  8
0
 62
     0
 10
305.41
 20
1.03077
 30
0.0
 11
305.295
 21
0.926042
 31
0.0
  0
LINE
  8
0
 62
     0
 10
305.295
 20
0.926042
 30
0.0
 11
305.172
 21
0.826823
 31
0.0
  0
LINE
  8
0
 62
     0
 10
305.172
 20
0.826823
 30
0.0
 11
305.041
 21
0.740008
 31
0.0
  0
LINE
  8
0
 62
     0
 10
305.041
 20
0.740008
 30
0.0
 11
304.903
 21
0.662838
 31
0.0
  0
LINE
  8
0
 62
     0
 10
304.903
 20
0.662838
 30
0.0
 11
304.762
 21
0.599447
 31
0.0
  0
LINE
  8
0
 62
     0
 10
304.762
 20
0.599447
 30
0.0
 11
304.614
 21
0.542946
 31
0.0
  0
LINE
  8
0
 62
     0
 10
304.614
 20
0.542946
 30
0.0
 11
304.462
 21
0.501608
 31
0.0
  0
LINE
  8
0
 62
     0
 10
304.462
 20
0.501608
 30
0.0
 11
304.308
 21
0.469911
 31
0.0
  0
LINE
  8
0
 62
     0
 10
304.308
 20
0.469911
 30
0.0
 11
304.152
 21
0.451997
 31
0.0
  0
LINE
  8
0
 62
     0
 10
304.152
 20
0.451997
 30
0.0
 11
303.995
 21
0.445107
 31
0.0
  0
LINE
  8
0
 62
     0
 10
303.995
 20
0.445107
 30
0.0
 11
2.096
 21
0.446486
 31
0.0
  0
LINE
  8
0
 62
     0
 10
2.096
 20
0.446486
 30
0.0
 11
1.9389
 21
0.451997
 31
0.0
  0
LINE
  8
0
 62
     0
 10
1.9389
 20
0.451997
 30
0.0
 11
1.7818
 21
0.469911
 31
0.0
  0
LINE
  8
0
 62
     0
 10
1.7818
 20
0.469911
 30
0.0
 11
1.62884
 21
0.501608
 31
0.0
  0
LINE
  8
0
 62
     0
 10
1.62884
 20
0.501608
 30
0.0
 11
1.47588
 21
0.542946
 31
0.0
  0
LINE
  8
0
 62
     0
 10
1.47588
 20
0.542946
 30
0.0
 11
1.32981
 21
0.599447
 31
0.0
  0
LINE
  8
0
 62
     0
 10
1.32981
 20
0.599447
 30
0.0
 11
1.18787
 21
0.662838
 31
0.0
  0
LINE
  8
0
 62
     0
 10
1.18787
 20
0.662838
 30
0.0
 11
1.05006
 21
0.740008
 31
0.0
  0
LINE
  8
0
 62
     0
 10
1.05006
 20
0.740008
 30
0.0
 11
0.919152
 21
0.826823
 31
0.0
  0
LINE
  8
0
 62
     0
 10
0.919152
 20
0.826823
 30
0.0
 11
0.796505
 21
0.926042
 31
0.0
  0
LINE
  8
0
 62
     0
 10
0.796505
 20
0.926042
 30
0.0
 11
0.680752
 21
1.03077
 31
0.0
  0
LINE
  8
0
 62
     0
 10
0.680752
 20
1.03077
 30
0.0
 11
0.574643
 21
1.14653
 31
0.0
  0
LINE
  8
0
 62
     0
 10
0.574643
 20
1.14653
 30
0.0
 11
0.4768
 21
1.27055
 31
0.0
  0
LINE
  8
0
 62
     0
 10
0.4768
 20
1.27055
 30
0.0
 11
0.389985
 21
1.40147
 31
0.0
  0
LINE
  8
0
 62
     0
 10
0.389985
 20
1.40147
 30
0.0
 11
0.312815
 21
1.53789
 31
0.0
  0
LINE
  8
0
 62
     0
 10
0.312815
 20
1.53789
 30
0.0
 11
0.248047
 21
1.67983
 31
0.0
  0
LINE
  8
0
 62
     0
 10
0.248047
 20
1.67983
 30
0.0
 11
0.192925
 21
1.82728
 31
0.0
  0
LINE
  8
0
 62
     0
 10
0.192925
 20
1.82728
 30
0.0
 11
0.150206
 21
1.98024
 31
0.0
  0
LINE
  8
0
 62
     0
 10
0.150206
 20
1.98024
 30
0.0
 11
0.119889
 21
2.1332
 31
0.0
  0
LINE
  8
0
 62
     0
 10
0.119889
 20
2.1332
 30
0.0
 11
0.101975
 21
2.2903
 31
0.0
  0
LINE
  8
0
 62
     0
 10
0.101975
 20
2.2903
 30
0.0
 11
0.0950846
 21
2.44602
 31
0.0
  0
LINE
  8
0
 62
     0
 10
0.0950846
 20
2.44602
 30
0.0
 11
0.0950846
 21
123.846
 31
0.0
  0
LINE
  8
0
 62
     0
 10
0.0950846
 20
123.846
 30
0.0
 11
0.101975
 21
124.003
 31
0.0
  0
LINE
  8
0
 62
     0
 10
0.101975
 20
124.003
 30
0.0
 11
0.119889
 21
124.16
 31
0.0
  0
LINE
  8
0
 62
     0
 10
0.119889
 20
124.16
 30
0.0
 11
0.150206
 21
124.313
 31
0.0
  0
LINE
  8
0
 62
     0
 10
0.150206
 20
124.313
 30
0.0
 11
0.192925
 21
124.466
 31
0.0
  0
LINE
  8
0
 62
     0
 10
0.192925
 20
124.466
 30
0.0
 11
0.248047
 21
124.612
 31
0.0
  0
LINE
  8
0
 62
     0
 10
0.248047
 20
124.612
 30
0.0
 11
0.312815
 21
124.754
 31
0.0
  0
LINE
  8
0
 62
     0
 10
0.312815
 20
124.754
 30
0.0
 11
0.389985
 21
124.891
 31
0.0
  0
LINE
  8
0
 62
     0
 10
0.389985
 20
124.891
 30
0.0
 11
0.4768
 21
125.023
 31
0.0
  0
LINE
  8
0
 62
     0
 10
0.4768
 20
125.023
 30
0.0
 11
0.574643
 21
125.145
 31
0.0
  0
LINE
  8
0
 62
     0
 10
0.574643
 20
125.145
 30
0.0
 11
0.680752
 21
125.261
 31
0.0
  0
LINE
  8
0
 62
     0
 10
0.680752
 20
125.261
 30
0.0
 11
0.796505
 21
125.367
 31
0.0
  0
LINE
  8
0
 62
     0
 10
0.796505
 20
125.367
 30
0.0
 11
0.919152
 21
125.465
 31
0.0
  0
LINE
  8
0
 62
     0
 10
0.919152
 20
125.465
 30
0.0
 11
1.05006
 21
125.552
 31
0.0
  0
LINE
  8
0
 62
     0
 10
1.05006
 20
125.552
 30
0.0
 11
1.18787
 21
125.629
 31
0.0
  0
LINE
  8
0
 62
     0
 10
1.18787
 20
125.629
 30
0.0
 11
1.32981
 21
125.694
 31
0.0
  0
LINE
  8
0
 62
     0
 10
1.32981
 20
125.694
 30
0.0
 11
1.47588
 21
125.749
 31
0.0
  0
LINE
  8
0
 62
     0
 10
1.47588
 20
125.749
 30
0.0
 11
1.62884
 21
125.791
 31
0.0
  0
LINE
  8
0
 62
     0
 10
1.62884
 20
125.791
 30
0.0
 11
1.7818
 21
125.822
 31
0.0
  0
LINE
  8
0
 62
     0
 10
1.7818
 20
125.822
 30
0.0
 11
1.9389
 21
125.84
 31
0.0
  0
LINE
  8
0
 62
     0
 10
1.9389
 20
125.84
 30
0.0
 11
2.096
 21
125.846
 31
0.0
  0
LINE
  8
0
 62
     0
 10
2.096
 20
125.846
 30
0.0
 11
303.997
 21
125.846
 31
0.0
  0
LINE
  8
0
 62
     0
 10
300.635
 20
6.3996
 30
0.0
 11
300.378
 21
6.26869
 31
0.0
  0
LINE
  8
0
 62
     0
 10
300.378
 20
6.26869
 30
0.0
 11
300.173
 21
6.06474
 31
0.0
  0
LINE
  8
0
 62
     0
 10
300.173
 20
6.06474
 30
0.0
 11
300.042
 21
5.80566
 31
0.0
  0
LINE
  8
0
 62
     0
 10
300.042
 20
5.80566
 30
0.0
 11
299.996
 21
5.52041
 31
0.0
  0
LINE
  8
0
 62
     0
 10
299.996
 20
5.52041
 30
0.0
 11
300.042
 21
5.23515
 31
0.0
  0
LINE
  8
0
 62
     0
 10
300.042
 20
5.23515
 30
0.0
 11
300.173
 21
4.97748
 31
0.0
  0
LINE
  8
0
 62
     0
 10
300.173
 20
4.97748
 30
0.0
 11
300.378
 21
4.77213
 31
0.0
  0
LINE
  8
0
 62
     0
 10
300.378
 20
4.77213
 30
0.0
 11
300.635
 21
4.64125
 31
0.0
  0
LINE
  8
0
 62
     0
 10
300.635
 20
4.64125
 30
0.0
 11
300.921
 21
4.59574
 31
0.0
  0
LINE
  8
0
 62
     0
 10
300.921
 20
4.59574
 30
0.0
 11
301.206
 21
4.64125
 31
0.0
  0
LINE
  8
0
 62
     0
 10
301.206
 20
4.64125
 30
0.0
 11
301.465
 21
4.77213
 31
0.0
  0
LINE
  8
0
 62
     0
 10
301.465
 20
4.77213
 30
0.0
 11
301.669
 21
4.97748
 31
0.0
  0
LINE
  8
0
 62
     0
 10
301.669
 20
4.97748
 30
0.0
 11
301.8
 21
5.23515
 31
0.0
  0
LINE
  8
0
 62
     0
 10
301.8
 20
5.23515
 30
0.0
 11
301.847
 21
5.52041
 31
0.0
  0
LINE
  8
0
 62
     0
 10
301.847
 20
5.52041
 30
0.0
 11
301.8
 21
5.80566
 31
0.0
  0
LINE
  8
0
 62
     0
 10
301.8
 20
5.80566
 30
0.0
 11
301.669
 21
6.06474
 31
0.0
  0
LINE
  8
0
 62
     0
 10
301.669
 20
6.06474
 30
0.0
 11
301.465
 21
6.26869
 31
0.0
  0
LINE
  8
0
 62
     0
 10
301.465
 20
6.26869
 30
0.0
 11
301.206
 21
6.3996
 31
0.0
  0
LINE
  8
0
 62
     0
 10
301.206
 20
6.3996
 30
0.0
 11
300.921
 21
6.44645
 31
0.0
  0
LINE
  8
0
 62
     0
 10
300.921
 20
6.44645
 30
0.0
 11
300.635
 21
6.3996
 31
0.0
  0
LINE
  8
0
 62
     0
 10
202.052
 20
6.3996
 30
0.0
 11
201.793
 21
6.26869
 31
0.0
  0
LINE
  8
0
 62
     0
 10
201.793
 20
6.26869
 30
0.0
 11
201.589
 21
6.06474
 31
0.0
  0
LINE
  8
0
 62
     0
 10
201.589
 20
6.06474
 30
0.0
 11
201.458
 21
5.80566
 31
0.0
  0
LINE
  8
0
 62
     0
 10
201.458
 20
5.80566
 30
0.0
 11
201.413
 21
5.52041
 31
0.0
  0
LINE
  8
0
 62
     0
 10
201.413
 20
5.52041
 30
0.0
 11
201.458
 21
5.23515
 31
0.0
  0
LINE
  8
0
 62
     0
 10
201.458
 20
5.23515
 30
0.0
 11
201.589
 21
4.97748
 31
0.0
  0
LINE
  8
0
 62
     0
 10
201.589
 20
4.97748
 30
0.0
 11
201.793
 21
4.77213
 31
0.0
  0
LINE
  8
0
 62
     0
 10
201.793
 20
4.77213
 30
0.0
 11
202.052
 21
4.64125
 31
0.0
  0
LINE
  8
0
 62
     0
 10
202.052
 20
4.64125
 30
0.0
 11
202.337
 21
4.59574
 31
0.0
  0
LINE
  8
0
 62
     0
 10
202.337
 20
4.59574
 30
0.0
 11
202.624
 21
4.64125
 31
0.0
  0
LINE
  8
0
 62
     0
 10
202.624
 20
4.64125
 30
0.0
 11
202.882
 21
4.77213
 31
0.0
  0
LINE
  8
0
 62
     0
 10
202.882
 20
4.77213
 30
0.0
 11
203.086
 21
4.97748
 31
0.0
  0
LINE
  8
0
 62
     0
 10
203.086
 20
4.97748
 30
0.0
 11
203.218
 21
5.23515
 31
0.0
  0
LINE
  8
0
 62
     0
 10
203.218
 20
5.23515
 30
0.0
 11
203.262
 21
5.52041
 31
0.0
  0
LINE
  8
0
 62
     0
 10
203.262
 20
5.52041
 30
0.0
 11
203.218
 21
5.80566
 31
0.0
  0
LINE
  8
0
 62
     0
 10
203.218
 20
5.80566
 30
0.0
 11
203.086
 21
6.06474
 31
0.0
  0
LINE
  8
0
 62
     0
 10
203.086
 20
6.06474
 30
0.0
 11
202.882
 21
6.26869
 31
0.0
  0
LINE
  8
0
 62
     0
 10
202.882
 20
6.26869
 30
0.0
 11
202.624
 21
6.3996
 31
0.0
  0
LINE
  8
0
 62
     0
 10
202.624
 20
6.3996
 30
0.0
 11
202.337
 21
6.44645
 31
0.0
  0
LINE
  8
0
 62
     0
 10
202.337
 20
6.44645
 30
0.0
 11
202.052
 21
6.3996
 31
0.0
  0
LINE
  8
0
 62
     0
 10
103.467
 20
6.3996
 30
0.0
 11
103.21
 21
6.26869
 31
0.0
  0
LINE
  8
0
 62
     0
 10
103.21
 20
6.26869
 30
0.0
 11
103.005
 21
6.06474
 31
0.0
  0
LINE
  8
0
 62
     0
 10
103.005
 20
6.06474
 30
0.0
 11
102.873
 21
5.80566
 31
0.0
  0
LINE
  8
0
 62
     0
 10
102.873
 20
5.80566
 30
0.0
 11
102.828
 21
5.52041
 31
0.0
  0
LINE
  8
0
 62
     0
 10
102.828
 20
5.52041
 30
0.0
 11
102.873
 21
5.23515
 31
0.0
  0
LINE
  8
0
 62
     0
 10
102.873
 20
5.23515
 30
0.0
 11
103.005
 21
4.97748
 31
0.0
  0
LINE
  8
0
 62
     0
 10
103.005
 20
4.97748
 30
0.0
 11
103.21
 21
4.77213
 31
0.0
  0
LINE
  8
0
 62
     0
 10
103.21
 20
4.77213
 30
0.0
 11
103.467
 21
4.64125
 31
0.0
  0
LINE
  8
0
 62
     0
 10
103.467
 20
4.64125
 30
0.0
 11
103.754
 21
4.59574
 31
0.0
  0
LINE
  8
0
 62
     0
 10
103.754
 20
4.59574
 30
0.0
 11
104.039
 21
4.64125
 31
0.0
  0
LINE
  8
0
 62
     0
 10
104.039
 20
4.64125
 30
0.0
 11
104.297
 21
4.77213
 31
0.0
  0
LINE
  8
0
 62
     0
 10
104.297
 20
4.77213
 30
0.0
 11
104.502
 21
4.97748
 31
0.0
  0
LINE
  8
0
 62
     0
 10
104.502
 20
4.97748
 30
0.0
 11
104.633
 21
5.23515
 31
0.0
  0
LINE
  8
0
 62
     0
 10
104.633
 20
5.23515
 30
0.0
 11
104.679
 21
5.52041
 31
0.0
  0
LINE
  8
0
 62
     0
 10
104.679
 20
5.52041
 30
0.0
 11
104.633
 21
5.80566
 31
0.0
  0
LINE
  8
0
 62
     0
 10
104.633
 20
5.80566
 30
0.0
 11
104.502
 21
6.06474
 31
0.0
  0
LINE
  8
0
 62
     0
 10
104.502
 20
6.06474
 30
0.0
 11
104.297
 21
6.26869
 31
0.0
  0
LINE
  8
0
 62
     0
 10
104.297
 20
6.26869
 30
0.0
 11
104.039
 21
6.3996
 31
0.0
  0
LINE
  8
0
 62
     0
 10
104.039
 20
6.3996
 30
0.0
 11
103.754
 21
6.44645
 31
0.0
  0
LINE
  8
0
 62
     0
 10
103.754
 20
6.44645
 30
0.0
 11
103.467
 21
6.3996
 31
0.0
  0
LINE
  8
0
 62
     0
 10
4.88516
 20
6.3996
 30
0.0
 11
4.62608
 21
6.26869
 31
0.0
  0
LINE
  8
0
 62
     0
 10
4.62608
 20
6.26869
 30
0.0
 11
4.42214
 21
6.06474
 31
0.0
  0
LINE
  8
0
 62
     0
 10
4.42214
 20
6.06474
 30
0.0
 11
4.28985
 21
5.80566
 31
0.0
  0
LINE
  8
0
 62
     0
 10
4.28985
 20
5.80566
 30
0.0
 11
4.24575
 21
5.52041
 31
0.0
  0
LINE
  8
0
 62
     0
 10
4.24575
 20
5.52041
 30
0.0
 11
4.28985
 21
5.23515
 31
0.0
  0
LINE
  8
0
 62
     0
 10
4.28985
 20
5.23515
 30
0.0
 11
4.42214
 21
4.97748
 31
0.0
  0
LINE
  8
0
 62
     0
 10
4.42214
 20
4.97748
 30
0.0
 11
4.62608
 21
4.77213
 31
0.0
  0
LINE
  8
0
 62
     0
 10
4.62608
 20
4.77213
 30
0.0
 11
4.88516
 21
4.64125
 31
0.0
  0
LINE
  8
0
 62
     0
 10
4.88516
 20
4.64125
 30
0.0
 11
5.17042
 21
4.59574
 31
0.0
  0
LINE
  8
0
 62
     0
 10
5.17042
 20
4.59574
 30
0.0
 11
5.45564
 21
4.64125
 31
0.0
  0
LINE
  8
0
 62
     0
 10
5.45564
 20
4.64125
 30
0.0
 11
5.71334
 21
4.77213
 31
0.0
  0
LINE
  8
0
 62
     0
 10
5.71334
 20
4.77213
 30
0.0
 11
5.91866
 21
4.97748
 31
0.0
  0
LINE
  8
0
 62
     0
 10
5.91866
 20
4.97748
 30
0.0
 11
6.04957
 21
5.23515
 31
0.0
  0
LINE
  8
0
 62
     0
 10
6.04957
 20
5.23515
 30
0.0
 11
6.09505
 21
5.52041
 31
0.0
  0
LINE
  8
0
 62
     0
 10
6.09505
 20
5.52041
 30
0.0
 11
6.04957
 21
5.80566
 31
0.0
  0
LINE
  8
0
 62
     0
 10
6.04957
 20
5.80566
 30
0.0
 11
5.91866
 21
6.06474
 31
0.0
  0
LINE
  8
0
 62
     0
 10
5.91866
 20
6.06474
 30
0.0
 11
5.71334
 21
6.26869
 31
0.0
  0
LINE
  8
0
 62
     0
 10
5.71334
 20
6.26869
 30
0.0
 11
5.45564
 21
6.3996
 31
0.0
  0
LINE
  8
0
 62
     0
 10
5.45564
 20
6.3996
 30
0.0
 11
5.17042
 21
6.44645
 31
0.0
  0
LINE
  8
0
 62
     0
 10
5.17042
 20
6.44645
 30
0.0
 11
4.88516
 21
6.3996
 31
0.0
  0
LINE
  8
0
 62
     0
 10
98.4952
 20
26.971
 30
0.0
 11
98.4952
 21
25.9705
 31
0.0
  0
LINE
  8
0
 62
     0
 10
98.4952
 20
25.9705
 30
0.0
 11
97.6962
 21
25.9705
 31
0.0
  0
LINE
  8
0
 62
     0
 10
97.6962
 20
25.9705
 30
0.0
 11
97.6962
 21
23.0215
 31
0.0
  0
LINE
  8
0
 62
     0
 10
97.6962
 20
23.0215
 30
0.0
 11
98.4952
 21
23.0215
 31
0.0
  0
LINE
  8
0
 62
     0
 10
98.4952
 20
23.0215
 30
0.0
 11
98.4952
 21
22.2718
 31
0.0
  0
LINE
  8
0
 62
     0
 10
98.4952
 20
22.2718
 30
0.0
 11
96.8209
 21
22.2718
 31
0.0
  0
LINE
  8
0
 62
     0
 10
96.8209
 20
22.2718
 30
0.0
 11
96.8209
 21
25.5006
 31
0.0
  0
LINE
  8
0
 62
     0
 10
96.8209
 20
25.5006
 30
0.0
 11
90.2201
 21
25.5006
 31
0.0
  0
LINE
  8
0
 62
     0
 10
90.2201
 20
25.5006
 30
0.0
 11
90.2201
 21
22.2718
 31
0.0
  0
LINE
  8
0
 62
     0
 10
90.2201
 20
22.2718
 30
0.0
 11
89.396
 21
22.2718
 31
0.0
  0
LINE
  8
0
 62
     0
 10
89.396
 20
22.2718
 30
0.0
 11
89.396
 21
19.6205
 31
0.0
  0
LINE
  8
0
 62
     0
 10
89.396
 20
19.6205
 30
0.0
 11
90.2201
 21
19.6205
 31
0.0
  0
LINE
  8
0
 62
     0
 10
90.2201
 20
19.6205
 30
0.0
 11
90.2201
 21
13.3518
 31
0.0
  0
LINE
  8
0
 62
     0
 10
90.2201
 20
13.3518
 30
0.0
 11
91.9455
 21
13.3518
 31
0.0
  0
LINE
  8
0
 62
     0
 10
91.9455
 20
13.3518
 30
0.0
 11
91.9455
 21
12.1515
 31
0.0
  0
LINE
  8
0
 62
     0
 10
91.9455
 20
12.1515
 30
0.0
 11
95.0958
 21
12.1515
 31
0.0
  0
LINE
  8
0
 62
     0
 10
95.0958
 20
12.1515
 30
0.0
 11
95.0958
 21
13.3518
 31
0.0
  0
LINE
  8
0
 62
     0
 10
95.0958
 20
13.3518
 30
0.0
 11
96.8209
 21
13.3518
 31
0.0
  0
LINE
  8
0
 62
     0
 10
96.8209
 20
13.3518
 30
0.0
 11
96.8209
 21
17.8222
 31
0.0
  0
LINE
  8
0
 62
     0
 10
96.8209
 20
17.8222
 30
0.0
 11
98.4952
 21
17.8222
 31
0.0
  0
LINE
  8
0
 62
     0
 10
98.4952
 20
17.8222
 30
0.0
 11
98.4952
 21
17.0725
 31
0.0
  0
LINE
  8
0
 62
     0
 10
98.4952
 20
17.0725
 30
0.0
 11
97.6962
 21
17.0725
 31
0.0
  0
LINE
  8
0
 62
     0
 10
97.6962
 20
17.0725
 30
0.0
 11
97.6962
 21
14.1207
 31
0.0
  0
LINE
  8
0
 62
     0
 10
97.6962
 20
14.1207
 30
0.0
 11
98.4952
 21
14.1207
 31
0.0
  0
LINE
  8
0
 62
     0
 10
98.4952
 20
14.1207
 30
0.0
 11
98.4952
 21
13.1217
 31
0.0
  0
LINE
  8
0
 62
     0
 10
98.4952
 20
13.1217
 30
0.0
 11
112.346
 21
13.1217
 31
0.0
  0
LINE
  8
0
 62
     0
 10
112.346
 20
13.1217
 30
0.0
 11
112.346
 21
14.1207
 31
0.0
  0
LINE
  8
0
 62
     0
 10
112.346
 20
14.1207
 30
0.0
 11
113.145
 21
14.1207
 31
0.0
  0
LINE
  8
0
 62
     0
 10
113.145
 20
14.1207
 30
0.0
 11
113.145
 21
17.0725
 31
0.0
  0
LINE
  8
0
 62
     0
 10
113.145
 20
17.0725
 30
0.0
 11
112.346
 21
17.0725
 31
0.0
  0
LINE
  8
0
 62
     0
 10
112.346
 20
17.0725
 30
0.0
 11
112.346
 21
17.8222
 31
0.0
  0
LINE
  8
0
 62
     0
 10
112.346
 20
17.8222
 30
0.0
 11
114.02
 21
17.8222
 31
0.0
  0
LINE
  8
0
 62
     0
 10
114.02
 20
17.8222
 30
0.0
 11
114.02
 21
13.3518
 31
0.0
  0
LINE
  8
0
 62
     0
 10
114.02
 20
13.3518
 30
0.0
 11
115.746
 21
13.3518
 31
0.0
  0
LINE
  8
0
 62
     0
 10
115.746
 20
13.3518
 30
0.0
 11
115.746
 21
12.1515
 31
0.0
  0
LINE
  8
0
 62
     0
 10
115.746
 20
12.1515
 30
0.0
 11
118.896
 21
12.1515
 31
0.0
  0
LINE
  8
0
 62
     0
 10
118.896
 20
12.1515
 30
0.0
 11
118.896
 21
13.3518
 31
0.0
  0
LINE
  8
0
 62
     0
 10
118.896
 20
13.3518
 30
0.0
 11
120.621
 21
13.3518
 31
0.0
  0
LINE
  8
0
 62
     0
 10
120.621
 20
13.3518
 30
0.0
 11
120.621
 21
19.6205
 31
0.0
  0
LINE
  8
0
 62
     0
 10
120.621
 20
19.6205
 30
0.0
 11
121.445
 21
19.6205
 31
0.0
  0
LINE
  8
0
 62
     0
 10
121.445
 20
19.6205
 30
0.0
 11
121.445
 21
22.2718
 31
0.0
  0
LINE
  8
0
 62
     0
 10
121.445
 20
22.2718
 30
0.0
 11
120.621
 21
22.2718
 31
0.0
  0
LINE
  8
0
 62
     0
 10
120.621
 20
22.2718
 30
0.0
 11
120.621
 21
25.5006
 31
0.0
  0
LINE
  8
0
 62
     0
 10
120.621
 20
25.5006
 30
0.0
 11
114.02
 21
25.5006
 31
0.0
  0
LINE
  8
0
 62
     0
 10
114.02
 20
25.5006
 30
0.0
 11
114.02
 21
22.2718
 31
0.0
  0
LINE
  8
0
 62
     0
 10
114.02
 20
22.2718
 30
0.0
 11
112.346
 21
22.2718
 31
0.0
  0
LINE
  8
0
 62
     0
 10
112.346
 20
22.2718
 30
0.0
 11
112.346
 21
23.0215
 31
0.0
  0
LINE
  8
0
 62
     0
 10
112.346
 20
23.0215
 30
0.0
 11
113.145
 21
23.0215
 31
0.0
  0
LINE
  8
0
 62
     0
 10
113.145
 20
23.0215
 30
0.0
 11
113.145
 21
25.9705
 31
0.0
  0
LINE
  8
0
 62
     0
 10
113.145
 20
25.9705
 30
0.0
 11
112.346
 21
25.9705
 31
0.0
  0
LINE
  8
0
 62
     0
 10
112.346
 20
25.9705
 30
0.0
 11
112.346
 21
26.971
 31
0.0
  0
LINE
  8
0
 62
     0
 10
112.346
 20
26.971
 30
0.0
 11
98.4952
 21
26.971
 31
0.0
  0
LINE
  8
0
 62
     0
 10
136.595
 20
26.971
 30
0.0
 11
136.595
 21
25.9705
 31
0.0
  0
LINE
  8
0
 62
     0
 10
136.595
 20
25.9705
 30
0.0
 11
135.796
 21
25.9705
 31
0.0
  0
LINE
  8
0
 62
     0
 10
135.796
 20
25.9705
 30
0.0
 11
135.796
 21
23.0215
 31
0.0
  0
LINE
  8
0
 62
     0
 10
135.796
 20
23.0215
 30
0.0
 11
136.595
 21
23.0215
 31
0.0
  0
LINE
  8
0
 62
     0
 10
136.595
 20
23.0215
 30
0.0
 11
136.595
 21
22.2718
 31
0.0
  0
LINE
  8
0
 62
     0
 10
136.595
 20
22.2718
 30
0.0
 11
134.921
 21
22.2718
 31
0.0
  0
LINE
  8
0
 62
     0
 10
134.921
 20
22.2718
 30
0.0
 11
134.921
 21
25.5006
 31
0.0
  0
LINE
  8
0
 62
     0
 10
134.921
 20
25.5006
 30
0.0
 11
128.32
 21
25.5006
 31
0.0
  0
LINE
  8
0
 62
     0
 10
128.32
 20
25.5006
 30
0.0
 11
128.32
 21
22.2718
 31
0.0
  0
LINE
  8
0
 62
     0
 10
128.32
 20
22.2718
 30
0.0
 11
127.496
 21
22.2718
 31
0.0
  0
LINE
  8
0
 62
     0
 10
127.496
 20
22.2718
 30
0.0
 11
127.496
 21
19.6205
 31
0.0
  0
LINE
  8
0
 62
     0
 10
127.496
 20
19.6205
 30
0.0
 11
128.32
 21
19.6205
 31
0.0
  0
LINE
  8
0
 62
     0
 10
128.32
 20
19.6205
 30
0.0
 11
128.32
 21
13.3518
 31
0.0
  0
LINE
  8
0
 62
     0
 10
128.32
 20
13.3518
 30
0.0
 11
130.046
 21
13.3518
 31
0.0
  0
LINE
  8
0
 62
     0
 10
130.046
 20
13.3518
 30
0.0
 11
130.046
 21
12.1515
 31
0.0
  0
LINE
  8
0
 62
     0
 10
130.046
 20
12.1515
 30
0.0
 11
133.196
 21
12.1515
 31
0.0
  0
LINE
  8
0
 62
     0
 10
133.196
 20
12.1515
 30
0.0
 11
133.196
 21
13.3518
 31
0.0
  0
LINE
  8
0
 62
     0
 10
133.196
 20
13.3518
 30
0.0
 11
134.921
 21
13.3518
 31
0.0
  0
LINE
  8
0
 62
     0
 10
134.921
 20
13.3518
 30
0.0
 11
134.921
 21
17.8222
 31
0.0
  0
LINE
  8
0
 62
     0
 10
134.921
 20
17.8222
 30
0.0
 11
136.595
 21
17.8222
 31
0.0
  0
LINE
  8
0
 62
     0
 10
136.595
 20
17.8222
 30
0.0
 11
136.595
 21
17.0725
 31
0.0
  0
LINE
  8
0
 62
     0
 10
136.595
 20
17.0725
 30
0.0
 11
135.796
 21
17.0725
 31
0.0
  0
LINE
  8
0
 62
     0
 10
135.796
 20
17.0725
 30
0.0
 11
135.796
 21
14.1207
 31
0.0
  0
LINE
  8
0
 62
     0
 10
135.796
 20
14.1207
 30
0.0
 11
136.595
 21
14.1207
 31
0.0
  0
LINE
  8
0
 62
     0
 10
136.595
 20
14.1207
 30
0.0
 11
136.595
 21
13.1217
 31
0.0
  0
LINE
  8
0
 62
     0
 10
136.595
 20
13.1217
 30
0.0
 11
150.446
 21
13.1217
 31
0.0
  0
LINE
  8
0
 62
     0
 10
150.446
 20
13.1217
 30
0.0
 11
150.446
 21
14.1207
 31
0.0
  0
LINE
  8
0
 62
     0
 10
150.446
 20
14.1207
 30
0.0
 11
151.245
 21
14.1207
 31
0.0
  0
LINE
  8
0
 62
     0
 10
151.245
 20
14.1207
 30
0.0
 11
151.245
 21
17.0725
 31
0.0
  0
LINE
  8
0
 62
     0
 10
151.245
 20
17.0725
 30
0.0
 11
150.446
 21
17.0725
 31
0.0
  0
LINE
  8
0
 62
     0
 10
150.446
 20
17.0725
 30
0.0
 11
150.446
 21
17.8222
 31
0.0
  0
LINE
  8
0
 62
     0
 10
150.446
 20
17.8222
 30
0.0
 11
152.12
 21
17.8222
 31
0.0
  0
LINE
  8
0
 62
     0
 10
152.12
 20
17.8222
 30
0.0
 11
152.12
 21
13.3518
 31
0.0
  0
LINE
  8
0
 62
     0
 10
152.12
 20
13.3518
 30
0.0
 11
153.846
 21
13.3518
 31
0.0
  0
LINE
  8
0
 62
     0
 10
153.846
 20
13.3518
 30
0.0
 11
153.846
 21
12.1515
 31
0.0
  0
LINE
  8
0
 62
     0
 10
153.846
 20
12.1515
 30
0.0
 11
156.996
 21
12.1515
 31
0.0
  0
LINE
  8
0
 62
     0
 10
156.996
 20
12.1515
 30
0.0
 11
156.996
 21
13.3518
 31
0.0
  0
LINE
  8
0
 62
     0
 10
156.996
 20
13.3518
 30
0.0
 11
158.721
 21
13.3518
 31
0.0
  0
LINE
  8
0
 62
     0
 10
158.721
 20
13.3518
 30
0.0
 11
158.721
 21
19.6205
 31
0.0
  0
LINE
  8
0
 62
     0
 10
158.721
 20
19.6205
 30
0.0
 11
159.545
 21
19.6205
 31
0.0
  0
LINE
  8
0
 62
     0
 10
159.545
 20
19.6205
 30
0.0
 11
159.545
 21
22.2718
 31
0.0
  0
LINE
  8
0
 62
     0
 10
159.545
 20
22.2718
 30
0.0
 11
158.721
 21
22.2718
 31
0.0
  0
LINE
  8
0
 62
     0
 10
158.721
 20
22.2718
 30
0.0
 11
158.721
 21
25.5006
 31
0.0
  0
LINE
  8
0
 62
     0
 10
158.721
 20
25.5006
 30
0.0
 11
152.12
 21
25.5006
 31
0.0
  0
LINE
  8
0
 62
     0
 10
152.12
 20
25.5006
 30
0.0
 11
152.12
 21
22.2718
 31
0.0
  0
LINE
  8
0
 62
     0
 10
152.12
 20
22.2718
 30
0.0
 11
150.446
 21
22.2718
 31
0.0
  0
LINE
  8
0
 62
     0
 10
150.446
 20
22.2718
 30
0.0
 11
150.446
 21
23.0215
 31
0.0
  0
LINE
  8
0
 62
     0
 10
150.446
 20
23.0215
 30
0.0
 11
151.245
 21
23.0215
 31
0.0
  0
LINE
  8
0
 62
     0
 10
151.245
 20
23.0215
 30
0.0
 11
151.245
 21
25.9705
 31
0.0
  0
LINE
  8
0
 62
     0
 10
151.245
 20
25.9705
 30
0.0
 11
150.446
 21
25.9705
 31
0.0
  0
LINE
  8
0
 62
     0
 10
150.446
 20
25.9705
 30
0.0
 11
150.446
 21
26.971
 31
0.0
  0
LINE
  8
0
 62
     0
 10
150.446
 20
26.971
 30
0.0
 11
136.595
 21
26.971
 31
0.0
  0
LINE
  8
0
 62
     0
 10
174.695
 20
26.971
 30
0.0
 11
174.695
 21
25.9705
 31
0.0
  0
LINE
  8
0
 62
     0
 10
174.695
 20
25.9705
 30
0.0
 11
173.896
 21
25.9705
 31
0.0
  0
LINE
  8
0
 62
     0
 10
173.896
 20
25.9705
 30
0.0
 11
173.896
 21
23.0215
 31
0.0
  0
LINE
  8
0
 62
     0
 10
173.896
 20
23.0215
 30
0.0
 11
174.695
 21
23.0215
 31
0.0
  0
LINE
  8
0
 62
     0
 10
174.695
 20
23.0215
 30
0.0
 11
174.695
 21
22.2718
 31
0.0
  0
LINE
  8
0
 62
     0
 10
174.695
 20
22.2718
 30
0.0
 11
173.021
 21
22.2718
 31
0.0
  0
LINE
  8
0
 62
     0
 10
173.021
 20
22.2718
 30
0.0
 11
173.021
 21
25.5006
 31
0.0
  0
LINE
  8
0
 62
     0
 10
173.021
 20
25.5006
 30
0.0
 11
166.42
 21
25.5006
 31
0.0
  0
LINE
  8
0
 62
     0
 10
166.42
 20
25.5006
 30
0.0
 11
166.42
 21
22.2718
 31
0.0
  0
LINE
  8
0
 62
     0
 10
166.42
 20
22.2718
 30
0.0
 11
165.596
 21
22.2718
 31
0.0
  0
LINE
  8
0
 62
     0
 10
165.596
 20
22.2718
 30
0.0
 11
165.596
 21
19.6205
 31
0.0
  0
LINE
  8
0
 62
     0
 10
165.596
 20
19.6205
 30
0.0
 11
166.42
 21
19.6205
 31
0.0
  0
LINE
  8
0
 62
     0
 10
166.42
 20
19.6205
 30
0.0
 11
166.42
 21
13.3518
 31
0.0
  0
LINE
  8
0
 62
     0
 10
166.42
 20
13.3518
 30
0.0
 11
168.146
 21
13.3518
 31
0.0
  0
LINE
  8
0
 62
     0
 10
168.146
 20
13.3518
 30
0.0
 11
168.146
 21
12.1515
 31
0.0
  0
LINE
  8
0
 62
     0
 10
168.146
 20
12.1515
 30
0.0
 11
171.296
 21
12.1515
 31
0.0
  0
LINE
  8
0
 62
     0
 10
171.296
 20
12.1515
 30
0.0
 11
171.296
 21
13.3518
 31
0.0
  0
LINE
  8
0
 62
     0
 10
171.296
 20
13.3518
 30
0.0
 11
173.021
 21
13.3518
 31
0.0
  0
LINE
  8
0
 62
     0
 10
173.021
 20
13.3518
 30
0.0
 11
173.021
 21
17.8222
 31
0.0
  0
LINE
  8
0
 62
     0
 10
173.021
 20
17.8222
 30
0.0
 11
174.695
 21
17.8222
 31
0.0
  0
LINE
  8
0
 62
     0
 10
174.695
 20
17.8222
 30
0.0
 11
174.695
 21
17.0725
 31
0.0
  0
LINE
  8
0
 62
     0
 10
174.695
 20
17.0725
 30
0.0
 11
173.896
 21
17.0725
 31
0.0
  0
LINE
  8
0
 62
     0
 10
173.896
 20
17.0725
 30
0.0
 11
173.896
 21
14.1207
 31
0.0
  0
LINE
  8
0
 62
     0
 10
173.896
 20
14.1207
 30
0.0
 11
174.695
 21
14.1207
 31
0.0
  0
LINE
  8
0
 62
     0
 10
174.695
 20
14.1207
 30
0.0
 11
174.695
 21
13.1217
 31
0.0
  0
LINE
  8
0
 62
     0
 10
174.695
 20
13.1217
 30
0.0
 11
188.546
 21
13.1217
 31
0.0
  0
LINE
  8
0
 62
     0
 10
188.546
 20
13.1217
 30
0.0
 11
188.546
 21
14.1207
 31
0.0
  0
LINE
  8
0
 62
     0
 10
188.546
 20
14.1207
 30
0.0
 11
189.345
 21
14.1207
 31
0.0
  0
LINE
  8
0
 62
     0
 10
189.345
 20
14.1207
 30
0.0
 11
189.345
 21
17.0725
 31
0.0
  0
LINE
  8
0
 62
     0
 10
189.345
 20
17.0725
 30
0.0
 11
188.546
 21
17.0725
 31
0.0
  0
LINE
  8
0
 62
     0
 10
188.546
 20
17.0725
 30
0.0
 11
188.546
 21
17.8222
 31
0.0
  0
LINE
  8
0
 62
     0
 10
188.546
 20
17.8222
 30
0.0
 11
190.22
 21
17.8222
 31
0.0
  0
LINE
  8
0
 62
     0
 10
190.22
 20
17.8222
 30
0.0
 11
190.22
 21
13.3518
 31
0.0
  0
LINE
  8
0
 62
     0
 10
190.22
 20
13.3518
 30
0.0
 11
191.946
 21
13.3518
 31
0.0
  0
LINE
  8
0
 62
     0
 10
191.946
 20
13.3518
 30
0.0
 11
191.946
 21
12.1515
 31
0.0
  0
LINE
  8
0
 62
     0
 10
191.946
 20
12.1515
 30
0.0
 11
195.096
 21
12.1515
 31
0.0
  0
LINE
  8
0
 62
     0
 10
195.096
 20
12.1515
 30
0.0
 11
195.096
 21
13.3518
 31
0.0
  0
LINE
  8
0
 62
     0
 10
195.096
 20
13.3518
 30
0.0
 11
196.821
 21
13.3518
 31
0.0
  0
LINE
  8
0
 62
     0
 10
196.821
 20
13.3518
 30
0.0
 11
196.821
 21
19.6205
 31
0.0
  0
LINE
  8
0
 62
     0
 10
196.821
 20
19.6205
 30
0.0
 11
197.645
 21
19.6205
 31
0.0
  0
LINE
  8
0
 62
     0
 10
197.645
 20
19.6205
 30
0.0
 11
197.645
 21
22.2718
 31
0.0
  0
LINE
  8
0
 62
     0
 10
197.645
 20
22.2718
 30
0.0
 11
196.821
 21
22.2718
 31
0.0
  0
LINE
  8
0
 62
     0
 10
196.821
 20
22.2718
 30
0.0
 11
196.821
 21
25.5006
 31
0.0
  0
LINE
  8
0
 62
     0
 10
196.821
 20
25.5006
 30
0.0
 11
190.22
 21
25.5006
 31
0.0
  0
LINE
  8
0
 62
     0
 10
190.22
 20
25.5006
 30
0.0
 11
190.22
 21
22.2718
 31
0.0
  0
LINE
  8
0
 62
     0
 10
190.22
 20
22.2718
 30
0.0
 11
188.546
 21
22.2718
 31
0.0
  0
LINE
  8
0
 62
     0
 10
188.546
 20
22.2718
 30
0.0
 11
188.546
 21
23.0215
 31
0.0
  0
LINE
  8
0
 62
     0
 10
188.546
 20
23.0215
 30
0.0
 11
189.345
 21
23.0215
 31
0.0
  0
LINE
  8
0
 62
     0
 10
189.345
 20
23.0215
 30
0.0
 11
189.345
 21
25.9705
 31
0.0
  0
LINE
  8
0
 62
     0
 10
189.345
 20
25.9705
 30
0.0
 11
188.546
 21
25.9705
 31
0.0
  0
LINE
  8
0
 62
     0
 10
188.546
 20
25.9705
 30
0.0
 11
188.546
 21
26.971
 31
0.0
  0
LINE
  8
0
 62
     0
 10
188.546
 20
26.971
 30
0.0
 11
174.695
 21
26.971
 31
0.0
  0
LINE
  8
0
 62
     0
 10
12.7703
 20
26.971
 30
0.0
 11
12.7703
 21
25.9705
 31
0.0
  0
LINE
  8
0
 62
     0
 10
12.7703
 20
25.9705
 30
0.0
 11
11.971
 21
25.9705
 31
0.0
  0
LINE
  8
0
 62
     0
 10
11.971
 20
25.9705
 30
0.0
 11
11.971
 21
23.0215
 31
0.0
  0
LINE
  8
0
 62
     0
 10
11.971
 20
23.0215
 30
0.0
 11
12.7703
 21
23.0215
 31
0.0
  0
LINE
  8
0
 62
     0
 10
12.7703
 20
23.0215
 30
0.0
 11
12.7703
 21
17.0725
 31
0.0
  0
LINE
  8
0
 62
     0
 10
12.7703
 20
17.0725
 30
0.0
 11
11.971
 21
17.0725
 31
0.0
  0
LINE
  8
0
 62
     0
 10
11.971
 20
17.0725
 30
0.0
 11
11.971
 21
14.1207
 31
0.0
  0
LINE
  8
0
 62
     0
 10
11.971
 20
14.1207
 30
0.0
 11
12.7703
 21
14.1207
 31
0.0
  0
LINE
  8
0
 62
     0
 10
12.7703
 20
14.1207
 30
0.0
 11
12.7703
 21
13.1217
 31
0.0
  0
LINE
  8
0
 62
     0
 10
12.7703
 20
13.1217
 30
0.0
 11
26.6209
 21
13.1217
 31
0.0
  0
LINE
  8
0
 62
     0
 10
26.6209
 20
13.1217
 30
0.0
 11
26.6209
 21
14.1207
 31
0.0
  0
LINE
  8
0
 62
     0
 10
26.6209
 20
14.1207
 30
0.0
 11
27.4202
 21
14.1207
 31
0.0
  0
LINE
  8
0
 62
     0
 10
27.4202
 20
14.1207
 30
0.0
 11
27.4202
 21
17.0725
 31
0.0
  0
LINE
  8
0
 62
     0
 10
27.4202
 20
17.0725
 30
0.0
 11
26.6209
 21
17.0725
 31
0.0
  0
LINE
  8
0
 62
     0
 10
26.6209
 20
17.0725
 30
0.0
 11
26.6209
 21
23.0215
 31
0.0
  0
LINE
  8
0
 62
     0
 10
26.6209
 20
23.0215
 30
0.0
 11
27.4202
 21
23.0215
 31
0.0
  0
LINE
  8
0
 62
     0
 10
27.4202
 20
23.0215
 30
0.0
 11
27.4202
 21
25.9705
 31
0.0
  0
LINE
  8
0
 62
     0
 10
27.4202
 20
25.9705
 30
0.0
 11
26.6209
 21
25.9705
 31
0.0
  0
LINE
  8
0
 62
     0
 10
26.6209
 20
25.9705
 30
0.0
 11
26.6209
 21
26.971
 31
0.0
  0
LINE
  8
0
 62
     0
 10
26.6209
 20
26.971
 30
0.0
 11
12.7703
 21
26.971
 31
0.0
  0
LINE
  8
0
 62
     0
 10
31.8203
 20
26.971
 30
0.0
 11
31.8203
 21
25.9705
 31
0.0
  0
LINE
  8
0
 62
     0
 10
31.8203
 20
25.9705
 30
0.0
 11
31.021
 21
25.9705
 31
0.0
  0
LINE
  8
0
 62
     0
 10
31.021
 20
25.9705
 30
0.0
 11
31.021
 21
23.0215
 31
0.0
  0
LINE
  8
0
 62
     0
 10
31.021
 20
23.0215
 30
0.0
 11
31.8203
 21
23.0215
 31
0.0
  0
LINE
  8
0
 62
     0
 10
31.8203
 20
23.0215
 30
0.0
 11
31.8203
 21
17.0725
 31
0.0
  0
LINE
  8
0
 62
     0
 10
31.8203
 20
17.0725
 30
0.0
 11
31.021
 21
17.0725
 31
0.0
  0
LINE
  8
0
 62
     0
 10
31.021
 20
17.0725
 30
0.0
 11
31.021
 21
14.1207
 31
0.0
  0
LINE
  8
0
 62
     0
 10
31.021
 20
14.1207
 30
0.0
 11
31.8203
 21
14.1207
 31
0.0
  0
LINE
  8
0
 62
     0
 10
31.8203
 20
14.1207
 30
0.0
 11
31.8203
 21
13.1217
 31
0.0
  0
LINE
  8
0
 62
     0
 10
31.8203
 20
13.1217
 30
0.0
 11
45.671
 21
13.1217
 31
0.0
  0
LINE
  8
0
 62
     0
 10
45.671
 20
13.1217
 30
0.0
 11
45.671
 21
14.1207
 31
0.0
  0
LINE
  8
0
 62
     0
 10
45.671
 20
14.1207
 30
0.0
 11
46.4704
 21
14.1207
 31
0.0
  0
LINE
  8
0
 62
     0
 10
46.4704
 20
14.1207
 30
0.0
 11
46.4704
 21
17.0725
 31
0.0
  0
LINE
  8
0
 62
     0
 10
46.4704
 20
17.0725
 30
0.0
 11
45.671
 21
17.0725
 31
0.0
  0
LINE
  8
0
 62
     0
 10
45.671
 20
17.0725
 30
0.0
 11
45.671
 21
23.0215
 31
0.0
  0
LINE
  8
0
 62
     0
 10
45.671
 20
23.0215
 30
0.0
 11
46.4704
 21
23.0215
 31
0.0
  0
LINE
  8
0
 62
     0
 10
46.4704
 20
23.0215
 30
0.0
 11
46.4704
 21
25.9705
 31
0.0
  0
LINE
  8
0
 62
     0
 10
46.4704
 20
25.9705
 30
0.0
 11
45.671
 21
25.9705
 31
0.0
  0
LINE
  8
0
 62
     0
 10
45.671
 20
25.9705
 30
0.0
 11
45.671
 21
26.971
 31
0.0
  0
LINE
  8
0
 62
     0
 10
45.671
 20
26.971
 30
0.0
 11
31.8203
 21
26.971
 31
0.0
  0
LINE
  8
0
 62
     0
 10
50.8702
 20
26.971
 30
0.0
 11
50.8702
 21
25.9705
 31
0.0
  0
LINE
  8
0
 62
     0
 10
50.8702
 20
25.9705
 30
0.0
 11
50.0712
 21
25.9705
 31
0.0
  0
LINE
  8
0
 62
     0
 10
50.0712
 20
25.9705
 30
0.0
 11
50.0712
 21
23.0215
 31
0.0
  0
LINE
  8
0
 62
     0
 10
50.0712
 20
23.0215
 30
0.0
 11
50.8702
 21
23.0215
 31
0.0
  0
LINE
  8
0
 62
     0
 10
50.8702
 20
23.0215
 30
0.0
 11
50.8702
 21
17.0725
 31
0.0
  0
LINE
  8
0
 62
     0
 10
50.8702
 20
17.0725
 30
0.0
 11
50.0712
 21
17.0725
 31
0.0
  0
LINE
  8
0
 62
     0
 10
50.0712
 20
17.0725
 30
0.0
 11
50.0712
 21
14.1207
 31
0.0
  0
LINE
  8
0
 62
     0
 10
50.0712
 20
14.1207
 30
0.0
 11
50.8702
 21
14.1207
 31
0.0
  0
LINE
  8
0
 62
     0
 10
50.8702
 20
14.1207
 30
0.0
 11
50.8702
 21
13.1217
 31
0.0
  0
LINE
  8
0
 62
     0
 10
50.8702
 20
13.1217
 30
0.0
 11
64.721
 21
13.1217
 31
0.0
  0
LINE
  8
0
 62
     0
 10
64.721
 20
13.1217
 30
0.0
 11
64.721
 21
14.1207
 31
0.0
  0
LINE
  8
0
 62
     0
 10
64.721
 20
14.1207
 30
0.0
 11
65.5204
 21
14.1207
 31
0.0
  0
LINE
  8
0
 62
     0
 10
65.5204
 20
14.1207
 30
0.0
 11
65.5204
 21
17.0725
 31
0.0
  0
LINE
  8
0
 62
     0
 10
65.5204
 20
17.0725
 30
0.0
 11
64.721
 21
17.0725
 31
0.0
  0
LINE
  8
0
 62
     0
 10
64.721
 20
17.0725
 30
0.0
 11
64.721
 21
23.0215
 31
0.0
  0
LINE
  8
0
 62
     0
 10
64.721
 20
23.0215
 30
0.0
 11
65.5204
 21
23.0215
 31
0.0
  0
LINE
  8
0
 62
     0
 10
65.5204
 20
23.0215
 30
0.0
 11
65.5204
 21
25.9705
 31
0.0
  0
LINE
  8
0
 62
     0
 10
65.5204
 20
25.9705
 30
0.0
 11
64.721
 21
25.9705
 31
0.0
  0
LINE
  8
0
 62
     0
 10
64.721
 20
25.9705
 30
0.0
 11
64.721
 21
26.971
 31
0.0
  0
LINE
  8
0
 62
     0
 10
64.721
 20
26.971
 30
0.0
 11
50.8702
 21
26.971
 31
0.0
  0
LINE
  8
0
 62
     0
 10
69.9202
 20
26.971
 30
0.0
 11
69.9202
 21
25.9705
 31
0.0
  0
LINE
  8
0
 62
     0
 10
69.9202
 20
25.9705
 30
0.0
 11
69.1212
 21
25.9705
 31
0.0
  0
LINE
  8
0
 62
     0
 10
69.1212
 20
25.9705
 30
0.0
 11
69.1212
 21
23.0215
 31
0.0
  0
LINE
  8
0
 62
     0
 10
69.1212
 20
23.0215
 30
0.0
 11
69.9202
 21
23.0215
 31
0.0
  0
LINE
  8
0
 62
     0
 10
69.9202
 20
23.0215
 30
0.0
 11
69.9202
 21
17.0725
 31
0.0
  0
LINE
  8
0
 62
     0
 10
69.9202
 20
17.0725
 30
0.0
 11
69.1212
 21
17.0725
 31
0.0
  0
LINE
  8
0
 62
     0
 10
69.1212
 20
17.0725
 30
0.0
 11
69.1212
 21
14.1207
 31
0.0
  0
LINE
  8
0
 62
     0
 10
69.1212
 20
14.1207
 30
0.0
 11
69.9202
 21
14.1207
 31
0.0
  0
LINE
  8
0
 62
     0
 10
69.9202
 20
14.1207
 30
0.0
 11
69.9202
 21
13.1217
 31
0.0
  0
LINE
  8
0
 62
     0
 10
69.9202
 20
13.1217
 30
0.0
 11
83.771
 21
13.1217
 31
0.0
  0
LINE
  8
0
 62
     0
 10
83.771
 20
13.1217
 30
0.0
 11
83.771
 21
14.1207
 31
0.0
  0
LINE
  8
0
 62
     0
 10
83.771
 20
14.1207
 30
0.0
 11
84.5704
 21
14.1207
 31
0.0
  0
LINE
  8
0
 62
     0
 10
84.5704
 20
14.1207
 30
0.0
 11
84.5704
 21
17.0725
 31
0.0
  0
LINE
  8
0
 62
     0
 10
84.5704
 20
17.0725
 30
0.0
 11
83.771
 21
17.0725
 31
0.0
  0
LINE
  8
0
 62
     0
 10
83.771
 20
17.0725
 30
0.0
 11
83.771
 21
23.0215
 31
0.0
  0
LINE
  8
0
 62
     0
 10
83.771
 20
23.0215
 30
0.0
 11
84.5704
 21
23.0215
 31
0.0
  0
LINE
  8
0
 62
     0
 10
84.5704
 20
23.0215
 30
0.0
 11
84.5704
 21
25.9705
 31
0.0
  0
LINE
  8
0
 62
     0
 10
84.5704
 20
25.9705
 30
0.0
 11
83.771
 21
25.9705
 31
0.0
  0
LINE
  8
0
 62
     0
 10
83.771
 20
25.9705
 30
0.0
 11
83.771
 21
26.971
 31
0.0
  0
LINE
  8
0
 62
     0
 10
83.771
 20
26.971
 30
0.0
 11
69.9202
 21
26.971
 31
0.0
  0
LINE
  8
0
 62
     0
 10
203.27
 20
26.971
 30
0.0
 11
203.27
 21
25.9705
 31
0.0
  0
LINE
  8
0
 62
     0
 10
203.27
 20
25.9705
 30
0.0
 11
202.471
 21
25.9705
 31
0.0
  0
LINE
  8
0
 62
     0
 10
202.471
 20
25.9705
 30
0.0
 11
202.471
 21
23.0215
 31
0.0
  0
LINE
  8
0
 62
     0
 10
202.471
 20
23.0215
 30
0.0
 11
203.27
 21
23.0215
 31
0.0
  0
LINE
  8
0
 62
     0
 10
203.27
 20
23.0215
 30
0.0
 11
203.27
 21
17.0725
 31
0.0
  0
LINE
  8
0
 62
     0
 10
203.27
 20
17.0725
 30
0.0
 11
202.471
 21
17.0725
 31
0.0
  0
LINE
  8
0
 62
     0
 10
202.471
 20
17.0725
 30
0.0
 11
202.471
 21
14.1207
 31
0.0
  0
LINE
  8
0
 62
     0
 10
202.471
 20
14.1207
 30
0.0
 11
203.27
 21
14.1207
 31
0.0
  0
LINE
  8
0
 62
     0
 10
203.27
 20
14.1207
 30
0.0
 11
203.27
 21
13.1217
 31
0.0
  0
LINE
  8
0
 62
     0
 10
203.27
 20
13.1217
 30
0.0
 11
217.121
 21
13.1217
 31
0.0
  0
LINE
  8
0
 62
     0
 10
217.121
 20
13.1217
 30
0.0
 11
217.121
 21
14.1207
 31
0.0
  0
LINE
  8
0
 62
     0
 10
217.121
 20
14.1207
 30
0.0
 11
217.92
 21
14.1207
 31
0.0
  0
LINE
  8
0
 62
     0
 10
217.92
 20
14.1207
 30
0.0
 11
217.92
 21
17.0725
 31
0.0
  0
LINE
  8
0
 62
     0
 10
217.92
 20
17.0725
 30
0.0
 11
217.121
 21
17.0725
 31
0.0
  0
LINE
  8
0
 62
     0
 10
217.121
 20
17.0725
 30
0.0
 11
217.121
 21
23.0215
 31
0.0
  0
LINE
  8
0
 62
     0
 10
217.121
 20
23.0215
 30
0.0
 11
217.92
 21
23.0215
 31
0.0
  0
LINE
  8
0
 62
     0
 10
217.92
 20
23.0215
 30
0.0
 11
217.92
 21
25.9705
 31
0.0
  0
LINE
  8
0
 62
     0
 10
217.92
 20
25.9705
 30
0.0
 11
217.121
 21
25.9705
 31
0.0
  0
LINE
  8
0
 62
     0
 10
217.121
 20
25.9705
 30
0.0
 11
217.121
 21
26.971
 31
0.0
  0
LINE
  8
0
 62
     0
 10
217.121
 20
26.971
 30
0.0
 11
203.27
 21
26.971
 31
0.0
  0
LINE
  8
0
 62
     0
 10
222.32
 20
26.971
 30
0.0
 11
222.32
 21
25.9705
 31
0.0
  0
LINE
  8
0
 62
     0
 10
222.32
 20
25.9705
 30
0.0
 11
221.521
 21
25.9705
 31
0.0
  0
LINE
  8
0
 62
     0
 10
221.521
 20
25.9705
 30
0.0
 11
221.521
 21
23.0215
 31
0.0
  0
LINE
  8
0
 62
     0
 10
221.521
 20
23.0215
 30
0.0
 11
222.32
 21
23.0215
 31
0.0
  0
LINE
  8
0
 62
     0
 10
222.32
 20
23.0215
 30
0.0
 11
222.32
 21
17.0725
 31
0.0
  0
LINE
  8
0
 62
     0
 10
222.32
 20
17.0725
 30
0.0
 11
221.521
 21
17.0725
 31
0.0
  0
LINE
  8
0
 62
     0
 10
221.521
 20
17.0725
 30
0.0
 11
221.521
 21
14.1207
 31
0.0
  0
LINE
  8
0
 62
     0
 10
221.521
 20
14.1207
 30
0.0
 11
222.32
 21
14.1207
 31
0.0
  0
LINE
  8
0
 62
     0
 10
222.32
 20
14.1207
 30
0.0
 11
222.32
 21
13.1217
 31
0.0
  0
LINE
  8
0
 62
     0
 10
222.32
 20
13.1217
 30
0.0
 11
236.171
 21
13.1217
 31
0.0
  0
LINE
  8
0
 62
     0
 10
236.171
 20
13.1217
 30
0.0
 11
236.171
 21
14.1207
 31
0.0
  0
LINE
  8
0
 62
     0
 10
236.171
 20
14.1207
 30
0.0
 11
236.97
 21
14.1207
 31
0.0
  0
LINE
  8
0
 62
     0
 10
236.97
 20
14.1207
 30
0.0
 11
236.97
 21
17.0725
 31
0.0
  0
LINE
  8
0
 62
     0
 10
236.97
 20
17.0725
 30
0.0
 11
236.171
 21
17.0725
 31
0.0
  0
LINE
  8
0
 62
     0
 10
236.171
 20
17.0725
 30
0.0
 11
236.171
 21
23.0215
 31
0.0
  0
LINE
  8
0
 62
     0
 10
236.171
 20
23.0215
 30
0.0
 11
236.97
 21
23.0215
 31
0.0
  0
LINE
  8
0
 62
     0
 10
236.97
 20
23.0215
 30
0.0
 11
236.97
 21
25.9705
 31
0.0
  0
LINE
  8
0
 62
     0
 10
236.97
 20
25.9705
 30
0.0
 11
236.171
 21
25.9705
 31
0.0
  0
LINE
  8
0
 62
     0
 10
236.171
 20
25.9705
 30
0.0
 11
236.171
 21
26.971
 31
0.0
  0
LINE
  8
0
 62
     0
 10
236.171
 20
26.971
 30
0.0
 11
222.32
 21
26.971
 31
0.0
  0
LINE
  8
0
 62
     0
 10
241.37
 20
26.971
 30
0.0
 11
241.37
 21
25.9705
 31
0.0
  0
LINE
  8
0
 62
     0
 10
241.37
 20
25.9705
 30
0.0
 11
240.571
 21
25.9705
 31
0.0
  0
LINE
  8
0
 62
     0
 10
240.571
 20
25.9705
 30
0.0
 11
240.571
 21
23.0215
 31
0.0
  0
LINE
  8
0
 62
     0
 10
240.571
 20
23.0215
 30
0.0
 11
241.37
 21
23.0215
 31
0.0
  0
LINE
  8
0
 62
     0
 10
241.37
 20
23.0215
 30
0.0
 11
241.37
 21
17.0725
 31
0.0
  0
LINE
  8
0
 62
     0
 10
241.37
 20
17.0725
 30
0.0
 11
240.571
 21
17.0725
 31
0.0
  0
LINE
  8
0
 62
     0
 10
240.571
 20
17.0725
 30
0.0
 11
240.571
 21
14.1207
 31
0.0
  0
LINE
  8
0
 62
     0
 10
240.571
 20
14.1207
 30
0.0
 11
241.37
 21
14.1207
 31
0.0
  0
LINE
  8
0
 62
     0
 10
241.37
 20
14.1207
 30
0.0
 11
241.37
 21
13.1217
 31
0.0
  0
LINE
  8
0
 62
     0
 10
241.37
 20
13.1217
 30
0.0
 11
255.221
 21
13.1217
 31
0.0
  0
LINE
  8
0
 62
     0
 10
255.221
 20
13.1217
 30
0.0
 11
255.221
 21
14.1207
 31
0.0
  0
LINE
  8
0
 62
     0
 10
255.221
 20
14.1207
 30
0.0
 11
256.02
 21
14.1207
 31
0.0
  0
LINE
  8
0
 62
     0
 10
256.02
 20
14.1207
 30
0.0
 11
256.02
 21
17.0725
 31
0.0
  0
LINE
  8
0
 62
     0
 10
256.02
 20
17.0725
 30
0.0
 11
255.221
 21
17.0725
 31
0.0
  0
LINE
  8
0
 62
     0
 10
255.221
 20
17.0725
 30
0.0
 11
255.221
 21
23.0215
 31
0.0
  0
LINE
  8
0
 62
     0
 10
255.221
 20
23.0215
 30
0.0
 11
256.02
 21
23.0215
 31
0.0
  0
LINE
  8
0
 62
     0
 10
256.02
 20
23.0215
 30
0.0
 11
256.02
 21
25.9705
 31
0.0
  0
LINE
  8
0
 62
     0
 10
256.02
 20
25.9705
 30
0.0
 11
255.221
 21
25.9705
 31
0.0
  0
LINE
  8
0
 62
     0
 10
255.221
 20
25.9705
 30
0.0
 11
255.221
 21
26.971
 31
0.0
  0
LINE
  8
0
 62
     0
 10
255.221
 20
26.971
 30
0.0
 11
241.37
 21
26.971
 31
0.0
  0
LINE
  8
0
 62
     0
 10
260.42
 20
26.971
 30
0.0
 11
260.42
 21
25.9705
 31
0.0
  0
LINE
  8
0
 62
     0
 10
260.42
 20
25.9705
 30
0.0
 11
259.621
 21
25.9705
 31
0.0
  0
LINE
  8
0
 62
     0
 10
259.621
 20
25.9705
 30
0.0
 11
259.621
 21
23.0215
 31
0.0
  0
LINE
  8
0
 62
     0
 10
259.621
 20
23.0215
 30
0.0
 11
260.42
 21
23.0215
 31
0.0
  0
LINE
  8
0
 62
     0
 10
260.42
 20
23.0215
 30
0.0
 11
260.42
 21
17.0725
 31
0.0
  0
LINE
  8
0
 62
     0
 10
260.42
 20
17.0725
 30
0.0
 11
259.621
 21
17.0725
 31
0.0
  0
LINE
  8
0
 62
     0
 10
259.621
 20
17.0725
 30
0.0
 11
259.621
 21
14.1207
 31
0.0
  0
LINE
  8
0
 62
     0
 10
259.621
 20
14.1207
 30
0.0
 11
260.42
 21
14.1207
 31
0.0
  0
LINE
  8
0
 62
     0
 10
260.42
 20
14.1207
 30
0.0
 11
260.42
 21
13.1217
 31
0.0
  0
LINE
  8
0
 62
     0
 10
260.42
 20
13.1217
 30
0.0
 11
274.271
 21
13.1217
 31
0.0
  0
LINE
  8
0
 62
     0
 10
274.271
 20
13.1217
 30
0.0
 11
274.271
 21
14.1207
 31
0.0
  0
LINE
  8
0
 62
     0
 10
274.271
 20
14.1207
 30
0.0
 11
275.07
 21
14.1207
 31
0.0
  0
LINE
  8
0
 62
     0
 10
275.07
 20
14.1207
 30
0.0
 11
275.07
 21
17.0725
 31
0.0
  0
LINE
  8
0
 62
     0
 10
275.07
 20
17.0725
 30
0.0
 11
274.271
 21
17.0725
 31
0.0
  0
LINE
  8
0
 62
     0
 10
274.271
 20
17.0725
 30
0.0
 11
274.271
 21
23.0215
 31
0.0
  0
LINE
  8
0
 62
     0
 10
274.271
 20
23.0215
 30
0.0
 11
275.07
 21
23.0215
 31
0.0
  0
LINE
  8
0
 62
     0
 10
275.07
 20
23.0215
 30
0.0
 11
275.07
 21
25.9705
 31
0.0
  0
LINE
  8
0
 62
     0
 10
275.07
 20
25.9705
 30
0.0
 11
274.271
 21
25.9705
 31
0.0
  0
LINE
  8
0
 62
     0
 10
274.271
 20
25.9705
 30
0.0
 11
274.271
 21
26.971
 31
0.0
  0
LINE
  8
0
 62
     0
 10
274.271
 20
26.971
 30
0.0
 11
260.42
 21
26.971
 31
0.0
  0
LINE
  8
0
 62
     0
 10
279.47
 20
26.971
 30
0.0
 11
279.47
 21
25.9705
 31
0.0
  0
LINE
  8
0
 62
     0
 10
279.47
 20
25.9705
 30
0.0
 11
278.671
 21
25.9705
 31
0.0
  0
LINE
  8
0
 62
     0
 10
278.671
 20
25.9705
 30
0.0
 11
278.671
 21
23.0215
 31
0.0
  0
LINE
  8
0
 62
     0
 10
278.671
 20
23.0215
 30
0.0
 11
279.47
 21
23.0215
 31
0.0
  0
LINE
  8
0
 62
     0
 10
279.47
 20
23.0215
 30
0.0
 11
279.47
 21
17.0725
 31
0.0
  0
LINE
  8
0
 62
     0
 10
279.47
 20
17.0725
 30
0.0
 11
278.671
 21
17.0725
 31
0.0
  0
LINE
  8
0
 62
     0
 10
278.671
 20
17.0725
 30
0.0
 11
278.671
 21
14.1207
 31
0.0
  0
LINE
  8
0
 62
     0
 10
278.671
 20
14.1207
 30
0.0
 11
279.47
 21
14.1207
 31
0.0
  0
LINE
  8
0
 62
     0
 10
279.47
 20
14.1207
 30
0.0
 11
279.47
 21
13.1217
 31
0.0
  0
LINE
  8
0
 62
     0
 10
279.47
 20
13.1217
 30
0.0
 11
293.321
 21
13.1217
 31
0.0
  0
LINE
  8
0
 62
     0
 10
293.321
 20
13.1217
 30
0.0
 11
293.321
 21
14.1207
 31
0.0
  0
LINE
  8
0
 62
     0
 10
293.321
 20
14.1207
 30
0.0
 11
294.12
 21
14.1207
 31
0.0
  0
LINE
  8
0
 62
     0
 10
294.12
 20
14.1207
 30
0.0
 11
294.12
 21
17.0725
 31
0.0
  0
LINE
  8
0
 62
     0
 10
294.12
 20
17.0725
 30
0.0
 11
293.321
 21
17.0725
 31
0.0
  0
LINE
  8
0
 62
     0
 10
293.321
 20
17.0725
 30
0.0
 11
293.321
 21
23.0215
 31
0.0
  0
LINE
  8
0
 62
     0
 10
293.321
 20
23.0215
 30
0.0
 11
294.12
 21
23.0215
 31
0.0
  0
LINE
  8
0
 62
     0
 10
294.12
 20
23.0215
 30
0.0
 11
294.12
 21
25.9705
 31
0.0
  0
LINE
  8
0
 62
     0
 10
294.12
 20
25.9705
 30
0.0
 11
293.321
 21
25.9705
 31
0.0
  0
LINE
  8
0
 62
     0
 10
293.321
 20
25.9705
 30
0.0
 11
293.321
 21
26.971
 31
0.0
  0
LINE
  8
0
 62
     0
 10
293.321
 20
26.971
 30
0.0
 11
279.47
 21
26.971
 31
0.0
  0
LINE
  8
0
 62
     0
 10
12.7703
 20
46.0209
 30
0.0
 11
12.7703
 21
45.0204
 31
0.0
  0
LINE
  8
0
 62
     0
 10
12.7703
 20
45.0204
 30
0.0
 11
11.971
 21
45.0204
 31
0.0
  0
LINE
  8
0
 62
     0
 10
11.971
 20
45.0204
 30
0.0
 11
11.971
 21
42.0716
 31
0.0
  0
LINE
  8
0
 62
     0
 10
11.971
 20
42.0716
 30
0.0
 11
12.7703
 21
42.0716
 31
0.0
  0
LINE
  8
0
 62
     0
 10
12.7703
 20
42.0716
 30
0.0
 11
12.7703
 21
36.1213
 31
0.0
  0
LINE
  8
0
 62
     0
 10
12.7703
 20
36.1213
 30
0.0
 11
11.971
 21
36.1213
 31
0.0
  0
LINE
  8
0
 62
     0
 10
11.971
 20
36.1213
 30
0.0
 11
11.971
 21
33.1707
 31
0.0
  0
LINE
  8
0
 62
     0
 10
11.971
 20
33.1707
 30
0.0
 11
12.7703
 21
33.1707
 31
0.0
  0
LINE
  8
0
 62
     0
 10
12.7703
 20
33.1707
 30
0.0
 11
12.7703
 21
32.1717
 31
0.0
  0
LINE
  8
0
 62
     0
 10
12.7703
 20
32.1717
 30
0.0
 11
26.6209
 21
32.1717
 31
0.0
  0
LINE
  8
0
 62
     0
 10
26.6209
 20
32.1717
 30
0.0
 11
26.6209
 21
33.1707
 31
0.0
  0
LINE
  8
0
 62
     0
 10
26.6209
 20
33.1707
 30
0.0
 11
27.4202
 21
33.1707
 31
0.0
  0
LINE
  8
0
 62
     0
 10
27.4202
 20
33.1707
 30
0.0
 11
27.4202
 21
36.1213
 31
0.0
  0
LINE
  8
0
 62
     0
 10
27.4202
 20
36.1213
 30
0.0
 11
26.6209
 21
36.1213
 31
0.0
  0
LINE
  8
0
 62
     0
 10
26.6209
 20
36.1213
 30
0.0
 11
26.6209
 21
42.0716
 31
0.0
  0
LINE
  8
0
 62
     0
 10
26.6209
 20
42.0716
 30
0.0
 11
27.4202
 21
42.0716
 31
0.0
  0
LINE
  8
0
 62
     0
 10
27.4202
 20
42.0716
 30
0.0
 11
27.4202
 21
45.0204
 31
0.0
  0
LINE
  8
0
 62
     0
 10
27.4202
 20
45.0204
 30
0.0
 11
26.6209
 21
45.0204
 31
0.0
  0
LINE
  8
0
 62
     0
 10
26.6209
 20
45.0204
 30
0.0
 11
26.6209
 21
46.0209
 31
0.0
  0
LINE
  8
0
 62
     0
 10
26.6209
 20
46.0209
 30
0.0
 11
12.7703
 21
46.0209
 31
0.0
  0
LINE
  8
0
 62
     0
 10
31.8203
 20
46.0209
 30
0.0
 11
31.8203
 21
45.0204
 31
0.0
  0
LINE
  8
0
 62
     0
 10
31.8203
 20
45.0204
 30
0.0
 11
31.021
 21
45.0204
 31
0.0
  0
LINE
  8
0
 62
     0
 10
31.021
 20
45.0204
 30
0.0
 11
31.021
 21
42.0716
 31
0.0
  0
LINE
  8
0
 62
     0
 10
31.021
 20
42.0716
 30
0.0
 11
31.8203
 21
42.0716
 31
0.0
  0
LINE
  8
0
 62
     0
 10
31.8203
 20
42.0716
 30
0.0
 11
31.8203
 21
36.1213
 31
0.0
  0
LINE
  8
0
 62
     0
 10
31.8203
 20
36.1213
 30
0.0
 11
31.021
 21
36.1213
 31
0.0
  0
LINE
  8
0
 62
     0
 10
31.021
 20
36.1213
 30
0.0
 11
31.021
 21
33.1707
 31
0.0
  0
LINE
  8
0
 62
     0
 10
31.021
 20
33.1707
 30
0.0
 11
31.8203
 21
33.1707
 31
0.0
  0
LINE
  8
0
 62
     0
 10
31.8203
 20
33.1707
 30
0.0
 11
31.8203
 21
32.1717
 31
0.0
  0
LINE
  8
0
 62
     0
 10
31.8203
 20
32.1717
 30
0.0
 11
45.671
 21
32.1717
 31
0.0
  0
LINE
  8
0
 62
     0
 10
45.671
 20
32.1717
 30
0.0
 11
45.671
 21
33.1707
 31
0.0
  0
LINE
  8
0
 62
     0
 10
45.671
 20
33.1707
 30
0.0
 11
46.4704
 21
33.1707
 31
0.0
  0
LINE
  8
0
 62
     0
 10
46.4704
 20
33.1707
 30
0.0
 11
46.4704
 21
36.1213
 31
0.0
  0
LINE
  8
0
 62
     0
 10
46.4704
 20
36.1213
 30
0.0
 11
45.671
 21
36.1213
 31
0.0
  0
LINE
  8
0
 62
     0
 10
45.671
 20
36.1213
 30
0.0
 11
45.671
 21
42.0716
 31
0.0
  0
LINE
  8
0
 62
     0
 10
45.671
 20
42.0716
 30
0.0
 11
46.4704
 21
42.0716
 31
0.0
  0
LINE
  8
0
 62
     0
 10
46.4704
 20
42.0716
 30
0.0
 11
46.4704
 21
45.0204
 31
0.0
  0
LINE
  8
0
 62
     0
 10
46.4704
 20
45.0204
 30
0.0
 11
45.671
 21
45.0204
 31
0.0
  0
LINE
  8
0
 62
     0
 10
45.671
 20
45.0204
 30
0.0
 11
45.671
 21
46.0209
 31
0.0
  0
LINE
  8
0
 62
     0
 10
45.671
 20
46.0209
 30
0.0
 11
31.8203
 21
46.0209
 31
0.0
  0
LINE
  8
0
 62
     0
 10
50.8702
 20
46.0209
 30
0.0
 11
50.8702
 21
45.0204
 31
0.0
  0
LINE
  8
0
 62
     0
 10
50.8702
 20
45.0204
 30
0.0
 11
50.0712
 21
45.0204
 31
0.0
  0
LINE
  8
0
 62
     0
 10
50.0712
 20
45.0204
 30
0.0
 11
50.0712
 21
42.0716
 31
0.0
  0
LINE
  8
0
 62
     0
 10
50.0712
 20
42.0716
 30
0.0
 11
50.8702
 21
42.0716
 31
0.0
  0
LINE
  8
0
 62
     0
 10
50.8702
 20
42.0716
 30
0.0
 11
50.8702
 21
36.1213
 31
0.0
  0
LINE
  8
0
 62
     0
 10
50.8702
 20
36.1213
 30
0.0
 11
50.0712
 21
36.1213
 31
0.0
  0
LINE
  8
0
 62
     0
 10
50.0712
 20
36.1213
 30
0.0
 11
50.0712
 21
33.1707
 31
0.0
  0
LINE
  8
0
 62
     0
 10
50.0712
 20
33.1707
 30
0.0
 11
50.8702
 21
33.1707
 31
0.0
  0
LINE
  8
0
 62
     0
 10
50.8702
 20
33.1707
 30
0.0
 11
50.8702
 21
32.1717
 31
0.0
  0
LINE
  8
0
 62
     0
 10
50.8702
 20
32.1717
 30
0.0
 11
64.721
 21
32.1717
 31
0.0
  0
LINE
  8
0
 62
     0
 10
64.721
 20
32.1717
 30
0.0
 11
64.721
 21
33.1707
 31
0.0
  0
LINE
  8
0
 62
     0
 10
64.721
 20
33.1707
 30
0.0
 11
65.5204
 21
33.1707
 31
0.0
  0
LINE
  8
0
 62
     0
 10
65.5204
 20
33.1707
 30
0.0
 11
65.5204
 21
36.1213
 31
0.0
  0
LINE
  8
0
 62
     0
 10
65.5204
 20
36.1213
 30
0.0
 11
64.721
 21
36.1213
 31
0.0
  0
LINE
  8
0
 62
     0
 10
64.721
 20
36.1213
 30
0.0
 11
64.721
 21
42.0716
 31
0.0
  0
LINE
  8
0
 62
     0
 10
64.721
 20
42.0716
 30
0.0
 11
65.5204
 21
42.0716
 31
0.0
  0
LINE
  8
0
 62
     0
 10
65.5204
 20
42.0716
 30
0.0
 11
65.5204
 21
45.0204
 31
0.0
  0
LINE
  8
0
 62
     0
 10
65.5204
 20
45.0204
 30
0.0
 11
64.721
 21
45.0204
 31
0.0
  0
LINE
  8
0
 62
     0
 10
64.721
 20
45.0204
 30
0.0
 11
64.721
 21
46.0209
 31
0.0
  0
LINE
  8
0
 62
     0
 10
64.721
 20
46.0209
 30
0.0
 11
50.8702
 21
46.0209
 31
0.0
  0
LINE
  8
0
 62
     0
 10
69.9202
 20
46.0209
 30
0.0
 11
69.9202
 21
45.0204
 31
0.0
  0
LINE
  8
0
 62
     0
 10
69.9202
 20
45.0204
 30
0.0
 11
69.1212
 21
45.0204
 31
0.0
  0
LINE
  8
0
 62
     0
 10
69.1212
 20
45.0204
 30
0.0
 11
69.1212
 21
42.0716
 31
0.0
  0
LINE
  8
0
 62
     0
 10
69.1212
 20
42.0716
 30
0.0
 11
69.9202
 21
42.0716
 31
0.0
  0
LINE
  8
0
 62
     0
 10
69.9202
 20
42.0716
 30
0.0
 11
69.9202
 21
36.1213
 31
0.0
  0
LINE
  8
0
 62
     0
 10
69.9202
 20
36.1213
 30
0.0
 11
69.1212
 21
36.1213
 31
0.0
  0
LINE
  8
0
 62
     0
 10
69.1212
 20
36.1213
 30
0.0
 11
69.1212
 21
33.1707
 31
0.0
  0
LINE
  8
0
 62
     0
 10
69.1212
 20
33.1707
 30
0.0
 11
69.9202
 21
33.1707
 31
0.0
  0
LINE
  8
0
 62
     0
 10
69.9202
 20
33.1707
 30
0.0
 11
69.9202
 21
32.1717
 31
0.0
  0
LINE
  8
0
 62
     0
 10
69.9202
 20
32.1717
 30
0.0
 11
83.771
 21
32.1717
 31
0.0
  0
LINE
  8
0
 62
     0
 10
83.771
 20
32.1717
 30
0.0
 11
83.771
 21
33.1707
 31
0.0
  0
LINE
  8
0
 62
     0
 10
83.771
 20
33.1707
 30
0.0
 11
84.5704
 21
33.1707
 31
0.0
  0
LINE
  8
0
 62
     0
 10
84.5704
 20
33.1707
 30
0.0
 11
84.5704
 21
36.1213
 31
0.0
  0
LINE
  8
0
 62
     0
 10
84.5704
 20
36.1213
 30
0.0
 11
83.771
 21
36.1213
 31
0.0
  0
LINE
  8
0
 62
     0
 10
83.771
 20
36.1213
 30
0.0
 11
83.771
 21
42.0716
 31
0.0
  0
LINE
  8
0
 62
     0
 10
83.771
 20
42.0716
 30
0.0
 11
84.5704
 21
42.0716
 31
0.0
  0
LINE
  8
0
 62
     0
 10
84.5704
 20
42.0716
 30
0.0
 11
84.5704
 21
45.0204
 31
0.0
  0
LINE
  8
0
 62
     0
 10
84.5704
 20
45.0204
 30
0.0
 11
83.771
 21
45.0204
 31
0.0
  0
LINE
  8
0
 62
     0
 10
83.771
 20
45.0204
 30
0.0
 11
83.771
 21
46.0209
 31
0.0
  0
LINE
  8
0
 62
     0
 10
83.771
 20
46.0209
 30
0.0
 11
69.9202
 21
46.0209
 31
0.0
  0
LINE
  8
0
 62
     0
 10
88.9702
 20
46.0209
 30
0.0
 11
88.9702
 21
45.0204
 31
0.0
  0
LINE
  8
0
 62
     0
 10
88.9702
 20
45.0204
 30
0.0
 11
88.1712
 21
45.0204
 31
0.0
  0
LINE
  8
0
 62
     0
 10
88.1712
 20
45.0204
 30
0.0
 11
88.1712
 21
42.0716
 31
0.0
  0
LINE
  8
0
 62
     0
 10
88.1712
 20
42.0716
 30
0.0
 11
88.9702
 21
42.0716
 31
0.0
  0
LINE
  8
0
 62
     0
 10
88.9702
 20
42.0716
 30
0.0
 11
88.9702
 21
36.1213
 31
0.0
  0
LINE
  8
0
 62
     0
 10
88.9702
 20
36.1213
 30
0.0
 11
88.1712
 21
36.1213
 31
0.0
  0
LINE
  8
0
 62
     0
 10
88.1712
 20
36.1213
 30
0.0
 11
88.1712
 21
33.1707
 31
0.0
  0
LINE
  8
0
 62
     0
 10
88.1712
 20
33.1707
 30
0.0
 11
88.9702
 21
33.1707
 31
0.0
  0
LINE
  8
0
 62
     0
 10
88.9702
 20
33.1707
 30
0.0
 11
88.9702
 21
32.1717
 31
0.0
  0
LINE
  8
0
 62
     0
 10
88.9702
 20
32.1717
 30
0.0
 11
102.821
 21
32.1717
 31
0.0
  0
LINE
  8
0
 62
     0
 10
102.821
 20
32.1717
 30
0.0
 11
102.821
 21
33.1707
 31
0.0
  0
LINE
  8
0
 62
     0
 10
102.821
 20
33.1707
 30
0.0
 11
103.619
 21
33.1707
 31
0.0
  0
LINE
  8
0
 62
     0
 10
103.619
 20
33.1707
 30
0.0
 11
103.619
 21
36.1213
 31
0.0
  0
LINE
  8
0
 62
     0
 10
103.619
 20
36.1213
 30
0.0
 11
102.821
 21
36.1213
 31
0.0
  0
LINE
  8
0
 62
     0
 10
102.821
 20
36.1213
 30
0.0
 11
102.821
 21
42.0716
 31
0.0
  0
LINE
  8
0
 62
     0
 10
102.821
 20
42.0716
 30
0.0
 11
103.619
 21
42.0716
 31
0.0
  0
LINE
  8
0
 62
     0
 10
103.619
 20
42.0716
 30
0.0
 11
103.619
 21
45.0204
 31
0.0
  0
LINE
  8
0
 62
     0
 10
103.619
 20
45.0204
 30
0.0
 11
102.821
 21
45.0204
 31
0.0
  0
LINE
  8
0
 62
     0
 10
102.821
 20
45.0204
 30
0.0
 11
102.821
 21
46.0209
 31
0.0
  0
LINE
  8
0
 62
     0
 10
102.821
 20
46.0209
 30
0.0
 11
88.9702
 21
46.0209
 31
0.0
  0
LINE
  8
0
 62
     0
 10
108.02
 20
46.0209
 30
0.0
 11
108.02
 21
45.0204
 31
0.0
  0
LINE
  8
0
 62
     0
 10
108.02
 20
45.0204
 30
0.0
 11
107.221
 21
45.0204
 31
0.0
  0
LINE
  8
0
 62
     0
 10
107.221
 20
45.0204
 30
0.0
 11
107.221
 21
42.0716
 31
0.0
  0
LINE
  8
0
 62
     0
 10
107.221
 20
42.0716
 30
0.0
 11
108.02
 21
42.0716
 31
0.0
  0
LINE
  8
0
 62
     0
 10
108.02
 20
42.0716
 30
0.0
 11
108.02
 21
36.1213
 31
0.0
  0
LINE
  8
0
 62
     0
 10
108.02
 20
36.1213
 30
0.0
 11
107.221
 21
36.1213
 31
0.0
  0
LINE
  8
0
 62
     0
 10
107.221
 20
36.1213
 30
0.0
 11
107.221
 21
33.1707
 31
0.0
  0
LINE
  8
0
 62
     0
 10
107.221
 20
33.1707
 30
0.0
 11
108.02
 21
33.1707
 31
0.0
  0
LINE
  8
0
 62
     0
 10
108.02
 20
33.1707
 30
0.0
 11
108.02
 21
32.1717
 31
0.0
  0
LINE
  8
0
 62
     0
 10
108.02
 20
32.1717
 30
0.0
 11
121.87
 21
32.1717
 31
0.0
  0
LINE
  8
0
 62
     0
 10
121.87
 20
32.1717
 30
0.0
 11
121.87
 21
33.1707
 31
0.0
  0
LINE
  8
0
 62
     0
 10
121.87
 20
33.1707
 30
0.0
 11
122.669
 21
33.1707
 31
0.0
  0
LINE
  8
0
 62
     0
 10
122.669
 20
33.1707
 30
0.0
 11
122.669
 21
36.1213
 31
0.0
  0
LINE
  8
0
 62
     0
 10
122.669
 20
36.1213
 30
0.0
 11
121.87
 21
36.1213
 31
0.0
  0
LINE
  8
0
 62
     0
 10
121.87
 20
36.1213
 30
0.0
 11
121.87
 21
42.0716
 31
0.0
  0
LINE
  8
0
 62
     0
 10
121.87
 20
42.0716
 30
0.0
 11
122.669
 21
42.0716
 31
0.0
  0
LINE
  8
0
 62
     0
 10
122.669
 20
42.0716
 30
0.0
 11
122.669
 21
45.0204
 31
0.0
  0
LINE
  8
0
 62
     0
 10
122.669
 20
45.0204
 30
0.0
 11
121.87
 21
45.0204
 31
0.0
  0
LINE
  8
0
 62
     0
 10
121.87
 20
45.0204
 30
0.0
 11
121.87
 21
46.0209
 31
0.0
  0
LINE
  8
0
 62
     0
 10
121.87
 20
46.0209
 30
0.0
 11
108.02
 21
46.0209
 31
0.0
  0
LINE
  8
0
 62
     0
 10
127.07
 20
46.0209
 30
0.0
 11
127.07
 21
45.0204
 31
0.0
  0
LINE
  8
0
 62
     0
 10
127.07
 20
45.0204
 30
0.0
 11
126.271
 21
45.0204
 31
0.0
  0
LINE
  8
0
 62
     0
 10
126.271
 20
45.0204
 30
0.0
 11
126.271
 21
42.0716
 31
0.0
  0
LINE
  8
0
 62
     0
 10
126.271
 20
42.0716
 30
0.0
 11
127.07
 21
42.0716
 31
0.0
  0
LINE
  8
0
 62
     0
 10
127.07
 20
42.0716
 30
0.0
 11
127.07
 21
36.1213
 31
0.0
  0
LINE
  8
0
 62
     0
 10
127.07
 20
36.1213
 30
0.0
 11
126.271
 21
36.1213
 31
0.0
  0
LINE
  8
0
 62
     0
 10
126.271
 20
36.1213
 30
0.0
 11
126.271
 21
33.1707
 31
0.0
  0
LINE
  8
0
 62
     0
 10
126.271
 20
33.1707
 30
0.0
 11
127.07
 21
33.1707
 31
0.0
  0
LINE
  8
0
 62
     0
 10
127.07
 20
33.1707
 30
0.0
 11
127.07
 21
32.1717
 31
0.0
  0
LINE
  8
0
 62
     0
 10
127.07
 20
32.1717
 30
0.0
 11
140.921
 21
32.1717
 31
0.0
  0
LINE
  8
0
 62
     0
 10
140.921
 20
32.1717
 30
0.0
 11
140.921
 21
33.1707
 31
0.0
  0
LINE
  8
0
 62
     0
 10
140.921
 20
33.1707
 30
0.0
 11
141.72
 21
33.1707
 31
0.0
  0
LINE
  8
0
 62
     0
 10
141.72
 20
33.1707
 30
0.0
 11
141.72
 21
36.1213
 31
0.0
  0
LINE
  8
0
 62
     0
 10
141.72
 20
36.1213
 30
0.0
 11
140.921
 21
36.1213
 31
0.0
  0
LINE
  8
0
 62
     0
 10
140.921
 20
36.1213
 30
0.0
 11
140.921
 21
42.0716
 31
0.0
  0
LINE
  8
0
 62
     0
 10
140.921
 20
42.0716
 30
0.0
 11
141.72
 21
42.0716
 31
0.0
  0
LINE
  8
0
 62
     0
 10
141.72
 20
42.0716
 30
0.0
 11
141.72
 21
45.0204
 31
0.0
  0
LINE
  8
0
 62
     0
 10
141.72
 20
45.0204
 30
0.0
 11
140.921
 21
45.0204
 31
0.0
  0
LINE
  8
0
 62
     0
 10
140.921
 20
45.0204
 30
0.0
 11
140.921
 21
46.0209
 31
0.0
  0
LINE
  8
0
 62
     0
 10
140.921
 20
46.0209
 30
0.0
 11
127.07
 21
46.0209
 31
0.0
  0
LINE
  8
0
 62
     0
 10
146.12
 20
46.0209
 30
0.0
 11
146.12
 21
45.0204
 31
0.0
  0
LINE
  8
0
 62
     0
 10
146.12
 20
45.0204
 30
0.0
 11
145.321
 21
45.0204
 31
0.0
  0
LINE
  8
0
 62
     0
 10
145.321
 20
45.0204
 30
0.0
 11
145.321
 21
42.0716
 31
0.0
  0
LINE
  8
0
 62
     0
 10
145.321
 20
42.0716
 30
0.0
 11
146.12
 21
42.0716
 31
0.0
  0
LINE
  8
0
 62
     0
 10
146.12
 20
42.0716
 30
0.0
 11
146.12
 21
36.1213
 31
0.0
  0
LINE
  8
0
 62
     0
 10
146.12
 20
36.1213
 30
0.0
 11
145.321
 21
36.1213
 31
0.0
  0
LINE
  8
0
 62
     0
 10
145.321
 20
36.1213
 30
0.0
 11
145.321
 21
33.1707
 31
0.0
  0
LINE
  8
0
 62
     0
 10
145.321
 20
33.1707
 30
0.0
 11
146.12
 21
33.1707
 31
0.0
  0
LINE
  8
0
 62
     0
 10
146.12
 20
33.1707
 30
0.0
 11
146.12
 21
32.1717
 31
0.0
  0
LINE
  8
0
 62
     0
 10
146.12
 20
32.1717
 30
0.0
 11
159.971
 21
32.1717
 31
0.0
  0
LINE
  8
0
 62
     0
 10
159.971
 20
32.1717
 30
0.0
 11
159.971
 21
33.1707
 31
0.0
  0
LINE
  8
0
 62
     0
 10
159.971
 20
33.1707
 30
0.0
 11
160.77
 21
33.1707
 31
0.0
  0
LINE
  8
0
 62
     0
 10
160.77
 20
33.1707
 30
0.0
 11
160.77
 21
36.1213
 31
0.0
  0
LINE
  8
0
 62
     0
 10
160.77
 20
36.1213
 30
0.0
 11
159.971
 21
36.1213
 31
0.0
  0
LINE
  8
0
 62
     0
 10
159.971
 20
36.1213
 30
0.0
 11
159.971
 21
42.0716
 31
0.0
  0
LINE
  8
0
 62
     0
 10
159.971
 20
42.0716
 30
0.0
 11
160.77
 21
42.0716
 31
0.0
  0
LINE
  8
0
 62
     0
 10
160.77
 20
42.0716
 30
0.0
 11
160.77
 21
45.0204
 31
0.0
  0
LINE
  8
0
 62
     0
 10
160.77
 20
45.0204
 30
0.0
 11
159.971
 21
45.0204
 31
0.0
  0
LINE
  8
0
 62
     0
 10
159.971
 20
45.0204
 30
0.0
 11
159.971
 21
46.0209
 31
0.0
  0
LINE
  8
0
 62
     0
 10
159.971
 20
46.0209
 30
0.0
 11
146.12
 21
46.0209
 31
0.0
  0
LINE
  8
0
 62
     0
 10
165.17
 20
46.0209
 30
0.0
 11
165.17
 21
45.0204
 31
0.0
  0
LINE
  8
0
 62
     0
 10
165.17
 20
45.0204
 30
0.0
 11
164.371
 21
45.0204
 31
0.0
  0
LINE
  8
0
 62
     0
 10
164.371
 20
45.0204
 30
0.0
 11
164.371
 21
42.0716
 31
0.0
  0
LINE
  8
0
 62
     0
 10
164.371
 20
42.0716
 30
0.0
 11
165.17
 21
42.0716
 31
0.0
  0
LINE
  8
0
 62
     0
 10
165.17
 20
42.0716
 30
0.0
 11
165.17
 21
36.1213
 31
0.0
  0
LINE
  8
0
 62
     0
 10
165.17
 20
36.1213
 30
0.0
 11
164.371
 21
36.1213
 31
0.0
  0
LINE
  8
0
 62
     0
 10
164.371
 20
36.1213
 30
0.0
 11
164.371
 21
33.1707
 31
0.0
  0
LINE
  8
0
 62
     0
 10
164.371
 20
33.1707
 30
0.0
 11
165.17
 21
33.1707
 31
0.0
  0
LINE
  8
0
 62
     0
 10
165.17
 20
33.1707
 30
0.0
 11
165.17
 21
32.1717
 31
0.0
  0
LINE
  8
0
 62
     0
 10
165.17
 20
32.1717
 30
0.0
 11
179.021
 21
32.1717
 31
0.0
  0
LINE
  8
0
 62
     0
 10
179.021
 20
32.1717
 30
0.0
 11
179.021
 21
33.1707
 31
0.0
  0
LINE
  8
0
 62
     0
 10
179.021
 20
33.1707
 30
0.0
 11
179.82
 21
33.1707
 31
0.0
  0
LINE
  8
0
 62
     0
 10
179.82
 20
33.1707
 30
0.0
 11
179.82
 21
36.1213
 31
0.0
  0
LINE
  8
0
 62
     0
 10
179.82
 20
36.1213
 30
0.0
 11
179.021
 21
36.1213
 31
0.0
  0
LINE
  8
0
 62
     0
 10
179.021
 20
36.1213
 30
0.0
 11
179.021
 21
42.0716
 31
0.0
  0
LINE
  8
0
 62
     0
 10
179.021
 20
42.0716
 30
0.0
 11
179.82
 21
42.0716
 31
0.0
  0
LINE
  8
0
 62
     0
 10
179.82
 20
42.0716
 30
0.0
 11
179.82
 21
45.0204
 31
0.0
  0
LINE
  8
0
 62
     0
 10
179.82
 20
45.0204
 30
0.0
 11
179.021
 21
45.0204
 31
0.0
  0
LINE
  8
0
 62
     0
 10
179.021
 20
45.0204
 30
0.0
 11
179.021
 21
46.0209
 31
0.0
  0
LINE
  8
0
 62
     0
 10
179.021
 20
46.0209
 30
0.0
 11
165.17
 21
46.0209
 31
0.0
  0
LINE
  8
0
 62
     0
 10
184.22
 20
46.0209
 30
0.0
 11
184.22
 21
45.0204
 31
0.0
  0
LINE
  8
0
 62
     0
 10
184.22
 20
45.0204
 30
0.0
 11
183.421
 21
45.0204
 31
0.0
  0
LINE
  8
0
 62
     0
 10
183.421
 20
45.0204
 30
0.0
 11
183.421
 21
42.0716
 31
0.0
  0
LINE
  8
0
 62
     0
 10
183.421
 20
42.0716
 30
0.0
 11
184.22
 21
42.0716
 31
0.0
  0
LINE
  8
0
 62
     0
 10
184.22
 20
42.0716
 30
0.0
 11
184.22
 21
36.1213
 31
0.0
  0
LINE
  8
0
 62
     0
 10
184.22
 20
36.1213
 30
0.0
 11
183.421
 21
36.1213
 31
0.0
  0
LINE
  8
0
 62
     0
 10
183.421
 20
36.1213
 30
0.0
 11
183.421
 21
33.1707
 31
0.0
  0
LINE
  8
0
 62
     0
 10
183.421
 20
33.1707
 30
0.0
 11
184.22
 21
33.1707
 31
0.0
  0
LINE
  8
0
 62
     0
 10
184.22
 20
33.1707
 30
0.0
 11
184.22
 21
32.1717
 31
0.0
  0
LINE
  8
0
 62
     0
 10
184.22
 20
32.1717
 30
0.0
 11
198.071
 21
32.1717
 31
0.0
  0
LINE
  8
0
 62
     0
 10
198.071
 20
32.1717
 30
0.0
 11
198.071
 21
33.1707
 31
0.0
  0
LINE
  8
0
 62
     0
 10
198.071
 20
33.1707
 30
0.0
 11
198.87
 21
33.1707
 31
0.0
  0
LINE
  8
0
 62
     0
 10
198.87
 20
33.1707
 30
0.0
 11
198.87
 21
36.1213
 31
0.0
  0
LINE
  8
0
 62
     0
 10
198.87
 20
36.1213
 30
0.0
 11
198.071
 21
36.1213
 31
0.0
  0
LINE
  8
0
 62
     0
 10
198.071
 20
36.1213
 30
0.0
 11
198.071
 21
42.0716
 31
0.0
  0
LINE
  8
0
 62
     0
 10
198.071
 20
42.0716
 30
0.0
 11
198.87
 21
42.0716
 31
0.0
  0
LINE
  8
0
 62
     0
 10
198.87
 20
42.0716
 30
0.0
 11
198.87
 21
45.0204
 31
0.0
  0
LINE
  8
0
 62
     0
 10
198.87
 20
45.0204
 30
0.0
 11
198.071
 21
45.0204
 31
0.0
  0
LINE
  8
0
 62
     0
 10
198.071
 20
45.0204
 30
0.0
 11
198.071
 21
46.0209
 31
0.0
  0
LINE
  8
0
 62
     0
 10
198.071
 20
46.0209
 30
0.0
 11
184.22
 21
46.0209
 31
0.0
  0
LINE
  8
0
 62
     0
 10
203.27
 20
46.0209
 30
0.0
 11
203.27
 21
45.0204
 31
0.0
  0
LINE
  8
0
 62
     0
 10
203.27
 20
45.0204
 30
0.0
 11
202.471
 21
45.0204
 31
0.0
  0
LINE
  8
0
 62
     0
 10
202.471
 20
45.0204
 30
0.0
 11
202.471
 21
42.0716
 31
0.0
  0
LINE
  8
0
 62
     0
 10
202.471
 20
42.0716
 30
0.0
 11
203.27
 21
42.0716
 31
0.0
  0
LINE
  8
0
 62
     0
 10
203.27
 20
42.0716
 30
0.0
 11
203.27
 21
36.1213
 31
0.0
  0
LINE
  8
0
 62
     0
 10
203.27
 20
36.1213
 30
0.0
 11
202.471
 21
36.1213
 31
0.0
  0
LINE
  8
0
 62
     0
 10
202.471
 20
36.1213
 30
0.0
 11
202.471
 21
33.1707
 31
0.0
  0
LINE
  8
0
 62
     0
 10
202.471
 20
33.1707
 30
0.0
 11
203.27
 21
33.1707
 31
0.0
  0
LINE
  8
0
 62
     0
 10
203.27
 20
33.1707
 30
0.0
 11
203.27
 21
32.1717
 31
0.0
  0
LINE
  8
0
 62
     0
 10
203.27
 20
32.1717
 30
0.0
 11
217.121
 21
32.1717
 31
0.0
  0
LINE
  8
0
 62
     0
 10
217.121
 20
32.1717
 30
0.0
 11
217.121
 21
33.1707
 31
0.0
  0
LINE
  8
0
 62
     0
 10
217.121
 20
33.1707
 30
0.0
 11
217.92
 21
33.1707
 31
0.0
  0
LINE
  8
0
 62
     0
 10
217.92
 20
33.1707
 30
0.0
 11
217.92
 21
36.1213
 31
0.0
  0
LINE
  8
0
 62
     0
 10
217.92
 20
36.1213
 30
0.0
 11
217.121
 21
36.1213
 31
0.0
  0
LINE
  8
0
 62
     0
 10
217.121
 20
36.1213
 30
0.0
 11
217.121
 21
42.0716
 31
0.0
  0
LINE
  8
0
 62
     0
 10
217.121
 20
42.0716
 30
0.0
 11
217.92
 21
42.0716
 31
0.0
  0
LINE
  8
0
 62
     0
 10
217.92
 20
42.0716
 30
0.0
 11
217.92
 21
45.0204
 31
0.0
  0
LINE
  8
0
 62
     0
 10
217.92
 20
45.0204
 30
0.0
 11
217.121
 21
45.0204
 31
0.0
  0
LINE
  8
0
 62
     0
 10
217.121
 20
45.0204
 30
0.0
 11
217.121
 21
46.0209
 31
0.0
  0
LINE
  8
0
 62
     0
 10
217.121
 20
46.0209
 30
0.0
 11
203.27
 21
46.0209
 31
0.0
  0
LINE
  8
0
 62
     0
 10
222.32
 20
46.0209
 30
0.0
 11
222.32
 21
45.0204
 31
0.0
  0
LINE
  8
0
 62
     0
 10
222.32
 20
45.0204
 30
0.0
 11
221.521
 21
45.0204
 31
0.0
  0
LINE
  8
0
 62
     0
 10
221.521
 20
45.0204
 30
0.0
 11
221.521
 21
42.0716
 31
0.0
  0
LINE
  8
0
 62
     0
 10
221.521
 20
42.0716
 30
0.0
 11
222.32
 21
42.0716
 31
0.0
  0
LINE
  8
0
 62
     0
 10
222.32
 20
42.0716
 30
0.0
 11
222.32
 21
36.1213
 31
0.0
  0
LINE
  8
0
 62
     0
 10
222.32
 20
36.1213
 30
0.0
 11
221.521
 21
36.1213
 31
0.0
  0
LINE
  8
0
 62
     0
 10
221.521
 20
36.1213
 30
0.0
 11
221.521
 21
33.1707
 31
0.0
  0
LINE
  8
0
 62
     0
 10
221.521
 20
33.1707
 30
0.0
 11
222.32
 21
33.1707
 31
0.0
  0
LINE
  8
0
 62
     0
 10
222.32
 20
33.1707
 30
0.0
 11
222.32
 21
32.1717
 31
0.0
  0
LINE
  8
0
 62
     0
 10
222.32
 20
32.1717
 30
0.0
 11
236.171
 21
32.1717
 31
0.0
  0
LINE
  8
0
 62
     0
 10
236.171
 20
32.1717
 30
0.0
 11
236.171
 21
33.1707
 31
0.0
  0
LINE
  8
0
 62
     0
 10
236.171
 20
33.1707
 30
0.0
 11
236.97
 21
33.1707
 31
0.0
  0
LINE
  8
0
 62
     0
 10
236.97
 20
33.1707
 30
0.0
 11
236.97
 21
36.1213
 31
0.0
  0
LINE
  8
0
 62
     0
 10
236.97
 20
36.1213
 30
0.0
 11
236.171
 21
36.1213
 31
0.0
  0
LINE
  8
0
 62
     0
 10
236.171
 20
36.1213
 30
0.0
 11
236.171
 21
42.0716
 31
0.0
  0
LINE
  8
0
 62
     0
 10
236.171
 20
42.0716
 30
0.0
 11
236.97
 21
42.0716
 31
0.0
  0
LINE
  8
0
 62
     0
 10
236.97
 20
42.0716
 30
0.0
 11
236.97
 21
45.0204
 31
0.0
  0
LINE
  8
0
 62
     0
 10
236.97
 20
45.0204
 30
0.0
 11
236.171
 21
45.0204
 31
0.0
  0
LINE
  8
0
 62
     0
 10
236.171
 20
45.0204
 30
0.0
 11
236.171
 21
46.0209
 31
0.0
  0
LINE
  8
0
 62
     0
 10
236.171
 20
46.0209
 30
0.0
 11
222.32
 21
46.0209
 31
0.0
  0
LINE
  8
0
 62
     0
 10
241.37
 20
46.0209
 30
0.0
 11
241.37
 21
45.0204
 31
0.0
  0
LINE
  8
0
 62
     0
 10
241.37
 20
45.0204
 30
0.0
 11
240.571
 21
45.0204
 31
0.0
  0
LINE
  8
0
 62
     0
 10
240.571
 20
45.0204
 30
0.0
 11
240.571
 21
42.0716
 31
0.0
  0
LINE
  8
0
 62
     0
 10
240.571
 20
42.0716
 30
0.0
 11
241.37
 21
42.0716
 31
0.0
  0
LINE
  8
0
 62
     0
 10
241.37
 20
42.0716
 30
0.0
 11
241.37
 21
36.1213
 31
0.0
  0
LINE
  8
0
 62
     0
 10
241.37
 20
36.1213
 30
0.0
 11
240.571
 21
36.1213
 31
0.0
  0
LINE
  8
0
 62
     0
 10
240.571
 20
36.1213
 30
0.0
 11
240.571
 21
33.1707
 31
0.0
  0
LINE
  8
0
 62
     0
 10
240.571
 20
33.1707
 30
0.0
 11
241.37
 21
33.1707
 31
0.0
  0
LINE
  8
0
 62
     0
 10
241.37
 20
33.1707
 30
0.0
 11
241.37
 21
32.1717
 31
0.0
  0
LINE
  8
0
 62
     0
 10
241.37
 20
32.1717
 30
0.0
 11
255.221
 21
32.1717
 31
0.0
  0
LINE
  8
0
 62
     0
 10
255.221
 20
32.1717
 30
0.0
 11
255.221
 21
33.1707
 31
0.0
  0
LINE
  8
0
 62
     0
 10
255.221
 20
33.1707
 30
0.0
 11
256.02
 21
33.1707
 31
0.0
  0
LINE
  8
0
 62
     0
 10
256.02
 20
33.1707
 30
0.0
 11
256.02
 21
36.1213
 31
0.0
  0
LINE
  8
0
 62
     0
 10
256.02
 20
36.1213
 30
0.0
 11
255.221
 21
36.1213
 31
0.0
  0
LINE
  8
0
 62
     0
 10
255.221
 20
36.1213
 30
0.0
 11
255.221
 21
42.0716
 31
0.0
  0
LINE
  8
0
 62
     0
 10
255.221
 20
42.0716
 30
0.0
 11
256.02
 21
42.0716
 31
0.0
  0
LINE
  8
0
 62
     0
 10
256.02
 20
42.0716
 30
0.0
 11
256.02
 21
45.0204
 31
0.0
  0
LINE
  8
0
 62
     0
 10
256.02
 20
45.0204
 30
0.0
 11
255.221
 21
45.0204
 31
0.0
  0
LINE
  8
0
 62
     0
 10
255.221
 20
45.0204
 30
0.0
 11
255.221
 21
46.0209
 31
0.0
  0
LINE
  8
0
 62
     0
 10
255.221
 20
46.0209
 30
0.0
 11
241.37
 21
46.0209
 31
0.0
  0
LINE
  8
0
 62
     0
 10
260.42
 20
46.0209
 30
0.0
 11
260.42
 21
45.0204
 31
0.0
  0
LINE
  8
0
 62
     0
 10
260.42
 20
45.0204
 30
0.0
 11
259.621
 21
45.0204
 31
0.0
  0
LINE
  8
0
 62
     0
 10
259.621
 20
45.0204
 30
0.0
 11
259.621
 21
42.0716
 31
0.0
  0
LINE
  8
0
 62
     0
 10
259.621
 20
42.0716
 30
0.0
 11
260.42
 21
42.0716
 31
0.0
  0
LINE
  8
0
 62
     0
 10
260.42
 20
42.0716
 30
0.0
 11
260.42
 21
36.1213
 31
0.0
  0
LINE
  8
0
 62
     0
 10
260.42
 20
36.1213
 30
0.0
 11
259.621
 21
36.1213
 31
0.0
  0
LINE
  8
0
 62
     0
 10
259.621
 20
36.1213
 30
0.0
 11
259.621
 21
33.1707
 31
0.0
  0
LINE
  8
0
 62
     0
 10
259.621
 20
33.1707
 30
0.0
 11
260.42
 21
33.1707
 31
0.0
  0
LINE
  8
0
 62
     0
 10
260.42
 20
33.1707
 30
0.0
 11
260.42
 21
32.1717
 31
0.0
  0
LINE
  8
0
 62
     0
 10
260.42
 20
32.1717
 30
0.0
 11
274.271
 21
32.1717
 31
0.0
  0
LINE
  8
0
 62
     0
 10
274.271
 20
32.1717
 30
0.0
 11
274.271
 21
33.1707
 31
0.0
  0
LINE
  8
0
 62
     0
 10
274.271
 20
33.1707
 30
0.0
 11
275.07
 21
33.1707
 31
0.0
  0
LINE
  8
0
 62
     0
 10
275.07
 20
33.1707
 30
0.0
 11
275.07
 21
36.1213
 31
0.0
  0
LINE
  8
0
 62
     0
 10
275.07
 20
36.1213
 30
0.0
 11
274.271
 21
36.1213
 31
0.0
  0
LINE
  8
0
 62
     0
 10
274.271
 20
36.1213
 30
0.0
 11
274.271
 21
42.0716
 31
0.0
  0
LINE
  8
0
 62
     0
 10
274.271
 20
42.0716
 30
0.0
 11
275.07
 21
42.0716
 31
0.0
  0
LINE
  8
0
 62
     0
 10
275.07
 20
42.0716
 30
0.0
 11
275.07
 21
45.0204
 31
0.0
  0
LINE
  8
0
 62
     0
 10
275.07
 20
45.0204
 30
0.0
 11
274.271
 21
45.0204
 31
0.0
  0
LINE
  8
0
 62
     0
 10
274.271
 20
45.0204
 30
0.0
 11
274.271
 21
46.0209
 31
0.0
  0
LINE
  8
0
 62
     0
 10
274.271
 20
46.0209
 30
0.0
 11
260.42
 21
46.0209
 31
0.0
  0
LINE
  8
0
 62
     0
 10
279.47
 20
46.0209
 30
0.0
 11
279.47
 21
45.0204
 31
0.0
  0
LINE
  8
0
 62
     0
 10
279.47
 20
45.0204
 30
0.0
 11
278.671
 21
45.0204
 31
0.0
  0
LINE
  8
0
 62
     0
 10
278.671
 20
45.0204
 30
0.0
 11
278.671
 21
42.0716
 31
0.0
  0
LINE
  8
0
 62
     0
 10
278.671
 20
42.0716
 30
0.0
 11
279.47
 21
42.0716
 31
0.0
  0
LINE
  8
0
 62
     0
 10
279.47
 20
42.0716
 30
0.0
 11
279.47
 21
36.1213
 31
0.0
  0
LINE
  8
0
 62
     0
 10
279.47
 20
36.1213
 30
0.0
 11
278.671
 21
36.1213
 31
0.0
  0
LINE
  8
0
 62
     0
 10
278.671
 20
36.1213
 30
0.0
 11
278.671
 21
33.1707
 31
0.0
  0
LINE
  8
0
 62
     0
 10
278.671
 20
33.1707
 30
0.0
 11
279.47
 21
33.1707
 31
0.0
  0
LINE
  8
0
 62
     0
 10
279.47
 20
33.1707
 30
0.0
 11
279.47
 21
32.1717
 31
0.0
  0
LINE
  8
0
 62
     0
 10
279.47
 20
32.1717
 30
0.0
 11
293.321
 21
32.1717
 31
0.0
  0
LINE
  8
0
 62
     0
 10
293.321
 20
32.1717
 30
0.0
 11
293.321
 21
33.1707
 31
0.0
  0
LINE
  8
0
 62
     0
 10
293.321
 20
33.1707
 30
0.0
 11
294.12
 21
33.1707
 31
0.0
  0
LINE
  8
0
 62
     0
 10
294.12
 20
33.1707
 30
0.0
 11
294.12
 21
36.1213
 31
0.0
  0
LINE
  8
0
 62
     0
 10
294.12
 20
36.1213
 30
0.0
 11
293.321
 21
36.1213
 31
0.0
  0
LINE
  8
0
 62
     0
 10
293.321
 20
36.1213
 30
0.0
 11
293.321
 21
42.0716
 31
0.0
  0
LINE
  8
0
 62
     0
 10
293.321
 20
42.0716
 30
0.0
 11
294.12
 21
42.0716
 31
0.0
  0
LINE
  8
0
 62
     0
 10
294.12
 20
42.0716
 30
0.0
 11
294.12
 21
45.0204
 31
0.0
  0
LINE
  8
0
 62
     0
 10
294.12
 20
45.0204
 30
0.0
 11
293.321
 21
45.0204
 31
0.0
  0
LINE
  8
0
 62
     0
 10
293.321
 20
45.0204
 30
0.0
 11
293.321
 21
46.0209
 31
0.0
  0
LINE
  8
0
 62
     0
 10
293.321
 20
46.0209
 30
0.0
 11
279.47
 21
46.0209
 31
0.0
  0
LINE
  8
0
 62
     0
 10
250.895
 20
65.0709
 30
0.0
 11
250.895
 21
64.0704
 31
0.0
  0
LINE
  8
0
 62
     0
 10
250.895
 20
64.0704
 30
0.0
 11
250.096
 21
64.0704
 31
0.0
  0
LINE
  8
0
 62
     0
 10
250.096
 20
64.0704
 30
0.0
 11
250.096
 21
61.1216
 31
0.0
  0
LINE
  8
0
 62
     0
 10
250.096
 20
61.1216
 30
0.0
 11
250.895
 21
61.1216
 31
0.0
  0
LINE
  8
0
 62
     0
 10
250.895
 20
61.1216
 30
0.0
 11
250.895
 21
60.3719
 31
0.0
  0
LINE
  8
0
 62
     0
 10
250.895
 20
60.3719
 30
0.0
 11
249.221
 21
60.3719
 31
0.0
  0
LINE
  8
0
 62
     0
 10
249.221
 20
60.3719
 30
0.0
 11
249.221
 21
63.6005
 31
0.0
  0
LINE
  8
0
 62
     0
 10
249.221
 20
63.6005
 30
0.0
 11
242.62
 21
63.6005
 31
0.0
  0
LINE
  8
0
 62
     0
 10
242.62
 20
63.6005
 30
0.0
 11
242.62
 21
60.3719
 31
0.0
  0
LINE
  8
0
 62
     0
 10
242.62
 20
60.3719
 30
0.0
 11
241.796
 21
60.3719
 31
0.0
  0
LINE
  8
0
 62
     0
 10
241.796
 20
60.3719
 30
0.0
 11
241.796
 21
57.7204
 31
0.0
  0
LINE
  8
0
 62
     0
 10
241.796
 20
57.7204
 30
0.0
 11
242.62
 21
57.7204
 31
0.0
  0
LINE
  8
0
 62
     0
 10
242.62
 20
57.7204
 30
0.0
 11
242.62
 21
51.4519
 31
0.0
  0
LINE
  8
0
 62
     0
 10
242.62
 20
51.4519
 30
0.0
 11
244.346
 21
51.4519
 31
0.0
  0
LINE
  8
0
 62
     0
 10
244.346
 20
51.4519
 30
0.0
 11
244.346
 21
50.2514
 31
0.0
  0
LINE
  8
0
 62
     0
 10
244.346
 20
50.2514
 30
0.0
 11
247.496
 21
50.2514
 31
0.0
  0
LINE
  8
0
 62
     0
 10
247.496
 20
50.2514
 30
0.0
 11
247.496
 21
51.4519
 31
0.0
  0
LINE
  8
0
 62
     0
 10
247.496
 20
51.4519
 30
0.0
 11
249.221
 21
51.4519
 31
0.0
  0
LINE
  8
0
 62
     0
 10
249.221
 20
51.4519
 30
0.0
 11
249.221
 21
55.9209
 31
0.0
  0
LINE
  8
0
 62
     0
 10
249.221
 20
55.9209
 30
0.0
 11
250.895
 21
55.9209
 31
0.0
  0
LINE
  8
0
 62
     0
 10
250.895
 20
55.9209
 30
0.0
 11
250.895
 21
55.1713
 31
0.0
  0
LINE
  8
0
 62
     0
 10
250.895
 20
55.1713
 30
0.0
 11
250.096
 21
55.1713
 31
0.0
  0
LINE
  8
0
 62
     0
 10
250.096
 20
55.1713
 30
0.0
 11
250.096
 21
52.2206
 31
0.0
  0
LINE
  8
0
 62
     0
 10
250.096
 20
52.2206
 30
0.0
 11
250.895
 21
52.2206
 31
0.0
  0
LINE
  8
0
 62
     0
 10
250.895
 20
52.2206
 30
0.0
 11
250.895
 21
51.2216
 31
0.0
  0
LINE
  8
0
 62
     0
 10
250.895
 20
51.2216
 30
0.0
 11
264.746
 21
51.2216
 31
0.0
  0
LINE
  8
0
 62
     0
 10
264.746
 20
51.2216
 30
0.0
 11
264.746
 21
52.2206
 31
0.0
  0
LINE
  8
0
 62
     0
 10
264.746
 20
52.2206
 30
0.0
 11
265.545
 21
52.2206
 31
0.0
  0
LINE
  8
0
 62
     0
 10
265.545
 20
52.2206
 30
0.0
 11
265.545
 21
55.1713
 31
0.0
  0
LINE
  8
0
 62
     0
 10
265.545
 20
55.1713
 30
0.0
 11
264.746
 21
55.1713
 31
0.0
  0
LINE
  8
0
 62
     0
 10
264.746
 20
55.1713
 30
0.0
 11
264.746
 21
55.9209
 31
0.0
  0
LINE
  8
0
 62
     0
 10
264.746
 20
55.9209
 30
0.0
 11
266.42
 21
55.9209
 31
0.0
  0
LINE
  8
0
 62
     0
 10
266.42
 20
55.9209
 30
0.0
 11
266.42
 21
51.4519
 31
0.0
  0
LINE
  8
0
 62
     0
 10
266.42
 20
51.4519
 30
0.0
 11
268.146
 21
51.4519
 31
0.0
  0
LINE
  8
0
 62
     0
 10
268.146
 20
51.4519
 30
0.0
 11
268.146
 21
50.2514
 31
0.0
  0
LINE
  8
0
 62
     0
 10
268.146
 20
50.2514
 30
0.0
 11
271.296
 21
50.2514
 31
0.0
  0
LINE
  8
0
 62
     0
 10
271.296
 20
50.2514
 30
0.0
 11
271.296
 21
51.4519
 31
0.0
  0
LINE
  8
0
 62
     0
 10
271.296
 20
51.4519
 30
0.0
 11
273.021
 21
51.4519
 31
0.0
  0
LINE
  8
0
 62
     0
 10
273.021
 20
51.4519
 30
0.0
 11
273.021
 21
57.7204
 31
0.0
  0
LINE
  8
0
 62
     0
 10
273.021
 20
57.7204
 30
0.0
 11
273.845
 21
57.7204
 31
0.0
  0
LINE
  8
0
 62
     0
 10
273.845
 20
57.7204
 30
0.0
 11
273.845
 21
60.3719
 31
0.0
  0
LINE
  8
0
 62
     0
 10
273.845
 20
60.3719
 30
0.0
 11
273.021
 21
60.3719
 31
0.0
  0
LINE
  8
0
 62
     0
 10
273.021
 20
60.3719
 30
0.0
 11
273.021
 21
63.6005
 31
0.0
  0
LINE
  8
0
 62
     0
 10
273.021
 20
63.6005
 30
0.0
 11
266.42
 21
63.6005
 31
0.0
  0
LINE
  8
0
 62
     0
 10
266.42
 20
63.6005
 30
0.0
 11
266.42
 21
60.3719
 31
0.0
  0
LINE
  8
0
 62
     0
 10
266.42
 20
60.3719
 30
0.0
 11
264.746
 21
60.3719
 31
0.0
  0
LINE
  8
0
 62
     0
 10
264.746
 20
60.3719
 30
0.0
 11
264.746
 21
61.1216
 31
0.0
  0
LINE
  8
0
 62
     0
 10
264.746
 20
61.1216
 30
0.0
 11
265.545
 21
61.1216
 31
0.0
  0
LINE
  8
0
 62
     0
 10
265.545
 20
61.1216
 30
0.0
 11
265.545
 21
64.0704
 31
0.0
  0
LINE
  8
0
 62
     0
 10
265.545
 20
64.0704
 30
0.0
 11
264.746
 21
64.0704
 31
0.0
  0
LINE
  8
0
 62
     0
 10
264.746
 20
64.0704
 30
0.0
 11
264.746
 21
65.0709
 31
0.0
  0
LINE
  8
0
 62
     0
 10
264.746
 20
65.0709
 30
0.0
 11
250.895
 21
65.0709
 31
0.0
  0
LINE
  8
0
 62
     0
 10
12.7703
 20
65.0709
 30
0.0
 11
12.7703
 21
64.0704
 31
0.0
  0
LINE
  8
0
 62
     0
 10
12.7703
 20
64.0704
 30
0.0
 11
11.971
 21
64.0704
 31
0.0
  0
LINE
  8
0
 62
     0
 10
11.971
 20
64.0704
 30
0.0
 11
11.971
 21
61.1216
 31
0.0
  0
LINE
  8
0
 62
     0
 10
11.971
 20
61.1216
 30
0.0
 11
12.7703
 21
61.1216
 31
0.0
  0
LINE
  8
0
 62
     0
 10
12.7703
 20
61.1216
 30
0.0
 11
12.7703
 21
55.1713
 31
0.0
  0
LINE
  8
0
 62
     0
 10
12.7703
 20
55.1713
 30
0.0
 11
11.971
 21
55.1713
 31
0.0
  0
LINE
  8
0
 62
     0
 10
11.971
 20
55.1713
 30
0.0
 11
11.971
 21
52.2206
 31
0.0
  0
LINE
  8
0
 62
     0
 10
11.971
 20
52.2206
 30
0.0
 11
12.7703
 21
52.2206
 31
0.0
  0
LINE
  8
0
 62
     0
 10
12.7703
 20
52.2206
 30
0.0
 11
12.7703
 21
51.2216
 31
0.0
  0
LINE
  8
0
 62
     0
 10
12.7703
 20
51.2216
 30
0.0
 11
26.6209
 21
51.2216
 31
0.0
  0
LINE
  8
0
 62
     0
 10
26.6209
 20
51.2216
 30
0.0
 11
26.6209
 21
52.2206
 31
0.0
  0
LINE
  8
0
 62
     0
 10
26.6209
 20
52.2206
 30
0.0
 11
27.4202
 21
52.2206
 31
0.0
  0
LINE
  8
0
 62
     0
 10
27.4202
 20
52.2206
 30
0.0
 11
27.4202
 21
55.1713
 31
0.0
  0
LINE
  8
0
 62
     0
 10
27.4202
 20
55.1713
 30
0.0
 11
26.6209
 21
55.1713
 31
0.0
  0
LINE
  8
0
 62
     0
 10
26.6209
 20
55.1713
 30
0.0
 11
26.6209
 21
61.1216
 31
0.0
  0
LINE
  8
0
 62
     0
 10
26.6209
 20
61.1216
 30
0.0
 11
27.4202
 21
61.1216
 31
0.0
  0
LINE
  8
0
 62
     0
 10
27.4202
 20
61.1216
 30
0.0
 11
27.4202
 21
64.0704
 31
0.0
  0
LINE
  8
0
 62
     0
 10
27.4202
 20
64.0704
 30
0.0
 11
26.6209
 21
64.0704
 31
0.0
  0
LINE
  8
0
 62
     0
 10
26.6209
 20
64.0704
 30
0.0
 11
26.6209
 21
65.0709
 31
0.0
  0
LINE
  8
0
 62
     0
 10
26.6209
 20
65.0709
 30
0.0
 11
12.7703
 21
65.0709
 31
0.0
  0
LINE
  8
0
 62
     0
 10
31.8203
 20
65.0709
 30
0.0
 11
31.8203
 21
64.0704
 31
0.0
  0
LINE
  8
0
 62
     0
 10
31.8203
 20
64.0704
 30
0.0
 11
31.021
 21
64.0704
 31
0.0
  0
LINE
  8
0
 62
     0
 10
31.021
 20
64.0704
 30
0.0
 11
31.021
 21
61.1216
 31
0.0
  0
LINE
  8
0
 62
     0
 10
31.021
 20
61.1216
 30
0.0
 11
31.8203
 21
61.1216
 31
0.0
  0
LINE
  8
0
 62
     0
 10
31.8203
 20
61.1216
 30
0.0
 11
31.8203
 21
55.1713
 31
0.0
  0
LINE
  8
0
 62
     0
 10
31.8203
 20
55.1713
 30
0.0
 11
31.021
 21
55.1713
 31
0.0
  0
LINE
  8
0
 62
     0
 10
31.021
 20
55.1713
 30
0.0
 11
31.021
 21
52.2206
 31
0.0
  0
LINE
  8
0
 62
     0
 10
31.021
 20
52.2206
 30
0.0
 11
31.8203
 21
52.2206
 31
0.0
  0
LINE
  8
0
 62
     0
 10
31.8203
 20
52.2206
 30
0.0
 11
31.8203
 21
51.2216
 31
0.0
  0
LINE
  8
0
 62
     0
 10
31.8203
 20
51.2216
 30
0.0
 11
45.671
 21
51.2216
 31
0.0
  0
LINE
  8
0
 62
     0
 10
45.671
 20
51.2216
 30
0.0
 11
45.671
 21
52.2206
 31
0.0
  0
LINE
  8
0
 62
     0
 10
45.671
 20
52.2206
 30
0.0
 11
46.4704
 21
52.2206
 31
0.0
  0
LINE
  8
0
 62
     0
 10
46.4704
 20
52.2206
 30
0.0
 11
46.4704
 21
55.1713
 31
0.0
  0
LINE
  8
0
 62
     0
 10
46.4704
 20
55.1713
 30
0.0
 11
45.671
 21
55.1713
 31
0.0
  0
LINE
  8
0
 62
     0
 10
45.671
 20
55.1713
 30
0.0
 11
45.671
 21
61.1216
 31
0.0
  0
LINE
  8
0
 62
     0
 10
45.671
 20
61.1216
 30
0.0
 11
46.4704
 21
61.1216
 31
0.0
  0
LINE
  8
0
 62
     0
 10
46.4704
 20
61.1216
 30
0.0
 11
46.4704
 21
64.0704
 31
0.0
  0
LINE
  8
0
 62
     0
 10
46.4704
 20
64.0704
 30
0.0
 11
45.671
 21
64.0704
 31
0.0
  0
LINE
  8
0
 62
     0
 10
45.671
 20
64.0704
 30
0.0
 11
45.671
 21
65.0709
 31
0.0
  0
LINE
  8
0
 62
     0
 10
45.671
 20
65.0709
 30
0.0
 11
31.8203
 21
65.0709
 31
0.0
  0
LINE
  8
0
 62
     0
 10
50.8702
 20
65.0709
 30
0.0
 11
50.8702
 21
64.0704
 31
0.0
  0
LINE
  8
0
 62
     0
 10
50.8702
 20
64.0704
 30
0.0
 11
50.0712
 21
64.0704
 31
0.0
  0
LINE
  8
0
 62
     0
 10
50.0712
 20
64.0704
 30
0.0
 11
50.0712
 21
61.1216
 31
0.0
  0
LINE
  8
0
 62
     0
 10
50.0712
 20
61.1216
 30
0.0
 11
50.8702
 21
61.1216
 31
0.0
  0
LINE
  8
0
 62
     0
 10
50.8702
 20
61.1216
 30
0.0
 11
50.8702
 21
55.1713
 31
0.0
  0
LINE
  8
0
 62
     0
 10
50.8702
 20
55.1713
 30
0.0
 11
50.0712
 21
55.1713
 31
0.0
  0
LINE
  8
0
 62
     0
 10
50.0712
 20
55.1713
 30
0.0
 11
50.0712
 21
52.2206
 31
0.0
  0
LINE
  8
0
 62
     0
 10
50.0712
 20
52.2206
 30
0.0
 11
50.8702
 21
52.2206
 31
0.0
  0
LINE
  8
0
 62
     0
 10
50.8702
 20
52.2206
 30
0.0
 11
50.8702
 21
51.2216
 31
0.0
  0
LINE
  8
0
 62
     0
 10
50.8702
 20
51.2216
 30
0.0
 11
64.721
 21
51.2216
 31
0.0
  0
LINE
  8
0
 62
     0
 10
64.721
 20
51.2216
 30
0.0
 11
64.721
 21
52.2206
 31
0.0
  0
LINE
  8
0
 62
     0
 10
64.721
 20
52.2206
 30
0.0
 11
65.5204
 21
52.2206
 31
0.0
  0
LINE
  8
0
 62
     0
 10
65.5204
 20
52.2206
 30
0.0
 11
65.5204
 21
55.1713
 31
0.0
  0
LINE
  8
0
 62
     0
 10
65.5204
 20
55.1713
 30
0.0
 11
64.721
 21
55.1713
 31
0.0
  0
LINE
  8
0
 62
     0
 10
64.721
 20
55.1713
 30
0.0
 11
64.721
 21
61.1216
 31
0.0
  0
LINE
  8
0
 62
     0
 10
64.721
 20
61.1216
 30
0.0
 11
65.5204
 21
61.1216
 31
0.0
  0
LINE
  8
0
 62
     0
 10
65.5204
 20
61.1216
 30
0.0
 11
65.5204
 21
64.0704
 31
0.0
  0
LINE
  8
0
 62
     0
 10
65.5204
 20
64.0704
 30
0.0
 11
64.721
 21
64.0704
 31
0.0
  0
LINE
  8
0
 62
     0
 10
64.721
 20
64.0704
 30
0.0
 11
64.721
 21
65.0709
 31
0.0
  0
LINE
  8
0
 62
     0
 10
64.721
 20
65.0709
 30
0.0
 11
50.8702
 21
65.0709
 31
0.0
  0
LINE
  8
0
 62
     0
 10
69.9202
 20
65.0709
 30
0.0
 11
69.9202
 21
64.0704
 31
0.0
  0
LINE
  8
0
 62
     0
 10
69.9202
 20
64.0704
 30
0.0
 11
69.1212
 21
64.0704
 31
0.0
  0
LINE
  8
0
 62
     0
 10
69.1212
 20
64.0704
 30
0.0
 11
69.1212
 21
61.1216
 31
0.0
  0
LINE
  8
0
 62
     0
 10
69.1212
 20
61.1216
 30
0.0
 11
69.9202
 21
61.1216
 31
0.0
  0
LINE
  8
0
 62
     0
 10
69.9202
 20
61.1216
 30
0.0
 11
69.9202
 21
55.1713
 31
0.0
  0
LINE
  8
0
 62
     0
 10
69.9202
 20
55.1713
 30
0.0
 11
69.1212
 21
55.1713
 31
0.0
  0
LINE
  8
0
 62
     0
 10
69.1212
 20
55.1713
 30
0.0
 11
69.1212
 21
52.2206
 31
0.0
  0
LINE
  8
0
 62
     0
 10
69.1212
 20
52.2206
 30
0.0
 11
69.9202
 21
52.2206
 31
0.0
  0
LINE
  8
0
 62
     0
 10
69.9202
 20
52.2206
 30
0.0
 11
69.9202
 21
51.2216
 31
0.0
  0
LINE
  8
0
 62
     0
 10
69.9202
 20
51.2216
 30
0.0
 11
83.771
 21
51.2216
 31
0.0
  0
LINE
  8
0
 62
     0
 10
83.771
 20
51.2216
 30
0.0
 11
83.771
 21
52.2206
 31
0.0
  0
LINE
  8
0
 62
     0
 10
83.771
 20
52.2206
 30
0.0
 11
84.5704
 21
52.2206
 31
0.0
  0
LINE
  8
0
 62
     0
 10
84.5704
 20
52.2206
 30
0.0
 11
84.5704
 21
55.1713
 31
0.0
  0
LINE
  8
0
 62
     0
 10
84.5704
 20
55.1713
 30
0.0
 11
83.771
 21
55.1713
 31
0.0
  0
LINE
  8
0
 62
     0
 10
83.771
 20
55.1713
 30
0.0
 11
83.771
 21
61.1216
 31
0.0
  0
LINE
  8
0
 62
     0
 10
83.771
 20
61.1216
 30
0.0
 11
84.5704
 21
61.1216
 31
0.0
  0
LINE
  8
0
 62
     0
 10
84.5704
 20
61.1216
 30
0.0
 11
84.5704
 21
64.0704
 31
0.0
  0
LINE
  8
0
 62
     0
 10
84.5704
 20
64.0704
 30
0.0
 11
83.771
 21
64.0704
 31
0.0
  0
LINE
  8
0
 62
     0
 10
83.771
 20
64.0704
 30
0.0
 11
83.771
 21
65.0709
 31
0.0
  0
LINE
  8
0
 62
     0
 10
83.771
 20
65.0709
 30
0.0
 11
69.9202
 21
65.0709
 31
0.0
  0
LINE
  8
0
 62
     0
 10
88.9702
 20
65.0709
 30
0.0
 11
88.9702
 21
64.0704
 31
0.0
  0
LINE
  8
0
 62
     0
 10
88.9702
 20
64.0704
 30
0.0
 11
88.1712
 21
64.0704
 31
0.0
  0
LINE
  8
0
 62
     0
 10
88.1712
 20
64.0704
 30
0.0
 11
88.1712
 21
61.1216
 31
0.0
  0
LINE
  8
0
 62
     0
 10
88.1712
 20
61.1216
 30
0.0
 11
88.9702
 21
61.1216
 31
0.0
  0
LINE
  8
0
 62
     0
 10
88.9702
 20
61.1216
 30
0.0
 11
88.9702
 21
55.1713
 31
0.0
  0
LINE
  8
0
 62
     0
 10
88.9702
 20
55.1713
 30
0.0
 11
88.1712
 21
55.1713
 31
0.0
  0
LINE
  8
0
 62
     0
 10
88.1712
 20
55.1713
 30
0.0
 11
88.1712
 21
52.2206
 31
0.0
  0
LINE
  8
0
 62
     0
 10
88.1712
 20
52.2206
 30
0.0
 11
88.9702
 21
52.2206
 31
0.0
  0
LINE
  8
0
 62
     0
 10
88.9702
 20
52.2206
 30
0.0
 11
88.9702
 21
51.2216
 31
0.0
  0
LINE
  8
0
 62
     0
 10
88.9702
 20
51.2216
 30
0.0
 11
102.821
 21
51.2216
 31
0.0
  0
LINE
  8
0
 62
     0
 10
102.821
 20
51.2216
 30
0.0
 11
102.821
 21
52.2206
 31
0.0
  0
LINE
  8
0
 62
     0
 10
102.821
 20
52.2206
 30
0.0
 11
103.619
 21
52.2206
 31
0.0
  0
LINE
  8
0
 62
     0
 10
103.619
 20
52.2206
 30
0.0
 11
103.619
 21
55.1713
 31
0.0
  0
LINE
  8
0
 62
     0
 10
103.619
 20
55.1713
 30
0.0
 11
102.821
 21
55.1713
 31
0.0
  0
LINE
  8
0
 62
     0
 10
102.821
 20
55.1713
 30
0.0
 11
102.821
 21
61.1216
 31
0.0
  0
LINE
  8
0
 62
     0
 10
102.821
 20
61.1216
 30
0.0
 11
103.619
 21
61.1216
 31
0.0
  0
LINE
  8
0
 62
     0
 10
103.619
 20
61.1216
 30
0.0
 11
103.619
 21
64.0704
 31
0.0
  0
LINE
  8
0
 62
     0
 10
103.619
 20
64.0704
 30
0.0
 11
102.821
 21
64.0704
 31
0.0
  0
LINE
  8
0
 62
     0
 10
102.821
 20
64.0704
 30
0.0
 11
102.821
 21
65.0709
 31
0.0
  0
LINE
  8
0
 62
     0
 10
102.821
 20
65.0709
 30
0.0
 11
88.9702
 21
65.0709
 31
0.0
  0
LINE
  8
0
 62
     0
 10
108.02
 20
65.0709
 30
0.0
 11
108.02
 21
64.0704
 31
0.0
  0
LINE
  8
0
 62
     0
 10
108.02
 20
64.0704
 30
0.0
 11
107.221
 21
64.0704
 31
0.0
  0
LINE
  8
0
 62
     0
 10
107.221
 20
64.0704
 30
0.0
 11
107.221
 21
61.1216
 31
0.0
  0
LINE
  8
0
 62
     0
 10
107.221
 20
61.1216
 30
0.0
 11
108.02
 21
61.1216
 31
0.0
  0
LINE
  8
0
 62
     0
 10
108.02
 20
61.1216
 30
0.0
 11
108.02
 21
55.1713
 31
0.0
  0
LINE
  8
0
 62
     0
 10
108.02
 20
55.1713
 30
0.0
 11
107.221
 21
55.1713
 31
0.0
  0
LINE
  8
0
 62
     0
 10
107.221
 20
55.1713
 30
0.0
 11
107.221
 21
52.2206
 31
0.0
  0
LINE
  8
0
 62
     0
 10
107.221
 20
52.2206
 30
0.0
 11
108.02
 21
52.2206
 31
0.0
  0
LINE
  8
0
 62
     0
 10
108.02
 20
52.2206
 30
0.0
 11
108.02
 21
51.2216
 31
0.0
  0
LINE
  8
0
 62
     0
 10
108.02
 20
51.2216
 30
0.0
 11
121.87
 21
51.2216
 31
0.0
  0
LINE
  8
0
 62
     0
 10
121.87
 20
51.2216
 30
0.0
 11
121.87
 21
52.2206
 31
0.0
  0
LINE
  8
0
 62
     0
 10
121.87
 20
52.2206
 30
0.0
 11
122.669
 21
52.2206
 31
0.0
  0
LINE
  8
0
 62
     0
 10
122.669
 20
52.2206
 30
0.0
 11
122.669
 21
55.1713
 31
0.0
  0
LINE
  8
0
 62
     0
 10
122.669
 20
55.1713
 30
0.0
 11
121.87
 21
55.1713
 31
0.0
  0
LINE
  8
0
 62
     0
 10
121.87
 20
55.1713
 30
0.0
 11
121.87
 21
61.1216
 31
0.0
  0
LINE
  8
0
 62
     0
 10
121.87
 20
61.1216
 30
0.0
 11
122.669
 21
61.1216
 31
0.0
  0
LINE
  8
0
 62
     0
 10
122.669
 20
61.1216
 30
0.0
 11
122.669
 21
64.0704
 31
0.0
  0
LINE
  8
0
 62
     0
 10
122.669
 20
64.0704
 30
0.0
 11
121.87
 21
64.0704
 31
0.0
  0
LINE
  8
0
 62
     0
 10
121.87
 20
64.0704
 30
0.0
 11
121.87
 21
65.0709
 31
0.0
  0
LINE
  8
0
 62
     0
 10
121.87
 20
65.0709
 30
0.0
 11
108.02
 21
65.0709
 31
0.0
  0
LINE
  8
0
 62
     0
 10
127.07
 20
65.0709
 30
0.0
 11
127.07
 21
64.0704
 31
0.0
  0
LINE
  8
0
 62
     0
 10
127.07
 20
64.0704
 30
0.0
 11
126.271
 21
64.0704
 31
0.0
  0
LINE
  8
0
 62
     0
 10
126.271
 20
64.0704
 30
0.0
 11
126.271
 21
61.1216
 31
0.0
  0
LINE
  8
0
 62
     0
 10
126.271
 20
61.1216
 30
0.0
 11
127.07
 21
61.1216
 31
0.0
  0
LINE
  8
0
 62
     0
 10
127.07
 20
61.1216
 30
0.0
 11
127.07
 21
55.1713
 31
0.0
  0
LINE
  8
0
 62
     0
 10
127.07
 20
55.1713
 30
0.0
 11
126.271
 21
55.1713
 31
0.0
  0
LINE
  8
0
 62
     0
 10
126.271
 20
55.1713
 30
0.0
 11
126.271
 21
52.2206
 31
0.0
  0
LINE
  8
0
 62
     0
 10
126.271
 20
52.2206
 30
0.0
 11
127.07
 21
52.2206
 31
0.0
  0
LINE
  8
0
 62
     0
 10
127.07
 20
52.2206
 30
0.0
 11
127.07
 21
51.2216
 31
0.0
  0
LINE
  8
0
 62
     0
 10
127.07
 20
51.2216
 30
0.0
 11
140.921
 21
51.2216
 31
0.0
  0
LINE
  8
0
 62
     0
 10
140.921
 20
51.2216
 30
0.0
 11
140.921
 21
52.2206
 31
0.0
  0
LINE
  8
0
 62
     0
 10
140.921
 20
52.2206
 30
0.0
 11
141.72
 21
52.2206
 31
0.0
  0
LINE
  8
0
 62
     0
 10
141.72
 20
52.2206
 30
0.0
 11
141.72
 21
55.1713
 31
0.0
  0
LINE
  8
0
 62
     0
 10
141.72
 20
55.1713
 30
0.0
 11
140.921
 21
55.1713
 31
0.0
  0
LINE
  8
0
 62
     0
 10
140.921
 20
55.1713
 30
0.0
 11
140.921
 21
61.1216
 31
0.0
  0
LINE
  8
0
 62
     0
 10
140.921
 20
61.1216
 30
0.0
 11
141.72
 21
61.1216
 31
0.0
  0
LINE
  8
0
 62
     0
 10
141.72
 20
61.1216
 30
0.0
 11
141.72
 21
64.0704
 31
0.0
  0
LINE
  8
0
 62
     0
 10
141.72
 20
64.0704
 30
0.0
 11
140.921
 21
64.0704
 31
0.0
  0
LINE
  8
0
 62
     0
 10
140.921
 20
64.0704
 30
0.0
 11
140.921
 21
65.0709
 31
0.0
  0
LINE
  8
0
 62
     0
 10
140.921
 20
65.0709
 30
0.0
 11
127.07
 21
65.0709
 31
0.0
  0
LINE
  8
0
 62
     0
 10
146.12
 20
65.0709
 30
0.0
 11
146.12
 21
64.0704
 31
0.0
  0
LINE
  8
0
 62
     0
 10
146.12
 20
64.0704
 30
0.0
 11
145.321
 21
64.0704
 31
0.0
  0
LINE
  8
0
 62
     0
 10
145.321
 20
64.0704
 30
0.0
 11
145.321
 21
61.1216
 31
0.0
  0
LINE
  8
0
 62
     0
 10
145.321
 20
61.1216
 30
0.0
 11
146.12
 21
61.1216
 31
0.0
  0
LINE
  8
0
 62
     0
 10
146.12
 20
61.1216
 30
0.0
 11
146.12
 21
55.1713
 31
0.0
  0
LINE
  8
0
 62
     0
 10
146.12
 20
55.1713
 30
0.0
 11
145.321
 21
55.1713
 31
0.0
  0
LINE
  8
0
 62
     0
 10
145.321
 20
55.1713
 30
0.0
 11
145.321
 21
52.2206
 31
0.0
  0
LINE
  8
0
 62
     0
 10
145.321
 20
52.2206
 30
0.0
 11
146.12
 21
52.2206
 31
0.0
  0
LINE
  8
0
 62
     0
 10
146.12
 20
52.2206
 30
0.0
 11
146.12
 21
51.2216
 31
0.0
  0
LINE
  8
0
 62
     0
 10
146.12
 20
51.2216
 30
0.0
 11
159.971
 21
51.2216
 31
0.0
  0
LINE
  8
0
 62
     0
 10
159.971
 20
51.2216
 30
0.0
 11
159.971
 21
52.2206
 31
0.0
  0
LINE
  8
0
 62
     0
 10
159.971
 20
52.2206
 30
0.0
 11
160.77
 21
52.2206
 31
0.0
  0
LINE
  8
0
 62
     0
 10
160.77
 20
52.2206
 30
0.0
 11
160.77
 21
55.1713
 31
0.0
  0
LINE
  8
0
 62
     0
 10
160.77
 20
55.1713
 30
0.0
 11
159.971
 21
55.1713
 31
0.0
  0
LINE
  8
0
 62
     0
 10
159.971
 20
55.1713
 30
0.0
 11
159.971
 21
61.1216
 31
0.0
  0
LINE
  8
0
 62
     0
 10
159.971
 20
61.1216
 30
0.0
 11
160.77
 21
61.1216
 31
0.0
  0
LINE
  8
0
 62
     0
 10
160.77
 20
61.1216
 30
0.0
 11
160.77
 21
64.0704
 31
0.0
  0
LINE
  8
0
 62
     0
 10
160.77
 20
64.0704
 30
0.0
 11
159.971
 21
64.0704
 31
0.0
  0
LINE
  8
0
 62
     0
 10
159.971
 20
64.0704
 30
0.0
 11
159.971
 21
65.0709
 31
0.0
  0
LINE
  8
0
 62
     0
 10
159.971
 20
65.0709
 30
0.0
 11
146.12
 21
65.0709
 31
0.0
  0
LINE
  8
0
 62
     0
 10
165.17
 20
65.0709
 30
0.0
 11
165.17
 21
64.0704
 31
0.0
  0
LINE
  8
0
 62
     0
 10
165.17
 20
64.0704
 30
0.0
 11
164.371
 21
64.0704
 31
0.0
  0
LINE
  8
0
 62
     0
 10
164.371
 20
64.0704
 30
0.0
 11
164.371
 21
61.1216
 31
0.0
  0
LINE
  8
0
 62
     0
 10
164.371
 20
61.1216
 30
0.0
 11
165.17
 21
61.1216
 31
0.0
  0
LINE
  8
0
 62
     0
 10
165.17
 20
61.1216
 30
0.0
 11
165.17
 21
55.1713
 31
0.0
  0
LINE
  8
0
 62
     0
 10
165.17
 20
55.1713
 30
0.0
 11
164.371
 21
55.1713
 31
0.0
  0
LINE
  8
0
 62
     0
 10
164.371
 20
55.1713
 30
0.0
 11
164.371
 21
52.2206
 31
0.0
  0
LINE
  8
0
 62
     0
 10
164.371
 20
52.2206
 30
0.0
 11
165.17
 21
52.2206
 31
0.0
  0
LINE
  8
0
 62
     0
 10
165.17
 20
52.2206
 30
0.0
 11
165.17
 21
51.2216
 31
0.0
  0
LINE
  8
0
 62
     0
 10
165.17
 20
51.2216
 30
0.0
 11
179.021
 21
51.2216
 31
0.0
  0
LINE
  8
0
 62
     0
 10
179.021
 20
51.2216
 30
0.0
 11
179.021
 21
52.2206
 31
0.0
  0
LINE
  8
0
 62
     0
 10
179.021
 20
52.2206
 30
0.0
 11
179.82
 21
52.2206
 31
0.0
  0
LINE
  8
0
 62
     0
 10
179.82
 20
52.2206
 30
0.0
 11
179.82
 21
55.1713
 31
0.0
  0
LINE
  8
0
 62
     0
 10
179.82
 20
55.1713
 30
0.0
 11
179.021
 21
55.1713
 31
0.0
  0
LINE
  8
0
 62
     0
 10
179.021
 20
55.1713
 30
0.0
 11
179.021
 21
61.1216
 31
0.0
  0
LINE
  8
0
 62
     0
 10
179.021
 20
61.1216
 30
0.0
 11
179.82
 21
61.1216
 31
0.0
  0
LINE
  8
0
 62
     0
 10
179.82
 20
61.1216
 30
0.0
 11
179.82
 21
64.0704
 31
0.0
  0
LINE
  8
0
 62
     0
 10
179.82
 20
64.0704
 30
0.0
 11
179.021
 21
64.0704
 31
0.0
  0
LINE
  8
0
 62
     0
 10
179.021
 20
64.0704
 30
0.0
 11
179.021
 21
65.0709
 31
0.0
  0
LINE
  8
0
 62
     0
 10
179.021
 20
65.0709
 30
0.0
 11
165.17
 21
65.0709
 31
0.0
  0
LINE
  8
0
 62
     0
 10
184.22
 20
65.0709
 30
0.0
 11
184.22
 21
64.0704
 31
0.0
  0
LINE
  8
0
 62
     0
 10
184.22
 20
64.0704
 30
0.0
 11
183.421
 21
64.0704
 31
0.0
  0
LINE
  8
0
 62
     0
 10
183.421
 20
64.0704
 30
0.0
 11
183.421
 21
61.1216
 31
0.0
  0
LINE
  8
0
 62
     0
 10
183.421
 20
61.1216
 30
0.0
 11
184.22
 21
61.1216
 31
0.0
  0
LINE
  8
0
 62
     0
 10
184.22
 20
61.1216
 30
0.0
 11
184.22
 21
55.1713
 31
0.0
  0
LINE
  8
0
 62
     0
 10
184.22
 20
55.1713
 30
0.0
 11
183.421
 21
55.1713
 31
0.0
  0
LINE
  8
0
 62
     0
 10
183.421
 20
55.1713
 30
0.0
 11
183.421
 21
52.2206
 31
0.0
  0
LINE
  8
0
 62
     0
 10
183.421
 20
52.2206
 30
0.0
 11
184.22
 21
52.2206
 31
0.0
  0
LINE
  8
0
 62
     0
 10
184.22
 20
52.2206
 30
0.0
 11
184.22
 21
51.2216
 31
0.0
  0
LINE
  8
0
 62
     0
 10
184.22
 20
51.2216
 30
0.0
 11
198.071
 21
51.2216
 31
0.0
  0
LINE
  8
0
 62
     0
 10
198.071
 20
51.2216
 30
0.0
 11
198.071
 21
52.2206
 31
0.0
  0
LINE
  8
0
 62
     0
 10
198.071
 20
52.2206
 30
0.0
 11
198.87
 21
52.2206
 31
0.0
  0
LINE
  8
0
 62
     0
 10
198.87
 20
52.2206
 30
0.0
 11
198.87
 21
55.1713
 31
0.0
  0
LINE
  8
0
 62
     0
 10
198.87
 20
55.1713
 30
0.0
 11
198.071
 21
55.1713
 31
0.0
  0
LINE
  8
0
 62
     0
 10
198.071
 20
55.1713
 30
0.0
 11
198.071
 21
61.1216
 31
0.0
  0
LINE
  8
0
 62
     0
 10
198.071
 20
61.1216
 30
0.0
 11
198.87
 21
61.1216
 31
0.0
  0
LINE
  8
0
 62
     0
 10
198.87
 20
61.1216
 30
0.0
 11
198.87
 21
64.0704
 31
0.0
  0
LINE
  8
0
 62
     0
 10
198.87
 20
64.0704
 30
0.0
 11
198.071
 21
64.0704
 31
0.0
  0
LINE
  8
0
 62
     0
 10
198.071
 20
64.0704
 30
0.0
 11
198.071
 21
65.0709
 31
0.0
  0
LINE
  8
0
 62
     0
 10
198.071
 20
65.0709
 30
0.0
 11
184.22
 21
65.0709
 31
0.0
  0
LINE
  8
0
 62
     0
 10
203.27
 20
65.0709
 30
0.0
 11
203.27
 21
64.0704
 31
0.0
  0
LINE
  8
0
 62
     0
 10
203.27
 20
64.0704
 30
0.0
 11
202.471
 21
64.0704
 31
0.0
  0
LINE
  8
0
 62
     0
 10
202.471
 20
64.0704
 30
0.0
 11
202.471
 21
61.1216
 31
0.0
  0
LINE
  8
0
 62
     0
 10
202.471
 20
61.1216
 30
0.0
 11
203.27
 21
61.1216
 31
0.0
  0
LINE
  8
0
 62
     0
 10
203.27
 20
61.1216
 30
0.0
 11
203.27
 21
55.1713
 31
0.0
  0
LINE
  8
0
 62
     0
 10
203.27
 20
55.1713
 30
0.0
 11
202.471
 21
55.1713
 31
0.0
  0
LINE
  8
0
 62
     0
 10
202.471
 20
55.1713
 30
0.0
 11
202.471
 21
52.2206
 31
0.0
  0
LINE
  8
0
 62
     0
 10
202.471
 20
52.2206
 30
0.0
 11
203.27
 21
52.2206
 31
0.0
  0
LINE
  8
0
 62
     0
 10
203.27
 20
52.2206
 30
0.0
 11
203.27
 21
51.2216
 31
0.0
  0
LINE
  8
0
 62
     0
 10
203.27
 20
51.2216
 30
0.0
 11
217.121
 21
51.2216
 31
0.0
  0
LINE
  8
0
 62
     0
 10
217.121
 20
51.2216
 30
0.0
 11
217.121
 21
52.2206
 31
0.0
  0
LINE
  8
0
 62
     0
 10
217.121
 20
52.2206
 30
0.0
 11
217.92
 21
52.2206
 31
0.0
  0
LINE
  8
0
 62
     0
 10
217.92
 20
52.2206
 30
0.0
 11
217.92
 21
55.1713
 31
0.0
  0
LINE
  8
0
 62
     0
 10
217.92
 20
55.1713
 30
0.0
 11
217.121
 21
55.1713
 31
0.0
  0
LINE
  8
0
 62
     0
 10
217.121
 20
55.1713
 30
0.0
 11
217.121
 21
61.1216
 31
0.0
  0
LINE
  8
0
 62
     0
 10
217.121
 20
61.1216
 30
0.0
 11
217.92
 21
61.1216
 31
0.0
  0
LINE
  8
0
 62
     0
 10
217.92
 20
61.1216
 30
0.0
 11
217.92
 21
64.0704
 31
0.0
  0
LINE
  8
0
 62
     0
 10
217.92
 20
64.0704
 30
0.0
 11
217.121
 21
64.0704
 31
0.0
  0
LINE
  8
0
 62
     0
 10
217.121
 20
64.0704
 30
0.0
 11
217.121
 21
65.0709
 31
0.0
  0
LINE
  8
0
 62
     0
 10
217.121
 20
65.0709
 30
0.0
 11
203.27
 21
65.0709
 31
0.0
  0
LINE
  8
0
 62
     0
 10
222.32
 20
65.0709
 30
0.0
 11
222.32
 21
64.0704
 31
0.0
  0
LINE
  8
0
 62
     0
 10
222.32
 20
64.0704
 30
0.0
 11
221.521
 21
64.0704
 31
0.0
  0
LINE
  8
0
 62
     0
 10
221.521
 20
64.0704
 30
0.0
 11
221.521
 21
61.1216
 31
0.0
  0
LINE
  8
0
 62
     0
 10
221.521
 20
61.1216
 30
0.0
 11
222.32
 21
61.1216
 31
0.0
  0
LINE
  8
0
 62
     0
 10
222.32
 20
61.1216
 30
0.0
 11
222.32
 21
55.1713
 31
0.0
  0
LINE
  8
0
 62
     0
 10
222.32
 20
55.1713
 30
0.0
 11
221.521
 21
55.1713
 31
0.0
  0
LINE
  8
0
 62
     0
 10
221.521
 20
55.1713
 30
0.0
 11
221.521
 21
52.2206
 31
0.0
  0
LINE
  8
0
 62
     0
 10
221.521
 20
52.2206
 30
0.0
 11
222.32
 21
52.2206
 31
0.0
  0
LINE
  8
0
 62
     0
 10
222.32
 20
52.2206
 30
0.0
 11
222.32
 21
51.2216
 31
0.0
  0
LINE
  8
0
 62
     0
 10
222.32
 20
51.2216
 30
0.0
 11
236.171
 21
51.2216
 31
0.0
  0
LINE
  8
0
 62
     0
 10
236.171
 20
51.2216
 30
0.0
 11
236.171
 21
52.2206
 31
0.0
  0
LINE
  8
0
 62
     0
 10
236.171
 20
52.2206
 30
0.0
 11
236.97
 21
52.2206
 31
0.0
  0
LINE
  8
0
 62
     0
 10
236.97
 20
52.2206
 30
0.0
 11
236.97
 21
55.1713
 31
0.0
  0
LINE
  8
0
 62
     0
 10
236.97
 20
55.1713
 30
0.0
 11
236.171
 21
55.1713
 31
0.0
  0
LINE
  8
0
 62
     0
 10
236.171
 20
55.1713
 30
0.0
 11
236.171
 21
61.1216
 31
0.0
  0
LINE
  8
0
 62
     0
 10
236.171
 20
61.1216
 30
0.0
 11
236.97
 21
61.1216
 31
0.0
  0
LINE
  8
0
 62
     0
 10
236.97
 20
61.1216
 30
0.0
 11
236.97
 21
64.0704
 31
0.0
  0
LINE
  8
0
 62
     0
 10
236.97
 20
64.0704
 30
0.0
 11
236.171
 21
64.0704
 31
0.0
  0
LINE
  8
0
 62
     0
 10
236.171
 20
64.0704
 30
0.0
 11
236.171
 21
65.0709
 31
0.0
  0
LINE
  8
0
 62
     0
 10
236.171
 20
65.0709
 30
0.0
 11
222.32
 21
65.0709
 31
0.0
  0
LINE
  8
0
 62
     0
 10
279.47
 20
65.0709
 30
0.0
 11
279.47
 21
64.0704
 31
0.0
  0
LINE
  8
0
 62
     0
 10
279.47
 20
64.0704
 30
0.0
 11
278.671
 21
64.0704
 31
0.0
  0
LINE
  8
0
 62
     0
 10
278.671
 20
64.0704
 30
0.0
 11
278.671
 21
61.1216
 31
0.0
  0
LINE
  8
0
 62
     0
 10
278.671
 20
61.1216
 30
0.0
 11
279.47
 21
61.1216
 31
0.0
  0
LINE
  8
0
 62
     0
 10
279.47
 20
61.1216
 30
0.0
 11
279.47
 21
55.1713
 31
0.0
  0
LINE
  8
0
 62
     0
 10
279.47
 20
55.1713
 30
0.0
 11
278.671
 21
55.1713
 31
0.0
  0
LINE
  8
0
 62
     0
 10
278.671
 20
55.1713
 30
0.0
 11
278.671
 21
52.2206
 31
0.0
  0
LINE
  8
0
 62
     0
 10
278.671
 20
52.2206
 30
0.0
 11
279.47
 21
52.2206
 31
0.0
  0
LINE
  8
0
 62
     0
 10
279.47
 20
52.2206
 30
0.0
 11
279.47
 21
51.2216
 31
0.0
  0
LINE
  8
0
 62
     0
 10
279.47
 20
51.2216
 30
0.0
 11
293.321
 21
51.2216
 31
0.0
  0
LINE
  8
0
 62
     0
 10
293.321
 20
51.2216
 30
0.0
 11
293.321
 21
52.2206
 31
0.0
  0
LINE
  8
0
 62
     0
 10
293.321
 20
52.2206
 30
0.0
 11
294.12
 21
52.2206
 31
0.0
  0
LINE
  8
0
 62
     0
 10
294.12
 20
52.2206
 30
0.0
 11
294.12
 21
55.1713
 31
0.0
  0
LINE
  8
0
 62
     0
 10
294.12
 20
55.1713
 30
0.0
 11
293.321
 21
55.1713
 31
0.0
  0
LINE
  8
0
 62
     0
 10
293.321
 20
55.1713
 30
0.0
 11
293.321
 21
61.1216
 31
0.0
  0
LINE
  8
0
 62
     0
 10
293.321
 20
61.1216
 30
0.0
 11
294.12
 21
61.1216
 31
0.0
  0
LINE
  8
0
 62
     0
 10
294.12
 20
61.1216
 30
0.0
 11
294.12
 21
64.0704
 31
0.0
  0
LINE
  8
0
 62
     0
 10
294.12
 20
64.0704
 30
0.0
 11
293.321
 21
64.0704
 31
0.0
  0
LINE
  8
0
 62
     0
 10
293.321
 20
64.0704
 30
0.0
 11
293.321
 21
65.0709
 31
0.0
  0
LINE
  8
0
 62
     0
 10
293.321
 20
65.0709
 30
0.0
 11
279.47
 21
65.0709
 31
0.0
  0
LINE
  8
0
 62
     0
 10
12.7703
 20
84.1209
 30
0.0
 11
12.7703
 21
83.1204
 31
0.0
  0
LINE
  8
0
 62
     0
 10
12.7703
 20
83.1204
 30
0.0
 11
11.971
 21
83.1204
 31
0.0
  0
LINE
  8
0
 62
     0
 10
11.971
 20
83.1204
 30
0.0
 11
11.971
 21
80.1716
 31
0.0
  0
LINE
  8
0
 62
     0
 10
11.971
 20
80.1716
 30
0.0
 11
12.7703
 21
80.1716
 31
0.0
  0
LINE
  8
0
 62
     0
 10
12.7703
 20
80.1716
 30
0.0
 11
12.7703
 21
74.2213
 31
0.0
  0
LINE
  8
0
 62
     0
 10
12.7703
 20
74.2213
 30
0.0
 11
11.971
 21
74.2213
 31
0.0
  0
LINE
  8
0
 62
     0
 10
11.971
 20
74.2213
 30
0.0
 11
11.971
 21
71.2706
 31
0.0
  0
LINE
  8
0
 62
     0
 10
11.971
 20
71.2706
 30
0.0
 11
12.7703
 21
71.2706
 31
0.0
  0
LINE
  8
0
 62
     0
 10
12.7703
 20
71.2706
 30
0.0
 11
12.7703
 21
70.2716
 31
0.0
  0
LINE
  8
0
 62
     0
 10
12.7703
 20
70.2716
 30
0.0
 11
26.6209
 21
70.2716
 31
0.0
  0
LINE
  8
0
 62
     0
 10
26.6209
 20
70.2716
 30
0.0
 11
26.6209
 21
71.2706
 31
0.0
  0
LINE
  8
0
 62
     0
 10
26.6209
 20
71.2706
 30
0.0
 11
27.4202
 21
71.2706
 31
0.0
  0
LINE
  8
0
 62
     0
 10
27.4202
 20
71.2706
 30
0.0
 11
27.4202
 21
74.2213
 31
0.0
  0
LINE
  8
0
 62
     0
 10
27.4202
 20
74.2213
 30
0.0
 11
26.6209
 21
74.2213
 31
0.0
  0
LINE
  8
0
 62
     0
 10
26.6209
 20
74.2213
 30
0.0
 11
26.6209
 21
80.1716
 31
0.0
  0
LINE
  8
0
 62
     0
 10
26.6209
 20
80.1716
 30
0.0
 11
27.4202
 21
80.1716
 31
0.0
  0
LINE
  8
0
 62
     0
 10
27.4202
 20
80.1716
 30
0.0
 11
27.4202
 21
83.1204
 31
0.0
  0
LINE
  8
0
 62
     0
 10
27.4202
 20
83.1204
 30
0.0
 11
26.6209
 21
83.1204
 31
0.0
  0
LINE
  8
0
 62
     0
 10
26.6209
 20
83.1204
 30
0.0
 11
26.6209
 21
84.1209
 31
0.0
  0
LINE
  8
0
 62
     0
 10
26.6209
 20
84.1209
 30
0.0
 11
12.7703
 21
84.1209
 31
0.0
  0
LINE
  8
0
 62
     0
 10
31.8203
 20
84.1209
 30
0.0
 11
31.8203
 21
83.1204
 31
0.0
  0
LINE
  8
0
 62
     0
 10
31.8203
 20
83.1204
 30
0.0
 11
31.021
 21
83.1204
 31
0.0
  0
LINE
  8
0
 62
     0
 10
31.021
 20
83.1204
 30
0.0
 11
31.021
 21
80.1716
 31
0.0
  0
LINE
  8
0
 62
     0
 10
31.021
 20
80.1716
 30
0.0
 11
31.8203
 21
80.1716
 31
0.0
  0
LINE
  8
0
 62
     0
 10
31.8203
 20
80.1716
 30
0.0
 11
31.8203
 21
74.2213
 31
0.0
  0
LINE
  8
0
 62
     0
 10
31.8203
 20
74.2213
 30
0.0
 11
31.021
 21
74.2213
 31
0.0
  0
LINE
  8
0
 62
     0
 10
31.021
 20
74.2213
 30
0.0
 11
31.021
 21
71.2706
 31
0.0
  0
LINE
  8
0
 62
     0
 10
31.021
 20
71.2706
 30
0.0
 11
31.8203
 21
71.2706
 31
0.0
  0
LINE
  8
0
 62
     0
 10
31.8203
 20
71.2706
 30
0.0
 11
31.8203
 21
70.2716
 31
0.0
  0
LINE
  8
0
 62
     0
 10
31.8203
 20
70.2716
 30
0.0
 11
45.671
 21
70.2716
 31
0.0
  0
LINE
  8
0
 62
     0
 10
45.671
 20
70.2716
 30
0.0
 11
45.671
 21
71.2706
 31
0.0
  0
LINE
  8
0
 62
     0
 10
45.671
 20
71.2706
 30
0.0
 11
46.4704
 21
71.2706
 31
0.0
  0
LINE
  8
0
 62
     0
 10
46.4704
 20
71.2706
 30
0.0
 11
46.4704
 21
74.2213
 31
0.0
  0
LINE
  8
0
 62
     0
 10
46.4704
 20
74.2213
 30
0.0
 11
45.671
 21
74.2213
 31
0.0
  0
LINE
  8
0
 62
     0
 10
45.671
 20
74.2213
 30
0.0
 11
45.671
 21
80.1716
 31
0.0
  0
LINE
  8
0
 62
     0
 10
45.671
 20
80.1716
 30
0.0
 11
46.4704
 21
80.1716
 31
0.0
  0
LINE
  8
0
 62
     0
 10
46.4704
 20
80.1716
 30
0.0
 11
46.4704
 21
83.1204
 31
0.0
  0
LINE
  8
0
 62
     0
 10
46.4704
 20
83.1204
 30
0.0
 11
45.671
 21
83.1204
 31
0.0
  0
LINE
  8
0
 62
     0
 10
45.671
 20
83.1204
 30
0.0
 11
45.671
 21
84.1209
 31
0.0
  0
LINE
  8
0
 62
     0
 10
45.671
 20
84.1209
 30
0.0
 11
31.8203
 21
84.1209
 31
0.0
  0
LINE
  8
0
 62
     0
 10
50.8702
 20
84.1209
 30
0.0
 11
50.8702
 21
83.1204
 31
0.0
  0
LINE
  8
0
 62
     0
 10
50.8702
 20
83.1204
 30
0.0
 11
50.0712
 21
83.1204
 31
0.0
  0
LINE
  8
0
 62
     0
 10
50.0712
 20
83.1204
 30
0.0
 11
50.0712
 21
80.1716
 31
0.0
  0
LINE
  8
0
 62
     0
 10
50.0712
 20
80.1716
 30
0.0
 11
50.8702
 21
80.1716
 31
0.0
  0
LINE
  8
0
 62
     0
 10
50.8702
 20
80.1716
 30
0.0
 11
50.8702
 21
74.2213
 31
0.0
  0
LINE
  8
0
 62
     0
 10
50.8702
 20
74.2213
 30
0.0
 11
50.0712
 21
74.2213
 31
0.0
  0
LINE
  8
0
 62
     0
 10
50.0712
 20
74.2213
 30
0.0
 11
50.0712
 21
71.2706
 31
0.0
  0
LINE
  8
0
 62
     0
 10
50.0712
 20
71.2706
 30
0.0
 11
50.8702
 21
71.2706
 31
0.0
  0
LINE
  8
0
 62
     0
 10
50.8702
 20
71.2706
 30
0.0
 11
50.8702
 21
70.2716
 31
0.0
  0
LINE
  8
0
 62
     0
 10
50.8702
 20
70.2716
 30
0.0
 11
64.721
 21
70.2716
 31
0.0
  0
LINE
  8
0
 62
     0
 10
64.721
 20
70.2716
 30
0.0
 11
64.721
 21
71.2706
 31
0.0
  0
LINE
  8
0
 62
     0
 10
64.721
 20
71.2706
 30
0.0
 11
65.5204
 21
71.2706
 31
0.0
  0
LINE
  8
0
 62
     0
 10
65.5204
 20
71.2706
 30
0.0
 11
65.5204
 21
74.2213
 31
0.0
  0
LINE
  8
0
 62
     0
 10
65.5204
 20
74.2213
 30
0.0
 11
64.721
 21
74.2213
 31
0.0
  0
LINE
  8
0
 62
     0
 10
64.721
 20
74.2213
 30
0.0
 11
64.721
 21
80.1716
 31
0.0
  0
LINE
  8
0
 62
     0
 10
64.721
 20
80.1716
 30
0.0
 11
65.5204
 21
80.1716
 31
0.0
  0
LINE
  8
0
 62
     0
 10
65.5204
 20
80.1716
 30
0.0
 11
65.5204
 21
83.1204
 31
0.0
  0
LINE
  8
0
 62
     0
 10
65.5204
 20
83.1204
 30
0.0
 11
64.721
 21
83.1204
 31
0.0
  0
LINE
  8
0
 62
     0
 10
64.721
 20
83.1204
 30
0.0
 11
64.721
 21
84.1209
 31
0.0
  0
LINE
  8
0
 62
     0
 10
64.721
 20
84.1209
 30
0.0
 11
50.8702
 21
84.1209
 31
0.0
  0
LINE
  8
0
 62
     0
 10
69.9202
 20
84.1209
 30
0.0
 11
69.9202
 21
83.1204
 31
0.0
  0
LINE
  8
0
 62
     0
 10
69.9202
 20
83.1204
 30
0.0
 11
69.1212
 21
83.1204
 31
0.0
  0
LINE
  8
0
 62
     0
 10
69.1212
 20
83.1204
 30
0.0
 11
69.1212
 21
80.1716
 31
0.0
  0
LINE
  8
0
 62
     0
 10
69.1212
 20
80.1716
 30
0.0
 11
69.9202
 21
80.1716
 31
0.0
  0
LINE
  8
0
 62
     0
 10
69.9202
 20
80.1716
 30
0.0
 11
69.9202
 21
74.2213
 31
0.0
  0
LINE
  8
0
 62
     0
 10
69.9202
 20
74.2213
 30
0.0
 11
69.1212
 21
74.2213
 31
0.0
  0
LINE
  8
0
 62
     0
 10
69.1212
 20
74.2213
 30
0.0
 11
69.1212
 21
71.2706
 31
0.0
  0
LINE
  8
0
 62
     0
 10
69.1212
 20
71.2706
 30
0.0
 11
69.9202
 21
71.2706
 31
0.0
  0
LINE
  8
0
 62
     0
 10
69.9202
 20
71.2706
 30
0.0
 11
69.9202
 21
70.2716
 31
0.0
  0
LINE
  8
0
 62
     0
 10
69.9202
 20
70.2716
 30
0.0
 11
83.771
 21
70.2716
 31
0.0
  0
LINE
  8
0
 62
     0
 10
83.771
 20
70.2716
 30
0.0
 11
83.771
 21
71.2706
 31
0.0
  0
LINE
  8
0
 62
     0
 10
83.771
 20
71.2706
 30
0.0
 11
84.5704
 21
71.2706
 31
0.0
  0
LINE
  8
0
 62
     0
 10
84.5704
 20
71.2706
 30
0.0
 11
84.5704
 21
74.2213
 31
0.0
  0
LINE
  8
0
 62
     0
 10
84.5704
 20
74.2213
 30
0.0
 11
83.771
 21
74.2213
 31
0.0
  0
LINE
  8
0
 62
     0
 10
83.771
 20
74.2213
 30
0.0
 11
83.771
 21
80.1716
 31
0.0
  0
LINE
  8
0
 62
     0
 10
83.771
 20
80.1716
 30
0.0
 11
84.5704
 21
80.1716
 31
0.0
  0
LINE
  8
0
 62
     0
 10
84.5704
 20
80.1716
 30
0.0
 11
84.5704
 21
83.1204
 31
0.0
  0
LINE
  8
0
 62
     0
 10
84.5704
 20
83.1204
 30
0.0
 11
83.771
 21
83.1204
 31
0.0
  0
LINE
  8
0
 62
     0
 10
83.771
 20
83.1204
 30
0.0
 11
83.771
 21
84.1209
 31
0.0
  0
LINE
  8
0
 62
     0
 10
83.771
 20
84.1209
 30
0.0
 11
69.9202
 21
84.1209
 31
0.0
  0
LINE
  8
0
 62
     0
 10
88.9702
 20
84.1209
 30
0.0
 11
88.9702
 21
83.1204
 31
0.0
  0
LINE
  8
0
 62
     0
 10
88.9702
 20
83.1204
 30
0.0
 11
88.1712
 21
83.1204
 31
0.0
  0
LINE
  8
0
 62
     0
 10
88.1712
 20
83.1204
 30
0.0
 11
88.1712
 21
80.1716
 31
0.0
  0
LINE
  8
0
 62
     0
 10
88.1712
 20
80.1716
 30
0.0
 11
88.9702
 21
80.1716
 31
0.0
  0
LINE
  8
0
 62
     0
 10
88.9702
 20
80.1716
 30
0.0
 11
88.9702
 21
74.2213
 31
0.0
  0
LINE
  8
0
 62
     0
 10
88.9702
 20
74.2213
 30
0.0
 11
88.1712
 21
74.2213
 31
0.0
  0
LINE
  8
0
 62
     0
 10
88.1712
 20
74.2213
 30
0.0
 11
88.1712
 21
71.2706
 31
0.0
  0
LINE
  8
0
 62
     0
 10
88.1712
 20
71.2706
 30
0.0
 11
88.9702
 21
71.2706
 31
0.0
  0
LINE
  8
0
 62
     0
 10
88.9702
 20
71.2706
 30
0.0
 11
88.9702
 21
70.2716
 31
0.0
  0
LINE
  8
0
 62
     0
 10
88.9702
 20
70.2716
 30
0.0
 11
102.821
 21
70.2716
 31
0.0
  0
LINE
  8
0
 62
     0
 10
102.821
 20
70.2716
 30
0.0
 11
102.821
 21
71.2706
 31
0.0
  0
LINE
  8
0
 62
     0
 10
102.821
 20
71.2706
 30
0.0
 11
103.619
 21
71.2706
 31
0.0
  0
LINE
  8
0
 62
     0
 10
103.619
 20
71.2706
 30
0.0
 11
103.619
 21
74.2213
 31
0.0
  0
LINE
  8
0
 62
     0
 10
103.619
 20
74.2213
 30
0.0
 11
102.821
 21
74.2213
 31
0.0
  0
LINE
  8
0
 62
     0
 10
102.821
 20
74.2213
 30
0.0
 11
102.821
 21
80.1716
 31
0.0
  0
LINE
  8
0
 62
     0
 10
102.821
 20
80.1716
 30
0.0
 11
103.619
 21
80.1716
 31
0.0
  0
LINE
  8
0
 62
     0
 10
103.619
 20
80.1716
 30
0.0
 11
103.619
 21
83.1204
 31
0.0
  0
LINE
  8
0
 62
     0
 10
103.619
 20
83.1204
 30
0.0
 11
102.821
 21
83.1204
 31
0.0
  0
LINE
  8
0
 62
     0
 10
102.821
 20
83.1204
 30
0.0
 11
102.821
 21
84.1209
 31
0.0
  0
LINE
  8
0
 62
     0
 10
102.821
 20
84.1209
 30
0.0
 11
88.9702
 21
84.1209
 31
0.0
  0
LINE
  8
0
 62
     0
 10
108.02
 20
84.1209
 30
0.0
 11
108.02
 21
83.1204
 31
0.0
  0
LINE
  8
0
 62
     0
 10
108.02
 20
83.1204
 30
0.0
 11
107.221
 21
83.1204
 31
0.0
  0
LINE
  8
0
 62
     0
 10
107.221
 20
83.1204
 30
0.0
 11
107.221
 21
80.1716
 31
0.0
  0
LINE
  8
0
 62
     0
 10
107.221
 20
80.1716
 30
0.0
 11
108.02
 21
80.1716
 31
0.0
  0
LINE
  8
0
 62
     0
 10
108.02
 20
80.1716
 30
0.0
 11
108.02
 21
74.2213
 31
0.0
  0
LINE
  8
0
 62
     0
 10
108.02
 20
74.2213
 30
0.0
 11
107.221
 21
74.2213
 31
0.0
  0
LINE
  8
0
 62
     0
 10
107.221
 20
74.2213
 30
0.0
 11
107.221
 21
71.2706
 31
0.0
  0
LINE
  8
0
 62
     0
 10
107.221
 20
71.2706
 30
0.0
 11
108.02
 21
71.2706
 31
0.0
  0
LINE
  8
0
 62
     0
 10
108.02
 20
71.2706
 30
0.0
 11
108.02
 21
70.2716
 31
0.0
  0
LINE
  8
0
 62
     0
 10
108.02
 20
70.2716
 30
0.0
 11
121.87
 21
70.2716
 31
0.0
  0
LINE
  8
0
 62
     0
 10
121.87
 20
70.2716
 30
0.0
 11
121.87
 21
71.2706
 31
0.0
  0
LINE
  8
0
 62
     0
 10
121.87
 20
71.2706
 30
0.0
 11
122.669
 21
71.2706
 31
0.0
  0
LINE
  8
0
 62
     0
 10
122.669
 20
71.2706
 30
0.0
 11
122.669
 21
74.2213
 31
0.0
  0
LINE
  8
0
 62
     0
 10
122.669
 20
74.2213
 30
0.0
 11
121.87
 21
74.2213
 31
0.0
  0
LINE
  8
0
 62
     0
 10
121.87
 20
74.2213
 30
0.0
 11
121.87
 21
80.1716
 31
0.0
  0
LINE
  8
0
 62
     0
 10
121.87
 20
80.1716
 30
0.0
 11
122.669
 21
80.1716
 31
0.0
  0
LINE
  8
0
 62
     0
 10
122.669
 20
80.1716
 30
0.0
 11
122.669
 21
83.1204
 31
0.0
  0
LINE
  8
0
 62
     0
 10
122.669
 20
83.1204
 30
0.0
 11
121.87
 21
83.1204
 31
0.0
  0
LINE
  8
0
 62
     0
 10
121.87
 20
83.1204
 30
0.0
 11
121.87
 21
84.1209
 31
0.0
  0
LINE
  8
0
 62
     0
 10
121.87
 20
84.1209
 30
0.0
 11
108.02
 21
84.1209
 31
0.0
  0
LINE
  8
0
 62
     0
 10
127.07
 20
84.1209
 30
0.0
 11
127.07
 21
83.1204
 31
0.0
  0
LINE
  8
0
 62
     0
 10
127.07
 20
83.1204
 30
0.0
 11
126.271
 21
83.1204
 31
0.0
  0
LINE
  8
0
 62
     0
 10
126.271
 20
83.1204
 30
0.0
 11
126.271
 21
80.1716
 31
0.0
  0
LINE
  8
0
 62
     0
 10
126.271
 20
80.1716
 30
0.0
 11
127.07
 21
80.1716
 31
0.0
  0
LINE
  8
0
 62
     0
 10
127.07
 20
80.1716
 30
0.0
 11
127.07
 21
74.2213
 31
0.0
  0
LINE
  8
0
 62
     0
 10
127.07
 20
74.2213
 30
0.0
 11
126.271
 21
74.2213
 31
0.0
  0
LINE
  8
0
 62
     0
 10
126.271
 20
74.2213
 30
0.0
 11
126.271
 21
71.2706
 31
0.0
  0
LINE
  8
0
 62
     0
 10
126.271
 20
71.2706
 30
0.0
 11
127.07
 21
71.2706
 31
0.0
  0
LINE
  8
0
 62
     0
 10
127.07
 20
71.2706
 30
0.0
 11
127.07
 21
70.2716
 31
0.0
  0
LINE
  8
0
 62
     0
 10
127.07
 20
70.2716
 30
0.0
 11
140.921
 21
70.2716
 31
0.0
  0
LINE
  8
0
 62
     0
 10
140.921
 20
70.2716
 30
0.0
 11
140.921
 21
71.2706
 31
0.0
  0
LINE
  8
0
 62
     0
 10
140.921
 20
71.2706
 30
0.0
 11
141.72
 21
71.2706
 31
0.0
  0
LINE
  8
0
 62
     0
 10
141.72
 20
71.2706
 30
0.0
 11
141.72
 21
74.2213
 31
0.0
  0
LINE
  8
0
 62
     0
 10
141.72
 20
74.2213
 30
0.0
 11
140.921
 21
74.2213
 31
0.0
  0
LINE
  8
0
 62
     0
 10
140.921
 20
74.2213
 30
0.0
 11
140.921
 21
80.1716
 31
0.0
  0
LINE
  8
0
 62
     0
 10
140.921
 20
80.1716
 30
0.0
 11
141.72
 21
80.1716
 31
0.0
  0
LINE
  8
0
 62
     0
 10
141.72
 20
80.1716
 30
0.0
 11
141.72
 21
83.1204
 31
0.0
  0
LINE
  8
0
 62
     0
 10
141.72
 20
83.1204
 30
0.0
 11
140.921
 21
83.1204
 31
0.0
  0
LINE
  8
0
 62
     0
 10
140.921
 20
83.1204
 30
0.0
 11
140.921
 21
84.1209
 31
0.0
  0
LINE
  8
0
 62
     0
 10
140.921
 20
84.1209
 30
0.0
 11
127.07
 21
84.1209
 31
0.0
  0
LINE
  8
0
 62
     0
 10
146.12
 20
84.1209
 30
0.0
 11
146.12
 21
83.1204
 31
0.0
  0
LINE
  8
0
 62
     0
 10
146.12
 20
83.1204
 30
0.0
 11
145.321
 21
83.1204
 31
0.0
  0
LINE
  8
0
 62
     0
 10
145.321
 20
83.1204
 30
0.0
 11
145.321
 21
80.1716
 31
0.0
  0
LINE
  8
0
 62
     0
 10
145.321
 20
80.1716
 30
0.0
 11
146.12
 21
80.1716
 31
0.0
  0
LINE
  8
0
 62
     0
 10
146.12
 20
80.1716
 30
0.0
 11
146.12
 21
74.2213
 31
0.0
  0
LINE
  8
0
 62
     0
 10
146.12
 20
74.2213
 30
0.0
 11
145.321
 21
74.2213
 31
0.0
  0
LINE
  8
0
 62
     0
 10
145.321
 20
74.2213
 30
0.0
 11
145.321
 21
71.2706
 31
0.0
  0
LINE
  8
0
 62
     0
 10
145.321
 20
71.2706
 30
0.0
 11
146.12
 21
71.2706
 31
0.0
  0
LINE
  8
0
 62
     0
 10
146.12
 20
71.2706
 30
0.0
 11
146.12
 21
70.2716
 31
0.0
  0
LINE
  8
0
 62
     0
 10
146.12
 20
70.2716
 30
0.0
 11
159.971
 21
70.2716
 31
0.0
  0
LINE
  8
0
 62
     0
 10
159.971
 20
70.2716
 30
0.0
 11
159.971
 21
71.2706
 31
0.0
  0
LINE
  8
0
 62
     0
 10
159.971
 20
71.2706
 30
0.0
 11
160.77
 21
71.2706
 31
0.0
  0
LINE
  8
0
 62
     0
 10
160.77
 20
71.2706
 30
0.0
 11
160.77
 21
74.2213
 31
0.0
  0
LINE
  8
0
 62
     0
 10
160.77
 20
74.2213
 30
0.0
 11
159.971
 21
74.2213
 31
0.0
  0
LINE
  8
0
 62
     0
 10
159.971
 20
74.2213
 30
0.0
 11
159.971
 21
80.1716
 31
0.0
  0
LINE
  8
0
 62
     0
 10
159.971
 20
80.1716
 30
0.0
 11
160.77
 21
80.1716
 31
0.0
  0
LINE
  8
0
 62
     0
 10
160.77
 20
80.1716
 30
0.0
 11
160.77
 21
83.1204
 31
0.0
  0
LINE
  8
0
 62
     0
 10
160.77
 20
83.1204
 30
0.0
 11
159.971
 21
83.1204
 31
0.0
  0
LINE
  8
0
 62
     0
 10
159.971
 20
83.1204
 30
0.0
 11
159.971
 21
84.1209
 31
0.0
  0
LINE
  8
0
 62
     0
 10
159.971
 20
84.1209
 30
0.0
 11
146.12
 21
84.1209
 31
0.0
  0
LINE
  8
0
 62
     0
 10
165.17
 20
84.1209
 30
0.0
 11
165.17
 21
83.1204
 31
0.0
  0
LINE
  8
0
 62
     0
 10
165.17
 20
83.1204
 30
0.0
 11
164.371
 21
83.1204
 31
0.0
  0
LINE
  8
0
 62
     0
 10
164.371
 20
83.1204
 30
0.0
 11
164.371
 21
80.1716
 31
0.0
  0
LINE
  8
0
 62
     0
 10
164.371
 20
80.1716
 30
0.0
 11
165.17
 21
80.1716
 31
0.0
  0
LINE
  8
0
 62
     0
 10
165.17
 20
80.1716
 30
0.0
 11
165.17
 21
74.2213
 31
0.0
  0
LINE
  8
0
 62
     0
 10
165.17
 20
74.2213
 30
0.0
 11
164.371
 21
74.2213
 31
0.0
  0
LINE
  8
0
 62
     0
 10
164.371
 20
74.2213
 30
0.0
 11
164.371
 21
71.2706
 31
0.0
  0
LINE
  8
0
 62
     0
 10
164.371
 20
71.2706
 30
0.0
 11
165.17
 21
71.2706
 31
0.0
  0
LINE
  8
0
 62
     0
 10
165.17
 20
71.2706
 30
0.0
 11
165.17
 21
70.2716
 31
0.0
  0
LINE
  8
0
 62
     0
 10
165.17
 20
70.2716
 30
0.0
 11
179.021
 21
70.2716
 31
0.0
  0
LINE
  8
0
 62
     0
 10
179.021
 20
70.2716
 30
0.0
 11
179.021
 21
71.2706
 31
0.0
  0
LINE
  8
0
 62
     0
 10
179.021
 20
71.2706
 30
0.0
 11
179.82
 21
71.2706
 31
0.0
  0
LINE
  8
0
 62
     0
 10
179.82
 20
71.2706
 30
0.0
 11
179.82
 21
74.2213
 31
0.0
  0
LINE
  8
0
 62
     0
 10
179.82
 20
74.2213
 30
0.0
 11
179.021
 21
74.2213
 31
0.0
  0
LINE
  8
0
 62
     0
 10
179.021
 20
74.2213
 30
0.0
 11
179.021
 21
80.1716
 31
0.0
  0
LINE
  8
0
 62
     0
 10
179.021
 20
80.1716
 30
0.0
 11
179.82
 21
80.1716
 31
0.0
  0
LINE
  8
0
 62
     0
 10
179.82
 20
80.1716
 30
0.0
 11
179.82
 21
83.1204
 31
0.0
  0
LINE
  8
0
 62
     0
 10
179.82
 20
83.1204
 30
0.0
 11
179.021
 21
83.1204
 31
0.0
  0
LINE
  8
0
 62
     0
 10
179.021
 20
83.1204
 30
0.0
 11
179.021
 21
84.1209
 31
0.0
  0
LINE
  8
0
 62
     0
 10
179.021
 20
84.1209
 30
0.0
 11
165.17
 21
84.1209
 31
0.0
  0
LINE
  8
0
 62
     0
 10
184.22
 20
84.1209
 30
0.0
 11
184.22
 21
83.1204
 31
0.0
  0
LINE
  8
0
 62
     0
 10
184.22
 20
83.1204
 30
0.0
 11
183.421
 21
83.1204
 31
0.0
  0
LINE
  8
0
 62
     0
 10
183.421
 20
83.1204
 30
0.0
 11
183.421
 21
80.1716
 31
0.0
  0
LINE
  8
0
 62
     0
 10
183.421
 20
80.1716
 30
0.0
 11
184.22
 21
80.1716
 31
0.0
  0
LINE
  8
0
 62
     0
 10
184.22
 20
80.1716
 30
0.0
 11
184.22
 21
74.2213
 31
0.0
  0
LINE
  8
0
 62
     0
 10
184.22
 20
74.2213
 30
0.0
 11
183.421
 21
74.2213
 31
0.0
  0
LINE
  8
0
 62
     0
 10
183.421
 20
74.2213
 30
0.0
 11
183.421
 21
71.2706
 31
0.0
  0
LINE
  8
0
 62
     0
 10
183.421
 20
71.2706
 30
0.0
 11
184.22
 21
71.2706
 31
0.0
  0
LINE
  8
0
 62
     0
 10
184.22
 20
71.2706
 30
0.0
 11
184.22
 21
70.2716
 31
0.0
  0
LINE
  8
0
 62
     0
 10
184.22
 20
70.2716
 30
0.0
 11
198.071
 21
70.2716
 31
0.0
  0
LINE
  8
0
 62
     0
 10
198.071
 20
70.2716
 30
0.0
 11
198.071
 21
71.2706
 31
0.0
  0
LINE
  8
0
 62
     0
 10
198.071
 20
71.2706
 30
0.0
 11
198.87
 21
71.2706
 31
0.0
  0
LINE
  8
0
 62
     0
 10
198.87
 20
71.2706
 30
0.0
 11
198.87
 21
74.2213
 31
0.0
  0
LINE
  8
0
 62
     0
 10
198.87
 20
74.2213
 30
0.0
 11
198.071
 21
74.2213
 31
0.0
  0
LINE
  8
0
 62
     0
 10
198.071
 20
74.2213
 30
0.0
 11
198.071
 21
80.1716
 31
0.0
  0
LINE
  8
0
 62
     0
 10
198.071
 20
80.1716
 30
0.0
 11
198.87
 21
80.1716
 31
0.0
  0
LINE
  8
0
 62
     0
 10
198.87
 20
80.1716
 30
0.0
 11
198.87
 21
83.1204
 31
0.0
  0
LINE
  8
0
 62
     0
 10
198.87
 20
83.1204
 30
0.0
 11
198.071
 21
83.1204
 31
0.0
  0
LINE
  8
0
 62
     0
 10
198.071
 20
83.1204
 30
0.0
 11
198.071
 21
84.1209
 31
0.0
  0
LINE
  8
0
 62
     0
 10
198.071
 20
84.1209
 30
0.0
 11
184.22
 21
84.1209
 31
0.0
  0
LINE
  8
0
 62
     0
 10
203.27
 20
84.1209
 30
0.0
 11
203.27
 21
83.1204
 31
0.0
  0
LINE
  8
0
 62
     0
 10
203.27
 20
83.1204
 30
0.0
 11
202.471
 21
83.1204
 31
0.0
  0
LINE
  8
0
 62
     0
 10
202.471
 20
83.1204
 30
0.0
 11
202.471
 21
80.1716
 31
0.0
  0
LINE
  8
0
 62
     0
 10
202.471
 20
80.1716
 30
0.0
 11
203.27
 21
80.1716
 31
0.0
  0
LINE
  8
0
 62
     0
 10
203.27
 20
80.1716
 30
0.0
 11
203.27
 21
74.2213
 31
0.0
  0
LINE
  8
0
 62
     0
 10
203.27
 20
74.2213
 30
0.0
 11
202.471
 21
74.2213
 31
0.0
  0
LINE
  8
0
 62
     0
 10
202.471
 20
74.2213
 30
0.0
 11
202.471
 21
71.2706
 31
0.0
  0
LINE
  8
0
 62
     0
 10
202.471
 20
71.2706
 30
0.0
 11
203.27
 21
71.2706
 31
0.0
  0
LINE
  8
0
 62
     0
 10
203.27
 20
71.2706
 30
0.0
 11
203.27
 21
70.2716
 31
0.0
  0
LINE
  8
0
 62
     0
 10
203.27
 20
70.2716
 30
0.0
 11
217.121
 21
70.2716
 31
0.0
  0
LINE
  8
0
 62
     0
 10
217.121
 20
70.2716
 30
0.0
 11
217.121
 21
71.2706
 31
0.0
  0
LINE
  8
0
 62
     0
 10
217.121
 20
71.2706
 30
0.0
 11
217.92
 21
71.2706
 31
0.0
  0
LINE
  8
0
 62
     0
 10
217.92
 20
71.2706
 30
0.0
 11
217.92
 21
74.2213
 31
0.0
  0
LINE
  8
0
 62
     0
 10
217.92
 20
74.2213
 30
0.0
 11
217.121
 21
74.2213
 31
0.0
  0
LINE
  8
0
 62
     0
 10
217.121
 20
74.2213
 30
0.0
 11
217.121
 21
80.1716
 31
0.0
  0
LINE
  8
0
 62
     0
 10
217.121
 20
80.1716
 30
0.0
 11
217.92
 21
80.1716
 31
0.0
  0
LINE
  8
0
 62
     0
 10
217.92
 20
80.1716
 30
0.0
 11
217.92
 21
83.1204
 31
0.0
  0
LINE
  8
0
 62
     0
 10
217.92
 20
83.1204
 30
0.0
 11
217.121
 21
83.1204
 31
0.0
  0
LINE
  8
0
 62
     0
 10
217.121
 20
83.1204
 30
0.0
 11
217.121
 21
84.1209
 31
0.0
  0
LINE
  8
0
 62
     0
 10
217.121
 20
84.1209
 30
0.0
 11
203.27
 21
84.1209
 31
0.0
  0
LINE
  8
0
 62
     0
 10
222.32
 20
84.1209
 30
0.0
 11
222.32
 21
83.1204
 31
0.0
  0
LINE
  8
0
 62
     0
 10
222.32
 20
83.1204
 30
0.0
 11
221.521
 21
83.1204
 31
0.0
  0
LINE
  8
0
 62
     0
 10
221.521
 20
83.1204
 30
0.0
 11
221.521
 21
80.1716
 31
0.0
  0
LINE
  8
0
 62
     0
 10
221.521
 20
80.1716
 30
0.0
 11
222.32
 21
80.1716
 31
0.0
  0
LINE
  8
0
 62
     0
 10
222.32
 20
80.1716
 30
0.0
 11
222.32
 21
74.2213
 31
0.0
  0
LINE
  8
0
 62
     0
 10
222.32
 20
74.2213
 30
0.0
 11
221.521
 21
74.2213
 31
0.0
  0
LINE
  8
0
 62
     0
 10
221.521
 20
74.2213
 30
0.0
 11
221.521
 21
71.2706
 31
0.0
  0
LINE
  8
0
 62
     0
 10
221.521
 20
71.2706
 30
0.0
 11
222.32
 21
71.2706
 31
0.0
  0
LINE
  8
0
 62
     0
 10
222.32
 20
71.2706
 30
0.0
 11
222.32
 21
70.2716
 31
0.0
  0
LINE
  8
0
 62
     0
 10
222.32
 20
70.2716
 30
0.0
 11
236.171
 21
70.2716
 31
0.0
  0
LINE
  8
0
 62
     0
 10
236.171
 20
70.2716
 30
0.0
 11
236.171
 21
71.2706
 31
0.0
  0
LINE
  8
0
 62
     0
 10
236.171
 20
71.2706
 30
0.0
 11
236.97
 21
71.2706
 31
0.0
  0
LINE
  8
0
 62
     0
 10
236.97
 20
71.2706
 30
0.0
 11
236.97
 21
74.2213
 31
0.0
  0
LINE
  8
0
 62
     0
 10
236.97
 20
74.2213
 30
0.0
 11
236.171
 21
74.2213
 31
0.0
  0
LINE
  8
0
 62
     0
 10
236.171
 20
74.2213
 30
0.0
 11
236.171
 21
80.1716
 31
0.0
  0
LINE
  8
0
 62
     0
 10
236.171
 20
80.1716
 30
0.0
 11
236.97
 21
80.1716
 31
0.0
  0
LINE
  8
0
 62
     0
 10
236.97
 20
80.1716
 30
0.0
 11
236.97
 21
83.1204
 31
0.0
  0
LINE
  8
0
 62
     0
 10
236.97
 20
83.1204
 30
0.0
 11
236.171
 21
83.1204
 31
0.0
  0
LINE
  8
0
 62
     0
 10
236.171
 20
83.1204
 30
0.0
 11
236.171
 21
84.1209
 31
0.0
  0
LINE
  8
0
 62
     0
 10
236.171
 20
84.1209
 30
0.0
 11
222.32
 21
84.1209
 31
0.0
  0
LINE
  8
0
 62
     0
 10
241.37
 20
84.1209
 30
0.0
 11
241.37
 21
83.1204
 31
0.0
  0
LINE
  8
0
 62
     0
 10
241.37
 20
83.1204
 30
0.0
 11
240.571
 21
83.1204
 31
0.0
  0
LINE
  8
0
 62
     0
 10
240.571
 20
83.1204
 30
0.0
 11
240.571
 21
80.1716
 31
0.0
  0
LINE
  8
0
 62
     0
 10
240.571
 20
80.1716
 30
0.0
 11
241.37
 21
80.1716
 31
0.0
  0
LINE
  8
0
 62
     0
 10
241.37
 20
80.1716
 30
0.0
 11
241.37
 21
74.2213
 31
0.0
  0
LINE
  8
0
 62
     0
 10
241.37
 20
74.2213
 30
0.0
 11
240.571
 21
74.2213
 31
0.0
  0
LINE
  8
0
 62
     0
 10
240.571
 20
74.2213
 30
0.0
 11
240.571
 21
71.2706
 31
0.0
  0
LINE
  8
0
 62
     0
 10
240.571
 20
71.2706
 30
0.0
 11
241.37
 21
71.2706
 31
0.0
  0
LINE
  8
0
 62
     0
 10
241.37
 20
71.2706
 30
0.0
 11
241.37
 21
70.2716
 31
0.0
  0
LINE
  8
0
 62
     0
 10
241.37
 20
70.2716
 30
0.0
 11
255.221
 21
70.2716
 31
0.0
  0
LINE
  8
0
 62
     0
 10
255.221
 20
70.2716
 30
0.0
 11
255.221
 21
71.2706
 31
0.0
  0
LINE
  8
0
 62
     0
 10
255.221
 20
71.2706
 30
0.0
 11
256.02
 21
71.2706
 31
0.0
  0
LINE
  8
0
 62
     0
 10
256.02
 20
71.2706
 30
0.0
 11
256.02
 21
74.2213
 31
0.0
  0
LINE
  8
0
 62
     0
 10
256.02
 20
74.2213
 30
0.0
 11
255.221
 21
74.2213
 31
0.0
  0
LINE
  8
0
 62
     0
 10
255.221
 20
74.2213
 30
0.0
 11
255.221
 21
80.1716
 31
0.0
  0
LINE
  8
0
 62
     0
 10
255.221
 20
80.1716
 30
0.0
 11
256.02
 21
80.1716
 31
0.0
  0
LINE
  8
0
 62
     0
 10
256.02
 20
80.1716
 30
0.0
 11
256.02
 21
83.1204
 31
0.0
  0
LINE
  8
0
 62
     0
 10
256.02
 20
83.1204
 30
0.0
 11
255.221
 21
83.1204
 31
0.0
  0
LINE
  8
0
 62
     0
 10
255.221
 20
83.1204
 30
0.0
 11
255.221
 21
84.1209
 31
0.0
  0
LINE
  8
0
 62
     0
 10
255.221
 20
84.1209
 30
0.0
 11
241.37
 21
84.1209
 31
0.0
  0
LINE
  8
0
 62
     0
 10
260.42
 20
84.1209
 30
0.0
 11
260.42
 21
83.1204
 31
0.0
  0
LINE
  8
0
 62
     0
 10
260.42
 20
83.1204
 30
0.0
 11
259.621
 21
83.1204
 31
0.0
  0
LINE
  8
0
 62
     0
 10
259.621
 20
83.1204
 30
0.0
 11
259.621
 21
80.1716
 31
0.0
  0
LINE
  8
0
 62
     0
 10
259.621
 20
80.1716
 30
0.0
 11
260.42
 21
80.1716
 31
0.0
  0
LINE
  8
0
 62
     0
 10
260.42
 20
80.1716
 30
0.0
 11
260.42
 21
74.2213
 31
0.0
  0
LINE
  8
0
 62
     0
 10
260.42
 20
74.2213
 30
0.0
 11
259.621
 21
74.2213
 31
0.0
  0
LINE
  8
0
 62
     0
 10
259.621
 20
74.2213
 30
0.0
 11
259.621
 21
71.2706
 31
0.0
  0
LINE
  8
0
 62
     0
 10
259.621
 20
71.2706
 30
0.0
 11
260.42
 21
71.2706
 31
0.0
  0
LINE
  8
0
 62
     0
 10
260.42
 20
71.2706
 30
0.0
 11
260.42
 21
70.2716
 31
0.0
  0
LINE
  8
0
 62
     0
 10
260.42
 20
70.2716
 30
0.0
 11
274.271
 21
70.2716
 31
0.0
  0
LINE
  8
0
 62
     0
 10
274.271
 20
70.2716
 30
0.0
 11
274.271
 21
71.2706
 31
0.0
  0
LINE
  8
0
 62
     0
 10
274.271
 20
71.2706
 30
0.0
 11
275.07
 21
71.2706
 31
0.0
  0
LINE
  8
0
 62
     0
 10
275.07
 20
71.2706
 30
0.0
 11
275.07
 21
74.2213
 31
0.0
  0
LINE
  8
0
 62
     0
 10
275.07
 20
74.2213
 30
0.0
 11
274.271
 21
74.2213
 31
0.0
  0
LINE
  8
0
 62
     0
 10
274.271
 20
74.2213
 30
0.0
 11
274.271
 21
80.1716
 31
0.0
  0
LINE
  8
0
 62
     0
 10
274.271
 20
80.1716
 30
0.0
 11
275.07
 21
80.1716
 31
0.0
  0
LINE
  8
0
 62
     0
 10
275.07
 20
80.1716
 30
0.0
 11
275.07
 21
83.1204
 31
0.0
  0
LINE
  8
0
 62
     0
 10
275.07
 20
83.1204
 30
0.0
 11
274.271
 21
83.1204
 31
0.0
  0
LINE
  8
0
 62
     0
 10
274.271
 20
83.1204
 30
0.0
 11
274.271
 21
84.1209
 31
0.0
  0
LINE
  8
0
 62
     0
 10
274.271
 20
84.1209
 30
0.0
 11
260.42
 21
84.1209
 31
0.0
  0
LINE
  8
0
 62
     0
 10
279.47
 20
84.1209
 30
0.0
 11
279.47
 21
83.1204
 31
0.0
  0
LINE
  8
0
 62
     0
 10
279.47
 20
83.1204
 30
0.0
 11
278.671
 21
83.1204
 31
0.0
  0
LINE
  8
0
 62
     0
 10
278.671
 20
83.1204
 30
0.0
 11
278.671
 21
80.1716
 31
0.0
  0
LINE
  8
0
 62
     0
 10
278.671
 20
80.1716
 30
0.0
 11
279.47
 21
80.1716
 31
0.0
  0
LINE
  8
0
 62
     0
 10
279.47
 20
80.1716
 30
0.0
 11
279.47
 21
74.2213
 31
0.0
  0
LINE
  8
0
 62
     0
 10
279.47
 20
74.2213
 30
0.0
 11
278.671
 21
74.2213
 31
0.0
  0
LINE
  8
0
 62
     0
 10
278.671
 20
74.2213
 30
0.0
 11
278.671
 21
71.2706
 31
0.0
  0
LINE
  8
0
 62
     0
 10
278.671
 20
71.2706
 30
0.0
 11
279.47
 21
71.2706
 31
0.0
  0
LINE
  8
0
 62
     0
 10
279.47
 20
71.2706
 30
0.0
 11
279.47
 21
70.2716
 31
0.0
  0
LINE
  8
0
 62
     0
 10
279.47
 20
70.2716
 30
0.0
 11
293.321
 21
70.2716
 31
0.0
  0
LINE
  8
0
 62
     0
 10
293.321
 20
70.2716
 30
0.0
 11
293.321
 21
71.2706
 31
0.0
  0
LINE
  8
0
 62
     0
 10
293.321
 20
71.2706
 30
0.0
 11
294.12
 21
71.2706
 31
0.0
  0
LINE
  8
0
 62
     0
 10
294.12
 20
71.2706
 30
0.0
 11
294.12
 21
74.2213
 31
0.0
  0
LINE
  8
0
 62
     0
 10
294.12
 20
74.2213
 30
0.0
 11
293.321
 21
74.2213
 31
0.0
  0
LINE
  8
0
 62
     0
 10
293.321
 20
74.2213
 30
0.0
 11
293.321
 21
80.1716
 31
0.0
  0
LINE
  8
0
 62
     0
 10
293.321
 20
80.1716
 30
0.0
 11
294.12
 21
80.1716
 31
0.0
  0
LINE
  8
0
 62
     0
 10
294.12
 20
80.1716
 30
0.0
 11
294.12
 21
83.1204
 31
0.0
  0
LINE
  8
0
 62
     0
 10
294.12
 20
83.1204
 30
0.0
 11
293.321
 21
83.1204
 31
0.0
  0
LINE
  8
0
 62
     0
 10
293.321
 20
83.1204
 30
0.0
 11
293.321
 21
84.1209
 31
0.0
  0
LINE
  8
0
 62
     0
 10
293.321
 20
84.1209
 30
0.0
 11
279.47
 21
84.1209
 31
0.0
  0
LINE
  8
0
 62
     0
 10
12.7703
 20
103.171
 30
0.0
 11
12.7703
 21
102.17
 31
0.0
  0
LINE
  8
0
 62
     0
 10
12.7703
 20
102.17
 30
0.0
 11
11.971
 21
102.17
 31
0.0
  0
LINE
  8
0
 62
     0
 10
11.971
 20
102.17
 30
0.0
 11
11.971
 21
99.2216
 31
0.0
  0
LINE
  8
0
 62
     0
 10
11.971
 20
99.2216
 30
0.0
 11
12.7703
 21
99.2216
 31
0.0
  0
LINE
  8
0
 62
     0
 10
12.7703
 20
99.2216
 30
0.0
 11
12.7703
 21
93.2713
 31
0.0
  0
LINE
  8
0
 62
     0
 10
12.7703
 20
93.2713
 30
0.0
 11
11.971
 21
93.2713
 31
0.0
  0
LINE
  8
0
 62
     0
 10
11.971
 20
93.2713
 30
0.0
 11
11.971
 21
90.3206
 31
0.0
  0
LINE
  8
0
 62
     0
 10
11.971
 20
90.3206
 30
0.0
 11
12.7703
 21
90.3206
 31
0.0
  0
LINE
  8
0
 62
     0
 10
12.7703
 20
90.3206
 30
0.0
 11
12.7703
 21
89.3216
 31
0.0
  0
LINE
  8
0
 62
     0
 10
12.7703
 20
89.3216
 30
0.0
 11
26.6209
 21
89.3216
 31
0.0
  0
LINE
  8
0
 62
     0
 10
26.6209
 20
89.3216
 30
0.0
 11
26.6209
 21
90.3206
 31
0.0
  0
LINE
  8
0
 62
     0
 10
26.6209
 20
90.3206
 30
0.0
 11
27.4202
 21
90.3206
 31
0.0
  0
LINE
  8
0
 62
     0
 10
27.4202
 20
90.3206
 30
0.0
 11
27.4202
 21
93.2713
 31
0.0
  0
LINE
  8
0
 62
     0
 10
27.4202
 20
93.2713
 30
0.0
 11
26.6209
 21
93.2713
 31
0.0
  0
LINE
  8
0
 62
     0
 10
26.6209
 20
93.2713
 30
0.0
 11
26.6209
 21
99.2216
 31
0.0
  0
LINE
  8
0
 62
     0
 10
26.6209
 20
99.2216
 30
0.0
 11
27.4202
 21
99.2216
 31
0.0
  0
LINE
  8
0
 62
     0
 10
27.4202
 20
99.2216
 30
0.0
 11
27.4202
 21
102.17
 31
0.0
  0
LINE
  8
0
 62
     0
 10
27.4202
 20
102.17
 30
0.0
 11
26.6209
 21
102.17
 31
0.0
  0
LINE
  8
0
 62
     0
 10
26.6209
 20
102.17
 30
0.0
 11
26.6209
 21
103.171
 31
0.0
  0
LINE
  8
0
 62
     0
 10
26.6209
 20
103.171
 30
0.0
 11
12.7703
 21
103.171
 31
0.0
  0
LINE
  8
0
 62
     0
 10
31.8203
 20
103.171
 30
0.0
 11
31.8203
 21
102.17
 31
0.0
  0
LINE
  8
0
 62
     0
 10
31.8203
 20
102.17
 30
0.0
 11
31.021
 21
102.17
 31
0.0
  0
LINE
  8
0
 62
     0
 10
31.021
 20
102.17
 30
0.0
 11
31.021
 21
99.2216
 31
0.0
  0
LINE
  8
0
 62
     0
 10
31.021
 20
99.2216
 30
0.0
 11
31.8203
 21
99.2216
 31
0.0
  0
LINE
  8
0
 62
     0
 10
31.8203
 20
99.2216
 30
0.0
 11
31.8203
 21
93.2713
 31
0.0
  0
LINE
  8
0
 62
     0
 10
31.8203
 20
93.2713
 30
0.0
 11
31.021
 21
93.2713
 31
0.0
  0
LINE
  8
0
 62
     0
 10
31.021
 20
93.2713
 30
0.0
 11
31.021
 21
90.3206
 31
0.0
  0
LINE
  8
0
 62
     0
 10
31.021
 20
90.3206
 30
0.0
 11
31.8203
 21
90.3206
 31
0.0
  0
LINE
  8
0
 62
     0
 10
31.8203
 20
90.3206
 30
0.0
 11
31.8203
 21
89.3216
 31
0.0
  0
LINE
  8
0
 62
     0
 10
31.8203
 20
89.3216
 30
0.0
 11
45.671
 21
89.3216
 31
0.0
  0
LINE
  8
0
 62
     0
 10
45.671
 20
89.3216
 30
0.0
 11
45.671
 21
90.3206
 31
0.0
  0
LINE
  8
0
 62
     0
 10
45.671
 20
90.3206
 30
0.0
 11
46.4704
 21
90.3206
 31
0.0
  0
LINE
  8
0
 62
     0
 10
46.4704
 20
90.3206
 30
0.0
 11
46.4704
 21
93.2713
 31
0.0
  0
LINE
  8
0
 62
     0
 10
46.4704
 20
93.2713
 30
0.0
 11
45.671
 21
93.2713
 31
0.0
  0
LINE
  8
0
 62
     0
 10
45.671
 20
93.2713
 30
0.0
 11
45.671
 21
99.2216
 31
0.0
  0
LINE
  8
0
 62
     0
 10
45.671
 20
99.2216
 30
0.0
 11
46.4704
 21
99.2216
 31
0.0
  0
LINE
  8
0
 62
     0
 10
46.4704
 20
99.2216
 30
0.0
 11
46.4704
 21
102.17
 31
0.0
  0
LINE
  8
0
 62
     0
 10
46.4704
 20
102.17
 30
0.0
 11
45.671
 21
102.17
 31
0.0
  0
LINE
  8
0
 62
     0
 10
45.671
 20
102.17
 30
0.0
 11
45.671
 21
103.171
 31
0.0
  0
LINE
  8
0
 62
     0
 10
45.671
 20
103.171
 30
0.0
 11
31.8203
 21
103.171
 31
0.0
  0
LINE
  8
0
 62
     0
 10
50.8702
 20
103.171
 30
0.0
 11
50.8702
 21
102.17
 31
0.0
  0
LINE
  8
0
 62
     0
 10
50.8702
 20
102.17
 30
0.0
 11
50.0712
 21
102.17
 31
0.0
  0
LINE
  8
0
 62
     0
 10
50.0712
 20
102.17
 30
0.0
 11
50.0712
 21
99.2216
 31
0.0
  0
LINE
  8
0
 62
     0
 10
50.0712
 20
99.2216
 30
0.0
 11
50.8702
 21
99.2216
 31
0.0
  0
LINE
  8
0
 62
     0
 10
50.8702
 20
99.2216
 30
0.0
 11
50.8702
 21
93.2713
 31
0.0
  0
LINE
  8
0
 62
     0
 10
50.8702
 20
93.2713
 30
0.0
 11
50.0712
 21
93.2713
 31
0.0
  0
LINE
  8
0
 62
     0
 10
50.0712
 20
93.2713
 30
0.0
 11
50.0712
 21
90.3206
 31
0.0
  0
LINE
  8
0
 62
     0
 10
50.0712
 20
90.3206
 30
0.0
 11
50.8702
 21
90.3206
 31
0.0
  0
LINE
  8
0
 62
     0
 10
50.8702
 20
90.3206
 30
0.0
 11
50.8702
 21
89.3216
 31
0.0
  0
LINE
  8
0
 62
     0
 10
50.8702
 20
89.3216
 30
0.0
 11
64.721
 21
89.3216
 31
0.0
  0
LINE
  8
0
 62
     0
 10
64.721
 20
89.3216
 30
0.0
 11
64.721
 21
90.3206
 31
0.0
  0
LINE
  8
0
 62
     0
 10
64.721
 20
90.3206
 30
0.0
 11
65.5204
 21
90.3206
 31
0.0
  0
LINE
  8
0
 62
     0
 10
65.5204
 20
90.3206
 30
0.0
 11
65.5204
 21
93.2713
 31
0.0
  0
LINE
  8
0
 62
     0
 10
65.5204
 20
93.2713
 30
0.0
 11
64.721
 21
93.2713
 31
0.0
  0
LINE
  8
0
 62
     0
 10
64.721
 20
93.2713
 30
0.0
 11
64.721
 21
99.2216
 31
0.0
  0
LINE
  8
0
 62
     0
 10
64.721
 20
99.2216
 30
0.0
 11
65.5204
 21
99.2216
 31
0.0
  0
LINE
  8
0
 62
     0
 10
65.5204
 20
99.2216
 30
0.0
 11
65.5204
 21
102.17
 31
0.0
  0
LINE
  8
0
 62
     0
 10
65.5204
 20
102.17
 30
0.0
 11
64.721
 21
102.17
 31
0.0
  0
LINE
  8
0
 62
     0
 10
64.721
 20
102.17
 30
0.0
 11
64.721
 21
103.171
 31
0.0
  0
LINE
  8
0
 62
     0
 10
64.721
 20
103.171
 30
0.0
 11
50.8702
 21
103.171
 31
0.0
  0
LINE
  8
0
 62
     0
 10
69.9202
 20
103.171
 30
0.0
 11
69.9202
 21
102.17
 31
0.0
  0
LINE
  8
0
 62
     0
 10
69.9202
 20
102.17
 30
0.0
 11
69.1212
 21
102.17
 31
0.0
  0
LINE
  8
0
 62
     0
 10
69.1212
 20
102.17
 30
0.0
 11
69.1212
 21
99.2216
 31
0.0
  0
LINE
  8
0
 62
     0
 10
69.1212
 20
99.2216
 30
0.0
 11
69.9202
 21
99.2216
 31
0.0
  0
LINE
  8
0
 62
     0
 10
69.9202
 20
99.2216
 30
0.0
 11
69.9202
 21
93.2713
 31
0.0
  0
LINE
  8
0
 62
     0
 10
69.9202
 20
93.2713
 30
0.0
 11
69.1212
 21
93.2713
 31
0.0
  0
LINE
  8
0
 62
     0
 10
69.1212
 20
93.2713
 30
0.0
 11
69.1212
 21
90.3206
 31
0.0
  0
LINE
  8
0
 62
     0
 10
69.1212
 20
90.3206
 30
0.0
 11
69.9202
 21
90.3206
 31
0.0
  0
LINE
  8
0
 62
     0
 10
69.9202
 20
90.3206
 30
0.0
 11
69.9202
 21
89.3216
 31
0.0
  0
LINE
  8
0
 62
     0
 10
69.9202
 20
89.3216
 30
0.0
 11
83.771
 21
89.3216
 31
0.0
  0
LINE
  8
0
 62
     0
 10
83.771
 20
89.3216
 30
0.0
 11
83.771
 21
90.3206
 31
0.0
  0
LINE
  8
0
 62
     0
 10
83.771
 20
90.3206
 30
0.0
 11
84.5704
 21
90.3206
 31
0.0
  0
LINE
  8
0
 62
     0
 10
84.5704
 20
90.3206
 30
0.0
 11
84.5704
 21
93.2713
 31
0.0
  0
LINE
  8
0
 62
     0
 10
84.5704
 20
93.2713
 30
0.0
 11
83.771
 21
93.2713
 31
0.0
  0
LINE
  8
0
 62
     0
 10
83.771
 20
93.2713
 30
0.0
 11
83.771
 21
99.2216
 31
0.0
  0
LINE
  8
0
 62
     0
 10
83.771
 20
99.2216
 30
0.0
 11
84.5704
 21
99.2216
 31
0.0
  0
LINE
  8
0
 62
     0
 10
84.5704
 20
99.2216
 30
0.0
 11
84.5704
 21
102.17
 31
0.0
  0
LINE
  8
0
 62
     0
 10
84.5704
 20
102.17
 30
0.0
 11
83.771
 21
102.17
 31
0.0
  0
LINE
  8
0
 62
     0
 10
83.771
 20
102.17
 30
0.0
 11
83.771
 21
103.171
 31
0.0
  0
LINE
  8
0
 62
     0
 10
83.771
 20
103.171
 30
0.0
 11
69.9202
 21
103.171
 31
0.0
  0
LINE
  8
0
 62
     0
 10
88.9702
 20
103.171
 30
0.0
 11
88.9702
 21
102.17
 31
0.0
  0
LINE
  8
0
 62
     0
 10
88.9702
 20
102.17
 30
0.0
 11
88.1712
 21
102.17
 31
0.0
  0
LINE
  8
0
 62
     0
 10
88.1712
 20
102.17
 30
0.0
 11
88.1712
 21
99.2216
 31
0.0
  0
LINE
  8
0
 62
     0
 10
88.1712
 20
99.2216
 30
0.0
 11
88.9702
 21
99.2216
 31
0.0
  0
LINE
  8
0
 62
     0
 10
88.9702
 20
99.2216
 30
0.0
 11
88.9702
 21
93.2713
 31
0.0
  0
LINE
  8
0
 62
     0
 10
88.9702
 20
93.2713
 30
0.0
 11
88.1712
 21
93.2713
 31
0.0
  0
LINE
  8
0
 62
     0
 10
88.1712
 20
93.2713
 30
0.0
 11
88.1712
 21
90.3206
 31
0.0
  0
LINE
  8
0
 62
     0
 10
88.1712
 20
90.3206
 30
0.0
 11
88.9702
 21
90.3206
 31
0.0
  0
LINE
  8
0
 62
     0
 10
88.9702
 20
90.3206
 30
0.0
 11
88.9702
 21
89.3216
 31
0.0
  0
LINE
  8
0
 62
     0
 10
88.9702
 20
89.3216
 30
0.0
 11
102.821
 21
89.3216
 31
0.0
  0
LINE
  8
0
 62
     0
 10
102.821
 20
89.3216
 30
0.0
 11
102.821
 21
90.3206
 31
0.0
  0
LINE
  8
0
 62
     0
 10
102.821
 20
90.3206
 30
0.0
 11
103.619
 21
90.3206
 31
0.0
  0
LINE
  8
0
 62
     0
 10
103.619
 20
90.3206
 30
0.0
 11
103.619
 21
93.2713
 31
0.0
  0
LINE
  8
0
 62
     0
 10
103.619
 20
93.2713
 30
0.0
 11
102.821
 21
93.2713
 31
0.0
  0
LINE
  8
0
 62
     0
 10
102.821
 20
93.2713
 30
0.0
 11
102.821
 21
99.2216
 31
0.0
  0
LINE
  8
0
 62
     0
 10
102.821
 20
99.2216
 30
0.0
 11
103.619
 21
99.2216
 31
0.0
  0
LINE
  8
0
 62
     0
 10
103.619
 20
99.2216
 30
0.0
 11
103.619
 21
102.17
 31
0.0
  0
LINE
  8
0
 62
     0
 10
103.619
 20
102.17
 30
0.0
 11
102.821
 21
102.17
 31
0.0
  0
LINE
  8
0
 62
     0
 10
102.821
 20
102.17
 30
0.0
 11
102.821
 21
103.171
 31
0.0
  0
LINE
  8
0
 62
     0
 10
102.821
 20
103.171
 30
0.0
 11
88.9702
 21
103.171
 31
0.0
  0
LINE
  8
0
 62
     0
 10
108.02
 20
103.171
 30
0.0
 11
108.02
 21
102.17
 31
0.0
  0
LINE
  8
0
 62
     0
 10
108.02
 20
102.17
 30
0.0
 11
107.221
 21
102.17
 31
0.0
  0
LINE
  8
0
 62
     0
 10
107.221
 20
102.17
 30
0.0
 11
107.221
 21
99.2216
 31
0.0
  0
LINE
  8
0
 62
     0
 10
107.221
 20
99.2216
 30
0.0
 11
108.02
 21
99.2216
 31
0.0
  0
LINE
  8
0
 62
     0
 10
108.02
 20
99.2216
 30
0.0
 11
108.02
 21
93.2713
 31
0.0
  0
LINE
  8
0
 62
     0
 10
108.02
 20
93.2713
 30
0.0
 11
107.221
 21
93.2713
 31
0.0
  0
LINE
  8
0
 62
     0
 10
107.221
 20
93.2713
 30
0.0
 11
107.221
 21
90.3206
 31
0.0
  0
LINE
  8
0
 62
     0
 10
107.221
 20
90.3206
 30
0.0
 11
108.02
 21
90.3206
 31
0.0
  0
LINE
  8
0
 62
     0
 10
108.02
 20
90.3206
 30
0.0
 11
108.02
 21
89.3216
 31
0.0
  0
LINE
  8
0
 62
     0
 10
108.02
 20
89.3216
 30
0.0
 11
121.87
 21
89.3216
 31
0.0
  0
LINE
  8
0
 62
     0
 10
121.87
 20
89.3216
 30
0.0
 11
121.87
 21
90.3206
 31
0.0
  0
LINE
  8
0
 62
     0
 10
121.87
 20
90.3206
 30
0.0
 11
122.669
 21
90.3206
 31
0.0
  0
LINE
  8
0
 62
     0
 10
122.669
 20
90.3206
 30
0.0
 11
122.669
 21
93.2713
 31
0.0
  0
LINE
  8
0
 62
     0
 10
122.669
 20
93.2713
 30
0.0
 11
121.87
 21
93.2713
 31
0.0
  0
LINE
  8
0
 62
     0
 10
121.87
 20
93.2713
 30
0.0
 11
121.87
 21
99.2216
 31
0.0
  0
LINE
  8
0
 62
     0
 10
121.87
 20
99.2216
 30
0.0
 11
122.669
 21
99.2216
 31
0.0
  0
LINE
  8
0
 62
     0
 10
122.669
 20
99.2216
 30
0.0
 11
122.669
 21
102.17
 31
0.0
  0
LINE
  8
0
 62
     0
 10
122.669
 20
102.17
 30
0.0
 11
121.87
 21
102.17
 31
0.0
  0
LINE
  8
0
 62
     0
 10
121.87
 20
102.17
 30
0.0
 11
121.87
 21
103.171
 31
0.0
  0
LINE
  8
0
 62
     0
 10
121.87
 20
103.171
 30
0.0
 11
108.02
 21
103.171
 31
0.0
  0
LINE
  8
0
 62
     0
 10
127.07
 20
103.171
 30
0.0
 11
127.07
 21
102.17
 31
0.0
  0
LINE
  8
0
 62
     0
 10
127.07
 20
102.17
 30
0.0
 11
126.271
 21
102.17
 31
0.0
  0
LINE
  8
0
 62
     0
 10
126.271
 20
102.17
 30
0.0
 11
126.271
 21
99.2216
 31
0.0
  0
LINE
  8
0
 62
     0
 10
126.271
 20
99.2216
 30
0.0
 11
127.07
 21
99.2216
 31
0.0
  0
LINE
  8
0
 62
     0
 10
127.07
 20
99.2216
 30
0.0
 11
127.07
 21
93.2713
 31
0.0
  0
LINE
  8
0
 62
     0
 10
127.07
 20
93.2713
 30
0.0
 11
126.271
 21
93.2713
 31
0.0
  0
LINE
  8
0
 62
     0
 10
126.271
 20
93.2713
 30
0.0
 11
126.271
 21
90.3206
 31
0.0
  0
LINE
  8
0
 62
     0
 10
126.271
 20
90.3206
 30
0.0
 11
127.07
 21
90.3206
 31
0.0
  0
LINE
  8
0
 62
     0
 10
127.07
 20
90.3206
 30
0.0
 11
127.07
 21
89.3216
 31
0.0
  0
LINE
  8
0
 62
     0
 10
127.07
 20
89.3216
 30
0.0
 11
140.921
 21
89.3216
 31
0.0
  0
LINE
  8
0
 62
     0
 10
140.921
 20
89.3216
 30
0.0
 11
140.921
 21
90.3206
 31
0.0
  0
LINE
  8
0
 62
     0
 10
140.921
 20
90.3206
 30
0.0
 11
141.72
 21
90.3206
 31
0.0
  0
LINE
  8
0
 62
     0
 10
141.72
 20
90.3206
 30
0.0
 11
141.72
 21
93.2713
 31
0.0
  0
LINE
  8
0
 62
     0
 10
141.72
 20
93.2713
 30
0.0
 11
140.921
 21
93.2713
 31
0.0
  0
LINE
  8
0
 62
     0
 10
140.921
 20
93.2713
 30
0.0
 11
140.921
 21
99.2216
 31
0.0
  0
LINE
  8
0
 62
     0
 10
140.921
 20
99.2216
 30
0.0
 11
141.72
 21
99.2216
 31
0.0
  0
LINE
  8
0
 62
     0
 10
141.72
 20
99.2216
 30
0.0
 11
141.72
 21
102.17
 31
0.0
  0
LINE
  8
0
 62
     0
 10
141.72
 20
102.17
 30
0.0
 11
140.921
 21
102.17
 31
0.0
  0
LINE
  8
0
 62
     0
 10
140.921
 20
102.17
 30
0.0
 11
140.921
 21
103.171
 31
0.0
  0
LINE
  8
0
 62
     0
 10
140.921
 20
103.171
 30
0.0
 11
127.07
 21
103.171
 31
0.0
  0
LINE
  8
0
 62
     0
 10
146.12
 20
103.171
 30
0.0
 11
146.12
 21
102.17
 31
0.0
  0
LINE
  8
0
 62
     0
 10
146.12
 20
102.17
 30
0.0
 11
145.321
 21
102.17
 31
0.0
  0
LINE
  8
0
 62
     0
 10
145.321
 20
102.17
 30
0.0
 11
145.321
 21
99.2216
 31
0.0
  0
LINE
  8
0
 62
     0
 10
145.321
 20
99.2216
 30
0.0
 11
146.12
 21
99.2216
 31
0.0
  0
LINE
  8
0
 62
     0
 10
146.12
 20
99.2216
 30
0.0
 11
146.12
 21
93.2713
 31
0.0
  0
LINE
  8
0
 62
     0
 10
146.12
 20
93.2713
 30
0.0
 11
145.321
 21
93.2713
 31
0.0
  0
LINE
  8
0
 62
     0
 10
145.321
 20
93.2713
 30
0.0
 11
145.321
 21
90.3206
 31
0.0
  0
LINE
  8
0
 62
     0
 10
145.321
 20
90.3206
 30
0.0
 11
146.12
 21
90.3206
 31
0.0
  0
LINE
  8
0
 62
     0
 10
146.12
 20
90.3206
 30
0.0
 11
146.12
 21
89.3216
 31
0.0
  0
LINE
  8
0
 62
     0
 10
146.12
 20
89.3216
 30
0.0
 11
159.971
 21
89.3216
 31
0.0
  0
LINE
  8
0
 62
     0
 10
159.971
 20
89.3216
 30
0.0
 11
159.971
 21
90.3206
 31
0.0
  0
LINE
  8
0
 62
     0
 10
159.971
 20
90.3206
 30
0.0
 11
160.77
 21
90.3206
 31
0.0
  0
LINE
  8
0
 62
     0
 10
160.77
 20
90.3206
 30
0.0
 11
160.77
 21
93.2713
 31
0.0
  0
LINE
  8
0
 62
     0
 10
160.77
 20
93.2713
 30
0.0
 11
159.971
 21
93.2713
 31
0.0
  0
LINE
  8
0
 62
     0
 10
159.971
 20
93.2713
 30
0.0
 11
159.971
 21
99.2216
 31
0.0
  0
LINE
  8
0
 62
     0
 10
159.971
 20
99.2216
 30
0.0
 11
160.77
 21
99.2216
 31
0.0
  0
LINE
  8
0
 62
     0
 10
160.77
 20
99.2216
 30
0.0
 11
160.77
 21
102.17
 31
0.0
  0
LINE
  8
0
 62
     0
 10
160.77
 20
102.17
 30
0.0
 11
159.971
 21
102.17
 31
0.0
  0
LINE
  8
0
 62
     0
 10
159.971
 20
102.17
 30
0.0
 11
159.971
 21
103.171
 31
0.0
  0
LINE
  8
0
 62
     0
 10
159.971
 20
103.171
 30
0.0
 11
146.12
 21
103.171
 31
0.0
  0
LINE
  8
0
 62
     0
 10
165.17
 20
103.171
 30
0.0
 11
165.17
 21
102.17
 31
0.0
  0
LINE
  8
0
 62
     0
 10
165.17
 20
102.17
 30
0.0
 11
164.371
 21
102.17
 31
0.0
  0
LINE
  8
0
 62
     0
 10
164.371
 20
102.17
 30
0.0
 11
164.371
 21
99.2216
 31
0.0
  0
LINE
  8
0
 62
     0
 10
164.371
 20
99.2216
 30
0.0
 11
165.17
 21
99.2216
 31
0.0
  0
LINE
  8
0
 62
     0
 10
165.17
 20
99.2216
 30
0.0
 11
165.17
 21
93.2713
 31
0.0
  0
LINE
  8
0
 62
     0
 10
165.17
 20
93.2713
 30
0.0
 11
164.371
 21
93.2713
 31
0.0
  0
LINE
  8
0
 62
     0
 10
164.371
 20
93.2713
 30
0.0
 11
164.371
 21
90.3206
 31
0.0
  0
LINE
  8
0
 62
     0
 10
164.371
 20
90.3206
 30
0.0
 11
165.17
 21
90.3206
 31
0.0
  0
LINE
  8
0
 62
     0
 10
165.17
 20
90.3206
 30
0.0
 11
165.17
 21
89.3216
 31
0.0
  0
LINE
  8
0
 62
     0
 10
165.17
 20
89.3216
 30
0.0
 11
179.021
 21
89.3216
 31
0.0
  0
LINE
  8
0
 62
     0
 10
179.021
 20
89.3216
 30
0.0
 11
179.021
 21
90.3206
 31
0.0
  0
LINE
  8
0
 62
     0
 10
179.021
 20
90.3206
 30
0.0
 11
179.82
 21
90.3206
 31
0.0
  0
LINE
  8
0
 62
     0
 10
179.82
 20
90.3206
 30
0.0
 11
179.82
 21
93.2713
 31
0.0
  0
LINE
  8
0
 62
     0
 10
179.82
 20
93.2713
 30
0.0
 11
179.021
 21
93.2713
 31
0.0
  0
LINE
  8
0
 62
     0
 10
179.021
 20
93.2713
 30
0.0
 11
179.021
 21
99.2216
 31
0.0
  0
LINE
  8
0
 62
     0
 10
179.021
 20
99.2216
 30
0.0
 11
179.82
 21
99.2216
 31
0.0
  0
LINE
  8
0
 62
     0
 10
179.82
 20
99.2216
 30
0.0
 11
179.82
 21
102.17
 31
0.0
  0
LINE
  8
0
 62
     0
 10
179.82
 20
102.17
 30
0.0
 11
179.021
 21
102.17
 31
0.0
  0
LINE
  8
0
 62
     0
 10
179.021
 20
102.17
 30
0.0
 11
179.021
 21
103.171
 31
0.0
  0
LINE
  8
0
 62
     0
 10
179.021
 20
103.171
 30
0.0
 11
165.17
 21
103.171
 31
0.0
  0
LINE
  8
0
 62
     0
 10
184.22
 20
103.171
 30
0.0
 11
184.22
 21
102.17
 31
0.0
  0
LINE
  8
0
 62
     0
 10
184.22
 20
102.17
 30
0.0
 11
183.421
 21
102.17
 31
0.0
  0
LINE
  8
0
 62
     0
 10
183.421
 20
102.17
 30
0.0
 11
183.421
 21
99.2216
 31
0.0
  0
LINE
  8
0
 62
     0
 10
183.421
 20
99.2216
 30
0.0
 11
184.22
 21
99.2216
 31
0.0
  0
LINE
  8
0
 62
     0
 10
184.22
 20
99.2216
 30
0.0
 11
184.22
 21
93.2713
 31
0.0
  0
LINE
  8
0
 62
     0
 10
184.22
 20
93.2713
 30
0.0
 11
183.421
 21
93.2713
 31
0.0
  0
LINE
  8
0
 62
     0
 10
183.421
 20
93.2713
 30
0.0
 11
183.421
 21
90.3206
 31
0.0
  0
LINE
  8
0
 62
     0
 10
183.421
 20
90.3206
 30
0.0
 11
184.22
 21
90.3206
 31
0.0
  0
LINE
  8
0
 62
     0
 10
184.22
 20
90.3206
 30
0.0
 11
184.22
 21
89.3216
 31
0.0
  0
LINE
  8
0
 62
     0
 10
184.22
 20
89.3216
 30
0.0
 11
198.071
 21
89.3216
 31
0.0
  0
LINE
  8
0
 62
     0
 10
198.071
 20
89.3216
 30
0.0
 11
198.071
 21
90.3206
 31
0.0
  0
LINE
  8
0
 62
     0
 10
198.071
 20
90.3206
 30
0.0
 11
198.87
 21
90.3206
 31
0.0
  0
LINE
  8
0
 62
     0
 10
198.87
 20
90.3206
 30
0.0
 11
198.87
 21
93.2713
 31
0.0
  0
LINE
  8
0
 62
     0
 10
198.87
 20
93.2713
 30
0.0
 11
198.071
 21
93.2713
 31
0.0
  0
LINE
  8
0
 62
     0
 10
198.071
 20
93.2713
 30
0.0
 11
198.071
 21
99.2216
 31
0.0
  0
LINE
  8
0
 62
     0
 10
198.071
 20
99.2216
 30
0.0
 11
198.87
 21
99.2216
 31
0.0
  0
LINE
  8
0
 62
     0
 10
198.87
 20
99.2216
 30
0.0
 11
198.87
 21
102.17
 31
0.0
  0
LINE
  8
0
 62
     0
 10
198.87
 20
102.17
 30
0.0
 11
198.071
 21
102.17
 31
0.0
  0
LINE
  8
0
 62
     0
 10
198.071
 20
102.17
 30
0.0
 11
198.071
 21
103.171
 31
0.0
  0
LINE
  8
0
 62
     0
 10
198.071
 20
103.171
 30
0.0
 11
184.22
 21
103.171
 31
0.0
  0
LINE
  8
0
 62
     0
 10
203.27
 20
103.171
 30
0.0
 11
203.27
 21
102.17
 31
0.0
  0
LINE
  8
0
 62
     0
 10
203.27
 20
102.17
 30
0.0
 11
202.471
 21
102.17
 31
0.0
  0
LINE
  8
0
 62
     0
 10
202.471
 20
102.17
 30
0.0
 11
202.471
 21
99.2216
 31
0.0
  0
LINE
  8
0
 62
     0
 10
202.471
 20
99.2216
 30
0.0
 11
203.27
 21
99.2216
 31
0.0
  0
LINE
  8
0
 62
     0
 10
203.27
 20
99.2216
 30
0.0
 11
203.27
 21
93.2713
 31
0.0
  0
LINE
  8
0
 62
     0
 10
203.27
 20
93.2713
 30
0.0
 11
202.471
 21
93.2713
 31
0.0
  0
LINE
  8
0
 62
     0
 10
202.471
 20
93.2713
 30
0.0
 11
202.471
 21
90.3206
 31
0.0
  0
LINE
  8
0
 62
     0
 10
202.471
 20
90.3206
 30
0.0
 11
203.27
 21
90.3206
 31
0.0
  0
LINE
  8
0
 62
     0
 10
203.27
 20
90.3206
 30
0.0
 11
203.27
 21
89.3216
 31
0.0
  0
LINE
  8
0
 62
     0
 10
203.27
 20
89.3216
 30
0.0
 11
217.121
 21
89.3216
 31
0.0
  0
LINE
  8
0
 62
     0
 10
217.121
 20
89.3216
 30
0.0
 11
217.121
 21
90.3206
 31
0.0
  0
LINE
  8
0
 62
     0
 10
217.121
 20
90.3206
 30
0.0
 11
217.92
 21
90.3206
 31
0.0
  0
LINE
  8
0
 62
     0
 10
217.92
 20
90.3206
 30
0.0
 11
217.92
 21
93.2713
 31
0.0
  0
LINE
  8
0
 62
     0
 10
217.92
 20
93.2713
 30
0.0
 11
217.121
 21
93.2713
 31
0.0
  0
LINE
  8
0
 62
     0
 10
217.121
 20
93.2713
 30
0.0
 11
217.121
 21
99.2216
 31
0.0
  0
LINE
  8
0
 62
     0
 10
217.121
 20
99.2216
 30
0.0
 11
217.92
 21
99.2216
 31
0.0
  0
LINE
  8
0
 62
     0
 10
217.92
 20
99.2216
 30
0.0
 11
217.92
 21
102.17
 31
0.0
  0
LINE
  8
0
 62
     0
 10
217.92
 20
102.17
 30
0.0
 11
217.121
 21
102.17
 31
0.0
  0
LINE
  8
0
 62
     0
 10
217.121
 20
102.17
 30
0.0
 11
217.121
 21
103.171
 31
0.0
  0
LINE
  8
0
 62
     0
 10
217.121
 20
103.171
 30
0.0
 11
203.27
 21
103.171
 31
0.0
  0
LINE
  8
0
 62
     0
 10
222.32
 20
103.171
 30
0.0
 11
222.32
 21
102.17
 31
0.0
  0
LINE
  8
0
 62
     0
 10
222.32
 20
102.17
 30
0.0
 11
221.521
 21
102.17
 31
0.0
  0
LINE
  8
0
 62
     0
 10
221.521
 20
102.17
 30
0.0
 11
221.521
 21
99.2216
 31
0.0
  0
LINE
  8
0
 62
     0
 10
221.521
 20
99.2216
 30
0.0
 11
222.32
 21
99.2216
 31
0.0
  0
LINE
  8
0
 62
     0
 10
222.32
 20
99.2216
 30
0.0
 11
222.32
 21
93.2713
 31
0.0
  0
LINE
  8
0
 62
     0
 10
222.32
 20
93.2713
 30
0.0
 11
221.521
 21
93.2713
 31
0.0
  0
LINE
  8
0
 62
     0
 10
221.521
 20
93.2713
 30
0.0
 11
221.521
 21
90.3206
 31
0.0
  0
LINE
  8
0
 62
     0
 10
221.521
 20
90.3206
 30
0.0
 11
222.32
 21
90.3206
 31
0.0
  0
LINE
  8
0
 62
     0
 10
222.32
 20
90.3206
 30
0.0
 11
222.32
 21
89.3216
 31
0.0
  0
LINE
  8
0
 62
     0
 10
222.32
 20
89.3216
 30
0.0
 11
236.171
 21
89.3216
 31
0.0
  0
LINE
  8
0
 62
     0
 10
236.171
 20
89.3216
 30
0.0
 11
236.171
 21
90.3206
 31
0.0
  0
LINE
  8
0
 62
     0
 10
236.171
 20
90.3206
 30
0.0
 11
236.97
 21
90.3206
 31
0.0
  0
LINE
  8
0
 62
     0
 10
236.97
 20
90.3206
 30
0.0
 11
236.97
 21
93.2713
 31
0.0
  0
LINE
  8
0
 62
     0
 10
236.97
 20
93.2713
 30
0.0
 11
236.171
 21
93.2713
 31
0.0
  0
LINE
  8
0
 62
     0
 10
236.171
 20
93.2713
 30
0.0
 11
236.171
 21
99.2216
 31
0.0
  0
LINE
  8
0
 62
     0
 10
236.171
 20
99.2216
 30
0.0
 11
236.97
 21
99.2216
 31
0.0
  0
LINE
  8
0
 62
     0
 10
236.97
 20
99.2216
 30
0.0
 11
236.97
 21
102.17
 31
0.0
  0
LINE
  8
0
 62
     0
 10
236.97
 20
102.17
 30
0.0
 11
236.171
 21
102.17
 31
0.0
  0
LINE
  8
0
 62
     0
 10
236.171
 20
102.17
 30
0.0
 11
236.171
 21
103.171
 31
0.0
  0
LINE
  8
0
 62
     0
 10
236.171
 20
103.171
 30
0.0
 11
222.32
 21
103.171
 31
0.0
  0
LINE
  8
0
 62
     0
 10
241.37
 20
103.171
 30
0.0
 11
241.37
 21
102.17
 31
0.0
  0
LINE
  8
0
 62
     0
 10
241.37
 20
102.17
 30
0.0
 11
240.571
 21
102.17
 31
0.0
  0
LINE
  8
0
 62
     0
 10
240.571
 20
102.17
 30
0.0
 11
240.571
 21
99.2216
 31
0.0
  0
LINE
  8
0
 62
     0
 10
240.571
 20
99.2216
 30
0.0
 11
241.37
 21
99.2216
 31
0.0
  0
LINE
  8
0
 62
     0
 10
241.37
 20
99.2216
 30
0.0
 11
241.37
 21
93.2713
 31
0.0
  0
LINE
  8
0
 62
     0
 10
241.37
 20
93.2713
 30
0.0
 11
240.571
 21
93.2713
 31
0.0
  0
LINE
  8
0
 62
     0
 10
240.571
 20
93.2713
 30
0.0
 11
240.571
 21
90.3206
 31
0.0
  0
LINE
  8
0
 62
     0
 10
240.571
 20
90.3206
 30
0.0
 11
241.37
 21
90.3206
 31
0.0
  0
LINE
  8
0
 62
     0
 10
241.37
 20
90.3206
 30
0.0
 11
241.37
 21
89.3216
 31
0.0
  0
LINE
  8
0
 62
     0
 10
241.37
 20
89.3216
 30
0.0
 11
255.221
 21
89.3216
 31
0.0
  0
LINE
  8
0
 62
     0
 10
255.221
 20
89.3216
 30
0.0
 11
255.221
 21
90.3206
 31
0.0
  0
LINE
  8
0
 62
     0
 10
255.221
 20
90.3206
 30
0.0
 11
256.02
 21
90.3206
 31
0.0
  0
LINE
  8
0
 62
     0
 10
256.02
 20
90.3206
 30
0.0
 11
256.02
 21
93.2713
 31
0.0
  0
LINE
  8
0
 62
     0
 10
256.02
 20
93.2713
 30
0.0
 11
255.221
 21
93.2713
 31
0.0
  0
LINE
  8
0
 62
     0
 10
255.221
 20
93.2713
 30
0.0
 11
255.221
 21
99.2216
 31
0.0
  0
LINE
  8
0
 62
     0
 10
255.221
 20
99.2216
 30
0.0
 11
256.02
 21
99.2216
 31
0.0
  0
LINE
  8
0
 62
     0
 10
256.02
 20
99.2216
 30
0.0
 11
256.02
 21
102.17
 31
0.0
  0
LINE
  8
0
 62
     0
 10
256.02
 20
102.17
 30
0.0
 11
255.221
 21
102.17
 31
0.0
  0
LINE
  8
0
 62
     0
 10
255.221
 20
102.17
 30
0.0
 11
255.221
 21
103.171
 31
0.0
  0
LINE
  8
0
 62
     0
 10
255.221
 20
103.171
 30
0.0
 11
241.37
 21
103.171
 31
0.0
  0
LINE
  8
0
 62
     0
 10
260.42
 20
103.171
 30
0.0
 11
260.42
 21
102.17
 31
0.0
  0
LINE
  8
0
 62
     0
 10
260.42
 20
102.17
 30
0.0
 11
259.621
 21
102.17
 31
0.0
  0
LINE
  8
0
 62
     0
 10
259.621
 20
102.17
 30
0.0
 11
259.621
 21
99.2216
 31
0.0
  0
LINE
  8
0
 62
     0
 10
259.621
 20
99.2216
 30
0.0
 11
260.42
 21
99.2216
 31
0.0
  0
LINE
  8
0
 62
     0
 10
260.42
 20
99.2216
 30
0.0
 11
260.42
 21
93.2713
 31
0.0
  0
LINE
  8
0
 62
     0
 10
260.42
 20
93.2713
 30
0.0
 11
259.621
 21
93.2713
 31
0.0
  0
LINE
  8
0
 62
     0
 10
259.621
 20
93.2713
 30
0.0
 11
259.621
 21
90.3206
 31
0.0
  0
LINE
  8
0
 62
     0
 10
259.621
 20
90.3206
 30
0.0
 11
260.42
 21
90.3206
 31
0.0
  0
LINE
  8
0
 62
     0
 10
260.42
 20
90.3206
 30
0.0
 11
260.42
 21
89.3216
 31
0.0
  0
LINE
  8
0
 62
     0
 10
260.42
 20
89.3216
 30
0.0
 11
274.271
 21
89.3216
 31
0.0
  0
LINE
  8
0
 62
     0
 10
274.271
 20
89.3216
 30
0.0
 11
274.271
 21
90.3206
 31
0.0
  0
LINE
  8
0
 62
     0
 10
274.271
 20
90.3206
 30
0.0
 11
275.07
 21
90.3206
 31
0.0
  0
LINE
  8
0
 62
     0
 10
275.07
 20
90.3206
 30
0.0
 11
275.07
 21
93.2713
 31
0.0
  0
LINE
  8
0
 62
     0
 10
275.07
 20
93.2713
 30
0.0
 11
274.271
 21
93.2713
 31
0.0
  0
LINE
  8
0
 62
     0
 10
274.271
 20
93.2713
 30
0.0
 11
274.271
 21
99.2216
 31
0.0
  0
LINE
  8
0
 62
     0
 10
274.271
 20
99.2216
 30
0.0
 11
275.07
 21
99.2216
 31
0.0
  0
LINE
  8
0
 62
     0
 10
275.07
 20
99.2216
 30
0.0
 11
275.07
 21
102.17
 31
0.0
  0
LINE
  8
0
 62
     0
 10
275.07
 20
102.17
 30
0.0
 11
274.271
 21
102.17
 31
0.0
  0
LINE
  8
0
 62
     0
 10
274.271
 20
102.17
 30
0.0
 11
274.271
 21
103.171
 31
0.0
  0
LINE
  8
0
 62
     0
 10
274.271
 20
103.171
 30
0.0
 11
260.42
 21
103.171
 31
0.0
  0
LINE
  8
0
 62
     0
 10
279.47
 20
103.171
 30
0.0
 11
279.47
 21
102.17
 31
0.0
  0
LINE
  8
0
 62
     0
 10
279.47
 20
102.17
 30
0.0
 11
278.671
 21
102.17
 31
0.0
  0
LINE
  8
0
 62
     0
 10
278.671
 20
102.17
 30
0.0
 11
278.671
 21
99.2216
 31
0.0
  0
LINE
  8
0
 62
     0
 10
278.671
 20
99.2216
 30
0.0
 11
279.47
 21
99.2216
 31
0.0
  0
LINE
  8
0
 62
     0
 10
279.47
 20
99.2216
 30
0.0
 11
279.47
 21
93.2713
 31
0.0
  0
LINE
  8
0
 62
     0
 10
279.47
 20
93.2713
 30
0.0
 11
278.671
 21
93.2713
 31
0.0
  0
LINE
  8
0
 62
     0
 10
278.671
 20
93.2713
 30
0.0
 11
278.671
 21
90.3206
 31
0.0
  0
LINE
  8
0
 62
     0
 10
278.671
 20
90.3206
 30
0.0
 11
279.47
 21
90.3206
 31
0.0
  0
LINE
  8
0
 62
     0
 10
279.47
 20
90.3206
 30
0.0
 11
279.47
 21
89.3216
 31
0.0
  0
LINE
  8
0
 62
     0
 10
279.47
 20
89.3216
 30
0.0
 11
293.321
 21
89.3216
 31
0.0
  0
LINE
  8
0
 62
     0
 10
293.321
 20
89.3216
 30
0.0
 11
293.321
 21
90.3206
 31
0.0
  0
LINE
  8
0
 62
     0
 10
293.321
 20
90.3206
 30
0.0
 11
294.12
 21
90.3206
 31
0.0
  0
LINE
  8
0
 62
     0
 10
294.12
 20
90.3206
 30
0.0
 11
294.12
 21
93.2713
 31
0.0
  0
LINE
  8
0
 62
     0
 10
294.12
 20
93.2713
 30
0.0
 11
293.321
 21
93.2713
 31
0.0
  0
LINE
  8
0
 62
     0
 10
293.321
 20
93.2713
 30
0.0
 11
293.321
 21
99.2216
 31
0.0
  0
LINE
  8
0
 62
     0
 10
293.321
 20
99.2216
 30
0.0
 11
294.12
 21
99.2216
 31
0.0
  0
LINE
  8
0
 62
     0
 10
294.12
 20
99.2216
 30
0.0
 11
294.12
 21
102.17
 31
0.0
  0
LINE
  8
0
 62
     0
 10
294.12
 20
102.17
 30
0.0
 11
293.321
 21
102.17
 31
0.0
  0
LINE
  8
0
 62
     0
 10
293.321
 20
102.17
 30
0.0
 11
293.321
 21
103.171
 31
0.0
  0
LINE
  8
0
 62
     0
 10
293.321
 20
103.171
 30
0.0
 11
279.47
 21
103.171
 31
0.0
  0
LINE
  8
0
 62
     0
 10
103.467
 20
121.652
 30
0.0
 11
103.21
 21
121.52
 31
0.0
  0
LINE
  8
0
 62
     0
 10
103.21
 20
121.52
 30
0.0
 11
103.005
 21
121.316
 31
0.0
  0
LINE
  8
0
 62
     0
 10
103.005
 20
121.316
 30
0.0
 11
102.873
 21
121.056
 31
0.0
  0
LINE
  8
0
 62
     0
 10
102.873
 20
121.056
 30
0.0
 11
102.828
 21
120.771
 31
0.0
  0
LINE
  8
0
 62
     0
 10
102.828
 20
120.771
 30
0.0
 11
102.873
 21
120.486
 31
0.0
  0
LINE
  8
0
 62
     0
 10
102.873
 20
120.486
 30
0.0
 11
103.005
 21
120.228
 31
0.0
  0
LINE
  8
0
 62
     0
 10
103.005
 20
120.228
 30
0.0
 11
103.21
 21
120.023
 31
0.0
  0
LINE
  8
0
 62
     0
 10
103.21
 20
120.023
 30
0.0
 11
103.467
 21
119.892
 31
0.0
  0
LINE
  8
0
 62
     0
 10
103.467
 20
119.892
 30
0.0
 11
103.754
 21
119.847
 31
0.0
  0
LINE
  8
0
 62
     0
 10
103.754
 20
119.847
 30
0.0
 11
104.039
 21
119.892
 31
0.0
  0
LINE
  8
0
 62
     0
 10
104.039
 20
119.892
 30
0.0
 11
104.297
 21
120.023
 31
0.0
  0
LINE
  8
0
 62
     0
 10
104.297
 20
120.023
 30
0.0
 11
104.502
 21
120.228
 31
0.0
  0
LINE
  8
0
 62
     0
 10
104.502
 20
120.228
 30
0.0
 11
104.633
 21
120.486
 31
0.0
  0
LINE
  8
0
 62
     0
 10
104.633
 20
120.486
 30
0.0
 11
104.679
 21
120.771
 31
0.0
  0
LINE
  8
0
 62
     0
 10
104.679
 20
120.771
 30
0.0
 11
104.633
 21
121.056
 31
0.0
  0
LINE
  8
0
 62
     0
 10
104.633
 20
121.056
 30
0.0
 11
104.502
 21
121.316
 31
0.0
  0
LINE
  8
0
 62
     0
 10
104.502
 20
121.316
 30
0.0
 11
104.297
 21
121.52
 31
0.0
  0
LINE
  8
0
 62
     0
 10
104.297
 20
121.52
 30
0.0
 11
104.039
 21
121.652
 31
0.0
  0
LINE
  8
0
 62
     0
 10
104.039
 20
121.652
 30
0.0
 11
103.754
 21
121.697
 31
0.0
  0
LINE
  8
0
 62
     0
 10
103.754
 20
121.697
 30
0.0
 11
103.467
 21
121.652
 31
0.0
  0
LINE
  8
0
 62
     0
 10
202.052
 20
121.652
 30
0.0
 11
201.793
 21
121.52
 31
0.0
  0
LINE
  8
0
 62
     0
 10
201.793
 20
121.52
 30
0.0
 11
201.589
 21
121.316
 31
0.0
  0
LINE
  8
0
 62
     0
 10
201.589
 20
121.316
 30
0.0
 11
201.458
 21
121.056
 31
0.0
  0
LINE
  8
0
 62
     0
 10
201.458
 20
121.056
 30
0.0
 11
201.413
 21
120.771
 31
0.0
  0
LINE
  8
0
 62
     0
 10
201.413
 20
120.771
 30
0.0
 11
201.458
 21
120.486
 31
0.0
  0
LINE
  8
0
 62
     0
 10
201.458
 20
120.486
 30
0.0
 11
201.589
 21
120.228
 31
0.0
  0
LINE
  8
0
 62
     0
 10
201.589
 20
120.228
 30
0.0
 11
201.793
 21
120.023
 31
0.0
  0
LINE
  8
0
 62
     0
 10
201.793
 20
120.023
 30
0.0
 11
202.052
 21
119.892
 31
0.0
  0
LINE
  8
0
 62
     0
 10
202.052
 20
119.892
 30
0.0
 11
202.337
 21
119.847
 31
0.0
  0
LINE
  8
0
 62
     0
 10
202.337
 20
119.847
 30
0.0
 11
202.624
 21
119.892
 31
0.0
  0
LINE
  8
0
 62
     0
 10
202.624
 20
119.892
 30
0.0
 11
202.882
 21
120.023
 31
0.0
  0
LINE
  8
0
 62
     0
 10
202.882
 20
120.023
 30
0.0
 11
203.086
 21
120.228
 31
0.0
  0
LINE
  8
0
 62
     0
 10
203.086
 20
120.228
 30
0.0
 11
203.218
 21
120.486
 31
0.0
  0
LINE
  8
0
 62
     0
 10
203.218
 20
120.486
 30
0.0
 11
203.262
 21
120.771
 31
0.0
  0
LINE
  8
0
 62
     0
 10
203.262
 20
120.771
 30
0.0
 11
203.218
 21
121.056
 31
0.0
  0
LINE
  8
0
 62
     0
 10
203.218
 20
121.056
 30
0.0
 11
203.086
 21
121.316
 31
0.0
  0
LINE
  8
0
 62
     0
 10
203.086
 20
121.316
 30
0.0
 11
202.882
 21
121.52
 31
0.0
  0
LINE
  8
0
 62
     0
 10
202.882
 20
121.52
 30
0.0
 11
202.624
 21
121.652
 31
0.0
  0
LINE
  8
0
 62
     0
 10
202.624
 20
121.652
 30
0.0
 11
202.337
 21
121.697
 31
0.0
  0
LINE
  8
0
 62
     0
 10
202.337
 20
121.697
 30
0.0
 11
202.052
 21
121.652
 31
0.0
  0
LINE
  8
0
 62
     0
 10
300.635
 20
121.652
 30
0.0
 11
300.378
 21
121.52
 31
0.0
  0
LINE
  8
0
 62
     0
 10
300.378
 20
121.52
 30
0.0
 11
300.173
 21
121.316
 31
0.0
  0
LINE
  8
0
 62
     0
 10
300.173
 20
121.316
 30
0.0
 11
300.042
 21
121.056
 31
0.0
  0
LINE
  8
0
 62
     0
 10
300.042
 20
121.056
 30
0.0
 11
299.996
 21
120.771
 31
0.0
  0
LINE
  8
0
 62
     0
 10
299.996
 20
120.771
 30
0.0
 11
300.042
 21
120.486
 31
0.0
  0
LINE
  8
0
 62
     0
 10
300.042
 20
120.486
 30
0.0
 11
300.173
 21
120.228
 31
0.0
  0
LINE
  8
0
 62
     0
 10
300.173
 20
120.228
 30
0.0
 11
300.378
 21
120.023
 31
0.0
  0
LINE
  8
0
 62
     0
 10
300.378
 20
120.023
 30
0.0
 11
300.635
 21
119.892
 31
0.0
  0
LINE
  8
0
 62
     0
 10
300.635
 20
119.892
 30
0.0
 11
300.921
 21
119.847
 31
0.0
  0
LINE
  8
0
 62
     0
 10
300.921
 20
119.847
 30
0.0
 11
301.206
 21
119.892
 31
0.0
  0
LINE
  8
0
 62
     0
 10
301.206
 20
119.892
 30
0.0
 11
301.465
 21
120.023
 31
0.0
  0
LINE
  8
0
 62
     0
 10
301.465
 20
120.023
 30
0.0
 11
301.669
 21
120.228
 31
0.0
  0
LINE
  8
0
 62
     0
 10
301.669
 20
120.228
 30
0.0
 11
301.8
 21
120.486
 31
0.0
  0
LINE
  8
0
 62
     0
 10
301.8
 20
120.486
 30
0.0
 11
301.847
 21
120.771
 31
0.0
  0
LINE
  8
0
 62
     0
 10
301.847
 20
120.771
 30
0.0
 11
301.8
 21
121.056
 31
0.0
  0
LINE
  8
0
 62
     0
 10
301.8
 20
121.056
 30
0.0
 11
301.669
 21
121.316
 31
0.0
  0
LINE
  8
0
 62
     0
 10
301.669
 20
121.316
 30
0.0
 11
301.465
 21
121.52
 31
0.0
  0
LINE
  8
0
 62
     0
 10
301.465
 20
121.52
 30
0.0
 11
301.206
 21
121.652
 31
0.0
  0
LINE
  8
0
 62
     0
 10
301.206
 20
121.652
 30
0.0
 11
300.921
 21
121.697
 31
0.0
  0
LINE
  8
0
 62
     0
 10
300.921
 20
121.697
 30
0.0
 11
300.635
 21
121.652
 31
0.0
  0
LINE
  8
0
 62
     0
 10
4.88516
 20
121.652
 30
0.0
 11
4.62608
 21
121.52
 31
0.0
  0
LINE
  8
0
 62
     0
 10
4.62608
 20
121.52
 30
0.0
 11
4.42214
 21
121.316
 31
0.0
  0
LINE
  8
0
 62
     0
 10
4.42214
 20
121.316
 30
0.0
 11
4.28985
 21
121.056
 31
0.0
  0
LINE
  8
0
 62
     0
 10
4.28985
 20
121.056
 30
0.0
 11
4.24575
 21
120.771
 31
0.0
  0
LINE
  8
0
 62
     0
 10
4.24575
 20
120.771
 30
0.0
 11
4.28985
 21
120.486
 31
0.0
  0
LINE
  8
0
 62
     0
 10
4.28985
 20
120.486
 30
0.0
 11
4.42214
 21
120.228
 31
0.0
  0
LINE
  8
0
 62
     0
 10
4.42214
 20
120.228
 30
0.0
 11
4.62608
 21
120.023
 31
0.0
  0
LINE
  8
0
 62
     0
 10
4.62608
 20
120.023
 30
0.0
 11
4.88516
 21
119.892
 31
0.0
  0
LINE
  8
0
 62
     0
 10
4.88516
 20
119.892
 30
0.0
 11
5.17042
 21
119.847
 31
0.0
  0
LINE
  8
0
 62
     0
 10
5.17042
 20
119.847
 30
0.0
 11
5.45564
 21
119.892
 31
0.0
  0
LINE
  8
0
 62
     0
 10
5.45564
 20
119.892
 30
0.0
 11
5.71334
 21
120.023
 31
0.0
  0
LINE
  8
0
 62
     0
 10
5.71334
 20
120.023
 30
0.0
 11
5.91866
 21
120.228
 31
0.0
  0
LINE
  8
0
 62
     0
 10
5.91866
 20
120.228
 30
0.0
 11
6.04957
 21
120.486
 31
0.0
  0
LINE
  8
0
 62
     0
 10
6.04957
 20
120.486
 30
0.0
 11
6.09505
 21
120.771
 31
0.0
  0
LINE
  8
0
 62
     0
 10
6.09505
 20
120.771
 30
0.0
 11
6.04957
 21
121.056
 31
0.0
  0
LINE
  8
0
 62
     0
 10
6.04957
 20
121.056
 30
0.0
 11
5.91866
 21
121.316
 31
0.0
  0
LINE
  8
0
 62
     0
 10
5.91866
 20
121.316
 30
0.0
 11
5.71334
 21
121.52
 31
0.0
  0
LINE
  8
0
 62
     0
 10
5.71334
 20
121.52
 30
0.0
 11
5.45564
 21
121.652
 31
0.0
  0
LINE
  8
0
 62
     0
 10
5.45564
 20
121.652
 30
0.0
 11
5.17042
 21
121.696
 31
0.0
  0
LINE
  8
0
 62
     0
 10
5.17042
 20
121.696
 30
0.0
 11
4.88516
 21
121.652
 31
0.0
  0
ENDSEC
  0
EOF
