  0
SECTION
  2
HEADER
  9
$ACADVER
  1
AC1009
  9
$FILLMODE
 70
 0
  9
$SPLFRAME
 70
 1
  9
$EXTMIN
 10
0
 20
0
 30
0.0
  9
$EXTMAX
 10
1058.33
 20
1058.33
 30
0.0
  0
ENDSEC
  0
SECTION
  2
TABLES
  0
TABLE
  2
LAYER
 70
1
  0
LAYER
  2
0
 70
     0
 62
     7
  6
CONTINUOUS
  0
ENDTAB
  0
ENDSEC
  0
SECTION
  2
ENTITIES
  0
LINE
  8
0
 62
     0
 10
303.997
 20
125.846
 30
0.0
 11
304.152
 21
125.84
 31
0.0
  0
LINE
  8
0
 62
     0
 10
304.152
 20
125.84
 30
0.0
 11
304.308
 21
125.822
 31
0.0
  0
LINE
  8
0
 62
     0
 10
304.308
 20
125.822
 30
0.0
 11
304.462
 21
125.791
 31
0.0
  0
LINE
  8
0
 62
     0
 10
304.462
 20
125.791
 30
0.0
 11
304.614
 21
125.749
 31
0.0
  0
LINE
  8
0
 62
     0
 10
304.614
 20
125.749
 30
0.0
 11
304.762
 21
125.694
 31
0.0
  0
LINE
  8
0
 62
     0
 10
304.762
 20
125.694
 30
0.0
 11
304.903
 21
125.629
 31
0.0
  0
LINE
  8
0
 62
     0
 10
304.903
 20
125.629
 30
0.0
 11
305.041
 21
125.552
 31
0.0
  0
LINE
  8
0
 62
     0
 10
305.041
 20
125.552
 30
0.0
 11
305.172
 21
125.465
 31
0.0
  0
LINE
  8
0
 62
     0
 10
305.172
 20
125.465
 30
0.0
 11
305.295
 21
125.367
 31
0.0
  0
LINE
  8
0
 62
     0
 10
305.295
 20
125.367
 30
0.0
 11
305.41
 21
125.261
 31
0.0
  0
LINE
  8
0
 62
     0
 10
305.41
 20
125.261
 30
0.0
 11
305.516
 21
125.145
 31
0.0
  0
LINE
  8
0
 62
     0
 10
305.516
 20
125.145
 30
0.0
 11
305.615
 21
125.023
 31
0.0
  0
LINE
  8
0
 62
     0
 10
305.615
 20
125.023
 30
0.0
 11
305.701
 21
124.891
 31
0.0
  0
LINE
  8
0
 62
     0
 10
305.701
 20
124.891
 30
0.0
 11
305.778
 21
124.754
 31
0.0
  0
LINE
  8
0
 62
     0
 10
305.778
 20
124.754
 30
0.0
 11
305.843
 21
124.612
 31
0.0
  0
LINE
  8
0
 62
     0
 10
305.843
 20
124.612
 30
0.0
 11
305.898
 21
124.466
 31
0.0
  0
LINE
  8
0
 62
     0
 10
305.898
 20
124.466
 30
0.0
 11
305.941
 21
124.313
 31
0.0
  0
LINE
  8
0
 62
     0
 10
305.941
 20
124.313
 30
0.0
 11
305.971
 21
124.16
 31
0.0
  0
LINE
  8
0
 62
     0
 10
305.971
 20
124.16
 30
0.0
 11
305.989
 21
124.003
 31
0.0
  0
LINE
  8
0
 62
     0
 10
305.989
 20
124.003
 30
0.0
 11
305.996
 21
123.846
 31
0.0
  0
LINE
  8
0
 62
     0
 10
305.996
 20
123.846
 30
0.0
 11
305.996
 21
2.44602
 31
0.0
  0
LINE
  8
0
 62
     0
 10
305.996
 20
2.44602
 30
0.0
 11
305.989
 21
2.2903
 31
0.0
  0
LINE
  8
0
 62
     0
 10
305.989
 20
2.2903
 30
0.0
 11
305.971
 21
2.1332
 31
0.0
  0
LINE
  8
0
 62
     0
 10
305.971
 20
2.1332
 30
0.0
 11
305.941
 21
1.98024
 31
0.0
  0
LINE
  8
0
 62
     0
 10
305.941
 20
1.98024
 30
0.0
 11
305.898
 21
1.82728
 31
0.0
  0
LINE
  8
0
 62
     0
 10
305.898
 20
1.82728
 30
0.0
 11
305.843
 21
1.67983
 31
0.0
  0
LINE
  8
0
 62
     0
 10
305.843
 20
1.67983
 30
0.0
 11
305.778
 21
1.53789
 31
0.0
  0
LINE
  8
0
 62
     0
 10
305.778
 20
1.53789
 30
0.0
 11
305.701
 21
1.40147
 31
0.0
  0
LINE
  8
0
 62
     0
 10
305.701
 20
1.40147
 30
0.0
 11
305.615
 21
1.27055
 31
0.0
  0
LINE
  8
0
 62
     0
 10
305.615
 20
1.27055
 30
0.0
 11
305.516
 21
1.14653
 31
0.0
  0
LINE
  8
0
 62
     0
 10
305.516
 20
1.14653
 30
0.0
 11
305.41
 21
1.03077
 31
0.0
  0
LINE
  8
0
 62
     0
 10
305.41
 20
1.03077
 30
0.0
 11
305.295
 21
0.926042
 31
0.0
  0
LINE
  8
0
 62
     0
 10
305.295
 20
0.926042
 30
0.0
 11
305.172
 21
0.826823
 31
0.0
  0
LINE
  8
0
 62
     0
 10
305.172
 20
0.826823
 30
0.0
 11
305.041
 21
0.740008
 31
0.0
  0
LINE
  8
0
 62
     0
 10
305.041
 20
0.740008
 30
0.0
 11
304.903
 21
0.662838
 31
0.0
  0
LINE
  8
0
 62
     0
 10
304.903
 20
0.662838
 30
0.0
 11
304.762
 21
0.599447
 31
0.0
  0
LINE
  8
0
 62
     0
 10
304.762
 20
0.599447
 30
0.0
 11
304.614
 21
0.542946
 31
0.0
  0
LINE
  8
0
 62
     0
 10
304.614
 20
0.542946
 30
0.0
 11
304.462
 21
0.501608
 31
0.0
  0
LINE
  8
0
 62
     0
 10
304.462
 20
0.501608
 30
0.0
 11
304.308
 21
0.469911
 31
0.0
  0
LINE
  8
0
 62
     0
 10
304.308
 20
0.469911
 30
0.0
 11
304.152
 21
0.451997
 31
0.0
  0
LINE
  8
0
 62
     0
 10
304.152
 20
0.451997
 30
0.0
 11
303.995
 21
0.445107
 31
0.0
  0
LINE
  8
0
 62
     0
 10
303.995
 20
0.445107
 30
0.0
 11
2.096
 21
0.446486
 31
0.0
  0
LINE
  8
0
 62
     0
 10
2.096
 20
0.446486
 30
0.0
 11
1.9389
 21
0.451997
 31
0.0
  0
LINE
  8
0
 62
     0
 10
1.9389
 20
0.451997
 30
0.0
 11
1.7818
 21
0.469911
 31
0.0
  0
LINE
  8
0
 62
     0
 10
1.7818
 20
0.469911
 30
0.0
 11
1.62884
 21
0.501608
 31
0.0
  0
LINE
  8
0
 62
     0
 10
1.62884
 20
0.501608
 30
0.0
 11
1.47588
 21
0.542946
 31
0.0
  0
LINE
  8
0
 62
     0
 10
1.47588
 20
0.542946
 30
0.0
 11
1.32981
 21
0.599447
 31
0.0
  0
LINE
  8
0
 62
     0
 10
1.32981
 20
0.599447
 30
0.0
 11
1.18787
 21
0.662838
 31
0.0
  0
LINE
  8
0
 62
     0
 10
1.18787
 20
0.662838
 30
0.0
 11
1.05006
 21
0.740008
 31
0.0
  0
LINE
  8
0
 62
     0
 10
1.05006
 20
0.740008
 30
0.0
 11
0.919152
 21
0.826823
 31
0.0
  0
LINE
  8
0
 62
     0
 10
0.919152
 20
0.826823
 30
0.0
 11
0.796505
 21
0.926042
 31
0.0
  0
LINE
  8
0
 62
     0
 10
0.796505
 20
0.926042
 30
0.0
 11
0.680752
 21
1.03077
 31
0.0
  0
LINE
  8
0
 62
     0
 10
0.680752
 20
1.03077
 30
0.0
 11
0.574643
 21
1.14653
 31
0.0
  0
LINE
  8
0
 62
     0
 10
0.574643
 20
1.14653
 30
0.0
 11
0.4768
 21
1.27055
 31
0.0
  0
LINE
  8
0
 62
     0
 10
0.4768
 20
1.27055
 30
0.0
 11
0.389985
 21
1.40147
 31
0.0
  0
LINE
  8
0
 62
     0
 10
0.389985
 20
1.40147
 30
0.0
 11
0.312815
 21
1.53789
 31
0.0
  0
LINE
  8
0
 62
     0
 10
0.312815
 20
1.53789
 30
0.0
 11
0.248047
 21
1.67983
 31
0.0
  0
LINE
  8
0
 62
     0
 10
0.248047
 20
1.67983
 30
0.0
 11
0.192925
 21
1.82728
 31
0.0
  0
LINE
  8
0
 62
     0
 10
0.192925
 20
1.82728
 30
0.0
 11
0.150206
 21
1.98024
 31
0.0
  0
LINE
  8
0
 62
     0
 10
0.150206
 20
1.98024
 30
0.0
 11
0.119889
 21
2.1332
 31
0.0
  0
LINE
  8
0
 62
     0
 10
0.119889
 20
2.1332
 30
0.0
 11
0.101975
 21
2.2903
 31
0.0
  0
LINE
  8
0
 62
     0
 10
0.101975
 20
2.2903
 30
0.0
 11
0.0950846
 21
2.44602
 31
0.0
  0
LINE
  8
0
 62
     0
 10
0.0950846
 20
2.44602
 30
0.0
 11
0.0950846
 21
123.846
 31
0.0
  0
LINE
  8
0
 62
     0
 10
0.0950846
 20
123.846
 30
0.0
 11
0.101975
 21
124.003
 31
0.0
  0
LINE
  8
0
 62
     0
 10
0.101975
 20
124.003
 30
0.0
 11
0.119889
 21
124.16
 31
0.0
  0
LINE
  8
0
 62
     0
 10
0.119889
 20
124.16
 30
0.0
 11
0.150206
 21
124.313
 31
0.0
  0
LINE
  8
0
 62
     0
 10
0.150206
 20
124.313
 30
0.0
 11
0.192925
 21
124.466
 31
0.0
  0
LINE
  8
0
 62
     0
 10
0.192925
 20
124.466
 30
0.0
 11
0.248047
 21
124.612
 31
0.0
  0
LINE
  8
0
 62
     0
 10
0.248047
 20
124.612
 30
0.0
 11
0.312815
 21
124.754
 31
0.0
  0
LINE
  8
0
 62
     0
 10
0.312815
 20
124.754
 30
0.0
 11
0.389985
 21
124.891
 31
0.0
  0
LINE
  8
0
 62
     0
 10
0.389985
 20
124.891
 30
0.0
 11
0.4768
 21
125.023
 31
0.0
  0
LINE
  8
0
 62
     0
 10
0.4768
 20
125.023
 30
0.0
 11
0.574643
 21
125.145
 31
0.0
  0
LINE
  8
0
 62
     0
 10
0.574643
 20
125.145
 30
0.0
 11
0.680752
 21
125.261
 31
0.0
  0
LINE
  8
0
 62
     0
 10
0.680752
 20
125.261
 30
0.0
 11
0.796505
 21
125.367
 31
0.0
  0
LINE
  8
0
 62
     0
 10
0.796505
 20
125.367
 30
0.0
 11
0.919152
 21
125.465
 31
0.0
  0
LINE
  8
0
 62
     0
 10
0.919152
 20
125.465
 30
0.0
 11
1.05006
 21
125.552
 31
0.0
  0
LINE
  8
0
 62
     0
 10
1.05006
 20
125.552
 30
0.0
 11
1.18787
 21
125.629
 31
0.0
  0
LINE
  8
0
 62
     0
 10
1.18787
 20
125.629
 30
0.0
 11
1.32981
 21
125.694
 31
0.0
  0
LINE
  8
0
 62
     0
 10
1.32981
 20
125.694
 30
0.0
 11
1.47588
 21
125.749
 31
0.0
  0
LINE
  8
0
 62
     0
 10
1.47588
 20
125.749
 30
0.0
 11
1.62884
 21
125.791
 31
0.0
  0
LINE
  8
0
 62
     0
 10
1.62884
 20
125.791
 30
0.0
 11
1.7818
 21
125.822
 31
0.0
  0
LINE
  8
0
 62
     0
 10
1.7818
 20
125.822
 30
0.0
 11
1.9389
 21
125.84
 31
0.0
  0
LINE
  8
0
 62
     0
 10
1.9389
 20
125.84
 30
0.0
 11
2.096
 21
125.846
 31
0.0
  0
LINE
  8
0
 62
     0
 10
2.096
 20
125.846
 30
0.0
 11
303.997
 21
125.846
 31
0.0
  0
LINE
  8
0
 62
     0
 10
300.635
 20
6.3996
 30
0.0
 11
300.378
 21
6.26869
 31
0.0
  0
LINE
  8
0
 62
     0
 10
300.378
 20
6.26869
 30
0.0
 11
300.173
 21
6.06474
 31
0.0
  0
LINE
  8
0
 62
     0
 10
300.173
 20
6.06474
 30
0.0
 11
300.042
 21
5.80566
 31
0.0
  0
LINE
  8
0
 62
     0
 10
300.042
 20
5.80566
 30
0.0
 11
299.996
 21
5.52041
 31
0.0
  0
LINE
  8
0
 62
     0
 10
299.996
 20
5.52041
 30
0.0
 11
300.042
 21
5.23515
 31
0.0
  0
LINE
  8
0
 62
     0
 10
300.042
 20
5.23515
 30
0.0
 11
300.173
 21
4.97748
 31
0.0
  0
LINE
  8
0
 62
     0
 10
300.173
 20
4.97748
 30
0.0
 11
300.378
 21
4.77213
 31
0.0
  0
LINE
  8
0
 62
     0
 10
300.378
 20
4.77213
 30
0.0
 11
300.635
 21
4.64125
 31
0.0
  0
LINE
  8
0
 62
     0
 10
300.635
 20
4.64125
 30
0.0
 11
300.921
 21
4.59574
 31
0.0
  0
LINE
  8
0
 62
     0
 10
300.921
 20
4.59574
 30
0.0
 11
301.206
 21
4.64125
 31
0.0
  0
LINE
  8
0
 62
     0
 10
301.206
 20
4.64125
 30
0.0
 11
301.465
 21
4.77213
 31
0.0
  0
LINE
  8
0
 62
     0
 10
301.465
 20
4.77213
 30
0.0
 11
301.669
 21
4.97748
 31
0.0
  0
LINE
  8
0
 62
     0
 10
301.669
 20
4.97748
 30
0.0
 11
301.8
 21
5.23515
 31
0.0
  0
LINE
  8
0
 62
     0
 10
301.8
 20
5.23515
 30
0.0
 11
301.847
 21
5.52041
 31
0.0
  0
LINE
  8
0
 62
     0
 10
301.847
 20
5.52041
 30
0.0
 11
301.8
 21
5.80566
 31
0.0
  0
LINE
  8
0
 62
     0
 10
301.8
 20
5.80566
 30
0.0
 11
301.669
 21
6.06474
 31
0.0
  0
LINE
  8
0
 62
     0
 10
301.669
 20
6.06474
 30
0.0
 11
301.465
 21
6.26869
 31
0.0
  0
LINE
  8
0
 62
     0
 10
301.465
 20
6.26869
 30
0.0
 11
301.206
 21
6.3996
 31
0.0
  0
LINE
  8
0
 62
     0
 10
301.206
 20
6.3996
 30
0.0
 11
300.921
 21
6.44645
 31
0.0
  0
LINE
  8
0
 62
     0
 10
300.921
 20
6.44645
 30
0.0
 11
300.635
 21
6.3996
 31
0.0
  0
LINE
  8
0
 62
     0
 10
202.052
 20
6.3996
 30
0.0
 11
201.793
 21
6.26869
 31
0.0
  0
LINE
  8
0
 62
     0
 10
201.793
 20
6.26869
 30
0.0
 11
201.589
 21
6.06474
 31
0.0
  0
LINE
  8
0
 62
     0
 10
201.589
 20
6.06474
 30
0.0
 11
201.458
 21
5.80566
 31
0.0
  0
LINE
  8
0
 62
     0
 10
201.458
 20
5.80566
 30
0.0
 11
201.413
 21
5.52041
 31
0.0
  0
LINE
  8
0
 62
     0
 10
201.413
 20
5.52041
 30
0.0
 11
201.458
 21
5.23515
 31
0.0
  0
LINE
  8
0
 62
     0
 10
201.458
 20
5.23515
 30
0.0
 11
201.589
 21
4.97748
 31
0.0
  0
LINE
  8
0
 62
     0
 10
201.589
 20
4.97748
 30
0.0
 11
201.793
 21
4.77213
 31
0.0
  0
LINE
  8
0
 62
     0
 10
201.793
 20
4.77213
 30
0.0
 11
202.052
 21
4.64125
 31
0.0
  0
LINE
  8
0
 62
     0
 10
202.052
 20
4.64125
 30
0.0
 11
202.337
 21
4.59574
 31
0.0
  0
LINE
  8
0
 62
     0
 10
202.337
 20
4.59574
 30
0.0
 11
202.624
 21
4.64125
 31
0.0
  0
LINE
  8
0
 62
     0
 10
202.624
 20
4.64125
 30
0.0
 11
202.882
 21
4.77213
 31
0.0
  0
LINE
  8
0
 62
     0
 10
202.882
 20
4.77213
 30
0.0
 11
203.086
 21
4.97748
 31
0.0
  0
LINE
  8
0
 62
     0
 10
203.086
 20
4.97748
 30
0.0
 11
203.218
 21
5.23515
 31
0.0
  0
LINE
  8
0
 62
     0
 10
203.218
 20
5.23515
 30
0.0
 11
203.262
 21
5.52041
 31
0.0
  0
LINE
  8
0
 62
     0
 10
203.262
 20
5.52041
 30
0.0
 11
203.218
 21
5.80566
 31
0.0
  0
LINE
  8
0
 62
     0
 10
203.218
 20
5.80566
 30
0.0
 11
203.086
 21
6.06474
 31
0.0
  0
LINE
  8
0
 62
     0
 10
203.086
 20
6.06474
 30
0.0
 11
202.882
 21
6.26869
 31
0.0
  0
LINE
  8
0
 62
     0
 10
202.882
 20
6.26869
 30
0.0
 11
202.624
 21
6.3996
 31
0.0
  0
LINE
  8
0
 62
     0
 10
202.624
 20
6.3996
 30
0.0
 11
202.337
 21
6.44645
 31
0.0
  0
LINE
  8
0
 62
     0
 10
202.337
 20
6.44645
 30
0.0
 11
202.052
 21
6.3996
 31
0.0
  0
LINE
  8
0
 62
     0
 10
103.467
 20
6.3996
 30
0.0
 11
103.21
 21
6.26869
 31
0.0
  0
LINE
  8
0
 62
     0
 10
103.21
 20
6.26869
 30
0.0
 11
103.005
 21
6.06474
 31
0.0
  0
LINE
  8
0
 62
     0
 10
103.005
 20
6.06474
 30
0.0
 11
102.873
 21
5.80566
 31
0.0
  0
LINE
  8
0
 62
     0
 10
102.873
 20
5.80566
 30
0.0
 11
102.828
 21
5.52041
 31
0.0
  0
LINE
  8
0
 62
     0
 10
102.828
 20
5.52041
 30
0.0
 11
102.873
 21
5.23515
 31
0.0
  0
LINE
  8
0
 62
     0
 10
102.873
 20
5.23515
 30
0.0
 11
103.005
 21
4.97748
 31
0.0
  0
LINE
  8
0
 62
     0
 10
103.005
 20
4.97748
 30
0.0
 11
103.21
 21
4.77213
 31
0.0
  0
LINE
  8
0
 62
     0
 10
103.21
 20
4.77213
 30
0.0
 11
103.467
 21
4.64125
 31
0.0
  0
LINE
  8
0
 62
     0
 10
103.467
 20
4.64125
 30
0.0
 11
103.754
 21
4.59574
 31
0.0
  0
LINE
  8
0
 62
     0
 10
103.754
 20
4.59574
 30
0.0
 11
104.039
 21
4.64125
 31
0.0
  0
LINE
  8
0
 62
     0
 10
104.039
 20
4.64125
 30
0.0
 11
104.297
 21
4.77213
 31
0.0
  0
LINE
  8
0
 62
     0
 10
104.297
 20
4.77213
 30
0.0
 11
104.502
 21
4.97748
 31
0.0
  0
LINE
  8
0
 62
     0
 10
104.502
 20
4.97748
 30
0.0
 11
104.633
 21
5.23515
 31
0.0
  0
LINE
  8
0
 62
     0
 10
104.633
 20
5.23515
 30
0.0
 11
104.679
 21
5.52041
 31
0.0
  0
LINE
  8
0
 62
     0
 10
104.679
 20
5.52041
 30
0.0
 11
104.633
 21
5.80566
 31
0.0
  0
LINE
  8
0
 62
     0
 10
104.633
 20
5.80566
 30
0.0
 11
104.502
 21
6.06474
 31
0.0
  0
LINE
  8
0
 62
     0
 10
104.502
 20
6.06474
 30
0.0
 11
104.297
 21
6.26869
 31
0.0
  0
LINE
  8
0
 62
     0
 10
104.297
 20
6.26869
 30
0.0
 11
104.039
 21
6.3996
 31
0.0
  0
LINE
  8
0
 62
     0
 10
104.039
 20
6.3996
 30
0.0
 11
103.754
 21
6.44645
 31
0.0
  0
LINE
  8
0
 62
     0
 10
103.754
 20
6.44645
 30
0.0
 11
103.467
 21
6.3996
 31
0.0
  0
LINE
  8
0
 62
     0
 10
4.88516
 20
6.3996
 30
0.0
 11
4.62608
 21
6.26869
 31
0.0
  0
LINE
  8
0
 62
     0
 10
4.62608
 20
6.26869
 30
0.0
 11
4.42214
 21
6.06474
 31
0.0
  0
LINE
  8
0
 62
     0
 10
4.42214
 20
6.06474
 30
0.0
 11
4.28985
 21
5.80566
 31
0.0
  0
LINE
  8
0
 62
     0
 10
4.28985
 20
5.80566
 30
0.0
 11
4.24575
 21
5.52041
 31
0.0
  0
LINE
  8
0
 62
     0
 10
4.24575
 20
5.52041
 30
0.0
 11
4.28985
 21
5.23515
 31
0.0
  0
LINE
  8
0
 62
     0
 10
4.28985
 20
5.23515
 30
0.0
 11
4.42214
 21
4.97748
 31
0.0
  0
LINE
  8
0
 62
     0
 10
4.42214
 20
4.97748
 30
0.0
 11
4.62608
 21
4.77213
 31
0.0
  0
LINE
  8
0
 62
     0
 10
4.62608
 20
4.77213
 30
0.0
 11
4.88516
 21
4.64125
 31
0.0
  0
LINE
  8
0
 62
     0
 10
4.88516
 20
4.64125
 30
0.0
 11
5.17042
 21
4.59574
 31
0.0
  0
LINE
  8
0
 62
     0
 10
5.17042
 20
4.59574
 30
0.0
 11
5.45564
 21
4.64125
 31
0.0
  0
LINE
  8
0
 62
     0
 10
5.45564
 20
4.64125
 30
0.0
 11
5.71334
 21
4.77213
 31
0.0
  0
LINE
  8
0
 62
     0
 10
5.71334
 20
4.77213
 30
0.0
 11
5.91866
 21
4.97748
 31
0.0
  0
LINE
  8
0
 62
     0
 10
5.91866
 20
4.97748
 30
0.0
 11
6.04957
 21
5.23515
 31
0.0
  0
LINE
  8
0
 62
     0
 10
6.04957
 20
5.23515
 30
0.0
 11
6.09505
 21
5.52041
 31
0.0
  0
LINE
  8
0
 62
     0
 10
6.09505
 20
5.52041
 30
0.0
 11
6.04957
 21
5.80566
 31
0.0
  0
LINE
  8
0
 62
     0
 10
6.04957
 20
5.80566
 30
0.0
 11
5.91866
 21
6.06474
 31
0.0
  0
LINE
  8
0
 62
     0
 10
5.91866
 20
6.06474
 30
0.0
 11
5.71334
 21
6.26869
 31
0.0
  0
LINE
  8
0
 62
     0
 10
5.71334
 20
6.26869
 30
0.0
 11
5.45564
 21
6.3996
 31
0.0
  0
LINE
  8
0
 62
     0
 10
5.45564
 20
6.3996
 30
0.0
 11
5.17042
 21
6.44645
 31
0.0
  0
LINE
  8
0
 62
     0
 10
5.17042
 20
6.44645
 30
0.0
 11
4.88516
 21
6.3996
 31
0.0
  0
LINE
  8
0
 62
     0
 10
10.2457
 20
115.697
 30
0.0
 11
295.847
 21
115.697
 31
0.0
  0
LINE
  8
0
 62
     0
 10
295.847
 20
115.697
 30
0.0
 11
295.847
 21
10.5958
 31
0.0
  0
LINE
  8
0
 62
     0
 10
295.847
 20
10.5958
 30
0.0
 11
10.2457
 21
10.5958
 31
0.0
  0
LINE
  8
0
 62
     0
 10
10.2457
 20
10.5958
 30
0.0
 11
10.2457
 21
115.697
 31
0.0
  0
LINE
  8
0
 62
     0
 10
103.467
 20
121.652
 30
0.0
 11
103.21
 21
121.52
 31
0.0
  0
LINE
  8
0
 62
     0
 10
103.21
 20
121.52
 30
0.0
 11
103.005
 21
121.316
 31
0.0
  0
LINE
  8
0
 62
     0
 10
103.005
 20
121.316
 30
0.0
 11
102.873
 21
121.056
 31
0.0
  0
LINE
  8
0
 62
     0
 10
102.873
 20
121.056
 30
0.0
 11
102.828
 21
120.771
 31
0.0
  0
LINE
  8
0
 62
     0
 10
102.828
 20
120.771
 30
0.0
 11
102.873
 21
120.486
 31
0.0
  0
LINE
  8
0
 62
     0
 10
102.873
 20
120.486
 30
0.0
 11
103.005
 21
120.228
 31
0.0
  0
LINE
  8
0
 62
     0
 10
103.005
 20
120.228
 30
0.0
 11
103.21
 21
120.023
 31
0.0
  0
LINE
  8
0
 62
     0
 10
103.21
 20
120.023
 30
0.0
 11
103.467
 21
119.892
 31
0.0
  0
LINE
  8
0
 62
     0
 10
103.467
 20
119.892
 30
0.0
 11
103.754
 21
119.847
 31
0.0
  0
LINE
  8
0
 62
     0
 10
103.754
 20
119.847
 30
0.0
 11
104.039
 21
119.892
 31
0.0
  0
LINE
  8
0
 62
     0
 10
104.039
 20
119.892
 30
0.0
 11
104.297
 21
120.023
 31
0.0
  0
LINE
  8
0
 62
     0
 10
104.297
 20
120.023
 30
0.0
 11
104.502
 21
120.228
 31
0.0
  0
LINE
  8
0
 62
     0
 10
104.502
 20
120.228
 30
0.0
 11
104.633
 21
120.486
 31
0.0
  0
LINE
  8
0
 62
     0
 10
104.633
 20
120.486
 30
0.0
 11
104.679
 21
120.771
 31
0.0
  0
LINE
  8
0
 62
     0
 10
104.679
 20
120.771
 30
0.0
 11
104.633
 21
121.056
 31
0.0
  0
LINE
  8
0
 62
     0
 10
104.633
 20
121.056
 30
0.0
 11
104.502
 21
121.316
 31
0.0
  0
LINE
  8
0
 62
     0
 10
104.502
 20
121.316
 30
0.0
 11
104.297
 21
121.52
 31
0.0
  0
LINE
  8
0
 62
     0
 10
104.297
 20
121.52
 30
0.0
 11
104.039
 21
121.652
 31
0.0
  0
LINE
  8
0
 62
     0
 10
104.039
 20
121.652
 30
0.0
 11
103.754
 21
121.697
 31
0.0
  0
LINE
  8
0
 62
     0
 10
103.754
 20
121.697
 30
0.0
 11
103.467
 21
121.652
 31
0.0
  0
LINE
  8
0
 62
     0
 10
202.052
 20
121.652
 30
0.0
 11
201.793
 21
121.52
 31
0.0
  0
LINE
  8
0
 62
     0
 10
201.793
 20
121.52
 30
0.0
 11
201.589
 21
121.316
 31
0.0
  0
LINE
  8
0
 62
     0
 10
201.589
 20
121.316
 30
0.0
 11
201.458
 21
121.056
 31
0.0
  0
LINE
  8
0
 62
     0
 10
201.458
 20
121.056
 30
0.0
 11
201.413
 21
120.771
 31
0.0
  0
LINE
  8
0
 62
     0
 10
201.413
 20
120.771
 30
0.0
 11
201.458
 21
120.486
 31
0.0
  0
LINE
  8
0
 62
     0
 10
201.458
 20
120.486
 30
0.0
 11
201.589
 21
120.228
 31
0.0
  0
LINE
  8
0
 62
     0
 10
201.589
 20
120.228
 30
0.0
 11
201.793
 21
120.023
 31
0.0
  0
LINE
  8
0
 62
     0
 10
201.793
 20
120.023
 30
0.0
 11
202.052
 21
119.892
 31
0.0
  0
LINE
  8
0
 62
     0
 10
202.052
 20
119.892
 30
0.0
 11
202.337
 21
119.847
 31
0.0
  0
LINE
  8
0
 62
     0
 10
202.337
 20
119.847
 30
0.0
 11
202.624
 21
119.892
 31
0.0
  0
LINE
  8
0
 62
     0
 10
202.624
 20
119.892
 30
0.0
 11
202.882
 21
120.023
 31
0.0
  0
LINE
  8
0
 62
     0
 10
202.882
 20
120.023
 30
0.0
 11
203.086
 21
120.228
 31
0.0
  0
LINE
  8
0
 62
     0
 10
203.086
 20
120.228
 30
0.0
 11
203.218
 21
120.486
 31
0.0
  0
LINE
  8
0
 62
     0
 10
203.218
 20
120.486
 30
0.0
 11
203.262
 21
120.771
 31
0.0
  0
LINE
  8
0
 62
     0
 10
203.262
 20
120.771
 30
0.0
 11
203.218
 21
121.056
 31
0.0
  0
LINE
  8
0
 62
     0
 10
203.218
 20
121.056
 30
0.0
 11
203.086
 21
121.316
 31
0.0
  0
LINE
  8
0
 62
     0
 10
203.086
 20
121.316
 30
0.0
 11
202.882
 21
121.52
 31
0.0
  0
LINE
  8
0
 62
     0
 10
202.882
 20
121.52
 30
0.0
 11
202.624
 21
121.652
 31
0.0
  0
LINE
  8
0
 62
     0
 10
202.624
 20
121.652
 30
0.0
 11
202.337
 21
121.697
 31
0.0
  0
LINE
  8
0
 62
     0
 10
202.337
 20
121.697
 30
0.0
 11
202.052
 21
121.652
 31
0.0
  0
LINE
  8
0
 62
     0
 10
300.635
 20
121.652
 30
0.0
 11
300.378
 21
121.52
 31
0.0
  0
LINE
  8
0
 62
     0
 10
300.378
 20
121.52
 30
0.0
 11
300.173
 21
121.316
 31
0.0
  0
LINE
  8
0
 62
     0
 10
300.173
 20
121.316
 30
0.0
 11
300.042
 21
121.056
 31
0.0
  0
LINE
  8
0
 62
     0
 10
300.042
 20
121.056
 30
0.0
 11
299.996
 21
120.771
 31
0.0
  0
LINE
  8
0
 62
     0
 10
299.996
 20
120.771
 30
0.0
 11
300.042
 21
120.486
 31
0.0
  0
LINE
  8
0
 62
     0
 10
300.042
 20
120.486
 30
0.0
 11
300.173
 21
120.228
 31
0.0
  0
LINE
  8
0
 62
     0
 10
300.173
 20
120.228
 30
0.0
 11
300.378
 21
120.023
 31
0.0
  0
LINE
  8
0
 62
     0
 10
300.378
 20
120.023
 30
0.0
 11
300.635
 21
119.892
 31
0.0
  0
LINE
  8
0
 62
     0
 10
300.635
 20
119.892
 30
0.0
 11
300.921
 21
119.847
 31
0.0
  0
LINE
  8
0
 62
     0
 10
300.921
 20
119.847
 30
0.0
 11
301.206
 21
119.892
 31
0.0
  0
LINE
  8
0
 62
     0
 10
301.206
 20
119.892
 30
0.0
 11
301.465
 21
120.023
 31
0.0
  0
LINE
  8
0
 62
     0
 10
301.465
 20
120.023
 30
0.0
 11
301.669
 21
120.228
 31
0.0
  0
LINE
  8
0
 62
     0
 10
301.669
 20
120.228
 30
0.0
 11
301.8
 21
120.486
 31
0.0
  0
LINE
  8
0
 62
     0
 10
301.8
 20
120.486
 30
0.0
 11
301.847
 21
120.771
 31
0.0
  0
LINE
  8
0
 62
     0
 10
301.847
 20
120.771
 30
0.0
 11
301.8
 21
121.056
 31
0.0
  0
LINE
  8
0
 62
     0
 10
301.8
 20
121.056
 30
0.0
 11
301.669
 21
121.316
 31
0.0
  0
LINE
  8
0
 62
     0
 10
301.669
 20
121.316
 30
0.0
 11
301.465
 21
121.52
 31
0.0
  0
LINE
  8
0
 62
     0
 10
301.465
 20
121.52
 30
0.0
 11
301.206
 21
121.652
 31
0.0
  0
LINE
  8
0
 62
     0
 10
301.206
 20
121.652
 30
0.0
 11
300.921
 21
121.697
 31
0.0
  0
LINE
  8
0
 62
     0
 10
300.921
 20
121.697
 30
0.0
 11
300.635
 21
121.652
 31
0.0
  0
LINE
  8
0
 62
     0
 10
4.88516
 20
121.652
 30
0.0
 11
4.62608
 21
121.52
 31
0.0
  0
LINE
  8
0
 62
     0
 10
4.62608
 20
121.52
 30
0.0
 11
4.42214
 21
121.316
 31
0.0
  0
LINE
  8
0
 62
     0
 10
4.42214
 20
121.316
 30
0.0
 11
4.28985
 21
121.056
 31
0.0
  0
LINE
  8
0
 62
     0
 10
4.28985
 20
121.056
 30
0.0
 11
4.24575
 21
120.771
 31
0.0
  0
LINE
  8
0
 62
     0
 10
4.24575
 20
120.771
 30
0.0
 11
4.28985
 21
120.486
 31
0.0
  0
LINE
  8
0
 62
     0
 10
4.28985
 20
120.486
 30
0.0
 11
4.42214
 21
120.228
 31
0.0
  0
LINE
  8
0
 62
     0
 10
4.42214
 20
120.228
 30
0.0
 11
4.62608
 21
120.023
 31
0.0
  0
LINE
  8
0
 62
     0
 10
4.62608
 20
120.023
 30
0.0
 11
4.88516
 21
119.892
 31
0.0
  0
LINE
  8
0
 62
     0
 10
4.88516
 20
119.892
 30
0.0
 11
5.17042
 21
119.847
 31
0.0
  0
LINE
  8
0
 62
     0
 10
5.17042
 20
119.847
 30
0.0
 11
5.45564
 21
119.892
 31
0.0
  0
LINE
  8
0
 62
     0
 10
5.45564
 20
119.892
 30
0.0
 11
5.71334
 21
120.023
 31
0.0
  0
LINE
  8
0
 62
     0
 10
5.71334
 20
120.023
 30
0.0
 11
5.91866
 21
120.228
 31
0.0
  0
LINE
  8
0
 62
     0
 10
5.91866
 20
120.228
 30
0.0
 11
6.04957
 21
120.486
 31
0.0
  0
LINE
  8
0
 62
     0
 10
6.04957
 20
120.486
 30
0.0
 11
6.09505
 21
120.771
 31
0.0
  0
LINE
  8
0
 62
     0
 10
6.09505
 20
120.771
 30
0.0
 11
6.04957
 21
121.056
 31
0.0
  0
LINE
  8
0
 62
     0
 10
6.04957
 20
121.056
 30
0.0
 11
5.91866
 21
121.316
 31
0.0
  0
LINE
  8
0
 62
     0
 10
5.91866
 20
121.316
 30
0.0
 11
5.71334
 21
121.52
 31
0.0
  0
LINE
  8
0
 62
     0
 10
5.71334
 20
121.52
 30
0.0
 11
5.45564
 21
121.652
 31
0.0
  0
LINE
  8
0
 62
     0
 10
5.45564
 20
121.652
 30
0.0
 11
5.17042
 21
121.696
 31
0.0
  0
LINE
  8
0
 62
     0
 10
5.17042
 20
121.696
 30
0.0
 11
4.88516
 21
121.652
 31
0.0
  0
ENDSEC
  0
EOF
