<?xml version="1.0"?>
<!-- Generated by SVGo -->
<svg width="315.902mm" height="155.402mm"
     viewBox="0.000 0.000 315.902 155.402"
     xmlns="http://www.w3.org/2000/svg" 
     xmlns:xlink="http://www.w3.org/1999/xlink">
<polygon points="153.026,5.000 153.026,15.151 15.151,15.151 15.151,140.252 300.752,140.252 300.752,15.151 162.876,15.151 162.876,5.001 308.902,5.001 309.058,5.007 309.214,5.025 309.368,5.056 309.520,5.098 309.667,5.153 309.809,5.218 309.946,5.295 310.077,5.382 310.200,5.480 310.316,5.586 310.422,5.702 310.520,5.825 310.607,5.956 310.684,6.093 310.749,6.235 310.804,6.382 310.846,6.534 310.877,6.688 310.895,6.844 310.902,7.001 310.902,148.402 310.895,148.558 310.877,148.714 310.846,148.868 310.804,149.020 310.749,149.167 310.684,149.309 310.607,149.446 310.520,149.577 310.422,149.700 310.316,149.816 310.200,149.922 310.077,150.020 309.946,150.107 309.809,150.184 309.667,150.249 309.520,150.304 309.368,150.346 309.214,150.377 309.058,150.395 308.901,150.402 7.001,150.402 6.844,150.395 6.688,150.377 6.534,150.346 6.382,150.304 6.235,150.249 6.093,150.184 5.956,150.107 5.825,150.020 5.702,149.922 5.586,149.816 5.480,149.700 5.382,149.577 5.295,149.446 5.218,149.309 5.153,149.167 5.098,149.020 5.056,148.868 5.025,148.714 5.007,148.558 5.000,148.401 5.001,7.001 5.007,6.844 5.025,6.688 5.056,6.534 5.098,6.382 5.153,6.235 5.218,6.093 5.295,5.956 5.382,5.825 5.480,5.702 5.586,5.586 5.702,5.480 5.825,5.382 5.956,5.295 6.093,5.218 6.235,5.153 6.382,5.098 6.534,5.056 6.688,5.025 6.844,5.007 7.001,5.000" style="fill:none;stroke-width:0.050000mm;stroke:black"/>
<polygon points="305.541,144.447 305.283,144.578 305.078,144.783 304.947,145.041 304.902,145.327 304.947,145.612 305.078,145.870 305.283,146.075 305.541,146.206 305.827,146.251 306.112,146.206 306.370,146.075 306.575,145.870 306.706,145.612 306.752,145.327 306.706,145.041 306.575,144.783 306.370,144.578 306.112,144.447 305.827,144.402" style="fill:none;stroke-width:0.050000mm;stroke:black"/>
<polygon points="206.957,144.447 206.699,144.578 206.494,144.783 206.363,145.041 206.318,145.327 206.363,145.612 206.494,145.870 206.699,146.075 206.957,146.206 207.243,146.251 207.529,146.206 207.787,146.075 207.991,145.870 208.123,145.612 208.168,145.327 208.123,145.041 207.991,144.783 207.787,144.578 207.529,144.447 207.243,144.402" style="fill:none;stroke-width:0.050000mm;stroke:black"/>
<polygon points="108.373,144.447 108.115,144.578 107.911,144.783 107.779,145.041 107.734,145.327 107.779,145.612 107.911,145.870 108.115,146.075 108.373,146.206 108.659,146.251 108.945,146.206 109.203,146.075 109.408,145.870 109.539,145.612 109.584,145.327 109.539,145.041 109.408,144.783 109.203,144.578 108.945,144.447 108.659,144.402" style="fill:none;stroke-width:0.050000mm;stroke:black"/>
<polygon points="9.790,144.447 9.532,144.578 9.327,144.783 9.196,145.041 9.151,145.327 9.196,145.612 9.327,145.870 9.532,146.075 9.790,146.206 10.076,146.251 10.361,146.206 10.619,146.075 10.824,145.870 10.955,145.612 11.001,145.327 10.955,145.041 10.824,144.783 10.619,144.578 10.361,144.447 10.076,144.402" style="fill:none;stroke-width:0.050000mm;stroke:black"/>
<polygon points="108.373,9.196 108.115,9.327 107.911,9.532 107.779,9.790 107.734,10.076 107.779,10.361 107.911,10.619 108.115,10.824 108.373,10.955 108.659,11.001 108.945,10.955 109.203,10.824 109.408,10.619 109.539,10.361 109.584,10.076 109.539,9.790 109.408,9.532 109.203,9.327 108.945,9.196 108.659,9.150" style="fill:none;stroke-width:0.050000mm;stroke:black"/>
<polygon points="206.957,9.196 206.699,9.327 206.494,9.532 206.363,9.790 206.318,10.076 206.363,10.361 206.494,10.619 206.699,10.824 206.957,10.955 207.243,11.001 207.529,10.955 207.787,10.824 207.991,10.619 208.123,10.361 208.168,10.076 208.123,9.790 207.991,9.532 207.787,9.327 207.529,9.196 207.243,9.150" style="fill:none;stroke-width:0.050000mm;stroke:black"/>
<polygon points="305.541,9.196 305.283,9.327 305.078,9.532 304.947,9.790 304.902,10.076 304.947,10.361 305.078,10.619 305.283,10.824 305.541,10.955 305.827,11.001 306.112,10.955 306.370,10.824 306.575,10.619 306.706,10.361 306.752,10.076 306.706,9.790 306.575,9.532 306.370,9.327 306.112,9.196 305.827,9.150" style="fill:none;stroke-width:0.050000mm;stroke:black"/>
<polygon points="9.790,9.196 9.532,9.327 9.327,9.532 9.196,9.790 9.151,10.075 9.196,10.361 9.327,10.619 9.532,10.824 9.790,10.955 10.076,11.000 10.361,10.955 10.619,10.824 10.824,10.619 10.955,10.361 11.001,10.075 10.955,9.790 10.824,9.532 10.619,9.327 10.361,9.196 10.076,9.150" style="fill:none;stroke-width:0.050000mm;stroke:black"/>
</svg>
