  0
SECTION
  2
HEADER
  9
$ACADVER
  1
AC1009
  9
$FILLMODE
 70
 0
  9
$SPLFRAME
 70
 1
  9
$EXTMIN
 10
0
 20
0
 30
0.0
  9
$EXTMAX
 10
1058.33
 20
1058.33
 30
0.0
  0
ENDSEC
  0
SECTION
  2
TABLES
  0
TABLE
  2
LAYER
 70
1
  0
LAYER
  2
0
 70
     0
 62
     7
  6
CONTINUOUS
  0
ENDTAB
  0
ENDSEC
  0
SECTION
  2
ENTITIES
  0
LINE
  8
0
 62
     0
 10
303.997
 20
145.602
 30
0.0
 11
304.152
 21
145.595
 31
0.0
  0
LINE
  8
0
 62
     0
 10
304.152
 20
145.595
 30
0.0
 11
304.308
 21
145.577
 31
0.0
  0
LINE
  8
0
 62
     0
 10
304.308
 20
145.577
 30
0.0
 11
304.462
 21
145.547
 31
0.0
  0
LINE
  8
0
 62
     0
 10
304.462
 20
145.547
 30
0.0
 11
304.614
 21
145.504
 31
0.0
  0
LINE
  8
0
 62
     0
 10
304.614
 20
145.504
 30
0.0
 11
304.762
 21
145.449
 31
0.0
  0
LINE
  8
0
 62
     0
 10
304.762
 20
145.449
 30
0.0
 11
304.903
 21
145.384
 31
0.0
  0
LINE
  8
0
 62
     0
 10
304.903
 20
145.384
 30
0.0
 11
305.041
 21
145.307
 31
0.0
  0
LINE
  8
0
 62
     0
 10
305.041
 20
145.307
 30
0.0
 11
305.172
 21
145.22
 31
0.0
  0
LINE
  8
0
 62
     0
 10
305.172
 20
145.22
 30
0.0
 11
305.295
 21
145.123
 31
0.0
  0
LINE
  8
0
 62
     0
 10
305.295
 20
145.123
 30
0.0
 11
305.41
 21
145.016
 31
0.0
  0
LINE
  8
0
 62
     0
 10
305.41
 20
145.016
 30
0.0
 11
305.516
 21
144.901
 31
0.0
  0
LINE
  8
0
 62
     0
 10
305.516
 20
144.901
 30
0.0
 11
305.615
 21
144.778
 31
0.0
  0
LINE
  8
0
 62
     0
 10
305.615
 20
144.778
 30
0.0
 11
305.701
 21
144.647
 31
0.0
  0
LINE
  8
0
 62
     0
 10
305.701
 20
144.647
 30
0.0
 11
305.778
 21
144.509
 31
0.0
  0
LINE
  8
0
 62
     0
 10
305.778
 20
144.509
 30
0.0
 11
305.843
 21
144.367
 31
0.0
  0
LINE
  8
0
 62
     0
 10
305.843
 20
144.367
 30
0.0
 11
305.898
 21
144.221
 31
0.0
  0
LINE
  8
0
 62
     0
 10
305.898
 20
144.221
 30
0.0
 11
305.941
 21
144.068
 31
0.0
  0
LINE
  8
0
 62
     0
 10
305.941
 20
144.068
 30
0.0
 11
305.971
 21
143.915
 31
0.0
  0
LINE
  8
0
 62
     0
 10
305.971
 20
143.915
 30
0.0
 11
305.989
 21
143.758
 31
0.0
  0
LINE
  8
0
 62
     0
 10
305.989
 20
143.758
 30
0.0
 11
305.996
 21
143.601
 31
0.0
  0
LINE
  8
0
 62
     0
 10
305.996
 20
143.601
 30
0.0
 11
305.996
 21
2.20073
 31
0.0
  0
LINE
  8
0
 62
     0
 10
305.996
 20
2.20073
 30
0.0
 11
305.989
 21
2.04501
 31
0.0
  0
LINE
  8
0
 62
     0
 10
305.989
 20
2.04501
 30
0.0
 11
305.971
 21
1.88929
 31
0.0
  0
LINE
  8
0
 62
     0
 10
305.971
 20
1.88929
 30
0.0
 11
305.941
 21
1.73495
 31
0.0
  0
LINE
  8
0
 62
     0
 10
305.941
 20
1.73495
 30
0.0
 11
305.898
 21
1.58337
 31
0.0
  0
LINE
  8
0
 62
     0
 10
305.898
 20
1.58337
 30
0.0
 11
305.843
 21
1.43591
 31
0.0
  0
LINE
  8
0
 62
     0
 10
305.843
 20
1.43591
 30
0.0
 11
305.778
 21
1.29398
 31
0.0
  0
LINE
  8
0
 62
     0
 10
305.778
 20
1.29398
 30
0.0
 11
305.701
 21
1.15617
 31
0.0
  0
LINE
  8
0
 62
     0
 10
305.701
 20
1.15617
 30
0.0
 11
305.615
 21
1.02526
 31
0.0
  0
LINE
  8
0
 62
     0
 10
305.615
 20
1.02526
 30
0.0
 11
305.516
 21
0.902614
 31
0.0
  0
LINE
  8
0
 62
     0
 10
305.516
 20
0.902614
 30
0.0
 11
305.41
 21
0.78686
 31
0.0
  0
LINE
  8
0
 62
     0
 10
305.41
 20
0.78686
 30
0.0
 11
305.295
 21
0.680752
 31
0.0
  0
LINE
  8
0
 62
     0
 10
305.295
 20
0.680752
 30
0.0
 11
305.172
 21
0.582909
 31
0.0
  0
LINE
  8
0
 62
     0
 10
305.172
 20
0.582909
 30
0.0
 11
305.041
 21
0.496094
 31
0.0
  0
LINE
  8
0
 62
     0
 10
305.041
 20
0.496094
 30
0.0
 11
304.903
 21
0.418924
 31
0.0
  0
LINE
  8
0
 62
     0
 10
304.903
 20
0.418924
 30
0.0
 11
304.762
 21
0.354157
 31
0.0
  0
LINE
  8
0
 62
     0
 10
304.762
 20
0.354157
 30
0.0
 11
304.614
 21
0.299034
 31
0.0
  0
LINE
  8
0
 62
     0
 10
304.614
 20
0.299034
 30
0.0
 11
304.462
 21
0.256315
 31
0.0
  0
LINE
  8
0
 62
     0
 10
304.462
 20
0.256315
 30
0.0
 11
304.308
 21
0.225998
 31
0.0
  0
LINE
  8
0
 62
     0
 10
304.308
 20
0.225998
 30
0.0
 11
304.152
 21
0.208084
 31
0.0
  0
LINE
  8
0
 62
     0
 10
304.152
 20
0.208084
 30
0.0
 11
303.995
 21
0.201194
 31
0.0
  0
LINE
  8
0
 62
     0
 10
303.995
 20
0.201194
 30
0.0
 11
2.096
 21
0.201194
 31
0.0
  0
LINE
  8
0
 62
     0
 10
2.096
 20
0.201194
 30
0.0
 11
1.9389
 21
0.208084
 31
0.0
  0
LINE
  8
0
 62
     0
 10
1.9389
 20
0.208084
 30
0.0
 11
1.7818
 21
0.225998
 31
0.0
  0
LINE
  8
0
 62
     0
 10
1.7818
 20
0.225998
 30
0.0
 11
1.62884
 21
0.256315
 31
0.0
  0
LINE
  8
0
 62
     0
 10
1.62884
 20
0.256315
 30
0.0
 11
1.47588
 21
0.299034
 31
0.0
  0
LINE
  8
0
 62
     0
 10
1.47588
 20
0.299034
 30
0.0
 11
1.32981
 21
0.354157
 31
0.0
  0
LINE
  8
0
 62
     0
 10
1.32981
 20
0.354157
 30
0.0
 11
1.18787
 21
0.418924
 31
0.0
  0
LINE
  8
0
 62
     0
 10
1.18787
 20
0.418924
 30
0.0
 11
1.05006
 21
0.496094
 31
0.0
  0
LINE
  8
0
 62
     0
 10
1.05006
 20
0.496094
 30
0.0
 11
0.919152
 21
0.582909
 31
0.0
  0
LINE
  8
0
 62
     0
 10
0.919152
 20
0.582909
 30
0.0
 11
0.796505
 21
0.680752
 31
0.0
  0
LINE
  8
0
 62
     0
 10
0.796505
 20
0.680752
 30
0.0
 11
0.680752
 21
0.78686
 31
0.0
  0
LINE
  8
0
 62
     0
 10
0.680752
 20
0.78686
 30
0.0
 11
0.574643
 21
0.902614
 31
0.0
  0
LINE
  8
0
 62
     0
 10
0.574643
 20
0.902614
 30
0.0
 11
0.4768
 21
1.02526
 31
0.0
  0
LINE
  8
0
 62
     0
 10
0.4768
 20
1.02526
 30
0.0
 11
0.389985
 21
1.15617
 31
0.0
  0
LINE
  8
0
 62
     0
 10
0.389985
 20
1.15617
 30
0.0
 11
0.312815
 21
1.29398
 31
0.0
  0
LINE
  8
0
 62
     0
 10
0.312815
 20
1.29398
 30
0.0
 11
0.248047
 21
1.43591
 31
0.0
  0
LINE
  8
0
 62
     0
 10
0.248047
 20
1.43591
 30
0.0
 11
0.192925
 21
1.58337
 31
0.0
  0
LINE
  8
0
 62
     0
 10
0.192925
 20
1.58337
 30
0.0
 11
0.150206
 21
1.73495
 31
0.0
  0
LINE
  8
0
 62
     0
 10
0.150206
 20
1.73495
 30
0.0
 11
0.119889
 21
1.88929
 31
0.0
  0
LINE
  8
0
 62
     0
 10
0.119889
 20
1.88929
 30
0.0
 11
0.101975
 21
2.04501
 31
0.0
  0
LINE
  8
0
 62
     0
 10
0.101975
 20
2.04501
 30
0.0
 11
0.0950846
 21
2.20211
 31
0.0
  0
LINE
  8
0
 62
     0
 10
0.0950846
 20
2.20211
 30
0.0
 11
0.0950846
 21
143.601
 31
0.0
  0
LINE
  8
0
 62
     0
 10
0.0950846
 20
143.601
 30
0.0
 11
0.101975
 21
143.758
 31
0.0
  0
LINE
  8
0
 62
     0
 10
0.101975
 20
143.758
 30
0.0
 11
0.119889
 21
143.915
 31
0.0
  0
LINE
  8
0
 62
     0
 10
0.119889
 20
143.915
 30
0.0
 11
0.150206
 21
144.068
 31
0.0
  0
LINE
  8
0
 62
     0
 10
0.150206
 20
144.068
 30
0.0
 11
0.192925
 21
144.221
 31
0.0
  0
LINE
  8
0
 62
     0
 10
0.192925
 20
144.221
 30
0.0
 11
0.248047
 21
144.367
 31
0.0
  0
LINE
  8
0
 62
     0
 10
0.248047
 20
144.367
 30
0.0
 11
0.312815
 21
144.509
 31
0.0
  0
LINE
  8
0
 62
     0
 10
0.312815
 20
144.509
 30
0.0
 11
0.389985
 21
144.647
 31
0.0
  0
LINE
  8
0
 62
     0
 10
0.389985
 20
144.647
 30
0.0
 11
0.4768
 21
144.778
 31
0.0
  0
LINE
  8
0
 62
     0
 10
0.4768
 20
144.778
 30
0.0
 11
0.574643
 21
144.901
 31
0.0
  0
LINE
  8
0
 62
     0
 10
0.574643
 20
144.901
 30
0.0
 11
0.680752
 21
145.016
 31
0.0
  0
LINE
  8
0
 62
     0
 10
0.680752
 20
145.016
 30
0.0
 11
0.796505
 21
145.123
 31
0.0
  0
LINE
  8
0
 62
     0
 10
0.796505
 20
145.123
 30
0.0
 11
0.919152
 21
145.22
 31
0.0
  0
LINE
  8
0
 62
     0
 10
0.919152
 20
145.22
 30
0.0
 11
1.05006
 21
145.307
 31
0.0
  0
LINE
  8
0
 62
     0
 10
1.05006
 20
145.307
 30
0.0
 11
1.18787
 21
145.384
 31
0.0
  0
LINE
  8
0
 62
     0
 10
1.18787
 20
145.384
 30
0.0
 11
1.32981
 21
145.449
 31
0.0
  0
LINE
  8
0
 62
     0
 10
1.32981
 20
145.449
 30
0.0
 11
1.47588
 21
145.504
 31
0.0
  0
LINE
  8
0
 62
     0
 10
1.47588
 20
145.504
 30
0.0
 11
1.62884
 21
145.547
 31
0.0
  0
LINE
  8
0
 62
     0
 10
1.62884
 20
145.547
 30
0.0
 11
1.7818
 21
145.577
 31
0.0
  0
LINE
  8
0
 62
     0
 10
1.7818
 20
145.577
 30
0.0
 11
1.9389
 21
145.595
 31
0.0
  0
LINE
  8
0
 62
     0
 10
1.9389
 20
145.595
 30
0.0
 11
2.096
 21
145.602
 31
0.0
  0
LINE
  8
0
 62
     0
 10
2.096
 20
145.602
 30
0.0
 11
303.997
 21
145.602
 31
0.0
  0
LINE
  8
0
 62
     0
 10
300.635
 20
6.15569
 30
0.0
 11
300.378
 21
6.02477
 31
0.0
  0
LINE
  8
0
 62
     0
 10
300.378
 20
6.02477
 30
0.0
 11
300.173
 21
5.81946
 31
0.0
  0
LINE
  8
0
 62
     0
 10
300.173
 20
5.81946
 30
0.0
 11
300.042
 21
5.56175
 31
0.0
  0
LINE
  8
0
 62
     0
 10
300.042
 20
5.56175
 30
0.0
 11
299.996
 21
5.27512
 31
0.0
  0
LINE
  8
0
 62
     0
 10
299.996
 20
5.27512
 30
0.0
 11
300.042
 21
4.99124
 31
0.0
  0
LINE
  8
0
 62
     0
 10
300.042
 20
4.99124
 30
0.0
 11
300.173
 21
4.7322
 31
0.0
  0
LINE
  8
0
 62
     0
 10
300.173
 20
4.7322
 30
0.0
 11
300.378
 21
4.52822
 31
0.0
  0
LINE
  8
0
 62
     0
 10
300.378
 20
4.52822
 30
0.0
 11
300.635
 21
4.3973
 31
0.0
  0
LINE
  8
0
 62
     0
 10
300.635
 20
4.3973
 30
0.0
 11
300.921
 21
4.35183
 31
0.0
  0
LINE
  8
0
 62
     0
 10
300.921
 20
4.35183
 30
0.0
 11
301.206
 21
4.3973
 31
0.0
  0
LINE
  8
0
 62
     0
 10
301.206
 20
4.3973
 30
0.0
 11
301.465
 21
4.52822
 31
0.0
  0
LINE
  8
0
 62
     0
 10
301.465
 20
4.52822
 30
0.0
 11
301.669
 21
4.7322
 31
0.0
  0
LINE
  8
0
 62
     0
 10
301.669
 20
4.7322
 30
0.0
 11
301.8
 21
4.99124
 31
0.0
  0
LINE
  8
0
 62
     0
 10
301.8
 20
4.99124
 30
0.0
 11
301.847
 21
5.27512
 31
0.0
  0
LINE
  8
0
 62
     0
 10
301.847
 20
5.27512
 30
0.0
 11
301.8
 21
5.56175
 31
0.0
  0
LINE
  8
0
 62
     0
 10
301.8
 20
5.56175
 30
0.0
 11
301.669
 21
5.81946
 31
0.0
  0
LINE
  8
0
 62
     0
 10
301.669
 20
5.81946
 30
0.0
 11
301.465
 21
6.02477
 31
0.0
  0
LINE
  8
0
 62
     0
 10
301.465
 20
6.02477
 30
0.0
 11
301.206
 21
6.15569
 31
0.0
  0
LINE
  8
0
 62
     0
 10
301.206
 20
6.15569
 30
0.0
 11
300.921
 21
6.20116
 31
0.0
  0
LINE
  8
0
 62
     0
 10
300.921
 20
6.20116
 30
0.0
 11
300.635
 21
6.15569
 31
0.0
  0
LINE
  8
0
 62
     0
 10
202.052
 20
6.15569
 30
0.0
 11
201.793
 21
6.02477
 31
0.0
  0
LINE
  8
0
 62
     0
 10
201.793
 20
6.02477
 30
0.0
 11
201.589
 21
5.81946
 31
0.0
  0
LINE
  8
0
 62
     0
 10
201.589
 20
5.81946
 30
0.0
 11
201.458
 21
5.56175
 31
0.0
  0
LINE
  8
0
 62
     0
 10
201.458
 20
5.56175
 30
0.0
 11
201.413
 21
5.27512
 31
0.0
  0
LINE
  8
0
 62
     0
 10
201.413
 20
5.27512
 30
0.0
 11
201.458
 21
4.99124
 31
0.0
  0
LINE
  8
0
 62
     0
 10
201.458
 20
4.99124
 30
0.0
 11
201.589
 21
4.7322
 31
0.0
  0
LINE
  8
0
 62
     0
 10
201.589
 20
4.7322
 30
0.0
 11
201.793
 21
4.52822
 31
0.0
  0
LINE
  8
0
 62
     0
 10
201.793
 20
4.52822
 30
0.0
 11
202.052
 21
4.3973
 31
0.0
  0
LINE
  8
0
 62
     0
 10
202.052
 20
4.3973
 30
0.0
 11
202.337
 21
4.35183
 31
0.0
  0
LINE
  8
0
 62
     0
 10
202.337
 20
4.35183
 30
0.0
 11
202.624
 21
4.3973
 31
0.0
  0
LINE
  8
0
 62
     0
 10
202.624
 20
4.3973
 30
0.0
 11
202.882
 21
4.52822
 31
0.0
  0
LINE
  8
0
 62
     0
 10
202.882
 20
4.52822
 30
0.0
 11
203.086
 21
4.7322
 31
0.0
  0
LINE
  8
0
 62
     0
 10
203.086
 20
4.7322
 30
0.0
 11
203.218
 21
4.99124
 31
0.0
  0
LINE
  8
0
 62
     0
 10
203.218
 20
4.99124
 30
0.0
 11
203.262
 21
5.27512
 31
0.0
  0
LINE
  8
0
 62
     0
 10
203.262
 20
5.27512
 30
0.0
 11
203.218
 21
5.56175
 31
0.0
  0
LINE
  8
0
 62
     0
 10
203.218
 20
5.56175
 30
0.0
 11
203.086
 21
5.81946
 31
0.0
  0
LINE
  8
0
 62
     0
 10
203.086
 20
5.81946
 30
0.0
 11
202.882
 21
6.02477
 31
0.0
  0
LINE
  8
0
 62
     0
 10
202.882
 20
6.02477
 30
0.0
 11
202.624
 21
6.15569
 31
0.0
  0
LINE
  8
0
 62
     0
 10
202.624
 20
6.15569
 30
0.0
 11
202.337
 21
6.20116
 31
0.0
  0
LINE
  8
0
 62
     0
 10
202.337
 20
6.20116
 30
0.0
 11
202.052
 21
6.15569
 31
0.0
  0
LINE
  8
0
 62
     0
 10
103.467
 20
6.15569
 30
0.0
 11
103.21
 21
6.02477
 31
0.0
  0
LINE
  8
0
 62
     0
 10
103.21
 20
6.02477
 30
0.0
 11
103.005
 21
5.81946
 31
0.0
  0
LINE
  8
0
 62
     0
 10
103.005
 20
5.81946
 30
0.0
 11
102.873
 21
5.56175
 31
0.0
  0
LINE
  8
0
 62
     0
 10
102.873
 20
5.56175
 30
0.0
 11
102.828
 21
5.27512
 31
0.0
  0
LINE
  8
0
 62
     0
 10
102.828
 20
5.27512
 30
0.0
 11
102.873
 21
4.99124
 31
0.0
  0
LINE
  8
0
 62
     0
 10
102.873
 20
4.99124
 30
0.0
 11
103.005
 21
4.7322
 31
0.0
  0
LINE
  8
0
 62
     0
 10
103.005
 20
4.7322
 30
0.0
 11
103.21
 21
4.52822
 31
0.0
  0
LINE
  8
0
 62
     0
 10
103.21
 20
4.52822
 30
0.0
 11
103.467
 21
4.3973
 31
0.0
  0
LINE
  8
0
 62
     0
 10
103.467
 20
4.3973
 30
0.0
 11
103.754
 21
4.35183
 31
0.0
  0
LINE
  8
0
 62
     0
 10
103.754
 20
4.35183
 30
0.0
 11
104.039
 21
4.3973
 31
0.0
  0
LINE
  8
0
 62
     0
 10
104.039
 20
4.3973
 30
0.0
 11
104.297
 21
4.52822
 31
0.0
  0
LINE
  8
0
 62
     0
 10
104.297
 20
4.52822
 30
0.0
 11
104.502
 21
4.7322
 31
0.0
  0
LINE
  8
0
 62
     0
 10
104.502
 20
4.7322
 30
0.0
 11
104.633
 21
4.99124
 31
0.0
  0
LINE
  8
0
 62
     0
 10
104.633
 20
4.99124
 30
0.0
 11
104.679
 21
5.27512
 31
0.0
  0
LINE
  8
0
 62
     0
 10
104.679
 20
5.27512
 30
0.0
 11
104.633
 21
5.56175
 31
0.0
  0
LINE
  8
0
 62
     0
 10
104.633
 20
5.56175
 30
0.0
 11
104.502
 21
5.81946
 31
0.0
  0
LINE
  8
0
 62
     0
 10
104.502
 20
5.81946
 30
0.0
 11
104.297
 21
6.02477
 31
0.0
  0
LINE
  8
0
 62
     0
 10
104.297
 20
6.02477
 30
0.0
 11
104.039
 21
6.15569
 31
0.0
  0
LINE
  8
0
 62
     0
 10
104.039
 20
6.15569
 30
0.0
 11
103.754
 21
6.20116
 31
0.0
  0
LINE
  8
0
 62
     0
 10
103.754
 20
6.20116
 30
0.0
 11
103.467
 21
6.15569
 31
0.0
  0
LINE
  8
0
 62
     0
 10
4.88516
 20
6.15569
 30
0.0
 11
4.62608
 21
6.02477
 31
0.0
  0
LINE
  8
0
 62
     0
 10
4.62608
 20
6.02477
 30
0.0
 11
4.42214
 21
5.81946
 31
0.0
  0
LINE
  8
0
 62
     0
 10
4.42214
 20
5.81946
 30
0.0
 11
4.28985
 21
5.56175
 31
0.0
  0
LINE
  8
0
 62
     0
 10
4.28985
 20
5.56175
 30
0.0
 11
4.24575
 21
5.27512
 31
0.0
  0
LINE
  8
0
 62
     0
 10
4.24575
 20
5.27512
 30
0.0
 11
4.28985
 21
4.99124
 31
0.0
  0
LINE
  8
0
 62
     0
 10
4.28985
 20
4.99124
 30
0.0
 11
4.42214
 21
4.7322
 31
0.0
  0
LINE
  8
0
 62
     0
 10
4.42214
 20
4.7322
 30
0.0
 11
4.62608
 21
4.52822
 31
0.0
  0
LINE
  8
0
 62
     0
 10
4.62608
 20
4.52822
 30
0.0
 11
4.88516
 21
4.3973
 31
0.0
  0
LINE
  8
0
 62
     0
 10
4.88516
 20
4.3973
 30
0.0
 11
5.17042
 21
4.35183
 31
0.0
  0
LINE
  8
0
 62
     0
 10
5.17042
 20
4.35183
 30
0.0
 11
5.45564
 21
4.3973
 31
0.0
  0
LINE
  8
0
 62
     0
 10
5.45564
 20
4.3973
 30
0.0
 11
5.71334
 21
4.52822
 31
0.0
  0
LINE
  8
0
 62
     0
 10
5.71334
 20
4.52822
 30
0.0
 11
5.91866
 21
4.7322
 31
0.0
  0
LINE
  8
0
 62
     0
 10
5.91866
 20
4.7322
 30
0.0
 11
6.04957
 21
4.99124
 31
0.0
  0
LINE
  8
0
 62
     0
 10
6.04957
 20
4.99124
 30
0.0
 11
6.09505
 21
5.27512
 31
0.0
  0
LINE
  8
0
 62
     0
 10
6.09505
 20
5.27512
 30
0.0
 11
6.04957
 21
5.56175
 31
0.0
  0
LINE
  8
0
 62
     0
 10
6.04957
 20
5.56175
 30
0.0
 11
5.91866
 21
5.81946
 31
0.0
  0
LINE
  8
0
 62
     0
 10
5.91866
 20
5.81946
 30
0.0
 11
5.71334
 21
6.02477
 31
0.0
  0
LINE
  8
0
 62
     0
 10
5.71334
 20
6.02477
 30
0.0
 11
5.45564
 21
6.15569
 31
0.0
  0
LINE
  8
0
 62
     0
 10
5.45564
 20
6.15569
 30
0.0
 11
5.17042
 21
6.20116
 31
0.0
  0
LINE
  8
0
 62
     0
 10
5.17042
 20
6.20116
 30
0.0
 11
4.88516
 21
6.15569
 31
0.0
  0
LINE
  8
0
 62
     0
 10
98.4952
 20
26.727
 30
0.0
 11
98.4952
 21
25.7266
 31
0.0
  0
LINE
  8
0
 62
     0
 10
98.4952
 20
25.7266
 30
0.0
 11
97.6962
 21
25.7266
 31
0.0
  0
LINE
  8
0
 62
     0
 10
97.6962
 20
25.7266
 30
0.0
 11
97.6962
 21
22.7762
 31
0.0
  0
LINE
  8
0
 62
     0
 10
97.6962
 20
22.7762
 30
0.0
 11
98.4952
 21
22.7762
 31
0.0
  0
LINE
  8
0
 62
     0
 10
98.4952
 20
22.7762
 30
0.0
 11
98.4952
 21
22.0279
 31
0.0
  0
LINE
  8
0
 62
     0
 10
98.4952
 20
22.0279
 30
0.0
 11
96.8209
 21
22.0279
 31
0.0
  0
LINE
  8
0
 62
     0
 10
96.8209
 20
22.0279
 30
0.0
 11
96.8209
 21
25.2567
 31
0.0
  0
LINE
  8
0
 62
     0
 10
96.8209
 20
25.2567
 30
0.0
 11
90.2201
 21
25.2567
 31
0.0
  0
LINE
  8
0
 62
     0
 10
90.2201
 20
25.2567
 30
0.0
 11
90.2201
 21
22.0279
 31
0.0
  0
LINE
  8
0
 62
     0
 10
90.2201
 20
22.0279
 30
0.0
 11
89.396
 21
22.0279
 31
0.0
  0
LINE
  8
0
 62
     0
 10
89.396
 20
22.0279
 30
0.0
 11
89.396
 21
19.3766
 31
0.0
  0
LINE
  8
0
 62
     0
 10
89.396
 20
19.3766
 30
0.0
 11
90.2201
 21
19.3766
 31
0.0
  0
LINE
  8
0
 62
     0
 10
90.2201
 20
19.3766
 30
0.0
 11
90.2201
 21
13.1065
 31
0.0
  0
LINE
  8
0
 62
     0
 10
90.2201
 20
13.1065
 30
0.0
 11
91.9455
 21
13.1065
 31
0.0
  0
LINE
  8
0
 62
     0
 10
91.9455
 20
13.1065
 30
0.0
 11
91.9455
 21
11.9063
 31
0.0
  0
LINE
  8
0
 62
     0
 10
91.9455
 20
11.9063
 30
0.0
 11
95.0958
 21
11.9063
 31
0.0
  0
LINE
  8
0
 62
     0
 10
95.0958
 20
11.9063
 30
0.0
 11
95.0958
 21
13.1065
 31
0.0
  0
LINE
  8
0
 62
     0
 10
95.0958
 20
13.1065
 30
0.0
 11
96.8209
 21
13.1065
 31
0.0
  0
LINE
  8
0
 62
     0
 10
96.8209
 20
13.1065
 30
0.0
 11
96.8209
 21
17.5769
 31
0.0
  0
LINE
  8
0
 62
     0
 10
96.8209
 20
17.5769
 30
0.0
 11
98.4952
 21
17.5769
 31
0.0
  0
LINE
  8
0
 62
     0
 10
98.4952
 20
17.5769
 30
0.0
 11
98.4952
 21
16.8272
 31
0.0
  0
LINE
  8
0
 62
     0
 10
98.4952
 20
16.8272
 30
0.0
 11
97.6962
 21
16.8272
 31
0.0
  0
LINE
  8
0
 62
     0
 10
97.6962
 20
16.8272
 30
0.0
 11
97.6962
 21
13.8768
 31
0.0
  0
LINE
  8
0
 62
     0
 10
97.6962
 20
13.8768
 30
0.0
 11
98.4952
 21
13.8768
 31
0.0
  0
LINE
  8
0
 62
     0
 10
98.4952
 20
13.8768
 30
0.0
 11
98.4952
 21
12.8764
 31
0.0
  0
LINE
  8
0
 62
     0
 10
98.4952
 20
12.8764
 30
0.0
 11
112.346
 21
12.8764
 31
0.0
  0
LINE
  8
0
 62
     0
 10
112.346
 20
12.8764
 30
0.0
 11
112.346
 21
13.8768
 31
0.0
  0
LINE
  8
0
 62
     0
 10
112.346
 20
13.8768
 30
0.0
 11
113.145
 21
13.8768
 31
0.0
  0
LINE
  8
0
 62
     0
 10
113.145
 20
13.8768
 30
0.0
 11
113.145
 21
16.8272
 31
0.0
  0
LINE
  8
0
 62
     0
 10
113.145
 20
16.8272
 30
0.0
 11
112.346
 21
16.8272
 31
0.0
  0
LINE
  8
0
 62
     0
 10
112.346
 20
16.8272
 30
0.0
 11
112.346
 21
17.5769
 31
0.0
  0
LINE
  8
0
 62
     0
 10
112.346
 20
17.5769
 30
0.0
 11
114.02
 21
17.5769
 31
0.0
  0
LINE
  8
0
 62
     0
 10
114.02
 20
17.5769
 30
0.0
 11
114.02
 21
13.1065
 31
0.0
  0
LINE
  8
0
 62
     0
 10
114.02
 20
13.1065
 30
0.0
 11
115.746
 21
13.1065
 31
0.0
  0
LINE
  8
0
 62
     0
 10
115.746
 20
13.1065
 30
0.0
 11
115.746
 21
11.9063
 31
0.0
  0
LINE
  8
0
 62
     0
 10
115.746
 20
11.9063
 30
0.0
 11
118.896
 21
11.9063
 31
0.0
  0
LINE
  8
0
 62
     0
 10
118.896
 20
11.9063
 30
0.0
 11
118.896
 21
13.1065
 31
0.0
  0
LINE
  8
0
 62
     0
 10
118.896
 20
13.1065
 30
0.0
 11
120.621
 21
13.1065
 31
0.0
  0
LINE
  8
0
 62
     0
 10
120.621
 20
13.1065
 30
0.0
 11
120.621
 21
19.3766
 31
0.0
  0
LINE
  8
0
 62
     0
 10
120.621
 20
19.3766
 30
0.0
 11
121.445
 21
19.3766
 31
0.0
  0
LINE
  8
0
 62
     0
 10
121.445
 20
19.3766
 30
0.0
 11
121.445
 21
22.0279
 31
0.0
  0
LINE
  8
0
 62
     0
 10
121.445
 20
22.0279
 30
0.0
 11
120.621
 21
22.0279
 31
0.0
  0
LINE
  8
0
 62
     0
 10
120.621
 20
22.0279
 30
0.0
 11
120.621
 21
25.2567
 31
0.0
  0
LINE
  8
0
 62
     0
 10
120.621
 20
25.2567
 30
0.0
 11
114.02
 21
25.2567
 31
0.0
  0
LINE
  8
0
 62
     0
 10
114.02
 20
25.2567
 30
0.0
 11
114.02
 21
22.0279
 31
0.0
  0
LINE
  8
0
 62
     0
 10
114.02
 20
22.0279
 30
0.0
 11
112.346
 21
22.0279
 31
0.0
  0
LINE
  8
0
 62
     0
 10
112.346
 20
22.0279
 30
0.0
 11
112.346
 21
22.7762
 31
0.0
  0
LINE
  8
0
 62
     0
 10
112.346
 20
22.7762
 30
0.0
 11
113.145
 21
22.7762
 31
0.0
  0
LINE
  8
0
 62
     0
 10
113.145
 20
22.7762
 30
0.0
 11
113.145
 21
25.7266
 31
0.0
  0
LINE
  8
0
 62
     0
 10
113.145
 20
25.7266
 30
0.0
 11
112.346
 21
25.7266
 31
0.0
  0
LINE
  8
0
 62
     0
 10
112.346
 20
25.7266
 30
0.0
 11
112.346
 21
26.727
 31
0.0
  0
LINE
  8
0
 62
     0
 10
112.346
 20
26.727
 30
0.0
 11
98.4952
 21
26.727
 31
0.0
  0
LINE
  8
0
 62
     0
 10
136.595
 20
26.727
 30
0.0
 11
136.595
 21
25.7266
 31
0.0
  0
LINE
  8
0
 62
     0
 10
136.595
 20
25.7266
 30
0.0
 11
135.796
 21
25.7266
 31
0.0
  0
LINE
  8
0
 62
     0
 10
135.796
 20
25.7266
 30
0.0
 11
135.796
 21
22.7762
 31
0.0
  0
LINE
  8
0
 62
     0
 10
135.796
 20
22.7762
 30
0.0
 11
136.595
 21
22.7762
 31
0.0
  0
LINE
  8
0
 62
     0
 10
136.595
 20
22.7762
 30
0.0
 11
136.595
 21
22.0279
 31
0.0
  0
LINE
  8
0
 62
     0
 10
136.595
 20
22.0279
 30
0.0
 11
134.921
 21
22.0279
 31
0.0
  0
LINE
  8
0
 62
     0
 10
134.921
 20
22.0279
 30
0.0
 11
134.921
 21
25.2567
 31
0.0
  0
LINE
  8
0
 62
     0
 10
134.921
 20
25.2567
 30
0.0
 11
128.32
 21
25.2567
 31
0.0
  0
LINE
  8
0
 62
     0
 10
128.32
 20
25.2567
 30
0.0
 11
128.32
 21
22.0279
 31
0.0
  0
LINE
  8
0
 62
     0
 10
128.32
 20
22.0279
 30
0.0
 11
127.496
 21
22.0279
 31
0.0
  0
LINE
  8
0
 62
     0
 10
127.496
 20
22.0279
 30
0.0
 11
127.496
 21
19.3766
 31
0.0
  0
LINE
  8
0
 62
     0
 10
127.496
 20
19.3766
 30
0.0
 11
128.32
 21
19.3766
 31
0.0
  0
LINE
  8
0
 62
     0
 10
128.32
 20
19.3766
 30
0.0
 11
128.32
 21
13.1065
 31
0.0
  0
LINE
  8
0
 62
     0
 10
128.32
 20
13.1065
 30
0.0
 11
130.046
 21
13.1065
 31
0.0
  0
LINE
  8
0
 62
     0
 10
130.046
 20
13.1065
 30
0.0
 11
130.046
 21
11.9063
 31
0.0
  0
LINE
  8
0
 62
     0
 10
130.046
 20
11.9063
 30
0.0
 11
133.196
 21
11.9063
 31
0.0
  0
LINE
  8
0
 62
     0
 10
133.196
 20
11.9063
 30
0.0
 11
133.196
 21
13.1065
 31
0.0
  0
LINE
  8
0
 62
     0
 10
133.196
 20
13.1065
 30
0.0
 11
134.921
 21
13.1065
 31
0.0
  0
LINE
  8
0
 62
     0
 10
134.921
 20
13.1065
 30
0.0
 11
134.921
 21
17.5769
 31
0.0
  0
LINE
  8
0
 62
     0
 10
134.921
 20
17.5769
 30
0.0
 11
136.595
 21
17.5769
 31
0.0
  0
LINE
  8
0
 62
     0
 10
136.595
 20
17.5769
 30
0.0
 11
136.595
 21
16.8272
 31
0.0
  0
LINE
  8
0
 62
     0
 10
136.595
 20
16.8272
 30
0.0
 11
135.796
 21
16.8272
 31
0.0
  0
LINE
  8
0
 62
     0
 10
135.796
 20
16.8272
 30
0.0
 11
135.796
 21
13.8768
 31
0.0
  0
LINE
  8
0
 62
     0
 10
135.796
 20
13.8768
 30
0.0
 11
136.595
 21
13.8768
 31
0.0
  0
LINE
  8
0
 62
     0
 10
136.595
 20
13.8768
 30
0.0
 11
136.595
 21
12.8764
 31
0.0
  0
LINE
  8
0
 62
     0
 10
136.595
 20
12.8764
 30
0.0
 11
150.446
 21
12.8764
 31
0.0
  0
LINE
  8
0
 62
     0
 10
150.446
 20
12.8764
 30
0.0
 11
150.446
 21
13.8768
 31
0.0
  0
LINE
  8
0
 62
     0
 10
150.446
 20
13.8768
 30
0.0
 11
151.245
 21
13.8768
 31
0.0
  0
LINE
  8
0
 62
     0
 10
151.245
 20
13.8768
 30
0.0
 11
151.245
 21
16.8272
 31
0.0
  0
LINE
  8
0
 62
     0
 10
151.245
 20
16.8272
 30
0.0
 11
150.446
 21
16.8272
 31
0.0
  0
LINE
  8
0
 62
     0
 10
150.446
 20
16.8272
 30
0.0
 11
150.446
 21
17.5769
 31
0.0
  0
LINE
  8
0
 62
     0
 10
150.446
 20
17.5769
 30
0.0
 11
152.12
 21
17.5769
 31
0.0
  0
LINE
  8
0
 62
     0
 10
152.12
 20
17.5769
 30
0.0
 11
152.12
 21
13.1065
 31
0.0
  0
LINE
  8
0
 62
     0
 10
152.12
 20
13.1065
 30
0.0
 11
153.846
 21
13.1065
 31
0.0
  0
LINE
  8
0
 62
     0
 10
153.846
 20
13.1065
 30
0.0
 11
153.846
 21
11.9063
 31
0.0
  0
LINE
  8
0
 62
     0
 10
153.846
 20
11.9063
 30
0.0
 11
156.996
 21
11.9063
 31
0.0
  0
LINE
  8
0
 62
     0
 10
156.996
 20
11.9063
 30
0.0
 11
156.996
 21
13.1065
 31
0.0
  0
LINE
  8
0
 62
     0
 10
156.996
 20
13.1065
 30
0.0
 11
158.721
 21
13.1065
 31
0.0
  0
LINE
  8
0
 62
     0
 10
158.721
 20
13.1065
 30
0.0
 11
158.721
 21
19.3766
 31
0.0
  0
LINE
  8
0
 62
     0
 10
158.721
 20
19.3766
 30
0.0
 11
159.545
 21
19.3766
 31
0.0
  0
LINE
  8
0
 62
     0
 10
159.545
 20
19.3766
 30
0.0
 11
159.545
 21
22.0279
 31
0.0
  0
LINE
  8
0
 62
     0
 10
159.545
 20
22.0279
 30
0.0
 11
158.721
 21
22.0279
 31
0.0
  0
LINE
  8
0
 62
     0
 10
158.721
 20
22.0279
 30
0.0
 11
158.721
 21
25.2567
 31
0.0
  0
LINE
  8
0
 62
     0
 10
158.721
 20
25.2567
 30
0.0
 11
152.12
 21
25.2567
 31
0.0
  0
LINE
  8
0
 62
     0
 10
152.12
 20
25.2567
 30
0.0
 11
152.12
 21
22.0279
 31
0.0
  0
LINE
  8
0
 62
     0
 10
152.12
 20
22.0279
 30
0.0
 11
150.446
 21
22.0279
 31
0.0
  0
LINE
  8
0
 62
     0
 10
150.446
 20
22.0279
 30
0.0
 11
150.446
 21
22.7762
 31
0.0
  0
LINE
  8
0
 62
     0
 10
150.446
 20
22.7762
 30
0.0
 11
151.245
 21
22.7762
 31
0.0
  0
LINE
  8
0
 62
     0
 10
151.245
 20
22.7762
 30
0.0
 11
151.245
 21
25.7266
 31
0.0
  0
LINE
  8
0
 62
     0
 10
151.245
 20
25.7266
 30
0.0
 11
150.446
 21
25.7266
 31
0.0
  0
LINE
  8
0
 62
     0
 10
150.446
 20
25.7266
 30
0.0
 11
150.446
 21
26.727
 31
0.0
  0
LINE
  8
0
 62
     0
 10
150.446
 20
26.727
 30
0.0
 11
136.595
 21
26.727
 31
0.0
  0
LINE
  8
0
 62
     0
 10
174.695
 20
26.727
 30
0.0
 11
174.695
 21
25.7266
 31
0.0
  0
LINE
  8
0
 62
     0
 10
174.695
 20
25.7266
 30
0.0
 11
173.896
 21
25.7266
 31
0.0
  0
LINE
  8
0
 62
     0
 10
173.896
 20
25.7266
 30
0.0
 11
173.896
 21
22.7762
 31
0.0
  0
LINE
  8
0
 62
     0
 10
173.896
 20
22.7762
 30
0.0
 11
174.695
 21
22.7762
 31
0.0
  0
LINE
  8
0
 62
     0
 10
174.695
 20
22.7762
 30
0.0
 11
174.695
 21
22.0279
 31
0.0
  0
LINE
  8
0
 62
     0
 10
174.695
 20
22.0279
 30
0.0
 11
173.021
 21
22.0279
 31
0.0
  0
LINE
  8
0
 62
     0
 10
173.021
 20
22.0279
 30
0.0
 11
173.021
 21
25.2567
 31
0.0
  0
LINE
  8
0
 62
     0
 10
173.021
 20
25.2567
 30
0.0
 11
166.42
 21
25.2567
 31
0.0
  0
LINE
  8
0
 62
     0
 10
166.42
 20
25.2567
 30
0.0
 11
166.42
 21
22.0279
 31
0.0
  0
LINE
  8
0
 62
     0
 10
166.42
 20
22.0279
 30
0.0
 11
165.596
 21
22.0279
 31
0.0
  0
LINE
  8
0
 62
     0
 10
165.596
 20
22.0279
 30
0.0
 11
165.596
 21
19.3766
 31
0.0
  0
LINE
  8
0
 62
     0
 10
165.596
 20
19.3766
 30
0.0
 11
166.42
 21
19.3766
 31
0.0
  0
LINE
  8
0
 62
     0
 10
166.42
 20
19.3766
 30
0.0
 11
166.42
 21
13.1065
 31
0.0
  0
LINE
  8
0
 62
     0
 10
166.42
 20
13.1065
 30
0.0
 11
168.146
 21
13.1065
 31
0.0
  0
LINE
  8
0
 62
     0
 10
168.146
 20
13.1065
 30
0.0
 11
168.146
 21
11.9063
 31
0.0
  0
LINE
  8
0
 62
     0
 10
168.146
 20
11.9063
 30
0.0
 11
171.296
 21
11.9063
 31
0.0
  0
LINE
  8
0
 62
     0
 10
171.296
 20
11.9063
 30
0.0
 11
171.296
 21
13.1065
 31
0.0
  0
LINE
  8
0
 62
     0
 10
171.296
 20
13.1065
 30
0.0
 11
173.021
 21
13.1065
 31
0.0
  0
LINE
  8
0
 62
     0
 10
173.021
 20
13.1065
 30
0.0
 11
173.021
 21
17.5769
 31
0.0
  0
LINE
  8
0
 62
     0
 10
173.021
 20
17.5769
 30
0.0
 11
174.695
 21
17.5769
 31
0.0
  0
LINE
  8
0
 62
     0
 10
174.695
 20
17.5769
 30
0.0
 11
174.695
 21
16.8272
 31
0.0
  0
LINE
  8
0
 62
     0
 10
174.695
 20
16.8272
 30
0.0
 11
173.896
 21
16.8272
 31
0.0
  0
LINE
  8
0
 62
     0
 10
173.896
 20
16.8272
 30
0.0
 11
173.896
 21
13.8768
 31
0.0
  0
LINE
  8
0
 62
     0
 10
173.896
 20
13.8768
 30
0.0
 11
174.695
 21
13.8768
 31
0.0
  0
LINE
  8
0
 62
     0
 10
174.695
 20
13.8768
 30
0.0
 11
174.695
 21
12.8764
 31
0.0
  0
LINE
  8
0
 62
     0
 10
174.695
 20
12.8764
 30
0.0
 11
188.546
 21
12.8764
 31
0.0
  0
LINE
  8
0
 62
     0
 10
188.546
 20
12.8764
 30
0.0
 11
188.546
 21
13.8768
 31
0.0
  0
LINE
  8
0
 62
     0
 10
188.546
 20
13.8768
 30
0.0
 11
189.345
 21
13.8768
 31
0.0
  0
LINE
  8
0
 62
     0
 10
189.345
 20
13.8768
 30
0.0
 11
189.345
 21
16.8272
 31
0.0
  0
LINE
  8
0
 62
     0
 10
189.345
 20
16.8272
 30
0.0
 11
188.546
 21
16.8272
 31
0.0
  0
LINE
  8
0
 62
     0
 10
188.546
 20
16.8272
 30
0.0
 11
188.546
 21
17.5769
 31
0.0
  0
LINE
  8
0
 62
     0
 10
188.546
 20
17.5769
 30
0.0
 11
190.22
 21
17.5769
 31
0.0
  0
LINE
  8
0
 62
     0
 10
190.22
 20
17.5769
 30
0.0
 11
190.22
 21
13.1065
 31
0.0
  0
LINE
  8
0
 62
     0
 10
190.22
 20
13.1065
 30
0.0
 11
191.946
 21
13.1065
 31
0.0
  0
LINE
  8
0
 62
     0
 10
191.946
 20
13.1065
 30
0.0
 11
191.946
 21
11.9063
 31
0.0
  0
LINE
  8
0
 62
     0
 10
191.946
 20
11.9063
 30
0.0
 11
195.096
 21
11.9063
 31
0.0
  0
LINE
  8
0
 62
     0
 10
195.096
 20
11.9063
 30
0.0
 11
195.096
 21
13.1065
 31
0.0
  0
LINE
  8
0
 62
     0
 10
195.096
 20
13.1065
 30
0.0
 11
196.821
 21
13.1065
 31
0.0
  0
LINE
  8
0
 62
     0
 10
196.821
 20
13.1065
 30
0.0
 11
196.821
 21
19.3766
 31
0.0
  0
LINE
  8
0
 62
     0
 10
196.821
 20
19.3766
 30
0.0
 11
197.645
 21
19.3766
 31
0.0
  0
LINE
  8
0
 62
     0
 10
197.645
 20
19.3766
 30
0.0
 11
197.645
 21
22.0279
 31
0.0
  0
LINE
  8
0
 62
     0
 10
197.645
 20
22.0279
 30
0.0
 11
196.821
 21
22.0279
 31
0.0
  0
LINE
  8
0
 62
     0
 10
196.821
 20
22.0279
 30
0.0
 11
196.821
 21
25.2567
 31
0.0
  0
LINE
  8
0
 62
     0
 10
196.821
 20
25.2567
 30
0.0
 11
190.22
 21
25.2567
 31
0.0
  0
LINE
  8
0
 62
     0
 10
190.22
 20
25.2567
 30
0.0
 11
190.22
 21
22.0279
 31
0.0
  0
LINE
  8
0
 62
     0
 10
190.22
 20
22.0279
 30
0.0
 11
188.546
 21
22.0279
 31
0.0
  0
LINE
  8
0
 62
     0
 10
188.546
 20
22.0279
 30
0.0
 11
188.546
 21
22.7762
 31
0.0
  0
LINE
  8
0
 62
     0
 10
188.546
 20
22.7762
 30
0.0
 11
189.345
 21
22.7762
 31
0.0
  0
LINE
  8
0
 62
     0
 10
189.345
 20
22.7762
 30
0.0
 11
189.345
 21
25.7266
 31
0.0
  0
LINE
  8
0
 62
     0
 10
189.345
 20
25.7266
 30
0.0
 11
188.546
 21
25.7266
 31
0.0
  0
LINE
  8
0
 62
     0
 10
188.546
 20
25.7266
 30
0.0
 11
188.546
 21
26.727
 31
0.0
  0
LINE
  8
0
 62
     0
 10
188.546
 20
26.727
 30
0.0
 11
174.695
 21
26.727
 31
0.0
  0
LINE
  8
0
 62
     0
 10
12.7703
 20
26.727
 30
0.0
 11
12.7703
 21
25.7266
 31
0.0
  0
LINE
  8
0
 62
     0
 10
12.7703
 20
25.7266
 30
0.0
 11
11.971
 21
25.7266
 31
0.0
  0
LINE
  8
0
 62
     0
 10
11.971
 20
25.7266
 30
0.0
 11
11.971
 21
22.7762
 31
0.0
  0
LINE
  8
0
 62
     0
 10
11.971
 20
22.7762
 30
0.0
 11
12.7703
 21
22.7762
 31
0.0
  0
LINE
  8
0
 62
     0
 10
12.7703
 20
22.7762
 30
0.0
 11
12.7703
 21
16.8272
 31
0.0
  0
LINE
  8
0
 62
     0
 10
12.7703
 20
16.8272
 30
0.0
 11
11.971
 21
16.8272
 31
0.0
  0
LINE
  8
0
 62
     0
 10
11.971
 20
16.8272
 30
0.0
 11
11.971
 21
13.8768
 31
0.0
  0
LINE
  8
0
 62
     0
 10
11.971
 20
13.8768
 30
0.0
 11
12.7703
 21
13.8768
 31
0.0
  0
LINE
  8
0
 62
     0
 10
12.7703
 20
13.8768
 30
0.0
 11
12.7703
 21
12.8764
 31
0.0
  0
LINE
  8
0
 62
     0
 10
12.7703
 20
12.8764
 30
0.0
 11
26.6209
 21
12.8764
 31
0.0
  0
LINE
  8
0
 62
     0
 10
26.6209
 20
12.8764
 30
0.0
 11
26.6209
 21
13.8768
 31
0.0
  0
LINE
  8
0
 62
     0
 10
26.6209
 20
13.8768
 30
0.0
 11
27.4202
 21
13.8768
 31
0.0
  0
LINE
  8
0
 62
     0
 10
27.4202
 20
13.8768
 30
0.0
 11
27.4202
 21
16.8272
 31
0.0
  0
LINE
  8
0
 62
     0
 10
27.4202
 20
16.8272
 30
0.0
 11
26.6209
 21
16.8272
 31
0.0
  0
LINE
  8
0
 62
     0
 10
26.6209
 20
16.8272
 30
0.0
 11
26.6209
 21
22.7762
 31
0.0
  0
LINE
  8
0
 62
     0
 10
26.6209
 20
22.7762
 30
0.0
 11
27.4202
 21
22.7762
 31
0.0
  0
LINE
  8
0
 62
     0
 10
27.4202
 20
22.7762
 30
0.0
 11
27.4202
 21
25.7266
 31
0.0
  0
LINE
  8
0
 62
     0
 10
27.4202
 20
25.7266
 30
0.0
 11
26.6209
 21
25.7266
 31
0.0
  0
LINE
  8
0
 62
     0
 10
26.6209
 20
25.7266
 30
0.0
 11
26.6209
 21
26.727
 31
0.0
  0
LINE
  8
0
 62
     0
 10
26.6209
 20
26.727
 30
0.0
 11
12.7703
 21
26.727
 31
0.0
  0
LINE
  8
0
 62
     0
 10
31.8203
 20
26.727
 30
0.0
 11
31.8203
 21
25.7266
 31
0.0
  0
LINE
  8
0
 62
     0
 10
31.8203
 20
25.7266
 30
0.0
 11
31.021
 21
25.7266
 31
0.0
  0
LINE
  8
0
 62
     0
 10
31.021
 20
25.7266
 30
0.0
 11
31.021
 21
22.7762
 31
0.0
  0
LINE
  8
0
 62
     0
 10
31.021
 20
22.7762
 30
0.0
 11
31.8203
 21
22.7762
 31
0.0
  0
LINE
  8
0
 62
     0
 10
31.8203
 20
22.7762
 30
0.0
 11
31.8203
 21
16.8272
 31
0.0
  0
LINE
  8
0
 62
     0
 10
31.8203
 20
16.8272
 30
0.0
 11
31.021
 21
16.8272
 31
0.0
  0
LINE
  8
0
 62
     0
 10
31.021
 20
16.8272
 30
0.0
 11
31.021
 21
13.8768
 31
0.0
  0
LINE
  8
0
 62
     0
 10
31.021
 20
13.8768
 30
0.0
 11
31.8203
 21
13.8768
 31
0.0
  0
LINE
  8
0
 62
     0
 10
31.8203
 20
13.8768
 30
0.0
 11
31.8203
 21
12.8764
 31
0.0
  0
LINE
  8
0
 62
     0
 10
31.8203
 20
12.8764
 30
0.0
 11
45.671
 21
12.8764
 31
0.0
  0
LINE
  8
0
 62
     0
 10
45.671
 20
12.8764
 30
0.0
 11
45.671
 21
13.8768
 31
0.0
  0
LINE
  8
0
 62
     0
 10
45.671
 20
13.8768
 30
0.0
 11
46.4704
 21
13.8768
 31
0.0
  0
LINE
  8
0
 62
     0
 10
46.4704
 20
13.8768
 30
0.0
 11
46.4704
 21
16.8272
 31
0.0
  0
LINE
  8
0
 62
     0
 10
46.4704
 20
16.8272
 30
0.0
 11
45.671
 21
16.8272
 31
0.0
  0
LINE
  8
0
 62
     0
 10
45.671
 20
16.8272
 30
0.0
 11
45.671
 21
22.7762
 31
0.0
  0
LINE
  8
0
 62
     0
 10
45.671
 20
22.7762
 30
0.0
 11
46.4704
 21
22.7762
 31
0.0
  0
LINE
  8
0
 62
     0
 10
46.4704
 20
22.7762
 30
0.0
 11
46.4704
 21
25.7266
 31
0.0
  0
LINE
  8
0
 62
     0
 10
46.4704
 20
25.7266
 30
0.0
 11
45.671
 21
25.7266
 31
0.0
  0
LINE
  8
0
 62
     0
 10
45.671
 20
25.7266
 30
0.0
 11
45.671
 21
26.727
 31
0.0
  0
LINE
  8
0
 62
     0
 10
45.671
 20
26.727
 30
0.0
 11
31.8203
 21
26.727
 31
0.0
  0
LINE
  8
0
 62
     0
 10
50.8702
 20
26.727
 30
0.0
 11
50.8702
 21
25.7266
 31
0.0
  0
LINE
  8
0
 62
     0
 10
50.8702
 20
25.7266
 30
0.0
 11
50.0712
 21
25.7266
 31
0.0
  0
LINE
  8
0
 62
     0
 10
50.0712
 20
25.7266
 30
0.0
 11
50.0712
 21
22.7762
 31
0.0
  0
LINE
  8
0
 62
     0
 10
50.0712
 20
22.7762
 30
0.0
 11
50.8702
 21
22.7762
 31
0.0
  0
LINE
  8
0
 62
     0
 10
50.8702
 20
22.7762
 30
0.0
 11
50.8702
 21
16.8272
 31
0.0
  0
LINE
  8
0
 62
     0
 10
50.8702
 20
16.8272
 30
0.0
 11
50.0712
 21
16.8272
 31
0.0
  0
LINE
  8
0
 62
     0
 10
50.0712
 20
16.8272
 30
0.0
 11
50.0712
 21
13.8768
 31
0.0
  0
LINE
  8
0
 62
     0
 10
50.0712
 20
13.8768
 30
0.0
 11
50.8702
 21
13.8768
 31
0.0
  0
LINE
  8
0
 62
     0
 10
50.8702
 20
13.8768
 30
0.0
 11
50.8702
 21
12.8764
 31
0.0
  0
LINE
  8
0
 62
     0
 10
50.8702
 20
12.8764
 30
0.0
 11
64.721
 21
12.8764
 31
0.0
  0
LINE
  8
0
 62
     0
 10
64.721
 20
12.8764
 30
0.0
 11
64.721
 21
13.8768
 31
0.0
  0
LINE
  8
0
 62
     0
 10
64.721
 20
13.8768
 30
0.0
 11
65.5204
 21
13.8768
 31
0.0
  0
LINE
  8
0
 62
     0
 10
65.5204
 20
13.8768
 30
0.0
 11
65.5204
 21
16.8272
 31
0.0
  0
LINE
  8
0
 62
     0
 10
65.5204
 20
16.8272
 30
0.0
 11
64.721
 21
16.8272
 31
0.0
  0
LINE
  8
0
 62
     0
 10
64.721
 20
16.8272
 30
0.0
 11
64.721
 21
22.7762
 31
0.0
  0
LINE
  8
0
 62
     0
 10
64.721
 20
22.7762
 30
0.0
 11
65.5204
 21
22.7762
 31
0.0
  0
LINE
  8
0
 62
     0
 10
65.5204
 20
22.7762
 30
0.0
 11
65.5204
 21
25.7266
 31
0.0
  0
LINE
  8
0
 62
     0
 10
65.5204
 20
25.7266
 30
0.0
 11
64.721
 21
25.7266
 31
0.0
  0
LINE
  8
0
 62
     0
 10
64.721
 20
25.7266
 30
0.0
 11
64.721
 21
26.727
 31
0.0
  0
LINE
  8
0
 62
     0
 10
64.721
 20
26.727
 30
0.0
 11
50.8702
 21
26.727
 31
0.0
  0
LINE
  8
0
 62
     0
 10
69.9202
 20
26.727
 30
0.0
 11
69.9202
 21
25.7266
 31
0.0
  0
LINE
  8
0
 62
     0
 10
69.9202
 20
25.7266
 30
0.0
 11
69.1212
 21
25.7266
 31
0.0
  0
LINE
  8
0
 62
     0
 10
69.1212
 20
25.7266
 30
0.0
 11
69.1212
 21
22.7762
 31
0.0
  0
LINE
  8
0
 62
     0
 10
69.1212
 20
22.7762
 30
0.0
 11
69.9202
 21
22.7762
 31
0.0
  0
LINE
  8
0
 62
     0
 10
69.9202
 20
22.7762
 30
0.0
 11
69.9202
 21
16.8272
 31
0.0
  0
LINE
  8
0
 62
     0
 10
69.9202
 20
16.8272
 30
0.0
 11
69.1212
 21
16.8272
 31
0.0
  0
LINE
  8
0
 62
     0
 10
69.1212
 20
16.8272
 30
0.0
 11
69.1212
 21
13.8768
 31
0.0
  0
LINE
  8
0
 62
     0
 10
69.1212
 20
13.8768
 30
0.0
 11
69.9202
 21
13.8768
 31
0.0
  0
LINE
  8
0
 62
     0
 10
69.9202
 20
13.8768
 30
0.0
 11
69.9202
 21
12.8764
 31
0.0
  0
LINE
  8
0
 62
     0
 10
69.9202
 20
12.8764
 30
0.0
 11
83.771
 21
12.8764
 31
0.0
  0
LINE
  8
0
 62
     0
 10
83.771
 20
12.8764
 30
0.0
 11
83.771
 21
13.8768
 31
0.0
  0
LINE
  8
0
 62
     0
 10
83.771
 20
13.8768
 30
0.0
 11
84.5704
 21
13.8768
 31
0.0
  0
LINE
  8
0
 62
     0
 10
84.5704
 20
13.8768
 30
0.0
 11
84.5704
 21
16.8272
 31
0.0
  0
LINE
  8
0
 62
     0
 10
84.5704
 20
16.8272
 30
0.0
 11
83.771
 21
16.8272
 31
0.0
  0
LINE
  8
0
 62
     0
 10
83.771
 20
16.8272
 30
0.0
 11
83.771
 21
22.7762
 31
0.0
  0
LINE
  8
0
 62
     0
 10
83.771
 20
22.7762
 30
0.0
 11
84.5704
 21
22.7762
 31
0.0
  0
LINE
  8
0
 62
     0
 10
84.5704
 20
22.7762
 30
0.0
 11
84.5704
 21
25.7266
 31
0.0
  0
LINE
  8
0
 62
     0
 10
84.5704
 20
25.7266
 30
0.0
 11
83.771
 21
25.7266
 31
0.0
  0
LINE
  8
0
 62
     0
 10
83.771
 20
25.7266
 30
0.0
 11
83.771
 21
26.727
 31
0.0
  0
LINE
  8
0
 62
     0
 10
83.771
 20
26.727
 30
0.0
 11
69.9202
 21
26.727
 31
0.0
  0
LINE
  8
0
 62
     0
 10
203.27
 20
26.727
 30
0.0
 11
203.27
 21
25.7266
 31
0.0
  0
LINE
  8
0
 62
     0
 10
203.27
 20
25.7266
 30
0.0
 11
202.471
 21
25.7266
 31
0.0
  0
LINE
  8
0
 62
     0
 10
202.471
 20
25.7266
 30
0.0
 11
202.471
 21
22.7762
 31
0.0
  0
LINE
  8
0
 62
     0
 10
202.471
 20
22.7762
 30
0.0
 11
203.27
 21
22.7762
 31
0.0
  0
LINE
  8
0
 62
     0
 10
203.27
 20
22.7762
 30
0.0
 11
203.27
 21
16.8272
 31
0.0
  0
LINE
  8
0
 62
     0
 10
203.27
 20
16.8272
 30
0.0
 11
202.471
 21
16.8272
 31
0.0
  0
LINE
  8
0
 62
     0
 10
202.471
 20
16.8272
 30
0.0
 11
202.471
 21
13.8768
 31
0.0
  0
LINE
  8
0
 62
     0
 10
202.471
 20
13.8768
 30
0.0
 11
203.27
 21
13.8768
 31
0.0
  0
LINE
  8
0
 62
     0
 10
203.27
 20
13.8768
 30
0.0
 11
203.27
 21
12.8764
 31
0.0
  0
LINE
  8
0
 62
     0
 10
203.27
 20
12.8764
 30
0.0
 11
217.121
 21
12.8764
 31
0.0
  0
LINE
  8
0
 62
     0
 10
217.121
 20
12.8764
 30
0.0
 11
217.121
 21
13.8768
 31
0.0
  0
LINE
  8
0
 62
     0
 10
217.121
 20
13.8768
 30
0.0
 11
217.92
 21
13.8768
 31
0.0
  0
LINE
  8
0
 62
     0
 10
217.92
 20
13.8768
 30
0.0
 11
217.92
 21
16.8272
 31
0.0
  0
LINE
  8
0
 62
     0
 10
217.92
 20
16.8272
 30
0.0
 11
217.121
 21
16.8272
 31
0.0
  0
LINE
  8
0
 62
     0
 10
217.121
 20
16.8272
 30
0.0
 11
217.121
 21
22.7762
 31
0.0
  0
LINE
  8
0
 62
     0
 10
217.121
 20
22.7762
 30
0.0
 11
217.92
 21
22.7762
 31
0.0
  0
LINE
  8
0
 62
     0
 10
217.92
 20
22.7762
 30
0.0
 11
217.92
 21
25.7266
 31
0.0
  0
LINE
  8
0
 62
     0
 10
217.92
 20
25.7266
 30
0.0
 11
217.121
 21
25.7266
 31
0.0
  0
LINE
  8
0
 62
     0
 10
217.121
 20
25.7266
 30
0.0
 11
217.121
 21
26.727
 31
0.0
  0
LINE
  8
0
 62
     0
 10
217.121
 20
26.727
 30
0.0
 11
203.27
 21
26.727
 31
0.0
  0
LINE
  8
0
 62
     0
 10
222.32
 20
26.727
 30
0.0
 11
222.32
 21
25.7266
 31
0.0
  0
LINE
  8
0
 62
     0
 10
222.32
 20
25.7266
 30
0.0
 11
221.521
 21
25.7266
 31
0.0
  0
LINE
  8
0
 62
     0
 10
221.521
 20
25.7266
 30
0.0
 11
221.521
 21
22.7762
 31
0.0
  0
LINE
  8
0
 62
     0
 10
221.521
 20
22.7762
 30
0.0
 11
222.32
 21
22.7762
 31
0.0
  0
LINE
  8
0
 62
     0
 10
222.32
 20
22.7762
 30
0.0
 11
222.32
 21
16.8272
 31
0.0
  0
LINE
  8
0
 62
     0
 10
222.32
 20
16.8272
 30
0.0
 11
221.521
 21
16.8272
 31
0.0
  0
LINE
  8
0
 62
     0
 10
221.521
 20
16.8272
 30
0.0
 11
221.521
 21
13.8768
 31
0.0
  0
LINE
  8
0
 62
     0
 10
221.521
 20
13.8768
 30
0.0
 11
222.32
 21
13.8768
 31
0.0
  0
LINE
  8
0
 62
     0
 10
222.32
 20
13.8768
 30
0.0
 11
222.32
 21
12.8764
 31
0.0
  0
LINE
  8
0
 62
     0
 10
222.32
 20
12.8764
 30
0.0
 11
236.171
 21
12.8764
 31
0.0
  0
LINE
  8
0
 62
     0
 10
236.171
 20
12.8764
 30
0.0
 11
236.171
 21
13.8768
 31
0.0
  0
LINE
  8
0
 62
     0
 10
236.171
 20
13.8768
 30
0.0
 11
236.97
 21
13.8768
 31
0.0
  0
LINE
  8
0
 62
     0
 10
236.97
 20
13.8768
 30
0.0
 11
236.97
 21
16.8272
 31
0.0
  0
LINE
  8
0
 62
     0
 10
236.97
 20
16.8272
 30
0.0
 11
236.171
 21
16.8272
 31
0.0
  0
LINE
  8
0
 62
     0
 10
236.171
 20
16.8272
 30
0.0
 11
236.171
 21
22.7762
 31
0.0
  0
LINE
  8
0
 62
     0
 10
236.171
 20
22.7762
 30
0.0
 11
236.97
 21
22.7762
 31
0.0
  0
LINE
  8
0
 62
     0
 10
236.97
 20
22.7762
 30
0.0
 11
236.97
 21
25.7266
 31
0.0
  0
LINE
  8
0
 62
     0
 10
236.97
 20
25.7266
 30
0.0
 11
236.171
 21
25.7266
 31
0.0
  0
LINE
  8
0
 62
     0
 10
236.171
 20
25.7266
 30
0.0
 11
236.171
 21
26.727
 31
0.0
  0
LINE
  8
0
 62
     0
 10
236.171
 20
26.727
 30
0.0
 11
222.32
 21
26.727
 31
0.0
  0
LINE
  8
0
 62
     0
 10
241.37
 20
26.727
 30
0.0
 11
241.37
 21
25.7266
 31
0.0
  0
LINE
  8
0
 62
     0
 10
241.37
 20
25.7266
 30
0.0
 11
240.571
 21
25.7266
 31
0.0
  0
LINE
  8
0
 62
     0
 10
240.571
 20
25.7266
 30
0.0
 11
240.571
 21
22.7762
 31
0.0
  0
LINE
  8
0
 62
     0
 10
240.571
 20
22.7762
 30
0.0
 11
241.37
 21
22.7762
 31
0.0
  0
LINE
  8
0
 62
     0
 10
241.37
 20
22.7762
 30
0.0
 11
241.37
 21
16.8272
 31
0.0
  0
LINE
  8
0
 62
     0
 10
241.37
 20
16.8272
 30
0.0
 11
240.571
 21
16.8272
 31
0.0
  0
LINE
  8
0
 62
     0
 10
240.571
 20
16.8272
 30
0.0
 11
240.571
 21
13.8768
 31
0.0
  0
LINE
  8
0
 62
     0
 10
240.571
 20
13.8768
 30
0.0
 11
241.37
 21
13.8768
 31
0.0
  0
LINE
  8
0
 62
     0
 10
241.37
 20
13.8768
 30
0.0
 11
241.37
 21
12.8764
 31
0.0
  0
LINE
  8
0
 62
     0
 10
241.37
 20
12.8764
 30
0.0
 11
255.221
 21
12.8764
 31
0.0
  0
LINE
  8
0
 62
     0
 10
255.221
 20
12.8764
 30
0.0
 11
255.221
 21
13.8768
 31
0.0
  0
LINE
  8
0
 62
     0
 10
255.221
 20
13.8768
 30
0.0
 11
256.02
 21
13.8768
 31
0.0
  0
LINE
  8
0
 62
     0
 10
256.02
 20
13.8768
 30
0.0
 11
256.02
 21
16.8272
 31
0.0
  0
LINE
  8
0
 62
     0
 10
256.02
 20
16.8272
 30
0.0
 11
255.221
 21
16.8272
 31
0.0
  0
LINE
  8
0
 62
     0
 10
255.221
 20
16.8272
 30
0.0
 11
255.221
 21
22.7762
 31
0.0
  0
LINE
  8
0
 62
     0
 10
255.221
 20
22.7762
 30
0.0
 11
256.02
 21
22.7762
 31
0.0
  0
LINE
  8
0
 62
     0
 10
256.02
 20
22.7762
 30
0.0
 11
256.02
 21
25.7266
 31
0.0
  0
LINE
  8
0
 62
     0
 10
256.02
 20
25.7266
 30
0.0
 11
255.221
 21
25.7266
 31
0.0
  0
LINE
  8
0
 62
     0
 10
255.221
 20
25.7266
 30
0.0
 11
255.221
 21
26.727
 31
0.0
  0
LINE
  8
0
 62
     0
 10
255.221
 20
26.727
 30
0.0
 11
241.37
 21
26.727
 31
0.0
  0
LINE
  8
0
 62
     0
 10
260.42
 20
26.727
 30
0.0
 11
260.42
 21
25.7266
 31
0.0
  0
LINE
  8
0
 62
     0
 10
260.42
 20
25.7266
 30
0.0
 11
259.621
 21
25.7266
 31
0.0
  0
LINE
  8
0
 62
     0
 10
259.621
 20
25.7266
 30
0.0
 11
259.621
 21
22.7762
 31
0.0
  0
LINE
  8
0
 62
     0
 10
259.621
 20
22.7762
 30
0.0
 11
260.42
 21
22.7762
 31
0.0
  0
LINE
  8
0
 62
     0
 10
260.42
 20
22.7762
 30
0.0
 11
260.42
 21
16.8272
 31
0.0
  0
LINE
  8
0
 62
     0
 10
260.42
 20
16.8272
 30
0.0
 11
259.621
 21
16.8272
 31
0.0
  0
LINE
  8
0
 62
     0
 10
259.621
 20
16.8272
 30
0.0
 11
259.621
 21
13.8768
 31
0.0
  0
LINE
  8
0
 62
     0
 10
259.621
 20
13.8768
 30
0.0
 11
260.42
 21
13.8768
 31
0.0
  0
LINE
  8
0
 62
     0
 10
260.42
 20
13.8768
 30
0.0
 11
260.42
 21
12.8764
 31
0.0
  0
LINE
  8
0
 62
     0
 10
260.42
 20
12.8764
 30
0.0
 11
274.271
 21
12.8764
 31
0.0
  0
LINE
  8
0
 62
     0
 10
274.271
 20
12.8764
 30
0.0
 11
274.271
 21
13.8768
 31
0.0
  0
LINE
  8
0
 62
     0
 10
274.271
 20
13.8768
 30
0.0
 11
275.07
 21
13.8768
 31
0.0
  0
LINE
  8
0
 62
     0
 10
275.07
 20
13.8768
 30
0.0
 11
275.07
 21
16.8272
 31
0.0
  0
LINE
  8
0
 62
     0
 10
275.07
 20
16.8272
 30
0.0
 11
274.271
 21
16.8272
 31
0.0
  0
LINE
  8
0
 62
     0
 10
274.271
 20
16.8272
 30
0.0
 11
274.271
 21
22.7762
 31
0.0
  0
LINE
  8
0
 62
     0
 10
274.271
 20
22.7762
 30
0.0
 11
275.07
 21
22.7762
 31
0.0
  0
LINE
  8
0
 62
     0
 10
275.07
 20
22.7762
 30
0.0
 11
275.07
 21
25.7266
 31
0.0
  0
LINE
  8
0
 62
     0
 10
275.07
 20
25.7266
 30
0.0
 11
274.271
 21
25.7266
 31
0.0
  0
LINE
  8
0
 62
     0
 10
274.271
 20
25.7266
 30
0.0
 11
274.271
 21
26.727
 31
0.0
  0
LINE
  8
0
 62
     0
 10
274.271
 20
26.727
 30
0.0
 11
260.42
 21
26.727
 31
0.0
  0
LINE
  8
0
 62
     0
 10
279.47
 20
26.727
 30
0.0
 11
279.47
 21
25.7266
 31
0.0
  0
LINE
  8
0
 62
     0
 10
279.47
 20
25.7266
 30
0.0
 11
278.671
 21
25.7266
 31
0.0
  0
LINE
  8
0
 62
     0
 10
278.671
 20
25.7266
 30
0.0
 11
278.671
 21
22.7762
 31
0.0
  0
LINE
  8
0
 62
     0
 10
278.671
 20
22.7762
 30
0.0
 11
279.47
 21
22.7762
 31
0.0
  0
LINE
  8
0
 62
     0
 10
279.47
 20
22.7762
 30
0.0
 11
279.47
 21
16.8272
 31
0.0
  0
LINE
  8
0
 62
     0
 10
279.47
 20
16.8272
 30
0.0
 11
278.671
 21
16.8272
 31
0.0
  0
LINE
  8
0
 62
     0
 10
278.671
 20
16.8272
 30
0.0
 11
278.671
 21
13.8768
 31
0.0
  0
LINE
  8
0
 62
     0
 10
278.671
 20
13.8768
 30
0.0
 11
279.47
 21
13.8768
 31
0.0
  0
LINE
  8
0
 62
     0
 10
279.47
 20
13.8768
 30
0.0
 11
279.47
 21
12.8764
 31
0.0
  0
LINE
  8
0
 62
     0
 10
279.47
 20
12.8764
 30
0.0
 11
293.321
 21
12.8764
 31
0.0
  0
LINE
  8
0
 62
     0
 10
293.321
 20
12.8764
 30
0.0
 11
293.321
 21
13.8768
 31
0.0
  0
LINE
  8
0
 62
     0
 10
293.321
 20
13.8768
 30
0.0
 11
294.12
 21
13.8768
 31
0.0
  0
LINE
  8
0
 62
     0
 10
294.12
 20
13.8768
 30
0.0
 11
294.12
 21
16.8272
 31
0.0
  0
LINE
  8
0
 62
     0
 10
294.12
 20
16.8272
 30
0.0
 11
293.321
 21
16.8272
 31
0.0
  0
LINE
  8
0
 62
     0
 10
293.321
 20
16.8272
 30
0.0
 11
293.321
 21
22.7762
 31
0.0
  0
LINE
  8
0
 62
     0
 10
293.321
 20
22.7762
 30
0.0
 11
294.12
 21
22.7762
 31
0.0
  0
LINE
  8
0
 62
     0
 10
294.12
 20
22.7762
 30
0.0
 11
294.12
 21
25.7266
 31
0.0
  0
LINE
  8
0
 62
     0
 10
294.12
 20
25.7266
 30
0.0
 11
293.321
 21
25.7266
 31
0.0
  0
LINE
  8
0
 62
     0
 10
293.321
 20
25.7266
 30
0.0
 11
293.321
 21
26.727
 31
0.0
  0
LINE
  8
0
 62
     0
 10
293.321
 20
26.727
 30
0.0
 11
279.47
 21
26.727
 31
0.0
  0
LINE
  8
0
 62
     0
 10
12.7703
 20
45.7771
 30
0.0
 11
12.7703
 21
44.7767
 31
0.0
  0
LINE
  8
0
 62
     0
 10
12.7703
 20
44.7767
 30
0.0
 11
11.971
 21
44.7767
 31
0.0
  0
LINE
  8
0
 62
     0
 10
11.971
 20
44.7767
 30
0.0
 11
11.971
 21
41.8264
 31
0.0
  0
LINE
  8
0
 62
     0
 10
11.971
 20
41.8264
 30
0.0
 11
12.7703
 21
41.8264
 31
0.0
  0
LINE
  8
0
 62
     0
 10
12.7703
 20
41.8264
 30
0.0
 11
12.7703
 21
35.8771
 31
0.0
  0
LINE
  8
0
 62
     0
 10
12.7703
 20
35.8771
 30
0.0
 11
11.971
 21
35.8771
 31
0.0
  0
LINE
  8
0
 62
     0
 10
11.971
 20
35.8771
 30
0.0
 11
11.971
 21
32.9268
 31
0.0
  0
LINE
  8
0
 62
     0
 10
11.971
 20
32.9268
 30
0.0
 11
12.7703
 21
32.9268
 31
0.0
  0
LINE
  8
0
 62
     0
 10
12.7703
 20
32.9268
 30
0.0
 11
12.7703
 21
31.9264
 31
0.0
  0
LINE
  8
0
 62
     0
 10
12.7703
 20
31.9264
 30
0.0
 11
26.6209
 21
31.9264
 31
0.0
  0
LINE
  8
0
 62
     0
 10
26.6209
 20
31.9264
 30
0.0
 11
26.6209
 21
32.9268
 31
0.0
  0
LINE
  8
0
 62
     0
 10
26.6209
 20
32.9268
 30
0.0
 11
27.4202
 21
32.9268
 31
0.0
  0
LINE
  8
0
 62
     0
 10
27.4202
 20
32.9268
 30
0.0
 11
27.4202
 21
35.8771
 31
0.0
  0
LINE
  8
0
 62
     0
 10
27.4202
 20
35.8771
 30
0.0
 11
26.6209
 21
35.8771
 31
0.0
  0
LINE
  8
0
 62
     0
 10
26.6209
 20
35.8771
 30
0.0
 11
26.6209
 21
41.8264
 31
0.0
  0
LINE
  8
0
 62
     0
 10
26.6209
 20
41.8264
 30
0.0
 11
27.4202
 21
41.8264
 31
0.0
  0
LINE
  8
0
 62
     0
 10
27.4202
 20
41.8264
 30
0.0
 11
27.4202
 21
44.7767
 31
0.0
  0
LINE
  8
0
 62
     0
 10
27.4202
 20
44.7767
 30
0.0
 11
26.6209
 21
44.7767
 31
0.0
  0
LINE
  8
0
 62
     0
 10
26.6209
 20
44.7767
 30
0.0
 11
26.6209
 21
45.7771
 31
0.0
  0
LINE
  8
0
 62
     0
 10
26.6209
 20
45.7771
 30
0.0
 11
12.7703
 21
45.7771
 31
0.0
  0
LINE
  8
0
 62
     0
 10
31.8203
 20
45.7771
 30
0.0
 11
31.8203
 21
44.7767
 31
0.0
  0
LINE
  8
0
 62
     0
 10
31.8203
 20
44.7767
 30
0.0
 11
31.021
 21
44.7767
 31
0.0
  0
LINE
  8
0
 62
     0
 10
31.021
 20
44.7767
 30
0.0
 11
31.021
 21
41.8264
 31
0.0
  0
LINE
  8
0
 62
     0
 10
31.021
 20
41.8264
 30
0.0
 11
31.8203
 21
41.8264
 31
0.0
  0
LINE
  8
0
 62
     0
 10
31.8203
 20
41.8264
 30
0.0
 11
31.8203
 21
35.8771
 31
0.0
  0
LINE
  8
0
 62
     0
 10
31.8203
 20
35.8771
 30
0.0
 11
31.021
 21
35.8771
 31
0.0
  0
LINE
  8
0
 62
     0
 10
31.021
 20
35.8771
 30
0.0
 11
31.021
 21
32.9268
 31
0.0
  0
LINE
  8
0
 62
     0
 10
31.021
 20
32.9268
 30
0.0
 11
31.8203
 21
32.9268
 31
0.0
  0
LINE
  8
0
 62
     0
 10
31.8203
 20
32.9268
 30
0.0
 11
31.8203
 21
31.9264
 31
0.0
  0
LINE
  8
0
 62
     0
 10
31.8203
 20
31.9264
 30
0.0
 11
45.671
 21
31.9264
 31
0.0
  0
LINE
  8
0
 62
     0
 10
45.671
 20
31.9264
 30
0.0
 11
45.671
 21
32.9268
 31
0.0
  0
LINE
  8
0
 62
     0
 10
45.671
 20
32.9268
 30
0.0
 11
46.4704
 21
32.9268
 31
0.0
  0
LINE
  8
0
 62
     0
 10
46.4704
 20
32.9268
 30
0.0
 11
46.4704
 21
35.8771
 31
0.0
  0
LINE
  8
0
 62
     0
 10
46.4704
 20
35.8771
 30
0.0
 11
45.671
 21
35.8771
 31
0.0
  0
LINE
  8
0
 62
     0
 10
45.671
 20
35.8771
 30
0.0
 11
45.671
 21
41.8264
 31
0.0
  0
LINE
  8
0
 62
     0
 10
45.671
 20
41.8264
 30
0.0
 11
46.4704
 21
41.8264
 31
0.0
  0
LINE
  8
0
 62
     0
 10
46.4704
 20
41.8264
 30
0.0
 11
46.4704
 21
44.7767
 31
0.0
  0
LINE
  8
0
 62
     0
 10
46.4704
 20
44.7767
 30
0.0
 11
45.671
 21
44.7767
 31
0.0
  0
LINE
  8
0
 62
     0
 10
45.671
 20
44.7767
 30
0.0
 11
45.671
 21
45.7771
 31
0.0
  0
LINE
  8
0
 62
     0
 10
45.671
 20
45.7771
 30
0.0
 11
31.8203
 21
45.7771
 31
0.0
  0
LINE
  8
0
 62
     0
 10
50.8702
 20
45.7771
 30
0.0
 11
50.8702
 21
44.7767
 31
0.0
  0
LINE
  8
0
 62
     0
 10
50.8702
 20
44.7767
 30
0.0
 11
50.0712
 21
44.7767
 31
0.0
  0
LINE
  8
0
 62
     0
 10
50.0712
 20
44.7767
 30
0.0
 11
50.0712
 21
41.8264
 31
0.0
  0
LINE
  8
0
 62
     0
 10
50.0712
 20
41.8264
 30
0.0
 11
50.8702
 21
41.8264
 31
0.0
  0
LINE
  8
0
 62
     0
 10
50.8702
 20
41.8264
 30
0.0
 11
50.8702
 21
35.8771
 31
0.0
  0
LINE
  8
0
 62
     0
 10
50.8702
 20
35.8771
 30
0.0
 11
50.0712
 21
35.8771
 31
0.0
  0
LINE
  8
0
 62
     0
 10
50.0712
 20
35.8771
 30
0.0
 11
50.0712
 21
32.9268
 31
0.0
  0
LINE
  8
0
 62
     0
 10
50.0712
 20
32.9268
 30
0.0
 11
50.8702
 21
32.9268
 31
0.0
  0
LINE
  8
0
 62
     0
 10
50.8702
 20
32.9268
 30
0.0
 11
50.8702
 21
31.9264
 31
0.0
  0
LINE
  8
0
 62
     0
 10
50.8702
 20
31.9264
 30
0.0
 11
64.721
 21
31.9264
 31
0.0
  0
LINE
  8
0
 62
     0
 10
64.721
 20
31.9264
 30
0.0
 11
64.721
 21
32.9268
 31
0.0
  0
LINE
  8
0
 62
     0
 10
64.721
 20
32.9268
 30
0.0
 11
65.5204
 21
32.9268
 31
0.0
  0
LINE
  8
0
 62
     0
 10
65.5204
 20
32.9268
 30
0.0
 11
65.5204
 21
35.8771
 31
0.0
  0
LINE
  8
0
 62
     0
 10
65.5204
 20
35.8771
 30
0.0
 11
64.721
 21
35.8771
 31
0.0
  0
LINE
  8
0
 62
     0
 10
64.721
 20
35.8771
 30
0.0
 11
64.721
 21
41.8264
 31
0.0
  0
LINE
  8
0
 62
     0
 10
64.721
 20
41.8264
 30
0.0
 11
65.5204
 21
41.8264
 31
0.0
  0
LINE
  8
0
 62
     0
 10
65.5204
 20
41.8264
 30
0.0
 11
65.5204
 21
44.7767
 31
0.0
  0
LINE
  8
0
 62
     0
 10
65.5204
 20
44.7767
 30
0.0
 11
64.721
 21
44.7767
 31
0.0
  0
LINE
  8
0
 62
     0
 10
64.721
 20
44.7767
 30
0.0
 11
64.721
 21
45.7771
 31
0.0
  0
LINE
  8
0
 62
     0
 10
64.721
 20
45.7771
 30
0.0
 11
50.8702
 21
45.7771
 31
0.0
  0
LINE
  8
0
 62
     0
 10
69.9202
 20
45.7771
 30
0.0
 11
69.9202
 21
44.7767
 31
0.0
  0
LINE
  8
0
 62
     0
 10
69.9202
 20
44.7767
 30
0.0
 11
69.1212
 21
44.7767
 31
0.0
  0
LINE
  8
0
 62
     0
 10
69.1212
 20
44.7767
 30
0.0
 11
69.1212
 21
41.8264
 31
0.0
  0
LINE
  8
0
 62
     0
 10
69.1212
 20
41.8264
 30
0.0
 11
69.9202
 21
41.8264
 31
0.0
  0
LINE
  8
0
 62
     0
 10
69.9202
 20
41.8264
 30
0.0
 11
69.9202
 21
35.8771
 31
0.0
  0
LINE
  8
0
 62
     0
 10
69.9202
 20
35.8771
 30
0.0
 11
69.1212
 21
35.8771
 31
0.0
  0
LINE
  8
0
 62
     0
 10
69.1212
 20
35.8771
 30
0.0
 11
69.1212
 21
32.9268
 31
0.0
  0
LINE
  8
0
 62
     0
 10
69.1212
 20
32.9268
 30
0.0
 11
69.9202
 21
32.9268
 31
0.0
  0
LINE
  8
0
 62
     0
 10
69.9202
 20
32.9268
 30
0.0
 11
69.9202
 21
31.9264
 31
0.0
  0
LINE
  8
0
 62
     0
 10
69.9202
 20
31.9264
 30
0.0
 11
83.771
 21
31.9264
 31
0.0
  0
LINE
  8
0
 62
     0
 10
83.771
 20
31.9264
 30
0.0
 11
83.771
 21
32.9268
 31
0.0
  0
LINE
  8
0
 62
     0
 10
83.771
 20
32.9268
 30
0.0
 11
84.5704
 21
32.9268
 31
0.0
  0
LINE
  8
0
 62
     0
 10
84.5704
 20
32.9268
 30
0.0
 11
84.5704
 21
35.8771
 31
0.0
  0
LINE
  8
0
 62
     0
 10
84.5704
 20
35.8771
 30
0.0
 11
83.771
 21
35.8771
 31
0.0
  0
LINE
  8
0
 62
     0
 10
83.771
 20
35.8771
 30
0.0
 11
83.771
 21
41.8264
 31
0.0
  0
LINE
  8
0
 62
     0
 10
83.771
 20
41.8264
 30
0.0
 11
84.5704
 21
41.8264
 31
0.0
  0
LINE
  8
0
 62
     0
 10
84.5704
 20
41.8264
 30
0.0
 11
84.5704
 21
44.7767
 31
0.0
  0
LINE
  8
0
 62
     0
 10
84.5704
 20
44.7767
 30
0.0
 11
83.771
 21
44.7767
 31
0.0
  0
LINE
  8
0
 62
     0
 10
83.771
 20
44.7767
 30
0.0
 11
83.771
 21
45.7771
 31
0.0
  0
LINE
  8
0
 62
     0
 10
83.771
 20
45.7771
 30
0.0
 11
69.9202
 21
45.7771
 31
0.0
  0
LINE
  8
0
 62
     0
 10
88.9702
 20
45.7771
 30
0.0
 11
88.9702
 21
44.7767
 31
0.0
  0
LINE
  8
0
 62
     0
 10
88.9702
 20
44.7767
 30
0.0
 11
88.1712
 21
44.7767
 31
0.0
  0
LINE
  8
0
 62
     0
 10
88.1712
 20
44.7767
 30
0.0
 11
88.1712
 21
41.8264
 31
0.0
  0
LINE
  8
0
 62
     0
 10
88.1712
 20
41.8264
 30
0.0
 11
88.9702
 21
41.8264
 31
0.0
  0
LINE
  8
0
 62
     0
 10
88.9702
 20
41.8264
 30
0.0
 11
88.9702
 21
35.8771
 31
0.0
  0
LINE
  8
0
 62
     0
 10
88.9702
 20
35.8771
 30
0.0
 11
88.1712
 21
35.8771
 31
0.0
  0
LINE
  8
0
 62
     0
 10
88.1712
 20
35.8771
 30
0.0
 11
88.1712
 21
32.9268
 31
0.0
  0
LINE
  8
0
 62
     0
 10
88.1712
 20
32.9268
 30
0.0
 11
88.9702
 21
32.9268
 31
0.0
  0
LINE
  8
0
 62
     0
 10
88.9702
 20
32.9268
 30
0.0
 11
88.9702
 21
31.9264
 31
0.0
  0
LINE
  8
0
 62
     0
 10
88.9702
 20
31.9264
 30
0.0
 11
102.821
 21
31.9264
 31
0.0
  0
LINE
  8
0
 62
     0
 10
102.821
 20
31.9264
 30
0.0
 11
102.821
 21
32.9268
 31
0.0
  0
LINE
  8
0
 62
     0
 10
102.821
 20
32.9268
 30
0.0
 11
103.619
 21
32.9268
 31
0.0
  0
LINE
  8
0
 62
     0
 10
103.619
 20
32.9268
 30
0.0
 11
103.619
 21
35.8771
 31
0.0
  0
LINE
  8
0
 62
     0
 10
103.619
 20
35.8771
 30
0.0
 11
102.821
 21
35.8771
 31
0.0
  0
LINE
  8
0
 62
     0
 10
102.821
 20
35.8771
 30
0.0
 11
102.821
 21
41.8264
 31
0.0
  0
LINE
  8
0
 62
     0
 10
102.821
 20
41.8264
 30
0.0
 11
103.619
 21
41.8264
 31
0.0
  0
LINE
  8
0
 62
     0
 10
103.619
 20
41.8264
 30
0.0
 11
103.619
 21
44.7767
 31
0.0
  0
LINE
  8
0
 62
     0
 10
103.619
 20
44.7767
 30
0.0
 11
102.821
 21
44.7767
 31
0.0
  0
LINE
  8
0
 62
     0
 10
102.821
 20
44.7767
 30
0.0
 11
102.821
 21
45.7771
 31
0.0
  0
LINE
  8
0
 62
     0
 10
102.821
 20
45.7771
 30
0.0
 11
88.9702
 21
45.7771
 31
0.0
  0
LINE
  8
0
 62
     0
 10
108.02
 20
45.7771
 30
0.0
 11
108.02
 21
44.7767
 31
0.0
  0
LINE
  8
0
 62
     0
 10
108.02
 20
44.7767
 30
0.0
 11
107.221
 21
44.7767
 31
0.0
  0
LINE
  8
0
 62
     0
 10
107.221
 20
44.7767
 30
0.0
 11
107.221
 21
41.8264
 31
0.0
  0
LINE
  8
0
 62
     0
 10
107.221
 20
41.8264
 30
0.0
 11
108.02
 21
41.8264
 31
0.0
  0
LINE
  8
0
 62
     0
 10
108.02
 20
41.8264
 30
0.0
 11
108.02
 21
35.8771
 31
0.0
  0
LINE
  8
0
 62
     0
 10
108.02
 20
35.8771
 30
0.0
 11
107.221
 21
35.8771
 31
0.0
  0
LINE
  8
0
 62
     0
 10
107.221
 20
35.8771
 30
0.0
 11
107.221
 21
32.9268
 31
0.0
  0
LINE
  8
0
 62
     0
 10
107.221
 20
32.9268
 30
0.0
 11
108.02
 21
32.9268
 31
0.0
  0
LINE
  8
0
 62
     0
 10
108.02
 20
32.9268
 30
0.0
 11
108.02
 21
31.9264
 31
0.0
  0
LINE
  8
0
 62
     0
 10
108.02
 20
31.9264
 30
0.0
 11
121.87
 21
31.9264
 31
0.0
  0
LINE
  8
0
 62
     0
 10
121.87
 20
31.9264
 30
0.0
 11
121.87
 21
32.9268
 31
0.0
  0
LINE
  8
0
 62
     0
 10
121.87
 20
32.9268
 30
0.0
 11
122.669
 21
32.9268
 31
0.0
  0
LINE
  8
0
 62
     0
 10
122.669
 20
32.9268
 30
0.0
 11
122.669
 21
35.8771
 31
0.0
  0
LINE
  8
0
 62
     0
 10
122.669
 20
35.8771
 30
0.0
 11
121.87
 21
35.8771
 31
0.0
  0
LINE
  8
0
 62
     0
 10
121.87
 20
35.8771
 30
0.0
 11
121.87
 21
41.8264
 31
0.0
  0
LINE
  8
0
 62
     0
 10
121.87
 20
41.8264
 30
0.0
 11
122.669
 21
41.8264
 31
0.0
  0
LINE
  8
0
 62
     0
 10
122.669
 20
41.8264
 30
0.0
 11
122.669
 21
44.7767
 31
0.0
  0
LINE
  8
0
 62
     0
 10
122.669
 20
44.7767
 30
0.0
 11
121.87
 21
44.7767
 31
0.0
  0
LINE
  8
0
 62
     0
 10
121.87
 20
44.7767
 30
0.0
 11
121.87
 21
45.7771
 31
0.0
  0
LINE
  8
0
 62
     0
 10
121.87
 20
45.7771
 30
0.0
 11
108.02
 21
45.7771
 31
0.0
  0
LINE
  8
0
 62
     0
 10
127.07
 20
45.7771
 30
0.0
 11
127.07
 21
44.7767
 31
0.0
  0
LINE
  8
0
 62
     0
 10
127.07
 20
44.7767
 30
0.0
 11
126.271
 21
44.7767
 31
0.0
  0
LINE
  8
0
 62
     0
 10
126.271
 20
44.7767
 30
0.0
 11
126.271
 21
41.8264
 31
0.0
  0
LINE
  8
0
 62
     0
 10
126.271
 20
41.8264
 30
0.0
 11
127.07
 21
41.8264
 31
0.0
  0
LINE
  8
0
 62
     0
 10
127.07
 20
41.8264
 30
0.0
 11
127.07
 21
35.8771
 31
0.0
  0
LINE
  8
0
 62
     0
 10
127.07
 20
35.8771
 30
0.0
 11
126.271
 21
35.8771
 31
0.0
  0
LINE
  8
0
 62
     0
 10
126.271
 20
35.8771
 30
0.0
 11
126.271
 21
32.9268
 31
0.0
  0
LINE
  8
0
 62
     0
 10
126.271
 20
32.9268
 30
0.0
 11
127.07
 21
32.9268
 31
0.0
  0
LINE
  8
0
 62
     0
 10
127.07
 20
32.9268
 30
0.0
 11
127.07
 21
31.9264
 31
0.0
  0
LINE
  8
0
 62
     0
 10
127.07
 20
31.9264
 30
0.0
 11
140.921
 21
31.9264
 31
0.0
  0
LINE
  8
0
 62
     0
 10
140.921
 20
31.9264
 30
0.0
 11
140.921
 21
32.9268
 31
0.0
  0
LINE
  8
0
 62
     0
 10
140.921
 20
32.9268
 30
0.0
 11
141.72
 21
32.9268
 31
0.0
  0
LINE
  8
0
 62
     0
 10
141.72
 20
32.9268
 30
0.0
 11
141.72
 21
35.8771
 31
0.0
  0
LINE
  8
0
 62
     0
 10
141.72
 20
35.8771
 30
0.0
 11
140.921
 21
35.8771
 31
0.0
  0
LINE
  8
0
 62
     0
 10
140.921
 20
35.8771
 30
0.0
 11
140.921
 21
41.8264
 31
0.0
  0
LINE
  8
0
 62
     0
 10
140.921
 20
41.8264
 30
0.0
 11
141.72
 21
41.8264
 31
0.0
  0
LINE
  8
0
 62
     0
 10
141.72
 20
41.8264
 30
0.0
 11
141.72
 21
44.7767
 31
0.0
  0
LINE
  8
0
 62
     0
 10
141.72
 20
44.7767
 30
0.0
 11
140.921
 21
44.7767
 31
0.0
  0
LINE
  8
0
 62
     0
 10
140.921
 20
44.7767
 30
0.0
 11
140.921
 21
45.7771
 31
0.0
  0
LINE
  8
0
 62
     0
 10
140.921
 20
45.7771
 30
0.0
 11
127.07
 21
45.7771
 31
0.0
  0
LINE
  8
0
 62
     0
 10
146.12
 20
45.7771
 30
0.0
 11
146.12
 21
44.7767
 31
0.0
  0
LINE
  8
0
 62
     0
 10
146.12
 20
44.7767
 30
0.0
 11
145.321
 21
44.7767
 31
0.0
  0
LINE
  8
0
 62
     0
 10
145.321
 20
44.7767
 30
0.0
 11
145.321
 21
41.8264
 31
0.0
  0
LINE
  8
0
 62
     0
 10
145.321
 20
41.8264
 30
0.0
 11
146.12
 21
41.8264
 31
0.0
  0
LINE
  8
0
 62
     0
 10
146.12
 20
41.8264
 30
0.0
 11
146.12
 21
35.8771
 31
0.0
  0
LINE
  8
0
 62
     0
 10
146.12
 20
35.8771
 30
0.0
 11
145.321
 21
35.8771
 31
0.0
  0
LINE
  8
0
 62
     0
 10
145.321
 20
35.8771
 30
0.0
 11
145.321
 21
32.9268
 31
0.0
  0
LINE
  8
0
 62
     0
 10
145.321
 20
32.9268
 30
0.0
 11
146.12
 21
32.9268
 31
0.0
  0
LINE
  8
0
 62
     0
 10
146.12
 20
32.9268
 30
0.0
 11
146.12
 21
31.9264
 31
0.0
  0
LINE
  8
0
 62
     0
 10
146.12
 20
31.9264
 30
0.0
 11
159.971
 21
31.9264
 31
0.0
  0
LINE
  8
0
 62
     0
 10
159.971
 20
31.9264
 30
0.0
 11
159.971
 21
32.9268
 31
0.0
  0
LINE
  8
0
 62
     0
 10
159.971
 20
32.9268
 30
0.0
 11
160.77
 21
32.9268
 31
0.0
  0
LINE
  8
0
 62
     0
 10
160.77
 20
32.9268
 30
0.0
 11
160.77
 21
35.8771
 31
0.0
  0
LINE
  8
0
 62
     0
 10
160.77
 20
35.8771
 30
0.0
 11
159.971
 21
35.8771
 31
0.0
  0
LINE
  8
0
 62
     0
 10
159.971
 20
35.8771
 30
0.0
 11
159.971
 21
41.8264
 31
0.0
  0
LINE
  8
0
 62
     0
 10
159.971
 20
41.8264
 30
0.0
 11
160.77
 21
41.8264
 31
0.0
  0
LINE
  8
0
 62
     0
 10
160.77
 20
41.8264
 30
0.0
 11
160.77
 21
44.7767
 31
0.0
  0
LINE
  8
0
 62
     0
 10
160.77
 20
44.7767
 30
0.0
 11
159.971
 21
44.7767
 31
0.0
  0
LINE
  8
0
 62
     0
 10
159.971
 20
44.7767
 30
0.0
 11
159.971
 21
45.7771
 31
0.0
  0
LINE
  8
0
 62
     0
 10
159.971
 20
45.7771
 30
0.0
 11
146.12
 21
45.7771
 31
0.0
  0
LINE
  8
0
 62
     0
 10
165.17
 20
45.7771
 30
0.0
 11
165.17
 21
44.7767
 31
0.0
  0
LINE
  8
0
 62
     0
 10
165.17
 20
44.7767
 30
0.0
 11
164.371
 21
44.7767
 31
0.0
  0
LINE
  8
0
 62
     0
 10
164.371
 20
44.7767
 30
0.0
 11
164.371
 21
41.8264
 31
0.0
  0
LINE
  8
0
 62
     0
 10
164.371
 20
41.8264
 30
0.0
 11
165.17
 21
41.8264
 31
0.0
  0
LINE
  8
0
 62
     0
 10
165.17
 20
41.8264
 30
0.0
 11
165.17
 21
35.8771
 31
0.0
  0
LINE
  8
0
 62
     0
 10
165.17
 20
35.8771
 30
0.0
 11
164.371
 21
35.8771
 31
0.0
  0
LINE
  8
0
 62
     0
 10
164.371
 20
35.8771
 30
0.0
 11
164.371
 21
32.9268
 31
0.0
  0
LINE
  8
0
 62
     0
 10
164.371
 20
32.9268
 30
0.0
 11
165.17
 21
32.9268
 31
0.0
  0
LINE
  8
0
 62
     0
 10
165.17
 20
32.9268
 30
0.0
 11
165.17
 21
31.9264
 31
0.0
  0
LINE
  8
0
 62
     0
 10
165.17
 20
31.9264
 30
0.0
 11
179.021
 21
31.9264
 31
0.0
  0
LINE
  8
0
 62
     0
 10
179.021
 20
31.9264
 30
0.0
 11
179.021
 21
32.9268
 31
0.0
  0
LINE
  8
0
 62
     0
 10
179.021
 20
32.9268
 30
0.0
 11
179.82
 21
32.9268
 31
0.0
  0
LINE
  8
0
 62
     0
 10
179.82
 20
32.9268
 30
0.0
 11
179.82
 21
35.8771
 31
0.0
  0
LINE
  8
0
 62
     0
 10
179.82
 20
35.8771
 30
0.0
 11
179.021
 21
35.8771
 31
0.0
  0
LINE
  8
0
 62
     0
 10
179.021
 20
35.8771
 30
0.0
 11
179.021
 21
41.8264
 31
0.0
  0
LINE
  8
0
 62
     0
 10
179.021
 20
41.8264
 30
0.0
 11
179.82
 21
41.8264
 31
0.0
  0
LINE
  8
0
 62
     0
 10
179.82
 20
41.8264
 30
0.0
 11
179.82
 21
44.7767
 31
0.0
  0
LINE
  8
0
 62
     0
 10
179.82
 20
44.7767
 30
0.0
 11
179.021
 21
44.7767
 31
0.0
  0
LINE
  8
0
 62
     0
 10
179.021
 20
44.7767
 30
0.0
 11
179.021
 21
45.7771
 31
0.0
  0
LINE
  8
0
 62
     0
 10
179.021
 20
45.7771
 30
0.0
 11
165.17
 21
45.7771
 31
0.0
  0
LINE
  8
0
 62
     0
 10
184.22
 20
45.7771
 30
0.0
 11
184.22
 21
44.7767
 31
0.0
  0
LINE
  8
0
 62
     0
 10
184.22
 20
44.7767
 30
0.0
 11
183.421
 21
44.7767
 31
0.0
  0
LINE
  8
0
 62
     0
 10
183.421
 20
44.7767
 30
0.0
 11
183.421
 21
41.8264
 31
0.0
  0
LINE
  8
0
 62
     0
 10
183.421
 20
41.8264
 30
0.0
 11
184.22
 21
41.8264
 31
0.0
  0
LINE
  8
0
 62
     0
 10
184.22
 20
41.8264
 30
0.0
 11
184.22
 21
35.8771
 31
0.0
  0
LINE
  8
0
 62
     0
 10
184.22
 20
35.8771
 30
0.0
 11
183.421
 21
35.8771
 31
0.0
  0
LINE
  8
0
 62
     0
 10
183.421
 20
35.8771
 30
0.0
 11
183.421
 21
32.9268
 31
0.0
  0
LINE
  8
0
 62
     0
 10
183.421
 20
32.9268
 30
0.0
 11
184.22
 21
32.9268
 31
0.0
  0
LINE
  8
0
 62
     0
 10
184.22
 20
32.9268
 30
0.0
 11
184.22
 21
31.9264
 31
0.0
  0
LINE
  8
0
 62
     0
 10
184.22
 20
31.9264
 30
0.0
 11
198.071
 21
31.9264
 31
0.0
  0
LINE
  8
0
 62
     0
 10
198.071
 20
31.9264
 30
0.0
 11
198.071
 21
32.9268
 31
0.0
  0
LINE
  8
0
 62
     0
 10
198.071
 20
32.9268
 30
0.0
 11
198.87
 21
32.9268
 31
0.0
  0
LINE
  8
0
 62
     0
 10
198.87
 20
32.9268
 30
0.0
 11
198.87
 21
35.8771
 31
0.0
  0
LINE
  8
0
 62
     0
 10
198.87
 20
35.8771
 30
0.0
 11
198.071
 21
35.8771
 31
0.0
  0
LINE
  8
0
 62
     0
 10
198.071
 20
35.8771
 30
0.0
 11
198.071
 21
41.8264
 31
0.0
  0
LINE
  8
0
 62
     0
 10
198.071
 20
41.8264
 30
0.0
 11
198.87
 21
41.8264
 31
0.0
  0
LINE
  8
0
 62
     0
 10
198.87
 20
41.8264
 30
0.0
 11
198.87
 21
44.7767
 31
0.0
  0
LINE
  8
0
 62
     0
 10
198.87
 20
44.7767
 30
0.0
 11
198.071
 21
44.7767
 31
0.0
  0
LINE
  8
0
 62
     0
 10
198.071
 20
44.7767
 30
0.0
 11
198.071
 21
45.7771
 31
0.0
  0
LINE
  8
0
 62
     0
 10
198.071
 20
45.7771
 30
0.0
 11
184.22
 21
45.7771
 31
0.0
  0
LINE
  8
0
 62
     0
 10
203.27
 20
45.7771
 30
0.0
 11
203.27
 21
44.7767
 31
0.0
  0
LINE
  8
0
 62
     0
 10
203.27
 20
44.7767
 30
0.0
 11
202.471
 21
44.7767
 31
0.0
  0
LINE
  8
0
 62
     0
 10
202.471
 20
44.7767
 30
0.0
 11
202.471
 21
41.8264
 31
0.0
  0
LINE
  8
0
 62
     0
 10
202.471
 20
41.8264
 30
0.0
 11
203.27
 21
41.8264
 31
0.0
  0
LINE
  8
0
 62
     0
 10
203.27
 20
41.8264
 30
0.0
 11
203.27
 21
35.8771
 31
0.0
  0
LINE
  8
0
 62
     0
 10
203.27
 20
35.8771
 30
0.0
 11
202.471
 21
35.8771
 31
0.0
  0
LINE
  8
0
 62
     0
 10
202.471
 20
35.8771
 30
0.0
 11
202.471
 21
32.9268
 31
0.0
  0
LINE
  8
0
 62
     0
 10
202.471
 20
32.9268
 30
0.0
 11
203.27
 21
32.9268
 31
0.0
  0
LINE
  8
0
 62
     0
 10
203.27
 20
32.9268
 30
0.0
 11
203.27
 21
31.9264
 31
0.0
  0
LINE
  8
0
 62
     0
 10
203.27
 20
31.9264
 30
0.0
 11
217.121
 21
31.9264
 31
0.0
  0
LINE
  8
0
 62
     0
 10
217.121
 20
31.9264
 30
0.0
 11
217.121
 21
32.9268
 31
0.0
  0
LINE
  8
0
 62
     0
 10
217.121
 20
32.9268
 30
0.0
 11
217.92
 21
32.9268
 31
0.0
  0
LINE
  8
0
 62
     0
 10
217.92
 20
32.9268
 30
0.0
 11
217.92
 21
35.8771
 31
0.0
  0
LINE
  8
0
 62
     0
 10
217.92
 20
35.8771
 30
0.0
 11
217.121
 21
35.8771
 31
0.0
  0
LINE
  8
0
 62
     0
 10
217.121
 20
35.8771
 30
0.0
 11
217.121
 21
41.8264
 31
0.0
  0
LINE
  8
0
 62
     0
 10
217.121
 20
41.8264
 30
0.0
 11
217.92
 21
41.8264
 31
0.0
  0
LINE
  8
0
 62
     0
 10
217.92
 20
41.8264
 30
0.0
 11
217.92
 21
44.7767
 31
0.0
  0
LINE
  8
0
 62
     0
 10
217.92
 20
44.7767
 30
0.0
 11
217.121
 21
44.7767
 31
0.0
  0
LINE
  8
0
 62
     0
 10
217.121
 20
44.7767
 30
0.0
 11
217.121
 21
45.7771
 31
0.0
  0
LINE
  8
0
 62
     0
 10
217.121
 20
45.7771
 30
0.0
 11
203.27
 21
45.7771
 31
0.0
  0
LINE
  8
0
 62
     0
 10
222.32
 20
45.7771
 30
0.0
 11
222.32
 21
44.7767
 31
0.0
  0
LINE
  8
0
 62
     0
 10
222.32
 20
44.7767
 30
0.0
 11
221.521
 21
44.7767
 31
0.0
  0
LINE
  8
0
 62
     0
 10
221.521
 20
44.7767
 30
0.0
 11
221.521
 21
41.8264
 31
0.0
  0
LINE
  8
0
 62
     0
 10
221.521
 20
41.8264
 30
0.0
 11
222.32
 21
41.8264
 31
0.0
  0
LINE
  8
0
 62
     0
 10
222.32
 20
41.8264
 30
0.0
 11
222.32
 21
35.8771
 31
0.0
  0
LINE
  8
0
 62
     0
 10
222.32
 20
35.8771
 30
0.0
 11
221.521
 21
35.8771
 31
0.0
  0
LINE
  8
0
 62
     0
 10
221.521
 20
35.8771
 30
0.0
 11
221.521
 21
32.9268
 31
0.0
  0
LINE
  8
0
 62
     0
 10
221.521
 20
32.9268
 30
0.0
 11
222.32
 21
32.9268
 31
0.0
  0
LINE
  8
0
 62
     0
 10
222.32
 20
32.9268
 30
0.0
 11
222.32
 21
31.9264
 31
0.0
  0
LINE
  8
0
 62
     0
 10
222.32
 20
31.9264
 30
0.0
 11
236.171
 21
31.9264
 31
0.0
  0
LINE
  8
0
 62
     0
 10
236.171
 20
31.9264
 30
0.0
 11
236.171
 21
32.9268
 31
0.0
  0
LINE
  8
0
 62
     0
 10
236.171
 20
32.9268
 30
0.0
 11
236.97
 21
32.9268
 31
0.0
  0
LINE
  8
0
 62
     0
 10
236.97
 20
32.9268
 30
0.0
 11
236.97
 21
35.8771
 31
0.0
  0
LINE
  8
0
 62
     0
 10
236.97
 20
35.8771
 30
0.0
 11
236.171
 21
35.8771
 31
0.0
  0
LINE
  8
0
 62
     0
 10
236.171
 20
35.8771
 30
0.0
 11
236.171
 21
41.8264
 31
0.0
  0
LINE
  8
0
 62
     0
 10
236.171
 20
41.8264
 30
0.0
 11
236.97
 21
41.8264
 31
0.0
  0
LINE
  8
0
 62
     0
 10
236.97
 20
41.8264
 30
0.0
 11
236.97
 21
44.7767
 31
0.0
  0
LINE
  8
0
 62
     0
 10
236.97
 20
44.7767
 30
0.0
 11
236.171
 21
44.7767
 31
0.0
  0
LINE
  8
0
 62
     0
 10
236.171
 20
44.7767
 30
0.0
 11
236.171
 21
45.7771
 31
0.0
  0
LINE
  8
0
 62
     0
 10
236.171
 20
45.7771
 30
0.0
 11
222.32
 21
45.7771
 31
0.0
  0
LINE
  8
0
 62
     0
 10
241.37
 20
45.7771
 30
0.0
 11
241.37
 21
44.7767
 31
0.0
  0
LINE
  8
0
 62
     0
 10
241.37
 20
44.7767
 30
0.0
 11
240.571
 21
44.7767
 31
0.0
  0
LINE
  8
0
 62
     0
 10
240.571
 20
44.7767
 30
0.0
 11
240.571
 21
41.8264
 31
0.0
  0
LINE
  8
0
 62
     0
 10
240.571
 20
41.8264
 30
0.0
 11
241.37
 21
41.8264
 31
0.0
  0
LINE
  8
0
 62
     0
 10
241.37
 20
41.8264
 30
0.0
 11
241.37
 21
35.8771
 31
0.0
  0
LINE
  8
0
 62
     0
 10
241.37
 20
35.8771
 30
0.0
 11
240.571
 21
35.8771
 31
0.0
  0
LINE
  8
0
 62
     0
 10
240.571
 20
35.8771
 30
0.0
 11
240.571
 21
32.9268
 31
0.0
  0
LINE
  8
0
 62
     0
 10
240.571
 20
32.9268
 30
0.0
 11
241.37
 21
32.9268
 31
0.0
  0
LINE
  8
0
 62
     0
 10
241.37
 20
32.9268
 30
0.0
 11
241.37
 21
31.9264
 31
0.0
  0
LINE
  8
0
 62
     0
 10
241.37
 20
31.9264
 30
0.0
 11
255.221
 21
31.9264
 31
0.0
  0
LINE
  8
0
 62
     0
 10
255.221
 20
31.9264
 30
0.0
 11
255.221
 21
32.9268
 31
0.0
  0
LINE
  8
0
 62
     0
 10
255.221
 20
32.9268
 30
0.0
 11
256.02
 21
32.9268
 31
0.0
  0
LINE
  8
0
 62
     0
 10
256.02
 20
32.9268
 30
0.0
 11
256.02
 21
35.8771
 31
0.0
  0
LINE
  8
0
 62
     0
 10
256.02
 20
35.8771
 30
0.0
 11
255.221
 21
35.8771
 31
0.0
  0
LINE
  8
0
 62
     0
 10
255.221
 20
35.8771
 30
0.0
 11
255.221
 21
41.8264
 31
0.0
  0
LINE
  8
0
 62
     0
 10
255.221
 20
41.8264
 30
0.0
 11
256.02
 21
41.8264
 31
0.0
  0
LINE
  8
0
 62
     0
 10
256.02
 20
41.8264
 30
0.0
 11
256.02
 21
44.7767
 31
0.0
  0
LINE
  8
0
 62
     0
 10
256.02
 20
44.7767
 30
0.0
 11
255.221
 21
44.7767
 31
0.0
  0
LINE
  8
0
 62
     0
 10
255.221
 20
44.7767
 30
0.0
 11
255.221
 21
45.7771
 31
0.0
  0
LINE
  8
0
 62
     0
 10
255.221
 20
45.7771
 30
0.0
 11
241.37
 21
45.7771
 31
0.0
  0
LINE
  8
0
 62
     0
 10
260.42
 20
45.7771
 30
0.0
 11
260.42
 21
44.7767
 31
0.0
  0
LINE
  8
0
 62
     0
 10
260.42
 20
44.7767
 30
0.0
 11
259.621
 21
44.7767
 31
0.0
  0
LINE
  8
0
 62
     0
 10
259.621
 20
44.7767
 30
0.0
 11
259.621
 21
41.8264
 31
0.0
  0
LINE
  8
0
 62
     0
 10
259.621
 20
41.8264
 30
0.0
 11
260.42
 21
41.8264
 31
0.0
  0
LINE
  8
0
 62
     0
 10
260.42
 20
41.8264
 30
0.0
 11
260.42
 21
35.8771
 31
0.0
  0
LINE
  8
0
 62
     0
 10
260.42
 20
35.8771
 30
0.0
 11
259.621
 21
35.8771
 31
0.0
  0
LINE
  8
0
 62
     0
 10
259.621
 20
35.8771
 30
0.0
 11
259.621
 21
32.9268
 31
0.0
  0
LINE
  8
0
 62
     0
 10
259.621
 20
32.9268
 30
0.0
 11
260.42
 21
32.9268
 31
0.0
  0
LINE
  8
0
 62
     0
 10
260.42
 20
32.9268
 30
0.0
 11
260.42
 21
31.9264
 31
0.0
  0
LINE
  8
0
 62
     0
 10
260.42
 20
31.9264
 30
0.0
 11
274.271
 21
31.9264
 31
0.0
  0
LINE
  8
0
 62
     0
 10
274.271
 20
31.9264
 30
0.0
 11
274.271
 21
32.9268
 31
0.0
  0
LINE
  8
0
 62
     0
 10
274.271
 20
32.9268
 30
0.0
 11
275.07
 21
32.9268
 31
0.0
  0
LINE
  8
0
 62
     0
 10
275.07
 20
32.9268
 30
0.0
 11
275.07
 21
35.8771
 31
0.0
  0
LINE
  8
0
 62
     0
 10
275.07
 20
35.8771
 30
0.0
 11
274.271
 21
35.8771
 31
0.0
  0
LINE
  8
0
 62
     0
 10
274.271
 20
35.8771
 30
0.0
 11
274.271
 21
41.8264
 31
0.0
  0
LINE
  8
0
 62
     0
 10
274.271
 20
41.8264
 30
0.0
 11
275.07
 21
41.8264
 31
0.0
  0
LINE
  8
0
 62
     0
 10
275.07
 20
41.8264
 30
0.0
 11
275.07
 21
44.7767
 31
0.0
  0
LINE
  8
0
 62
     0
 10
275.07
 20
44.7767
 30
0.0
 11
274.271
 21
44.7767
 31
0.0
  0
LINE
  8
0
 62
     0
 10
274.271
 20
44.7767
 30
0.0
 11
274.271
 21
45.7771
 31
0.0
  0
LINE
  8
0
 62
     0
 10
274.271
 20
45.7771
 30
0.0
 11
260.42
 21
45.7771
 31
0.0
  0
LINE
  8
0
 62
     0
 10
279.47
 20
45.7771
 30
0.0
 11
279.47
 21
44.7767
 31
0.0
  0
LINE
  8
0
 62
     0
 10
279.47
 20
44.7767
 30
0.0
 11
278.671
 21
44.7767
 31
0.0
  0
LINE
  8
0
 62
     0
 10
278.671
 20
44.7767
 30
0.0
 11
278.671
 21
41.8264
 31
0.0
  0
LINE
  8
0
 62
     0
 10
278.671
 20
41.8264
 30
0.0
 11
279.47
 21
41.8264
 31
0.0
  0
LINE
  8
0
 62
     0
 10
279.47
 20
41.8264
 30
0.0
 11
279.47
 21
35.8771
 31
0.0
  0
LINE
  8
0
 62
     0
 10
279.47
 20
35.8771
 30
0.0
 11
278.671
 21
35.8771
 31
0.0
  0
LINE
  8
0
 62
     0
 10
278.671
 20
35.8771
 30
0.0
 11
278.671
 21
32.9268
 31
0.0
  0
LINE
  8
0
 62
     0
 10
278.671
 20
32.9268
 30
0.0
 11
279.47
 21
32.9268
 31
0.0
  0
LINE
  8
0
 62
     0
 10
279.47
 20
32.9268
 30
0.0
 11
279.47
 21
31.9264
 31
0.0
  0
LINE
  8
0
 62
     0
 10
279.47
 20
31.9264
 30
0.0
 11
293.321
 21
31.9264
 31
0.0
  0
LINE
  8
0
 62
     0
 10
293.321
 20
31.9264
 30
0.0
 11
293.321
 21
32.9268
 31
0.0
  0
LINE
  8
0
 62
     0
 10
293.321
 20
32.9268
 30
0.0
 11
294.12
 21
32.9268
 31
0.0
  0
LINE
  8
0
 62
     0
 10
294.12
 20
32.9268
 30
0.0
 11
294.12
 21
35.8771
 31
0.0
  0
LINE
  8
0
 62
     0
 10
294.12
 20
35.8771
 30
0.0
 11
293.321
 21
35.8771
 31
0.0
  0
LINE
  8
0
 62
     0
 10
293.321
 20
35.8771
 30
0.0
 11
293.321
 21
41.8264
 31
0.0
  0
LINE
  8
0
 62
     0
 10
293.321
 20
41.8264
 30
0.0
 11
294.12
 21
41.8264
 31
0.0
  0
LINE
  8
0
 62
     0
 10
294.12
 20
41.8264
 30
0.0
 11
294.12
 21
44.7767
 31
0.0
  0
LINE
  8
0
 62
     0
 10
294.12
 20
44.7767
 30
0.0
 11
293.321
 21
44.7767
 31
0.0
  0
LINE
  8
0
 62
     0
 10
293.321
 20
44.7767
 30
0.0
 11
293.321
 21
45.7771
 31
0.0
  0
LINE
  8
0
 62
     0
 10
293.321
 20
45.7771
 30
0.0
 11
279.47
 21
45.7771
 31
0.0
  0
LINE
  8
0
 62
     0
 10
250.895
 20
64.8271
 30
0.0
 11
250.895
 21
63.8267
 31
0.0
  0
LINE
  8
0
 62
     0
 10
250.895
 20
63.8267
 30
0.0
 11
250.096
 21
63.8267
 31
0.0
  0
LINE
  8
0
 62
     0
 10
250.096
 20
63.8267
 30
0.0
 11
250.096
 21
60.8764
 31
0.0
  0
LINE
  8
0
 62
     0
 10
250.096
 20
60.8764
 30
0.0
 11
250.895
 21
60.8764
 31
0.0
  0
LINE
  8
0
 62
     0
 10
250.895
 20
60.8764
 30
0.0
 11
250.895
 21
60.1267
 31
0.0
  0
LINE
  8
0
 62
     0
 10
250.895
 20
60.1267
 30
0.0
 11
249.221
 21
60.1267
 31
0.0
  0
LINE
  8
0
 62
     0
 10
249.221
 20
60.1267
 30
0.0
 11
249.221
 21
63.3568
 31
0.0
  0
LINE
  8
0
 62
     0
 10
249.221
 20
63.3568
 30
0.0
 11
242.62
 21
63.3568
 31
0.0
  0
LINE
  8
0
 62
     0
 10
242.62
 20
63.3568
 30
0.0
 11
242.62
 21
60.1267
 31
0.0
  0
LINE
  8
0
 62
     0
 10
242.62
 20
60.1267
 30
0.0
 11
241.796
 21
60.1267
 31
0.0
  0
LINE
  8
0
 62
     0
 10
241.796
 20
60.1267
 30
0.0
 11
241.796
 21
57.4767
 31
0.0
  0
LINE
  8
0
 62
     0
 10
241.796
 20
57.4767
 30
0.0
 11
242.62
 21
57.4767
 31
0.0
  0
LINE
  8
0
 62
     0
 10
242.62
 20
57.4767
 30
0.0
 11
242.62
 21
51.2064
 31
0.0
  0
LINE
  8
0
 62
     0
 10
242.62
 20
51.2064
 30
0.0
 11
244.346
 21
51.2064
 31
0.0
  0
LINE
  8
0
 62
     0
 10
244.346
 20
51.2064
 30
0.0
 11
244.346
 21
50.0063
 31
0.0
  0
LINE
  8
0
 62
     0
 10
244.346
 20
50.0063
 30
0.0
 11
247.496
 21
50.0063
 31
0.0
  0
LINE
  8
0
 62
     0
 10
247.496
 20
50.0063
 30
0.0
 11
247.496
 21
51.2064
 31
0.0
  0
LINE
  8
0
 62
     0
 10
247.496
 20
51.2064
 30
0.0
 11
249.221
 21
51.2064
 31
0.0
  0
LINE
  8
0
 62
     0
 10
249.221
 20
51.2064
 30
0.0
 11
249.221
 21
55.6768
 31
0.0
  0
LINE
  8
0
 62
     0
 10
249.221
 20
55.6768
 30
0.0
 11
250.895
 21
55.6768
 31
0.0
  0
LINE
  8
0
 62
     0
 10
250.895
 20
55.6768
 30
0.0
 11
250.895
 21
54.9271
 31
0.0
  0
LINE
  8
0
 62
     0
 10
250.895
 20
54.9271
 30
0.0
 11
250.096
 21
54.9271
 31
0.0
  0
LINE
  8
0
 62
     0
 10
250.096
 20
54.9271
 30
0.0
 11
250.096
 21
51.9769
 31
0.0
  0
LINE
  8
0
 62
     0
 10
250.096
 20
51.9769
 30
0.0
 11
250.895
 21
51.9769
 31
0.0
  0
LINE
  8
0
 62
     0
 10
250.895
 20
51.9769
 30
0.0
 11
250.895
 21
50.9764
 31
0.0
  0
LINE
  8
0
 62
     0
 10
250.895
 20
50.9764
 30
0.0
 11
264.746
 21
50.9764
 31
0.0
  0
LINE
  8
0
 62
     0
 10
264.746
 20
50.9764
 30
0.0
 11
264.746
 21
51.9769
 31
0.0
  0
LINE
  8
0
 62
     0
 10
264.746
 20
51.9769
 30
0.0
 11
265.545
 21
51.9769
 31
0.0
  0
LINE
  8
0
 62
     0
 10
265.545
 20
51.9769
 30
0.0
 11
265.545
 21
54.9271
 31
0.0
  0
LINE
  8
0
 62
     0
 10
265.545
 20
54.9271
 30
0.0
 11
264.746
 21
54.9271
 31
0.0
  0
LINE
  8
0
 62
     0
 10
264.746
 20
54.9271
 30
0.0
 11
264.746
 21
55.6768
 31
0.0
  0
LINE
  8
0
 62
     0
 10
264.746
 20
55.6768
 30
0.0
 11
266.42
 21
55.6768
 31
0.0
  0
LINE
  8
0
 62
     0
 10
266.42
 20
55.6768
 30
0.0
 11
266.42
 21
51.2064
 31
0.0
  0
LINE
  8
0
 62
     0
 10
266.42
 20
51.2064
 30
0.0
 11
268.146
 21
51.2064
 31
0.0
  0
LINE
  8
0
 62
     0
 10
268.146
 20
51.2064
 30
0.0
 11
268.146
 21
50.0063
 31
0.0
  0
LINE
  8
0
 62
     0
 10
268.146
 20
50.0063
 30
0.0
 11
271.296
 21
50.0063
 31
0.0
  0
LINE
  8
0
 62
     0
 10
271.296
 20
50.0063
 30
0.0
 11
271.296
 21
51.2064
 31
0.0
  0
LINE
  8
0
 62
     0
 10
271.296
 20
51.2064
 30
0.0
 11
273.021
 21
51.2064
 31
0.0
  0
LINE
  8
0
 62
     0
 10
273.021
 20
51.2064
 30
0.0
 11
273.021
 21
57.4767
 31
0.0
  0
LINE
  8
0
 62
     0
 10
273.021
 20
57.4767
 30
0.0
 11
273.845
 21
57.4767
 31
0.0
  0
LINE
  8
0
 62
     0
 10
273.845
 20
57.4767
 30
0.0
 11
273.845
 21
60.1267
 31
0.0
  0
LINE
  8
0
 62
     0
 10
273.845
 20
60.1267
 30
0.0
 11
273.021
 21
60.1267
 31
0.0
  0
LINE
  8
0
 62
     0
 10
273.021
 20
60.1267
 30
0.0
 11
273.021
 21
63.3568
 31
0.0
  0
LINE
  8
0
 62
     0
 10
273.021
 20
63.3568
 30
0.0
 11
266.42
 21
63.3568
 31
0.0
  0
LINE
  8
0
 62
     0
 10
266.42
 20
63.3568
 30
0.0
 11
266.42
 21
60.1267
 31
0.0
  0
LINE
  8
0
 62
     0
 10
266.42
 20
60.1267
 30
0.0
 11
264.746
 21
60.1267
 31
0.0
  0
LINE
  8
0
 62
     0
 10
264.746
 20
60.1267
 30
0.0
 11
264.746
 21
60.8764
 31
0.0
  0
LINE
  8
0
 62
     0
 10
264.746
 20
60.8764
 30
0.0
 11
265.545
 21
60.8764
 31
0.0
  0
LINE
  8
0
 62
     0
 10
265.545
 20
60.8764
 30
0.0
 11
265.545
 21
63.8267
 31
0.0
  0
LINE
  8
0
 62
     0
 10
265.545
 20
63.8267
 30
0.0
 11
264.746
 21
63.8267
 31
0.0
  0
LINE
  8
0
 62
     0
 10
264.746
 20
63.8267
 30
0.0
 11
264.746
 21
64.8271
 31
0.0
  0
LINE
  8
0
 62
     0
 10
264.746
 20
64.8271
 30
0.0
 11
250.895
 21
64.8271
 31
0.0
  0
LINE
  8
0
 62
     0
 10
12.7703
 20
64.8271
 30
0.0
 11
12.7703
 21
63.8267
 31
0.0
  0
LINE
  8
0
 62
     0
 10
12.7703
 20
63.8267
 30
0.0
 11
11.971
 21
63.8267
 31
0.0
  0
LINE
  8
0
 62
     0
 10
11.971
 20
63.8267
 30
0.0
 11
11.971
 21
60.8764
 31
0.0
  0
LINE
  8
0
 62
     0
 10
11.971
 20
60.8764
 30
0.0
 11
12.7703
 21
60.8764
 31
0.0
  0
LINE
  8
0
 62
     0
 10
12.7703
 20
60.8764
 30
0.0
 11
12.7703
 21
54.9271
 31
0.0
  0
LINE
  8
0
 62
     0
 10
12.7703
 20
54.9271
 30
0.0
 11
11.971
 21
54.9271
 31
0.0
  0
LINE
  8
0
 62
     0
 10
11.971
 20
54.9271
 30
0.0
 11
11.971
 21
51.9769
 31
0.0
  0
LINE
  8
0
 62
     0
 10
11.971
 20
51.9769
 30
0.0
 11
12.7703
 21
51.9769
 31
0.0
  0
LINE
  8
0
 62
     0
 10
12.7703
 20
51.9769
 30
0.0
 11
12.7703
 21
50.9764
 31
0.0
  0
LINE
  8
0
 62
     0
 10
12.7703
 20
50.9764
 30
0.0
 11
26.6209
 21
50.9764
 31
0.0
  0
LINE
  8
0
 62
     0
 10
26.6209
 20
50.9764
 30
0.0
 11
26.6209
 21
51.9769
 31
0.0
  0
LINE
  8
0
 62
     0
 10
26.6209
 20
51.9769
 30
0.0
 11
27.4202
 21
51.9769
 31
0.0
  0
LINE
  8
0
 62
     0
 10
27.4202
 20
51.9769
 30
0.0
 11
27.4202
 21
54.9271
 31
0.0
  0
LINE
  8
0
 62
     0
 10
27.4202
 20
54.9271
 30
0.0
 11
26.6209
 21
54.9271
 31
0.0
  0
LINE
  8
0
 62
     0
 10
26.6209
 20
54.9271
 30
0.0
 11
26.6209
 21
60.8764
 31
0.0
  0
LINE
  8
0
 62
     0
 10
26.6209
 20
60.8764
 30
0.0
 11
27.4202
 21
60.8764
 31
0.0
  0
LINE
  8
0
 62
     0
 10
27.4202
 20
60.8764
 30
0.0
 11
27.4202
 21
63.8267
 31
0.0
  0
LINE
  8
0
 62
     0
 10
27.4202
 20
63.8267
 30
0.0
 11
26.6209
 21
63.8267
 31
0.0
  0
LINE
  8
0
 62
     0
 10
26.6209
 20
63.8267
 30
0.0
 11
26.6209
 21
64.8271
 31
0.0
  0
LINE
  8
0
 62
     0
 10
26.6209
 20
64.8271
 30
0.0
 11
12.7703
 21
64.8271
 31
0.0
  0
LINE
  8
0
 62
     0
 10
31.8203
 20
64.8271
 30
0.0
 11
31.8203
 21
63.8267
 31
0.0
  0
LINE
  8
0
 62
     0
 10
31.8203
 20
63.8267
 30
0.0
 11
31.021
 21
63.8267
 31
0.0
  0
LINE
  8
0
 62
     0
 10
31.021
 20
63.8267
 30
0.0
 11
31.021
 21
60.8764
 31
0.0
  0
LINE
  8
0
 62
     0
 10
31.021
 20
60.8764
 30
0.0
 11
31.8203
 21
60.8764
 31
0.0
  0
LINE
  8
0
 62
     0
 10
31.8203
 20
60.8764
 30
0.0
 11
31.8203
 21
54.9271
 31
0.0
  0
LINE
  8
0
 62
     0
 10
31.8203
 20
54.9271
 30
0.0
 11
31.021
 21
54.9271
 31
0.0
  0
LINE
  8
0
 62
     0
 10
31.021
 20
54.9271
 30
0.0
 11
31.021
 21
51.9769
 31
0.0
  0
LINE
  8
0
 62
     0
 10
31.021
 20
51.9769
 30
0.0
 11
31.8203
 21
51.9769
 31
0.0
  0
LINE
  8
0
 62
     0
 10
31.8203
 20
51.9769
 30
0.0
 11
31.8203
 21
50.9764
 31
0.0
  0
LINE
  8
0
 62
     0
 10
31.8203
 20
50.9764
 30
0.0
 11
45.671
 21
50.9764
 31
0.0
  0
LINE
  8
0
 62
     0
 10
45.671
 20
50.9764
 30
0.0
 11
45.671
 21
51.9769
 31
0.0
  0
LINE
  8
0
 62
     0
 10
45.671
 20
51.9769
 30
0.0
 11
46.4704
 21
51.9769
 31
0.0
  0
LINE
  8
0
 62
     0
 10
46.4704
 20
51.9769
 30
0.0
 11
46.4704
 21
54.9271
 31
0.0
  0
LINE
  8
0
 62
     0
 10
46.4704
 20
54.9271
 30
0.0
 11
45.671
 21
54.9271
 31
0.0
  0
LINE
  8
0
 62
     0
 10
45.671
 20
54.9271
 30
0.0
 11
45.671
 21
60.8764
 31
0.0
  0
LINE
  8
0
 62
     0
 10
45.671
 20
60.8764
 30
0.0
 11
46.4704
 21
60.8764
 31
0.0
  0
LINE
  8
0
 62
     0
 10
46.4704
 20
60.8764
 30
0.0
 11
46.4704
 21
63.8267
 31
0.0
  0
LINE
  8
0
 62
     0
 10
46.4704
 20
63.8267
 30
0.0
 11
45.671
 21
63.8267
 31
0.0
  0
LINE
  8
0
 62
     0
 10
45.671
 20
63.8267
 30
0.0
 11
45.671
 21
64.8271
 31
0.0
  0
LINE
  8
0
 62
     0
 10
45.671
 20
64.8271
 30
0.0
 11
31.8203
 21
64.8271
 31
0.0
  0
LINE
  8
0
 62
     0
 10
50.8702
 20
64.8271
 30
0.0
 11
50.8702
 21
63.8267
 31
0.0
  0
LINE
  8
0
 62
     0
 10
50.8702
 20
63.8267
 30
0.0
 11
50.0712
 21
63.8267
 31
0.0
  0
LINE
  8
0
 62
     0
 10
50.0712
 20
63.8267
 30
0.0
 11
50.0712
 21
60.8764
 31
0.0
  0
LINE
  8
0
 62
     0
 10
50.0712
 20
60.8764
 30
0.0
 11
50.8702
 21
60.8764
 31
0.0
  0
LINE
  8
0
 62
     0
 10
50.8702
 20
60.8764
 30
0.0
 11
50.8702
 21
54.9271
 31
0.0
  0
LINE
  8
0
 62
     0
 10
50.8702
 20
54.9271
 30
0.0
 11
50.0712
 21
54.9271
 31
0.0
  0
LINE
  8
0
 62
     0
 10
50.0712
 20
54.9271
 30
0.0
 11
50.0712
 21
51.9769
 31
0.0
  0
LINE
  8
0
 62
     0
 10
50.0712
 20
51.9769
 30
0.0
 11
50.8702
 21
51.9769
 31
0.0
  0
LINE
  8
0
 62
     0
 10
50.8702
 20
51.9769
 30
0.0
 11
50.8702
 21
50.9764
 31
0.0
  0
LINE
  8
0
 62
     0
 10
50.8702
 20
50.9764
 30
0.0
 11
64.721
 21
50.9764
 31
0.0
  0
LINE
  8
0
 62
     0
 10
64.721
 20
50.9764
 30
0.0
 11
64.721
 21
51.9769
 31
0.0
  0
LINE
  8
0
 62
     0
 10
64.721
 20
51.9769
 30
0.0
 11
65.5204
 21
51.9769
 31
0.0
  0
LINE
  8
0
 62
     0
 10
65.5204
 20
51.9769
 30
0.0
 11
65.5204
 21
54.9271
 31
0.0
  0
LINE
  8
0
 62
     0
 10
65.5204
 20
54.9271
 30
0.0
 11
64.721
 21
54.9271
 31
0.0
  0
LINE
  8
0
 62
     0
 10
64.721
 20
54.9271
 30
0.0
 11
64.721
 21
60.8764
 31
0.0
  0
LINE
  8
0
 62
     0
 10
64.721
 20
60.8764
 30
0.0
 11
65.5204
 21
60.8764
 31
0.0
  0
LINE
  8
0
 62
     0
 10
65.5204
 20
60.8764
 30
0.0
 11
65.5204
 21
63.8267
 31
0.0
  0
LINE
  8
0
 62
     0
 10
65.5204
 20
63.8267
 30
0.0
 11
64.721
 21
63.8267
 31
0.0
  0
LINE
  8
0
 62
     0
 10
64.721
 20
63.8267
 30
0.0
 11
64.721
 21
64.8271
 31
0.0
  0
LINE
  8
0
 62
     0
 10
64.721
 20
64.8271
 30
0.0
 11
50.8702
 21
64.8271
 31
0.0
  0
LINE
  8
0
 62
     0
 10
69.9202
 20
64.8271
 30
0.0
 11
69.9202
 21
63.8267
 31
0.0
  0
LINE
  8
0
 62
     0
 10
69.9202
 20
63.8267
 30
0.0
 11
69.1212
 21
63.8267
 31
0.0
  0
LINE
  8
0
 62
     0
 10
69.1212
 20
63.8267
 30
0.0
 11
69.1212
 21
60.8764
 31
0.0
  0
LINE
  8
0
 62
     0
 10
69.1212
 20
60.8764
 30
0.0
 11
69.9202
 21
60.8764
 31
0.0
  0
LINE
  8
0
 62
     0
 10
69.9202
 20
60.8764
 30
0.0
 11
69.9202
 21
54.9271
 31
0.0
  0
LINE
  8
0
 62
     0
 10
69.9202
 20
54.9271
 30
0.0
 11
69.1212
 21
54.9271
 31
0.0
  0
LINE
  8
0
 62
     0
 10
69.1212
 20
54.9271
 30
0.0
 11
69.1212
 21
51.9769
 31
0.0
  0
LINE
  8
0
 62
     0
 10
69.1212
 20
51.9769
 30
0.0
 11
69.9202
 21
51.9769
 31
0.0
  0
LINE
  8
0
 62
     0
 10
69.9202
 20
51.9769
 30
0.0
 11
69.9202
 21
50.9764
 31
0.0
  0
LINE
  8
0
 62
     0
 10
69.9202
 20
50.9764
 30
0.0
 11
83.771
 21
50.9764
 31
0.0
  0
LINE
  8
0
 62
     0
 10
83.771
 20
50.9764
 30
0.0
 11
83.771
 21
51.9769
 31
0.0
  0
LINE
  8
0
 62
     0
 10
83.771
 20
51.9769
 30
0.0
 11
84.5704
 21
51.9769
 31
0.0
  0
LINE
  8
0
 62
     0
 10
84.5704
 20
51.9769
 30
0.0
 11
84.5704
 21
54.9271
 31
0.0
  0
LINE
  8
0
 62
     0
 10
84.5704
 20
54.9271
 30
0.0
 11
83.771
 21
54.9271
 31
0.0
  0
LINE
  8
0
 62
     0
 10
83.771
 20
54.9271
 30
0.0
 11
83.771
 21
60.8764
 31
0.0
  0
LINE
  8
0
 62
     0
 10
83.771
 20
60.8764
 30
0.0
 11
84.5704
 21
60.8764
 31
0.0
  0
LINE
  8
0
 62
     0
 10
84.5704
 20
60.8764
 30
0.0
 11
84.5704
 21
63.8267
 31
0.0
  0
LINE
  8
0
 62
     0
 10
84.5704
 20
63.8267
 30
0.0
 11
83.771
 21
63.8267
 31
0.0
  0
LINE
  8
0
 62
     0
 10
83.771
 20
63.8267
 30
0.0
 11
83.771
 21
64.8271
 31
0.0
  0
LINE
  8
0
 62
     0
 10
83.771
 20
64.8271
 30
0.0
 11
69.9202
 21
64.8271
 31
0.0
  0
LINE
  8
0
 62
     0
 10
88.9702
 20
64.8271
 30
0.0
 11
88.9702
 21
63.8267
 31
0.0
  0
LINE
  8
0
 62
     0
 10
88.9702
 20
63.8267
 30
0.0
 11
88.1712
 21
63.8267
 31
0.0
  0
LINE
  8
0
 62
     0
 10
88.1712
 20
63.8267
 30
0.0
 11
88.1712
 21
60.8764
 31
0.0
  0
LINE
  8
0
 62
     0
 10
88.1712
 20
60.8764
 30
0.0
 11
88.9702
 21
60.8764
 31
0.0
  0
LINE
  8
0
 62
     0
 10
88.9702
 20
60.8764
 30
0.0
 11
88.9702
 21
54.9271
 31
0.0
  0
LINE
  8
0
 62
     0
 10
88.9702
 20
54.9271
 30
0.0
 11
88.1712
 21
54.9271
 31
0.0
  0
LINE
  8
0
 62
     0
 10
88.1712
 20
54.9271
 30
0.0
 11
88.1712
 21
51.9769
 31
0.0
  0
LINE
  8
0
 62
     0
 10
88.1712
 20
51.9769
 30
0.0
 11
88.9702
 21
51.9769
 31
0.0
  0
LINE
  8
0
 62
     0
 10
88.9702
 20
51.9769
 30
0.0
 11
88.9702
 21
50.9764
 31
0.0
  0
LINE
  8
0
 62
     0
 10
88.9702
 20
50.9764
 30
0.0
 11
102.821
 21
50.9764
 31
0.0
  0
LINE
  8
0
 62
     0
 10
102.821
 20
50.9764
 30
0.0
 11
102.821
 21
51.9769
 31
0.0
  0
LINE
  8
0
 62
     0
 10
102.821
 20
51.9769
 30
0.0
 11
103.619
 21
51.9769
 31
0.0
  0
LINE
  8
0
 62
     0
 10
103.619
 20
51.9769
 30
0.0
 11
103.619
 21
54.9271
 31
0.0
  0
LINE
  8
0
 62
     0
 10
103.619
 20
54.9271
 30
0.0
 11
102.821
 21
54.9271
 31
0.0
  0
LINE
  8
0
 62
     0
 10
102.821
 20
54.9271
 30
0.0
 11
102.821
 21
60.8764
 31
0.0
  0
LINE
  8
0
 62
     0
 10
102.821
 20
60.8764
 30
0.0
 11
103.619
 21
60.8764
 31
0.0
  0
LINE
  8
0
 62
     0
 10
103.619
 20
60.8764
 30
0.0
 11
103.619
 21
63.8267
 31
0.0
  0
LINE
  8
0
 62
     0
 10
103.619
 20
63.8267
 30
0.0
 11
102.821
 21
63.8267
 31
0.0
  0
LINE
  8
0
 62
     0
 10
102.821
 20
63.8267
 30
0.0
 11
102.821
 21
64.8271
 31
0.0
  0
LINE
  8
0
 62
     0
 10
102.821
 20
64.8271
 30
0.0
 11
88.9702
 21
64.8271
 31
0.0
  0
LINE
  8
0
 62
     0
 10
108.02
 20
64.8271
 30
0.0
 11
108.02
 21
63.8267
 31
0.0
  0
LINE
  8
0
 62
     0
 10
108.02
 20
63.8267
 30
0.0
 11
107.221
 21
63.8267
 31
0.0
  0
LINE
  8
0
 62
     0
 10
107.221
 20
63.8267
 30
0.0
 11
107.221
 21
60.8764
 31
0.0
  0
LINE
  8
0
 62
     0
 10
107.221
 20
60.8764
 30
0.0
 11
108.02
 21
60.8764
 31
0.0
  0
LINE
  8
0
 62
     0
 10
108.02
 20
60.8764
 30
0.0
 11
108.02
 21
54.9271
 31
0.0
  0
LINE
  8
0
 62
     0
 10
108.02
 20
54.9271
 30
0.0
 11
107.221
 21
54.9271
 31
0.0
  0
LINE
  8
0
 62
     0
 10
107.221
 20
54.9271
 30
0.0
 11
107.221
 21
51.9769
 31
0.0
  0
LINE
  8
0
 62
     0
 10
107.221
 20
51.9769
 30
0.0
 11
108.02
 21
51.9769
 31
0.0
  0
LINE
  8
0
 62
     0
 10
108.02
 20
51.9769
 30
0.0
 11
108.02
 21
50.9764
 31
0.0
  0
LINE
  8
0
 62
     0
 10
108.02
 20
50.9764
 30
0.0
 11
121.87
 21
50.9764
 31
0.0
  0
LINE
  8
0
 62
     0
 10
121.87
 20
50.9764
 30
0.0
 11
121.87
 21
51.9769
 31
0.0
  0
LINE
  8
0
 62
     0
 10
121.87
 20
51.9769
 30
0.0
 11
122.669
 21
51.9769
 31
0.0
  0
LINE
  8
0
 62
     0
 10
122.669
 20
51.9769
 30
0.0
 11
122.669
 21
54.9271
 31
0.0
  0
LINE
  8
0
 62
     0
 10
122.669
 20
54.9271
 30
0.0
 11
121.87
 21
54.9271
 31
0.0
  0
LINE
  8
0
 62
     0
 10
121.87
 20
54.9271
 30
0.0
 11
121.87
 21
60.8764
 31
0.0
  0
LINE
  8
0
 62
     0
 10
121.87
 20
60.8764
 30
0.0
 11
122.669
 21
60.8764
 31
0.0
  0
LINE
  8
0
 62
     0
 10
122.669
 20
60.8764
 30
0.0
 11
122.669
 21
63.8267
 31
0.0
  0
LINE
  8
0
 62
     0
 10
122.669
 20
63.8267
 30
0.0
 11
121.87
 21
63.8267
 31
0.0
  0
LINE
  8
0
 62
     0
 10
121.87
 20
63.8267
 30
0.0
 11
121.87
 21
64.8271
 31
0.0
  0
LINE
  8
0
 62
     0
 10
121.87
 20
64.8271
 30
0.0
 11
108.02
 21
64.8271
 31
0.0
  0
LINE
  8
0
 62
     0
 10
127.07
 20
64.8271
 30
0.0
 11
127.07
 21
63.8267
 31
0.0
  0
LINE
  8
0
 62
     0
 10
127.07
 20
63.8267
 30
0.0
 11
126.271
 21
63.8267
 31
0.0
  0
LINE
  8
0
 62
     0
 10
126.271
 20
63.8267
 30
0.0
 11
126.271
 21
60.8764
 31
0.0
  0
LINE
  8
0
 62
     0
 10
126.271
 20
60.8764
 30
0.0
 11
127.07
 21
60.8764
 31
0.0
  0
LINE
  8
0
 62
     0
 10
127.07
 20
60.8764
 30
0.0
 11
127.07
 21
54.9271
 31
0.0
  0
LINE
  8
0
 62
     0
 10
127.07
 20
54.9271
 30
0.0
 11
126.271
 21
54.9271
 31
0.0
  0
LINE
  8
0
 62
     0
 10
126.271
 20
54.9271
 30
0.0
 11
126.271
 21
51.9769
 31
0.0
  0
LINE
  8
0
 62
     0
 10
126.271
 20
51.9769
 30
0.0
 11
127.07
 21
51.9769
 31
0.0
  0
LINE
  8
0
 62
     0
 10
127.07
 20
51.9769
 30
0.0
 11
127.07
 21
50.9764
 31
0.0
  0
LINE
  8
0
 62
     0
 10
127.07
 20
50.9764
 30
0.0
 11
140.921
 21
50.9764
 31
0.0
  0
LINE
  8
0
 62
     0
 10
140.921
 20
50.9764
 30
0.0
 11
140.921
 21
51.9769
 31
0.0
  0
LINE
  8
0
 62
     0
 10
140.921
 20
51.9769
 30
0.0
 11
141.72
 21
51.9769
 31
0.0
  0
LINE
  8
0
 62
     0
 10
141.72
 20
51.9769
 30
0.0
 11
141.72
 21
54.9271
 31
0.0
  0
LINE
  8
0
 62
     0
 10
141.72
 20
54.9271
 30
0.0
 11
140.921
 21
54.9271
 31
0.0
  0
LINE
  8
0
 62
     0
 10
140.921
 20
54.9271
 30
0.0
 11
140.921
 21
60.8764
 31
0.0
  0
LINE
  8
0
 62
     0
 10
140.921
 20
60.8764
 30
0.0
 11
141.72
 21
60.8764
 31
0.0
  0
LINE
  8
0
 62
     0
 10
141.72
 20
60.8764
 30
0.0
 11
141.72
 21
63.8267
 31
0.0
  0
LINE
  8
0
 62
     0
 10
141.72
 20
63.8267
 30
0.0
 11
140.921
 21
63.8267
 31
0.0
  0
LINE
  8
0
 62
     0
 10
140.921
 20
63.8267
 30
0.0
 11
140.921
 21
64.8271
 31
0.0
  0
LINE
  8
0
 62
     0
 10
140.921
 20
64.8271
 30
0.0
 11
127.07
 21
64.8271
 31
0.0
  0
LINE
  8
0
 62
     0
 10
146.12
 20
64.8271
 30
0.0
 11
146.12
 21
63.8267
 31
0.0
  0
LINE
  8
0
 62
     0
 10
146.12
 20
63.8267
 30
0.0
 11
145.321
 21
63.8267
 31
0.0
  0
LINE
  8
0
 62
     0
 10
145.321
 20
63.8267
 30
0.0
 11
145.321
 21
60.8764
 31
0.0
  0
LINE
  8
0
 62
     0
 10
145.321
 20
60.8764
 30
0.0
 11
146.12
 21
60.8764
 31
0.0
  0
LINE
  8
0
 62
     0
 10
146.12
 20
60.8764
 30
0.0
 11
146.12
 21
54.9271
 31
0.0
  0
LINE
  8
0
 62
     0
 10
146.12
 20
54.9271
 30
0.0
 11
145.321
 21
54.9271
 31
0.0
  0
LINE
  8
0
 62
     0
 10
145.321
 20
54.9271
 30
0.0
 11
145.321
 21
51.9769
 31
0.0
  0
LINE
  8
0
 62
     0
 10
145.321
 20
51.9769
 30
0.0
 11
146.12
 21
51.9769
 31
0.0
  0
LINE
  8
0
 62
     0
 10
146.12
 20
51.9769
 30
0.0
 11
146.12
 21
50.9764
 31
0.0
  0
LINE
  8
0
 62
     0
 10
146.12
 20
50.9764
 30
0.0
 11
159.971
 21
50.9764
 31
0.0
  0
LINE
  8
0
 62
     0
 10
159.971
 20
50.9764
 30
0.0
 11
159.971
 21
51.9769
 31
0.0
  0
LINE
  8
0
 62
     0
 10
159.971
 20
51.9769
 30
0.0
 11
160.77
 21
51.9769
 31
0.0
  0
LINE
  8
0
 62
     0
 10
160.77
 20
51.9769
 30
0.0
 11
160.77
 21
54.9271
 31
0.0
  0
LINE
  8
0
 62
     0
 10
160.77
 20
54.9271
 30
0.0
 11
159.971
 21
54.9271
 31
0.0
  0
LINE
  8
0
 62
     0
 10
159.971
 20
54.9271
 30
0.0
 11
159.971
 21
60.8764
 31
0.0
  0
LINE
  8
0
 62
     0
 10
159.971
 20
60.8764
 30
0.0
 11
160.77
 21
60.8764
 31
0.0
  0
LINE
  8
0
 62
     0
 10
160.77
 20
60.8764
 30
0.0
 11
160.77
 21
63.8267
 31
0.0
  0
LINE
  8
0
 62
     0
 10
160.77
 20
63.8267
 30
0.0
 11
159.971
 21
63.8267
 31
0.0
  0
LINE
  8
0
 62
     0
 10
159.971
 20
63.8267
 30
0.0
 11
159.971
 21
64.8271
 31
0.0
  0
LINE
  8
0
 62
     0
 10
159.971
 20
64.8271
 30
0.0
 11
146.12
 21
64.8271
 31
0.0
  0
LINE
  8
0
 62
     0
 10
165.17
 20
64.8271
 30
0.0
 11
165.17
 21
63.8267
 31
0.0
  0
LINE
  8
0
 62
     0
 10
165.17
 20
63.8267
 30
0.0
 11
164.371
 21
63.8267
 31
0.0
  0
LINE
  8
0
 62
     0
 10
164.371
 20
63.8267
 30
0.0
 11
164.371
 21
60.8764
 31
0.0
  0
LINE
  8
0
 62
     0
 10
164.371
 20
60.8764
 30
0.0
 11
165.17
 21
60.8764
 31
0.0
  0
LINE
  8
0
 62
     0
 10
165.17
 20
60.8764
 30
0.0
 11
165.17
 21
54.9271
 31
0.0
  0
LINE
  8
0
 62
     0
 10
165.17
 20
54.9271
 30
0.0
 11
164.371
 21
54.9271
 31
0.0
  0
LINE
  8
0
 62
     0
 10
164.371
 20
54.9271
 30
0.0
 11
164.371
 21
51.9769
 31
0.0
  0
LINE
  8
0
 62
     0
 10
164.371
 20
51.9769
 30
0.0
 11
165.17
 21
51.9769
 31
0.0
  0
LINE
  8
0
 62
     0
 10
165.17
 20
51.9769
 30
0.0
 11
165.17
 21
50.9764
 31
0.0
  0
LINE
  8
0
 62
     0
 10
165.17
 20
50.9764
 30
0.0
 11
179.021
 21
50.9764
 31
0.0
  0
LINE
  8
0
 62
     0
 10
179.021
 20
50.9764
 30
0.0
 11
179.021
 21
51.9769
 31
0.0
  0
LINE
  8
0
 62
     0
 10
179.021
 20
51.9769
 30
0.0
 11
179.82
 21
51.9769
 31
0.0
  0
LINE
  8
0
 62
     0
 10
179.82
 20
51.9769
 30
0.0
 11
179.82
 21
54.9271
 31
0.0
  0
LINE
  8
0
 62
     0
 10
179.82
 20
54.9271
 30
0.0
 11
179.021
 21
54.9271
 31
0.0
  0
LINE
  8
0
 62
     0
 10
179.021
 20
54.9271
 30
0.0
 11
179.021
 21
60.8764
 31
0.0
  0
LINE
  8
0
 62
     0
 10
179.021
 20
60.8764
 30
0.0
 11
179.82
 21
60.8764
 31
0.0
  0
LINE
  8
0
 62
     0
 10
179.82
 20
60.8764
 30
0.0
 11
179.82
 21
63.8267
 31
0.0
  0
LINE
  8
0
 62
     0
 10
179.82
 20
63.8267
 30
0.0
 11
179.021
 21
63.8267
 31
0.0
  0
LINE
  8
0
 62
     0
 10
179.021
 20
63.8267
 30
0.0
 11
179.021
 21
64.8271
 31
0.0
  0
LINE
  8
0
 62
     0
 10
179.021
 20
64.8271
 30
0.0
 11
165.17
 21
64.8271
 31
0.0
  0
LINE
  8
0
 62
     0
 10
184.22
 20
64.8271
 30
0.0
 11
184.22
 21
63.8267
 31
0.0
  0
LINE
  8
0
 62
     0
 10
184.22
 20
63.8267
 30
0.0
 11
183.421
 21
63.8267
 31
0.0
  0
LINE
  8
0
 62
     0
 10
183.421
 20
63.8267
 30
0.0
 11
183.421
 21
60.8764
 31
0.0
  0
LINE
  8
0
 62
     0
 10
183.421
 20
60.8764
 30
0.0
 11
184.22
 21
60.8764
 31
0.0
  0
LINE
  8
0
 62
     0
 10
184.22
 20
60.8764
 30
0.0
 11
184.22
 21
54.9271
 31
0.0
  0
LINE
  8
0
 62
     0
 10
184.22
 20
54.9271
 30
0.0
 11
183.421
 21
54.9271
 31
0.0
  0
LINE
  8
0
 62
     0
 10
183.421
 20
54.9271
 30
0.0
 11
183.421
 21
51.9769
 31
0.0
  0
LINE
  8
0
 62
     0
 10
183.421
 20
51.9769
 30
0.0
 11
184.22
 21
51.9769
 31
0.0
  0
LINE
  8
0
 62
     0
 10
184.22
 20
51.9769
 30
0.0
 11
184.22
 21
50.9764
 31
0.0
  0
LINE
  8
0
 62
     0
 10
184.22
 20
50.9764
 30
0.0
 11
198.071
 21
50.9764
 31
0.0
  0
LINE
  8
0
 62
     0
 10
198.071
 20
50.9764
 30
0.0
 11
198.071
 21
51.9769
 31
0.0
  0
LINE
  8
0
 62
     0
 10
198.071
 20
51.9769
 30
0.0
 11
198.87
 21
51.9769
 31
0.0
  0
LINE
  8
0
 62
     0
 10
198.87
 20
51.9769
 30
0.0
 11
198.87
 21
54.9271
 31
0.0
  0
LINE
  8
0
 62
     0
 10
198.87
 20
54.9271
 30
0.0
 11
198.071
 21
54.9271
 31
0.0
  0
LINE
  8
0
 62
     0
 10
198.071
 20
54.9271
 30
0.0
 11
198.071
 21
60.8764
 31
0.0
  0
LINE
  8
0
 62
     0
 10
198.071
 20
60.8764
 30
0.0
 11
198.87
 21
60.8764
 31
0.0
  0
LINE
  8
0
 62
     0
 10
198.87
 20
60.8764
 30
0.0
 11
198.87
 21
63.8267
 31
0.0
  0
LINE
  8
0
 62
     0
 10
198.87
 20
63.8267
 30
0.0
 11
198.071
 21
63.8267
 31
0.0
  0
LINE
  8
0
 62
     0
 10
198.071
 20
63.8267
 30
0.0
 11
198.071
 21
64.8271
 31
0.0
  0
LINE
  8
0
 62
     0
 10
198.071
 20
64.8271
 30
0.0
 11
184.22
 21
64.8271
 31
0.0
  0
LINE
  8
0
 62
     0
 10
203.27
 20
64.8271
 30
0.0
 11
203.27
 21
63.8267
 31
0.0
  0
LINE
  8
0
 62
     0
 10
203.27
 20
63.8267
 30
0.0
 11
202.471
 21
63.8267
 31
0.0
  0
LINE
  8
0
 62
     0
 10
202.471
 20
63.8267
 30
0.0
 11
202.471
 21
60.8764
 31
0.0
  0
LINE
  8
0
 62
     0
 10
202.471
 20
60.8764
 30
0.0
 11
203.27
 21
60.8764
 31
0.0
  0
LINE
  8
0
 62
     0
 10
203.27
 20
60.8764
 30
0.0
 11
203.27
 21
54.9271
 31
0.0
  0
LINE
  8
0
 62
     0
 10
203.27
 20
54.9271
 30
0.0
 11
202.471
 21
54.9271
 31
0.0
  0
LINE
  8
0
 62
     0
 10
202.471
 20
54.9271
 30
0.0
 11
202.471
 21
51.9769
 31
0.0
  0
LINE
  8
0
 62
     0
 10
202.471
 20
51.9769
 30
0.0
 11
203.27
 21
51.9769
 31
0.0
  0
LINE
  8
0
 62
     0
 10
203.27
 20
51.9769
 30
0.0
 11
203.27
 21
50.9764
 31
0.0
  0
LINE
  8
0
 62
     0
 10
203.27
 20
50.9764
 30
0.0
 11
217.121
 21
50.9764
 31
0.0
  0
LINE
  8
0
 62
     0
 10
217.121
 20
50.9764
 30
0.0
 11
217.121
 21
51.9769
 31
0.0
  0
LINE
  8
0
 62
     0
 10
217.121
 20
51.9769
 30
0.0
 11
217.92
 21
51.9769
 31
0.0
  0
LINE
  8
0
 62
     0
 10
217.92
 20
51.9769
 30
0.0
 11
217.92
 21
54.9271
 31
0.0
  0
LINE
  8
0
 62
     0
 10
217.92
 20
54.9271
 30
0.0
 11
217.121
 21
54.9271
 31
0.0
  0
LINE
  8
0
 62
     0
 10
217.121
 20
54.9271
 30
0.0
 11
217.121
 21
60.8764
 31
0.0
  0
LINE
  8
0
 62
     0
 10
217.121
 20
60.8764
 30
0.0
 11
217.92
 21
60.8764
 31
0.0
  0
LINE
  8
0
 62
     0
 10
217.92
 20
60.8764
 30
0.0
 11
217.92
 21
63.8267
 31
0.0
  0
LINE
  8
0
 62
     0
 10
217.92
 20
63.8267
 30
0.0
 11
217.121
 21
63.8267
 31
0.0
  0
LINE
  8
0
 62
     0
 10
217.121
 20
63.8267
 30
0.0
 11
217.121
 21
64.8271
 31
0.0
  0
LINE
  8
0
 62
     0
 10
217.121
 20
64.8271
 30
0.0
 11
203.27
 21
64.8271
 31
0.0
  0
LINE
  8
0
 62
     0
 10
222.32
 20
64.8271
 30
0.0
 11
222.32
 21
63.8267
 31
0.0
  0
LINE
  8
0
 62
     0
 10
222.32
 20
63.8267
 30
0.0
 11
221.521
 21
63.8267
 31
0.0
  0
LINE
  8
0
 62
     0
 10
221.521
 20
63.8267
 30
0.0
 11
221.521
 21
60.8764
 31
0.0
  0
LINE
  8
0
 62
     0
 10
221.521
 20
60.8764
 30
0.0
 11
222.32
 21
60.8764
 31
0.0
  0
LINE
  8
0
 62
     0
 10
222.32
 20
60.8764
 30
0.0
 11
222.32
 21
54.9271
 31
0.0
  0
LINE
  8
0
 62
     0
 10
222.32
 20
54.9271
 30
0.0
 11
221.521
 21
54.9271
 31
0.0
  0
LINE
  8
0
 62
     0
 10
221.521
 20
54.9271
 30
0.0
 11
221.521
 21
51.9769
 31
0.0
  0
LINE
  8
0
 62
     0
 10
221.521
 20
51.9769
 30
0.0
 11
222.32
 21
51.9769
 31
0.0
  0
LINE
  8
0
 62
     0
 10
222.32
 20
51.9769
 30
0.0
 11
222.32
 21
50.9764
 31
0.0
  0
LINE
  8
0
 62
     0
 10
222.32
 20
50.9764
 30
0.0
 11
236.171
 21
50.9764
 31
0.0
  0
LINE
  8
0
 62
     0
 10
236.171
 20
50.9764
 30
0.0
 11
236.171
 21
51.9769
 31
0.0
  0
LINE
  8
0
 62
     0
 10
236.171
 20
51.9769
 30
0.0
 11
236.97
 21
51.9769
 31
0.0
  0
LINE
  8
0
 62
     0
 10
236.97
 20
51.9769
 30
0.0
 11
236.97
 21
54.9271
 31
0.0
  0
LINE
  8
0
 62
     0
 10
236.97
 20
54.9271
 30
0.0
 11
236.171
 21
54.9271
 31
0.0
  0
LINE
  8
0
 62
     0
 10
236.171
 20
54.9271
 30
0.0
 11
236.171
 21
60.8764
 31
0.0
  0
LINE
  8
0
 62
     0
 10
236.171
 20
60.8764
 30
0.0
 11
236.97
 21
60.8764
 31
0.0
  0
LINE
  8
0
 62
     0
 10
236.97
 20
60.8764
 30
0.0
 11
236.97
 21
63.8267
 31
0.0
  0
LINE
  8
0
 62
     0
 10
236.97
 20
63.8267
 30
0.0
 11
236.171
 21
63.8267
 31
0.0
  0
LINE
  8
0
 62
     0
 10
236.171
 20
63.8267
 30
0.0
 11
236.171
 21
64.8271
 31
0.0
  0
LINE
  8
0
 62
     0
 10
236.171
 20
64.8271
 30
0.0
 11
222.32
 21
64.8271
 31
0.0
  0
LINE
  8
0
 62
     0
 10
279.47
 20
64.8271
 30
0.0
 11
279.47
 21
63.8267
 31
0.0
  0
LINE
  8
0
 62
     0
 10
279.47
 20
63.8267
 30
0.0
 11
278.671
 21
63.8267
 31
0.0
  0
LINE
  8
0
 62
     0
 10
278.671
 20
63.8267
 30
0.0
 11
278.671
 21
60.8764
 31
0.0
  0
LINE
  8
0
 62
     0
 10
278.671
 20
60.8764
 30
0.0
 11
279.47
 21
60.8764
 31
0.0
  0
LINE
  8
0
 62
     0
 10
279.47
 20
60.8764
 30
0.0
 11
279.47
 21
54.9271
 31
0.0
  0
LINE
  8
0
 62
     0
 10
279.47
 20
54.9271
 30
0.0
 11
278.671
 21
54.9271
 31
0.0
  0
LINE
  8
0
 62
     0
 10
278.671
 20
54.9271
 30
0.0
 11
278.671
 21
51.9769
 31
0.0
  0
LINE
  8
0
 62
     0
 10
278.671
 20
51.9769
 30
0.0
 11
279.47
 21
51.9769
 31
0.0
  0
LINE
  8
0
 62
     0
 10
279.47
 20
51.9769
 30
0.0
 11
279.47
 21
50.9764
 31
0.0
  0
LINE
  8
0
 62
     0
 10
279.47
 20
50.9764
 30
0.0
 11
293.321
 21
50.9764
 31
0.0
  0
LINE
  8
0
 62
     0
 10
293.321
 20
50.9764
 30
0.0
 11
293.321
 21
51.9769
 31
0.0
  0
LINE
  8
0
 62
     0
 10
293.321
 20
51.9769
 30
0.0
 11
294.12
 21
51.9769
 31
0.0
  0
LINE
  8
0
 62
     0
 10
294.12
 20
51.9769
 30
0.0
 11
294.12
 21
54.9271
 31
0.0
  0
LINE
  8
0
 62
     0
 10
294.12
 20
54.9271
 30
0.0
 11
293.321
 21
54.9271
 31
0.0
  0
LINE
  8
0
 62
     0
 10
293.321
 20
54.9271
 30
0.0
 11
293.321
 21
60.8764
 31
0.0
  0
LINE
  8
0
 62
     0
 10
293.321
 20
60.8764
 30
0.0
 11
294.12
 21
60.8764
 31
0.0
  0
LINE
  8
0
 62
     0
 10
294.12
 20
60.8764
 30
0.0
 11
294.12
 21
63.8267
 31
0.0
  0
LINE
  8
0
 62
     0
 10
294.12
 20
63.8267
 30
0.0
 11
293.321
 21
63.8267
 31
0.0
  0
LINE
  8
0
 62
     0
 10
293.321
 20
63.8267
 30
0.0
 11
293.321
 21
64.8271
 31
0.0
  0
LINE
  8
0
 62
     0
 10
293.321
 20
64.8271
 30
0.0
 11
279.47
 21
64.8271
 31
0.0
  0
LINE
  8
0
 62
     0
 10
12.7703
 20
83.8771
 30
0.0
 11
12.7703
 21
82.8767
 31
0.0
  0
LINE
  8
0
 62
     0
 10
12.7703
 20
82.8767
 30
0.0
 11
11.971
 21
82.8767
 31
0.0
  0
LINE
  8
0
 62
     0
 10
11.971
 20
82.8767
 30
0.0
 11
11.971
 21
79.9264
 31
0.0
  0
LINE
  8
0
 62
     0
 10
11.971
 20
79.9264
 30
0.0
 11
12.7703
 21
79.9264
 31
0.0
  0
LINE
  8
0
 62
     0
 10
12.7703
 20
79.9264
 30
0.0
 11
12.7703
 21
73.9771
 31
0.0
  0
LINE
  8
0
 62
     0
 10
12.7703
 20
73.9771
 30
0.0
 11
11.971
 21
73.9771
 31
0.0
  0
LINE
  8
0
 62
     0
 10
11.971
 20
73.9771
 30
0.0
 11
11.971
 21
71.0269
 31
0.0
  0
LINE
  8
0
 62
     0
 10
11.971
 20
71.0269
 30
0.0
 11
12.7703
 21
71.0269
 31
0.0
  0
LINE
  8
0
 62
     0
 10
12.7703
 20
71.0269
 30
0.0
 11
12.7703
 21
70.0264
 31
0.0
  0
LINE
  8
0
 62
     0
 10
12.7703
 20
70.0264
 30
0.0
 11
26.6209
 21
70.0264
 31
0.0
  0
LINE
  8
0
 62
     0
 10
26.6209
 20
70.0264
 30
0.0
 11
26.6209
 21
71.0269
 31
0.0
  0
LINE
  8
0
 62
     0
 10
26.6209
 20
71.0269
 30
0.0
 11
27.4202
 21
71.0269
 31
0.0
  0
LINE
  8
0
 62
     0
 10
27.4202
 20
71.0269
 30
0.0
 11
27.4202
 21
73.9771
 31
0.0
  0
LINE
  8
0
 62
     0
 10
27.4202
 20
73.9771
 30
0.0
 11
26.6209
 21
73.9771
 31
0.0
  0
LINE
  8
0
 62
     0
 10
26.6209
 20
73.9771
 30
0.0
 11
26.6209
 21
79.9264
 31
0.0
  0
LINE
  8
0
 62
     0
 10
26.6209
 20
79.9264
 30
0.0
 11
27.4202
 21
79.9264
 31
0.0
  0
LINE
  8
0
 62
     0
 10
27.4202
 20
79.9264
 30
0.0
 11
27.4202
 21
82.8767
 31
0.0
  0
LINE
  8
0
 62
     0
 10
27.4202
 20
82.8767
 30
0.0
 11
26.6209
 21
82.8767
 31
0.0
  0
LINE
  8
0
 62
     0
 10
26.6209
 20
82.8767
 30
0.0
 11
26.6209
 21
83.8771
 31
0.0
  0
LINE
  8
0
 62
     0
 10
26.6209
 20
83.8771
 30
0.0
 11
12.7703
 21
83.8771
 31
0.0
  0
LINE
  8
0
 62
     0
 10
31.8203
 20
83.8771
 30
0.0
 11
31.8203
 21
82.8767
 31
0.0
  0
LINE
  8
0
 62
     0
 10
31.8203
 20
82.8767
 30
0.0
 11
31.021
 21
82.8767
 31
0.0
  0
LINE
  8
0
 62
     0
 10
31.021
 20
82.8767
 30
0.0
 11
31.021
 21
79.9264
 31
0.0
  0
LINE
  8
0
 62
     0
 10
31.021
 20
79.9264
 30
0.0
 11
31.8203
 21
79.9264
 31
0.0
  0
LINE
  8
0
 62
     0
 10
31.8203
 20
79.9264
 30
0.0
 11
31.8203
 21
73.9771
 31
0.0
  0
LINE
  8
0
 62
     0
 10
31.8203
 20
73.9771
 30
0.0
 11
31.021
 21
73.9771
 31
0.0
  0
LINE
  8
0
 62
     0
 10
31.021
 20
73.9771
 30
0.0
 11
31.021
 21
71.0269
 31
0.0
  0
LINE
  8
0
 62
     0
 10
31.021
 20
71.0269
 30
0.0
 11
31.8203
 21
71.0269
 31
0.0
  0
LINE
  8
0
 62
     0
 10
31.8203
 20
71.0269
 30
0.0
 11
31.8203
 21
70.0264
 31
0.0
  0
LINE
  8
0
 62
     0
 10
31.8203
 20
70.0264
 30
0.0
 11
45.671
 21
70.0264
 31
0.0
  0
LINE
  8
0
 62
     0
 10
45.671
 20
70.0264
 30
0.0
 11
45.671
 21
71.0269
 31
0.0
  0
LINE
  8
0
 62
     0
 10
45.671
 20
71.0269
 30
0.0
 11
46.4704
 21
71.0269
 31
0.0
  0
LINE
  8
0
 62
     0
 10
46.4704
 20
71.0269
 30
0.0
 11
46.4704
 21
73.9771
 31
0.0
  0
LINE
  8
0
 62
     0
 10
46.4704
 20
73.9771
 30
0.0
 11
45.671
 21
73.9771
 31
0.0
  0
LINE
  8
0
 62
     0
 10
45.671
 20
73.9771
 30
0.0
 11
45.671
 21
79.9264
 31
0.0
  0
LINE
  8
0
 62
     0
 10
45.671
 20
79.9264
 30
0.0
 11
46.4704
 21
79.9264
 31
0.0
  0
LINE
  8
0
 62
     0
 10
46.4704
 20
79.9264
 30
0.0
 11
46.4704
 21
82.8767
 31
0.0
  0
LINE
  8
0
 62
     0
 10
46.4704
 20
82.8767
 30
0.0
 11
45.671
 21
82.8767
 31
0.0
  0
LINE
  8
0
 62
     0
 10
45.671
 20
82.8767
 30
0.0
 11
45.671
 21
83.8771
 31
0.0
  0
LINE
  8
0
 62
     0
 10
45.671
 20
83.8771
 30
0.0
 11
31.8203
 21
83.8771
 31
0.0
  0
LINE
  8
0
 62
     0
 10
50.8702
 20
83.8771
 30
0.0
 11
50.8702
 21
82.8767
 31
0.0
  0
LINE
  8
0
 62
     0
 10
50.8702
 20
82.8767
 30
0.0
 11
50.0712
 21
82.8767
 31
0.0
  0
LINE
  8
0
 62
     0
 10
50.0712
 20
82.8767
 30
0.0
 11
50.0712
 21
79.9264
 31
0.0
  0
LINE
  8
0
 62
     0
 10
50.0712
 20
79.9264
 30
0.0
 11
50.8702
 21
79.9264
 31
0.0
  0
LINE
  8
0
 62
     0
 10
50.8702
 20
79.9264
 30
0.0
 11
50.8702
 21
73.9771
 31
0.0
  0
LINE
  8
0
 62
     0
 10
50.8702
 20
73.9771
 30
0.0
 11
50.0712
 21
73.9771
 31
0.0
  0
LINE
  8
0
 62
     0
 10
50.0712
 20
73.9771
 30
0.0
 11
50.0712
 21
71.0269
 31
0.0
  0
LINE
  8
0
 62
     0
 10
50.0712
 20
71.0269
 30
0.0
 11
50.8702
 21
71.0269
 31
0.0
  0
LINE
  8
0
 62
     0
 10
50.8702
 20
71.0269
 30
0.0
 11
50.8702
 21
70.0264
 31
0.0
  0
LINE
  8
0
 62
     0
 10
50.8702
 20
70.0264
 30
0.0
 11
64.721
 21
70.0264
 31
0.0
  0
LINE
  8
0
 62
     0
 10
64.721
 20
70.0264
 30
0.0
 11
64.721
 21
71.0269
 31
0.0
  0
LINE
  8
0
 62
     0
 10
64.721
 20
71.0269
 30
0.0
 11
65.5204
 21
71.0269
 31
0.0
  0
LINE
  8
0
 62
     0
 10
65.5204
 20
71.0269
 30
0.0
 11
65.5204
 21
73.9771
 31
0.0
  0
LINE
  8
0
 62
     0
 10
65.5204
 20
73.9771
 30
0.0
 11
64.721
 21
73.9771
 31
0.0
  0
LINE
  8
0
 62
     0
 10
64.721
 20
73.9771
 30
0.0
 11
64.721
 21
79.9264
 31
0.0
  0
LINE
  8
0
 62
     0
 10
64.721
 20
79.9264
 30
0.0
 11
65.5204
 21
79.9264
 31
0.0
  0
LINE
  8
0
 62
     0
 10
65.5204
 20
79.9264
 30
0.0
 11
65.5204
 21
82.8767
 31
0.0
  0
LINE
  8
0
 62
     0
 10
65.5204
 20
82.8767
 30
0.0
 11
64.721
 21
82.8767
 31
0.0
  0
LINE
  8
0
 62
     0
 10
64.721
 20
82.8767
 30
0.0
 11
64.721
 21
83.8771
 31
0.0
  0
LINE
  8
0
 62
     0
 10
64.721
 20
83.8771
 30
0.0
 11
50.8702
 21
83.8771
 31
0.0
  0
LINE
  8
0
 62
     0
 10
69.9202
 20
83.8771
 30
0.0
 11
69.9202
 21
82.8767
 31
0.0
  0
LINE
  8
0
 62
     0
 10
69.9202
 20
82.8767
 30
0.0
 11
69.1212
 21
82.8767
 31
0.0
  0
LINE
  8
0
 62
     0
 10
69.1212
 20
82.8767
 30
0.0
 11
69.1212
 21
79.9264
 31
0.0
  0
LINE
  8
0
 62
     0
 10
69.1212
 20
79.9264
 30
0.0
 11
69.9202
 21
79.9264
 31
0.0
  0
LINE
  8
0
 62
     0
 10
69.9202
 20
79.9264
 30
0.0
 11
69.9202
 21
73.9771
 31
0.0
  0
LINE
  8
0
 62
     0
 10
69.9202
 20
73.9771
 30
0.0
 11
69.1212
 21
73.9771
 31
0.0
  0
LINE
  8
0
 62
     0
 10
69.1212
 20
73.9771
 30
0.0
 11
69.1212
 21
71.0269
 31
0.0
  0
LINE
  8
0
 62
     0
 10
69.1212
 20
71.0269
 30
0.0
 11
69.9202
 21
71.0269
 31
0.0
  0
LINE
  8
0
 62
     0
 10
69.9202
 20
71.0269
 30
0.0
 11
69.9202
 21
70.0264
 31
0.0
  0
LINE
  8
0
 62
     0
 10
69.9202
 20
70.0264
 30
0.0
 11
83.771
 21
70.0264
 31
0.0
  0
LINE
  8
0
 62
     0
 10
83.771
 20
70.0264
 30
0.0
 11
83.771
 21
71.0269
 31
0.0
  0
LINE
  8
0
 62
     0
 10
83.771
 20
71.0269
 30
0.0
 11
84.5704
 21
71.0269
 31
0.0
  0
LINE
  8
0
 62
     0
 10
84.5704
 20
71.0269
 30
0.0
 11
84.5704
 21
73.9771
 31
0.0
  0
LINE
  8
0
 62
     0
 10
84.5704
 20
73.9771
 30
0.0
 11
83.771
 21
73.9771
 31
0.0
  0
LINE
  8
0
 62
     0
 10
83.771
 20
73.9771
 30
0.0
 11
83.771
 21
79.9264
 31
0.0
  0
LINE
  8
0
 62
     0
 10
83.771
 20
79.9264
 30
0.0
 11
84.5704
 21
79.9264
 31
0.0
  0
LINE
  8
0
 62
     0
 10
84.5704
 20
79.9264
 30
0.0
 11
84.5704
 21
82.8767
 31
0.0
  0
LINE
  8
0
 62
     0
 10
84.5704
 20
82.8767
 30
0.0
 11
83.771
 21
82.8767
 31
0.0
  0
LINE
  8
0
 62
     0
 10
83.771
 20
82.8767
 30
0.0
 11
83.771
 21
83.8771
 31
0.0
  0
LINE
  8
0
 62
     0
 10
83.771
 20
83.8771
 30
0.0
 11
69.9202
 21
83.8771
 31
0.0
  0
LINE
  8
0
 62
     0
 10
88.9702
 20
83.8771
 30
0.0
 11
88.9702
 21
82.8767
 31
0.0
  0
LINE
  8
0
 62
     0
 10
88.9702
 20
82.8767
 30
0.0
 11
88.1712
 21
82.8767
 31
0.0
  0
LINE
  8
0
 62
     0
 10
88.1712
 20
82.8767
 30
0.0
 11
88.1712
 21
79.9264
 31
0.0
  0
LINE
  8
0
 62
     0
 10
88.1712
 20
79.9264
 30
0.0
 11
88.9702
 21
79.9264
 31
0.0
  0
LINE
  8
0
 62
     0
 10
88.9702
 20
79.9264
 30
0.0
 11
88.9702
 21
73.9771
 31
0.0
  0
LINE
  8
0
 62
     0
 10
88.9702
 20
73.9771
 30
0.0
 11
88.1712
 21
73.9771
 31
0.0
  0
LINE
  8
0
 62
     0
 10
88.1712
 20
73.9771
 30
0.0
 11
88.1712
 21
71.0269
 31
0.0
  0
LINE
  8
0
 62
     0
 10
88.1712
 20
71.0269
 30
0.0
 11
88.9702
 21
71.0269
 31
0.0
  0
LINE
  8
0
 62
     0
 10
88.9702
 20
71.0269
 30
0.0
 11
88.9702
 21
70.0264
 31
0.0
  0
LINE
  8
0
 62
     0
 10
88.9702
 20
70.0264
 30
0.0
 11
102.821
 21
70.0264
 31
0.0
  0
LINE
  8
0
 62
     0
 10
102.821
 20
70.0264
 30
0.0
 11
102.821
 21
71.0269
 31
0.0
  0
LINE
  8
0
 62
     0
 10
102.821
 20
71.0269
 30
0.0
 11
103.619
 21
71.0269
 31
0.0
  0
LINE
  8
0
 62
     0
 10
103.619
 20
71.0269
 30
0.0
 11
103.619
 21
73.9771
 31
0.0
  0
LINE
  8
0
 62
     0
 10
103.619
 20
73.9771
 30
0.0
 11
102.821
 21
73.9771
 31
0.0
  0
LINE
  8
0
 62
     0
 10
102.821
 20
73.9771
 30
0.0
 11
102.821
 21
79.9264
 31
0.0
  0
LINE
  8
0
 62
     0
 10
102.821
 20
79.9264
 30
0.0
 11
103.619
 21
79.9264
 31
0.0
  0
LINE
  8
0
 62
     0
 10
103.619
 20
79.9264
 30
0.0
 11
103.619
 21
82.8767
 31
0.0
  0
LINE
  8
0
 62
     0
 10
103.619
 20
82.8767
 30
0.0
 11
102.821
 21
82.8767
 31
0.0
  0
LINE
  8
0
 62
     0
 10
102.821
 20
82.8767
 30
0.0
 11
102.821
 21
83.8771
 31
0.0
  0
LINE
  8
0
 62
     0
 10
102.821
 20
83.8771
 30
0.0
 11
88.9702
 21
83.8771
 31
0.0
  0
LINE
  8
0
 62
     0
 10
108.02
 20
83.8771
 30
0.0
 11
108.02
 21
82.8767
 31
0.0
  0
LINE
  8
0
 62
     0
 10
108.02
 20
82.8767
 30
0.0
 11
107.221
 21
82.8767
 31
0.0
  0
LINE
  8
0
 62
     0
 10
107.221
 20
82.8767
 30
0.0
 11
107.221
 21
79.9264
 31
0.0
  0
LINE
  8
0
 62
     0
 10
107.221
 20
79.9264
 30
0.0
 11
108.02
 21
79.9264
 31
0.0
  0
LINE
  8
0
 62
     0
 10
108.02
 20
79.9264
 30
0.0
 11
108.02
 21
73.9771
 31
0.0
  0
LINE
  8
0
 62
     0
 10
108.02
 20
73.9771
 30
0.0
 11
107.221
 21
73.9771
 31
0.0
  0
LINE
  8
0
 62
     0
 10
107.221
 20
73.9771
 30
0.0
 11
107.221
 21
71.0269
 31
0.0
  0
LINE
  8
0
 62
     0
 10
107.221
 20
71.0269
 30
0.0
 11
108.02
 21
71.0269
 31
0.0
  0
LINE
  8
0
 62
     0
 10
108.02
 20
71.0269
 30
0.0
 11
108.02
 21
70.0264
 31
0.0
  0
LINE
  8
0
 62
     0
 10
108.02
 20
70.0264
 30
0.0
 11
121.87
 21
70.0264
 31
0.0
  0
LINE
  8
0
 62
     0
 10
121.87
 20
70.0264
 30
0.0
 11
121.87
 21
71.0269
 31
0.0
  0
LINE
  8
0
 62
     0
 10
121.87
 20
71.0269
 30
0.0
 11
122.669
 21
71.0269
 31
0.0
  0
LINE
  8
0
 62
     0
 10
122.669
 20
71.0269
 30
0.0
 11
122.669
 21
73.9771
 31
0.0
  0
LINE
  8
0
 62
     0
 10
122.669
 20
73.9771
 30
0.0
 11
121.87
 21
73.9771
 31
0.0
  0
LINE
  8
0
 62
     0
 10
121.87
 20
73.9771
 30
0.0
 11
121.87
 21
79.9264
 31
0.0
  0
LINE
  8
0
 62
     0
 10
121.87
 20
79.9264
 30
0.0
 11
122.669
 21
79.9264
 31
0.0
  0
LINE
  8
0
 62
     0
 10
122.669
 20
79.9264
 30
0.0
 11
122.669
 21
82.8767
 31
0.0
  0
LINE
  8
0
 62
     0
 10
122.669
 20
82.8767
 30
0.0
 11
121.87
 21
82.8767
 31
0.0
  0
LINE
  8
0
 62
     0
 10
121.87
 20
82.8767
 30
0.0
 11
121.87
 21
83.8771
 31
0.0
  0
LINE
  8
0
 62
     0
 10
121.87
 20
83.8771
 30
0.0
 11
108.02
 21
83.8771
 31
0.0
  0
LINE
  8
0
 62
     0
 10
127.07
 20
83.8771
 30
0.0
 11
127.07
 21
82.8767
 31
0.0
  0
LINE
  8
0
 62
     0
 10
127.07
 20
82.8767
 30
0.0
 11
126.271
 21
82.8767
 31
0.0
  0
LINE
  8
0
 62
     0
 10
126.271
 20
82.8767
 30
0.0
 11
126.271
 21
79.9264
 31
0.0
  0
LINE
  8
0
 62
     0
 10
126.271
 20
79.9264
 30
0.0
 11
127.07
 21
79.9264
 31
0.0
  0
LINE
  8
0
 62
     0
 10
127.07
 20
79.9264
 30
0.0
 11
127.07
 21
73.9771
 31
0.0
  0
LINE
  8
0
 62
     0
 10
127.07
 20
73.9771
 30
0.0
 11
126.271
 21
73.9771
 31
0.0
  0
LINE
  8
0
 62
     0
 10
126.271
 20
73.9771
 30
0.0
 11
126.271
 21
71.0269
 31
0.0
  0
LINE
  8
0
 62
     0
 10
126.271
 20
71.0269
 30
0.0
 11
127.07
 21
71.0269
 31
0.0
  0
LINE
  8
0
 62
     0
 10
127.07
 20
71.0269
 30
0.0
 11
127.07
 21
70.0264
 31
0.0
  0
LINE
  8
0
 62
     0
 10
127.07
 20
70.0264
 30
0.0
 11
140.921
 21
70.0264
 31
0.0
  0
LINE
  8
0
 62
     0
 10
140.921
 20
70.0264
 30
0.0
 11
140.921
 21
71.0269
 31
0.0
  0
LINE
  8
0
 62
     0
 10
140.921
 20
71.0269
 30
0.0
 11
141.72
 21
71.0269
 31
0.0
  0
LINE
  8
0
 62
     0
 10
141.72
 20
71.0269
 30
0.0
 11
141.72
 21
73.9771
 31
0.0
  0
LINE
  8
0
 62
     0
 10
141.72
 20
73.9771
 30
0.0
 11
140.921
 21
73.9771
 31
0.0
  0
LINE
  8
0
 62
     0
 10
140.921
 20
73.9771
 30
0.0
 11
140.921
 21
79.9264
 31
0.0
  0
LINE
  8
0
 62
     0
 10
140.921
 20
79.9264
 30
0.0
 11
141.72
 21
79.9264
 31
0.0
  0
LINE
  8
0
 62
     0
 10
141.72
 20
79.9264
 30
0.0
 11
141.72
 21
82.8767
 31
0.0
  0
LINE
  8
0
 62
     0
 10
141.72
 20
82.8767
 30
0.0
 11
140.921
 21
82.8767
 31
0.0
  0
LINE
  8
0
 62
     0
 10
140.921
 20
82.8767
 30
0.0
 11
140.921
 21
83.8771
 31
0.0
  0
LINE
  8
0
 62
     0
 10
140.921
 20
83.8771
 30
0.0
 11
127.07
 21
83.8771
 31
0.0
  0
LINE
  8
0
 62
     0
 10
146.12
 20
83.8771
 30
0.0
 11
146.12
 21
82.8767
 31
0.0
  0
LINE
  8
0
 62
     0
 10
146.12
 20
82.8767
 30
0.0
 11
145.321
 21
82.8767
 31
0.0
  0
LINE
  8
0
 62
     0
 10
145.321
 20
82.8767
 30
0.0
 11
145.321
 21
79.9264
 31
0.0
  0
LINE
  8
0
 62
     0
 10
145.321
 20
79.9264
 30
0.0
 11
146.12
 21
79.9264
 31
0.0
  0
LINE
  8
0
 62
     0
 10
146.12
 20
79.9264
 30
0.0
 11
146.12
 21
73.9771
 31
0.0
  0
LINE
  8
0
 62
     0
 10
146.12
 20
73.9771
 30
0.0
 11
145.321
 21
73.9771
 31
0.0
  0
LINE
  8
0
 62
     0
 10
145.321
 20
73.9771
 30
0.0
 11
145.321
 21
71.0269
 31
0.0
  0
LINE
  8
0
 62
     0
 10
145.321
 20
71.0269
 30
0.0
 11
146.12
 21
71.0269
 31
0.0
  0
LINE
  8
0
 62
     0
 10
146.12
 20
71.0269
 30
0.0
 11
146.12
 21
70.0264
 31
0.0
  0
LINE
  8
0
 62
     0
 10
146.12
 20
70.0264
 30
0.0
 11
159.971
 21
70.0264
 31
0.0
  0
LINE
  8
0
 62
     0
 10
159.971
 20
70.0264
 30
0.0
 11
159.971
 21
71.0269
 31
0.0
  0
LINE
  8
0
 62
     0
 10
159.971
 20
71.0269
 30
0.0
 11
160.77
 21
71.0269
 31
0.0
  0
LINE
  8
0
 62
     0
 10
160.77
 20
71.0269
 30
0.0
 11
160.77
 21
73.9771
 31
0.0
  0
LINE
  8
0
 62
     0
 10
160.77
 20
73.9771
 30
0.0
 11
159.971
 21
73.9771
 31
0.0
  0
LINE
  8
0
 62
     0
 10
159.971
 20
73.9771
 30
0.0
 11
159.971
 21
79.9264
 31
0.0
  0
LINE
  8
0
 62
     0
 10
159.971
 20
79.9264
 30
0.0
 11
160.77
 21
79.9264
 31
0.0
  0
LINE
  8
0
 62
     0
 10
160.77
 20
79.9264
 30
0.0
 11
160.77
 21
82.8767
 31
0.0
  0
LINE
  8
0
 62
     0
 10
160.77
 20
82.8767
 30
0.0
 11
159.971
 21
82.8767
 31
0.0
  0
LINE
  8
0
 62
     0
 10
159.971
 20
82.8767
 30
0.0
 11
159.971
 21
83.8771
 31
0.0
  0
LINE
  8
0
 62
     0
 10
159.971
 20
83.8771
 30
0.0
 11
146.12
 21
83.8771
 31
0.0
  0
LINE
  8
0
 62
     0
 10
165.17
 20
83.8771
 30
0.0
 11
165.17
 21
82.8767
 31
0.0
  0
LINE
  8
0
 62
     0
 10
165.17
 20
82.8767
 30
0.0
 11
164.371
 21
82.8767
 31
0.0
  0
LINE
  8
0
 62
     0
 10
164.371
 20
82.8767
 30
0.0
 11
164.371
 21
79.9264
 31
0.0
  0
LINE
  8
0
 62
     0
 10
164.371
 20
79.9264
 30
0.0
 11
165.17
 21
79.9264
 31
0.0
  0
LINE
  8
0
 62
     0
 10
165.17
 20
79.9264
 30
0.0
 11
165.17
 21
73.9771
 31
0.0
  0
LINE
  8
0
 62
     0
 10
165.17
 20
73.9771
 30
0.0
 11
164.371
 21
73.9771
 31
0.0
  0
LINE
  8
0
 62
     0
 10
164.371
 20
73.9771
 30
0.0
 11
164.371
 21
71.0269
 31
0.0
  0
LINE
  8
0
 62
     0
 10
164.371
 20
71.0269
 30
0.0
 11
165.17
 21
71.0269
 31
0.0
  0
LINE
  8
0
 62
     0
 10
165.17
 20
71.0269
 30
0.0
 11
165.17
 21
70.0264
 31
0.0
  0
LINE
  8
0
 62
     0
 10
165.17
 20
70.0264
 30
0.0
 11
179.021
 21
70.0264
 31
0.0
  0
LINE
  8
0
 62
     0
 10
179.021
 20
70.0264
 30
0.0
 11
179.021
 21
71.0269
 31
0.0
  0
LINE
  8
0
 62
     0
 10
179.021
 20
71.0269
 30
0.0
 11
179.82
 21
71.0269
 31
0.0
  0
LINE
  8
0
 62
     0
 10
179.82
 20
71.0269
 30
0.0
 11
179.82
 21
73.9771
 31
0.0
  0
LINE
  8
0
 62
     0
 10
179.82
 20
73.9771
 30
0.0
 11
179.021
 21
73.9771
 31
0.0
  0
LINE
  8
0
 62
     0
 10
179.021
 20
73.9771
 30
0.0
 11
179.021
 21
79.9264
 31
0.0
  0
LINE
  8
0
 62
     0
 10
179.021
 20
79.9264
 30
0.0
 11
179.82
 21
79.9264
 31
0.0
  0
LINE
  8
0
 62
     0
 10
179.82
 20
79.9264
 30
0.0
 11
179.82
 21
82.8767
 31
0.0
  0
LINE
  8
0
 62
     0
 10
179.82
 20
82.8767
 30
0.0
 11
179.021
 21
82.8767
 31
0.0
  0
LINE
  8
0
 62
     0
 10
179.021
 20
82.8767
 30
0.0
 11
179.021
 21
83.8771
 31
0.0
  0
LINE
  8
0
 62
     0
 10
179.021
 20
83.8771
 30
0.0
 11
165.17
 21
83.8771
 31
0.0
  0
LINE
  8
0
 62
     0
 10
184.22
 20
83.8771
 30
0.0
 11
184.22
 21
82.8767
 31
0.0
  0
LINE
  8
0
 62
     0
 10
184.22
 20
82.8767
 30
0.0
 11
183.421
 21
82.8767
 31
0.0
  0
LINE
  8
0
 62
     0
 10
183.421
 20
82.8767
 30
0.0
 11
183.421
 21
79.9264
 31
0.0
  0
LINE
  8
0
 62
     0
 10
183.421
 20
79.9264
 30
0.0
 11
184.22
 21
79.9264
 31
0.0
  0
LINE
  8
0
 62
     0
 10
184.22
 20
79.9264
 30
0.0
 11
184.22
 21
73.9771
 31
0.0
  0
LINE
  8
0
 62
     0
 10
184.22
 20
73.9771
 30
0.0
 11
183.421
 21
73.9771
 31
0.0
  0
LINE
  8
0
 62
     0
 10
183.421
 20
73.9771
 30
0.0
 11
183.421
 21
71.0269
 31
0.0
  0
LINE
  8
0
 62
     0
 10
183.421
 20
71.0269
 30
0.0
 11
184.22
 21
71.0269
 31
0.0
  0
LINE
  8
0
 62
     0
 10
184.22
 20
71.0269
 30
0.0
 11
184.22
 21
70.0264
 31
0.0
  0
LINE
  8
0
 62
     0
 10
184.22
 20
70.0264
 30
0.0
 11
198.071
 21
70.0264
 31
0.0
  0
LINE
  8
0
 62
     0
 10
198.071
 20
70.0264
 30
0.0
 11
198.071
 21
71.0269
 31
0.0
  0
LINE
  8
0
 62
     0
 10
198.071
 20
71.0269
 30
0.0
 11
198.87
 21
71.0269
 31
0.0
  0
LINE
  8
0
 62
     0
 10
198.87
 20
71.0269
 30
0.0
 11
198.87
 21
73.9771
 31
0.0
  0
LINE
  8
0
 62
     0
 10
198.87
 20
73.9771
 30
0.0
 11
198.071
 21
73.9771
 31
0.0
  0
LINE
  8
0
 62
     0
 10
198.071
 20
73.9771
 30
0.0
 11
198.071
 21
79.9264
 31
0.0
  0
LINE
  8
0
 62
     0
 10
198.071
 20
79.9264
 30
0.0
 11
198.87
 21
79.9264
 31
0.0
  0
LINE
  8
0
 62
     0
 10
198.87
 20
79.9264
 30
0.0
 11
198.87
 21
82.8767
 31
0.0
  0
LINE
  8
0
 62
     0
 10
198.87
 20
82.8767
 30
0.0
 11
198.071
 21
82.8767
 31
0.0
  0
LINE
  8
0
 62
     0
 10
198.071
 20
82.8767
 30
0.0
 11
198.071
 21
83.8771
 31
0.0
  0
LINE
  8
0
 62
     0
 10
198.071
 20
83.8771
 30
0.0
 11
184.22
 21
83.8771
 31
0.0
  0
LINE
  8
0
 62
     0
 10
203.27
 20
83.8771
 30
0.0
 11
203.27
 21
82.8767
 31
0.0
  0
LINE
  8
0
 62
     0
 10
203.27
 20
82.8767
 30
0.0
 11
202.471
 21
82.8767
 31
0.0
  0
LINE
  8
0
 62
     0
 10
202.471
 20
82.8767
 30
0.0
 11
202.471
 21
79.9264
 31
0.0
  0
LINE
  8
0
 62
     0
 10
202.471
 20
79.9264
 30
0.0
 11
203.27
 21
79.9264
 31
0.0
  0
LINE
  8
0
 62
     0
 10
203.27
 20
79.9264
 30
0.0
 11
203.27
 21
73.9771
 31
0.0
  0
LINE
  8
0
 62
     0
 10
203.27
 20
73.9771
 30
0.0
 11
202.471
 21
73.9771
 31
0.0
  0
LINE
  8
0
 62
     0
 10
202.471
 20
73.9771
 30
0.0
 11
202.471
 21
71.0269
 31
0.0
  0
LINE
  8
0
 62
     0
 10
202.471
 20
71.0269
 30
0.0
 11
203.27
 21
71.0269
 31
0.0
  0
LINE
  8
0
 62
     0
 10
203.27
 20
71.0269
 30
0.0
 11
203.27
 21
70.0264
 31
0.0
  0
LINE
  8
0
 62
     0
 10
203.27
 20
70.0264
 30
0.0
 11
217.121
 21
70.0264
 31
0.0
  0
LINE
  8
0
 62
     0
 10
217.121
 20
70.0264
 30
0.0
 11
217.121
 21
71.0269
 31
0.0
  0
LINE
  8
0
 62
     0
 10
217.121
 20
71.0269
 30
0.0
 11
217.92
 21
71.0269
 31
0.0
  0
LINE
  8
0
 62
     0
 10
217.92
 20
71.0269
 30
0.0
 11
217.92
 21
73.9771
 31
0.0
  0
LINE
  8
0
 62
     0
 10
217.92
 20
73.9771
 30
0.0
 11
217.121
 21
73.9771
 31
0.0
  0
LINE
  8
0
 62
     0
 10
217.121
 20
73.9771
 30
0.0
 11
217.121
 21
79.9264
 31
0.0
  0
LINE
  8
0
 62
     0
 10
217.121
 20
79.9264
 30
0.0
 11
217.92
 21
79.9264
 31
0.0
  0
LINE
  8
0
 62
     0
 10
217.92
 20
79.9264
 30
0.0
 11
217.92
 21
82.8767
 31
0.0
  0
LINE
  8
0
 62
     0
 10
217.92
 20
82.8767
 30
0.0
 11
217.121
 21
82.8767
 31
0.0
  0
LINE
  8
0
 62
     0
 10
217.121
 20
82.8767
 30
0.0
 11
217.121
 21
83.8771
 31
0.0
  0
LINE
  8
0
 62
     0
 10
217.121
 20
83.8771
 30
0.0
 11
203.27
 21
83.8771
 31
0.0
  0
LINE
  8
0
 62
     0
 10
222.32
 20
83.8771
 30
0.0
 11
222.32
 21
82.8767
 31
0.0
  0
LINE
  8
0
 62
     0
 10
222.32
 20
82.8767
 30
0.0
 11
221.521
 21
82.8767
 31
0.0
  0
LINE
  8
0
 62
     0
 10
221.521
 20
82.8767
 30
0.0
 11
221.521
 21
79.9264
 31
0.0
  0
LINE
  8
0
 62
     0
 10
221.521
 20
79.9264
 30
0.0
 11
222.32
 21
79.9264
 31
0.0
  0
LINE
  8
0
 62
     0
 10
222.32
 20
79.9264
 30
0.0
 11
222.32
 21
73.9771
 31
0.0
  0
LINE
  8
0
 62
     0
 10
222.32
 20
73.9771
 30
0.0
 11
221.521
 21
73.9771
 31
0.0
  0
LINE
  8
0
 62
     0
 10
221.521
 20
73.9771
 30
0.0
 11
221.521
 21
71.0269
 31
0.0
  0
LINE
  8
0
 62
     0
 10
221.521
 20
71.0269
 30
0.0
 11
222.32
 21
71.0269
 31
0.0
  0
LINE
  8
0
 62
     0
 10
222.32
 20
71.0269
 30
0.0
 11
222.32
 21
70.0264
 31
0.0
  0
LINE
  8
0
 62
     0
 10
222.32
 20
70.0264
 30
0.0
 11
236.171
 21
70.0264
 31
0.0
  0
LINE
  8
0
 62
     0
 10
236.171
 20
70.0264
 30
0.0
 11
236.171
 21
71.0269
 31
0.0
  0
LINE
  8
0
 62
     0
 10
236.171
 20
71.0269
 30
0.0
 11
236.97
 21
71.0269
 31
0.0
  0
LINE
  8
0
 62
     0
 10
236.97
 20
71.0269
 30
0.0
 11
236.97
 21
73.9771
 31
0.0
  0
LINE
  8
0
 62
     0
 10
236.97
 20
73.9771
 30
0.0
 11
236.171
 21
73.9771
 31
0.0
  0
LINE
  8
0
 62
     0
 10
236.171
 20
73.9771
 30
0.0
 11
236.171
 21
79.9264
 31
0.0
  0
LINE
  8
0
 62
     0
 10
236.171
 20
79.9264
 30
0.0
 11
236.97
 21
79.9264
 31
0.0
  0
LINE
  8
0
 62
     0
 10
236.97
 20
79.9264
 30
0.0
 11
236.97
 21
82.8767
 31
0.0
  0
LINE
  8
0
 62
     0
 10
236.97
 20
82.8767
 30
0.0
 11
236.171
 21
82.8767
 31
0.0
  0
LINE
  8
0
 62
     0
 10
236.171
 20
82.8767
 30
0.0
 11
236.171
 21
83.8771
 31
0.0
  0
LINE
  8
0
 62
     0
 10
236.171
 20
83.8771
 30
0.0
 11
222.32
 21
83.8771
 31
0.0
  0
LINE
  8
0
 62
     0
 10
241.37
 20
83.8771
 30
0.0
 11
241.37
 21
82.8767
 31
0.0
  0
LINE
  8
0
 62
     0
 10
241.37
 20
82.8767
 30
0.0
 11
240.571
 21
82.8767
 31
0.0
  0
LINE
  8
0
 62
     0
 10
240.571
 20
82.8767
 30
0.0
 11
240.571
 21
79.9264
 31
0.0
  0
LINE
  8
0
 62
     0
 10
240.571
 20
79.9264
 30
0.0
 11
241.37
 21
79.9264
 31
0.0
  0
LINE
  8
0
 62
     0
 10
241.37
 20
79.9264
 30
0.0
 11
241.37
 21
73.9771
 31
0.0
  0
LINE
  8
0
 62
     0
 10
241.37
 20
73.9771
 30
0.0
 11
240.571
 21
73.9771
 31
0.0
  0
LINE
  8
0
 62
     0
 10
240.571
 20
73.9771
 30
0.0
 11
240.571
 21
71.0269
 31
0.0
  0
LINE
  8
0
 62
     0
 10
240.571
 20
71.0269
 30
0.0
 11
241.37
 21
71.0269
 31
0.0
  0
LINE
  8
0
 62
     0
 10
241.37
 20
71.0269
 30
0.0
 11
241.37
 21
70.0264
 31
0.0
  0
LINE
  8
0
 62
     0
 10
241.37
 20
70.0264
 30
0.0
 11
255.221
 21
70.0264
 31
0.0
  0
LINE
  8
0
 62
     0
 10
255.221
 20
70.0264
 30
0.0
 11
255.221
 21
71.0269
 31
0.0
  0
LINE
  8
0
 62
     0
 10
255.221
 20
71.0269
 30
0.0
 11
256.02
 21
71.0269
 31
0.0
  0
LINE
  8
0
 62
     0
 10
256.02
 20
71.0269
 30
0.0
 11
256.02
 21
73.9771
 31
0.0
  0
LINE
  8
0
 62
     0
 10
256.02
 20
73.9771
 30
0.0
 11
255.221
 21
73.9771
 31
0.0
  0
LINE
  8
0
 62
     0
 10
255.221
 20
73.9771
 30
0.0
 11
255.221
 21
79.9264
 31
0.0
  0
LINE
  8
0
 62
     0
 10
255.221
 20
79.9264
 30
0.0
 11
256.02
 21
79.9264
 31
0.0
  0
LINE
  8
0
 62
     0
 10
256.02
 20
79.9264
 30
0.0
 11
256.02
 21
82.8767
 31
0.0
  0
LINE
  8
0
 62
     0
 10
256.02
 20
82.8767
 30
0.0
 11
255.221
 21
82.8767
 31
0.0
  0
LINE
  8
0
 62
     0
 10
255.221
 20
82.8767
 30
0.0
 11
255.221
 21
83.8771
 31
0.0
  0
LINE
  8
0
 62
     0
 10
255.221
 20
83.8771
 30
0.0
 11
241.37
 21
83.8771
 31
0.0
  0
LINE
  8
0
 62
     0
 10
260.42
 20
83.8771
 30
0.0
 11
260.42
 21
82.8767
 31
0.0
  0
LINE
  8
0
 62
     0
 10
260.42
 20
82.8767
 30
0.0
 11
259.621
 21
82.8767
 31
0.0
  0
LINE
  8
0
 62
     0
 10
259.621
 20
82.8767
 30
0.0
 11
259.621
 21
79.9264
 31
0.0
  0
LINE
  8
0
 62
     0
 10
259.621
 20
79.9264
 30
0.0
 11
260.42
 21
79.9264
 31
0.0
  0
LINE
  8
0
 62
     0
 10
260.42
 20
79.9264
 30
0.0
 11
260.42
 21
73.9771
 31
0.0
  0
LINE
  8
0
 62
     0
 10
260.42
 20
73.9771
 30
0.0
 11
259.621
 21
73.9771
 31
0.0
  0
LINE
  8
0
 62
     0
 10
259.621
 20
73.9771
 30
0.0
 11
259.621
 21
71.0269
 31
0.0
  0
LINE
  8
0
 62
     0
 10
259.621
 20
71.0269
 30
0.0
 11
260.42
 21
71.0269
 31
0.0
  0
LINE
  8
0
 62
     0
 10
260.42
 20
71.0269
 30
0.0
 11
260.42
 21
70.0264
 31
0.0
  0
LINE
  8
0
 62
     0
 10
260.42
 20
70.0264
 30
0.0
 11
274.271
 21
70.0264
 31
0.0
  0
LINE
  8
0
 62
     0
 10
274.271
 20
70.0264
 30
0.0
 11
274.271
 21
71.0269
 31
0.0
  0
LINE
  8
0
 62
     0
 10
274.271
 20
71.0269
 30
0.0
 11
275.07
 21
71.0269
 31
0.0
  0
LINE
  8
0
 62
     0
 10
275.07
 20
71.0269
 30
0.0
 11
275.07
 21
73.9771
 31
0.0
  0
LINE
  8
0
 62
     0
 10
275.07
 20
73.9771
 30
0.0
 11
274.271
 21
73.9771
 31
0.0
  0
LINE
  8
0
 62
     0
 10
274.271
 20
73.9771
 30
0.0
 11
274.271
 21
79.9264
 31
0.0
  0
LINE
  8
0
 62
     0
 10
274.271
 20
79.9264
 30
0.0
 11
275.07
 21
79.9264
 31
0.0
  0
LINE
  8
0
 62
     0
 10
275.07
 20
79.9264
 30
0.0
 11
275.07
 21
82.8767
 31
0.0
  0
LINE
  8
0
 62
     0
 10
275.07
 20
82.8767
 30
0.0
 11
274.271
 21
82.8767
 31
0.0
  0
LINE
  8
0
 62
     0
 10
274.271
 20
82.8767
 30
0.0
 11
274.271
 21
83.8771
 31
0.0
  0
LINE
  8
0
 62
     0
 10
274.271
 20
83.8771
 30
0.0
 11
260.42
 21
83.8771
 31
0.0
  0
LINE
  8
0
 62
     0
 10
279.47
 20
83.8771
 30
0.0
 11
279.47
 21
82.8767
 31
0.0
  0
LINE
  8
0
 62
     0
 10
279.47
 20
82.8767
 30
0.0
 11
278.671
 21
82.8767
 31
0.0
  0
LINE
  8
0
 62
     0
 10
278.671
 20
82.8767
 30
0.0
 11
278.671
 21
79.9264
 31
0.0
  0
LINE
  8
0
 62
     0
 10
278.671
 20
79.9264
 30
0.0
 11
279.47
 21
79.9264
 31
0.0
  0
LINE
  8
0
 62
     0
 10
279.47
 20
79.9264
 30
0.0
 11
279.47
 21
73.9771
 31
0.0
  0
LINE
  8
0
 62
     0
 10
279.47
 20
73.9771
 30
0.0
 11
278.671
 21
73.9771
 31
0.0
  0
LINE
  8
0
 62
     0
 10
278.671
 20
73.9771
 30
0.0
 11
278.671
 21
71.0269
 31
0.0
  0
LINE
  8
0
 62
     0
 10
278.671
 20
71.0269
 30
0.0
 11
279.47
 21
71.0269
 31
0.0
  0
LINE
  8
0
 62
     0
 10
279.47
 20
71.0269
 30
0.0
 11
279.47
 21
70.0264
 31
0.0
  0
LINE
  8
0
 62
     0
 10
279.47
 20
70.0264
 30
0.0
 11
293.321
 21
70.0264
 31
0.0
  0
LINE
  8
0
 62
     0
 10
293.321
 20
70.0264
 30
0.0
 11
293.321
 21
71.0269
 31
0.0
  0
LINE
  8
0
 62
     0
 10
293.321
 20
71.0269
 30
0.0
 11
294.12
 21
71.0269
 31
0.0
  0
LINE
  8
0
 62
     0
 10
294.12
 20
71.0269
 30
0.0
 11
294.12
 21
73.9771
 31
0.0
  0
LINE
  8
0
 62
     0
 10
294.12
 20
73.9771
 30
0.0
 11
293.321
 21
73.9771
 31
0.0
  0
LINE
  8
0
 62
     0
 10
293.321
 20
73.9771
 30
0.0
 11
293.321
 21
79.9264
 31
0.0
  0
LINE
  8
0
 62
     0
 10
293.321
 20
79.9264
 30
0.0
 11
294.12
 21
79.9264
 31
0.0
  0
LINE
  8
0
 62
     0
 10
294.12
 20
79.9264
 30
0.0
 11
294.12
 21
82.8767
 31
0.0
  0
LINE
  8
0
 62
     0
 10
294.12
 20
82.8767
 30
0.0
 11
293.321
 21
82.8767
 31
0.0
  0
LINE
  8
0
 62
     0
 10
293.321
 20
82.8767
 30
0.0
 11
293.321
 21
83.8771
 31
0.0
  0
LINE
  8
0
 62
     0
 10
293.321
 20
83.8771
 30
0.0
 11
279.47
 21
83.8771
 31
0.0
  0
LINE
  8
0
 62
     0
 10
12.7703
 20
102.927
 30
0.0
 11
12.7703
 21
101.927
 31
0.0
  0
LINE
  8
0
 62
     0
 10
12.7703
 20
101.927
 30
0.0
 11
11.971
 21
101.927
 31
0.0
  0
LINE
  8
0
 62
     0
 10
11.971
 20
101.927
 30
0.0
 11
11.971
 21
98.9764
 31
0.0
  0
LINE
  8
0
 62
     0
 10
11.971
 20
98.9764
 30
0.0
 11
12.7703
 21
98.9764
 31
0.0
  0
LINE
  8
0
 62
     0
 10
12.7703
 20
98.9764
 30
0.0
 11
12.7703
 21
93.0271
 31
0.0
  0
LINE
  8
0
 62
     0
 10
12.7703
 20
93.0271
 30
0.0
 11
11.971
 21
93.0271
 31
0.0
  0
LINE
  8
0
 62
     0
 10
11.971
 20
93.0271
 30
0.0
 11
11.971
 21
90.0769
 31
0.0
  0
LINE
  8
0
 62
     0
 10
11.971
 20
90.0769
 30
0.0
 11
12.7703
 21
90.0769
 31
0.0
  0
LINE
  8
0
 62
     0
 10
12.7703
 20
90.0769
 30
0.0
 11
12.7703
 21
89.0764
 31
0.0
  0
LINE
  8
0
 62
     0
 10
12.7703
 20
89.0764
 30
0.0
 11
26.6209
 21
89.0764
 31
0.0
  0
LINE
  8
0
 62
     0
 10
26.6209
 20
89.0764
 30
0.0
 11
26.6209
 21
90.0769
 31
0.0
  0
LINE
  8
0
 62
     0
 10
26.6209
 20
90.0769
 30
0.0
 11
27.4202
 21
90.0769
 31
0.0
  0
LINE
  8
0
 62
     0
 10
27.4202
 20
90.0769
 30
0.0
 11
27.4202
 21
93.0271
 31
0.0
  0
LINE
  8
0
 62
     0
 10
27.4202
 20
93.0271
 30
0.0
 11
26.6209
 21
93.0271
 31
0.0
  0
LINE
  8
0
 62
     0
 10
26.6209
 20
93.0271
 30
0.0
 11
26.6209
 21
98.9764
 31
0.0
  0
LINE
  8
0
 62
     0
 10
26.6209
 20
98.9764
 30
0.0
 11
27.4202
 21
98.9764
 31
0.0
  0
LINE
  8
0
 62
     0
 10
27.4202
 20
98.9764
 30
0.0
 11
27.4202
 21
101.927
 31
0.0
  0
LINE
  8
0
 62
     0
 10
27.4202
 20
101.927
 30
0.0
 11
26.6209
 21
101.927
 31
0.0
  0
LINE
  8
0
 62
     0
 10
26.6209
 20
101.927
 30
0.0
 11
26.6209
 21
102.927
 31
0.0
  0
LINE
  8
0
 62
     0
 10
26.6209
 20
102.927
 30
0.0
 11
12.7703
 21
102.927
 31
0.0
  0
LINE
  8
0
 62
     0
 10
31.8203
 20
102.927
 30
0.0
 11
31.8203
 21
101.927
 31
0.0
  0
LINE
  8
0
 62
     0
 10
31.8203
 20
101.927
 30
0.0
 11
31.021
 21
101.927
 31
0.0
  0
LINE
  8
0
 62
     0
 10
31.021
 20
101.927
 30
0.0
 11
31.021
 21
98.9764
 31
0.0
  0
LINE
  8
0
 62
     0
 10
31.021
 20
98.9764
 30
0.0
 11
31.8203
 21
98.9764
 31
0.0
  0
LINE
  8
0
 62
     0
 10
31.8203
 20
98.9764
 30
0.0
 11
31.8203
 21
93.0271
 31
0.0
  0
LINE
  8
0
 62
     0
 10
31.8203
 20
93.0271
 30
0.0
 11
31.021
 21
93.0271
 31
0.0
  0
LINE
  8
0
 62
     0
 10
31.021
 20
93.0271
 30
0.0
 11
31.021
 21
90.0769
 31
0.0
  0
LINE
  8
0
 62
     0
 10
31.021
 20
90.0769
 30
0.0
 11
31.8203
 21
90.0769
 31
0.0
  0
LINE
  8
0
 62
     0
 10
31.8203
 20
90.0769
 30
0.0
 11
31.8203
 21
89.0764
 31
0.0
  0
LINE
  8
0
 62
     0
 10
31.8203
 20
89.0764
 30
0.0
 11
45.671
 21
89.0764
 31
0.0
  0
LINE
  8
0
 62
     0
 10
45.671
 20
89.0764
 30
0.0
 11
45.671
 21
90.0769
 31
0.0
  0
LINE
  8
0
 62
     0
 10
45.671
 20
90.0769
 30
0.0
 11
46.4704
 21
90.0769
 31
0.0
  0
LINE
  8
0
 62
     0
 10
46.4704
 20
90.0769
 30
0.0
 11
46.4704
 21
93.0271
 31
0.0
  0
LINE
  8
0
 62
     0
 10
46.4704
 20
93.0271
 30
0.0
 11
45.671
 21
93.0271
 31
0.0
  0
LINE
  8
0
 62
     0
 10
45.671
 20
93.0271
 30
0.0
 11
45.671
 21
98.9764
 31
0.0
  0
LINE
  8
0
 62
     0
 10
45.671
 20
98.9764
 30
0.0
 11
46.4704
 21
98.9764
 31
0.0
  0
LINE
  8
0
 62
     0
 10
46.4704
 20
98.9764
 30
0.0
 11
46.4704
 21
101.927
 31
0.0
  0
LINE
  8
0
 62
     0
 10
46.4704
 20
101.927
 30
0.0
 11
45.671
 21
101.927
 31
0.0
  0
LINE
  8
0
 62
     0
 10
45.671
 20
101.927
 30
0.0
 11
45.671
 21
102.927
 31
0.0
  0
LINE
  8
0
 62
     0
 10
45.671
 20
102.927
 30
0.0
 11
31.8203
 21
102.927
 31
0.0
  0
LINE
  8
0
 62
     0
 10
50.8702
 20
102.927
 30
0.0
 11
50.8702
 21
101.927
 31
0.0
  0
LINE
  8
0
 62
     0
 10
50.8702
 20
101.927
 30
0.0
 11
50.0712
 21
101.927
 31
0.0
  0
LINE
  8
0
 62
     0
 10
50.0712
 20
101.927
 30
0.0
 11
50.0712
 21
98.9764
 31
0.0
  0
LINE
  8
0
 62
     0
 10
50.0712
 20
98.9764
 30
0.0
 11
50.8702
 21
98.9764
 31
0.0
  0
LINE
  8
0
 62
     0
 10
50.8702
 20
98.9764
 30
0.0
 11
50.8702
 21
93.0271
 31
0.0
  0
LINE
  8
0
 62
     0
 10
50.8702
 20
93.0271
 30
0.0
 11
50.0712
 21
93.0271
 31
0.0
  0
LINE
  8
0
 62
     0
 10
50.0712
 20
93.0271
 30
0.0
 11
50.0712
 21
90.0769
 31
0.0
  0
LINE
  8
0
 62
     0
 10
50.0712
 20
90.0769
 30
0.0
 11
50.8702
 21
90.0769
 31
0.0
  0
LINE
  8
0
 62
     0
 10
50.8702
 20
90.0769
 30
0.0
 11
50.8702
 21
89.0764
 31
0.0
  0
LINE
  8
0
 62
     0
 10
50.8702
 20
89.0764
 30
0.0
 11
64.721
 21
89.0764
 31
0.0
  0
LINE
  8
0
 62
     0
 10
64.721
 20
89.0764
 30
0.0
 11
64.721
 21
90.0769
 31
0.0
  0
LINE
  8
0
 62
     0
 10
64.721
 20
90.0769
 30
0.0
 11
65.5204
 21
90.0769
 31
0.0
  0
LINE
  8
0
 62
     0
 10
65.5204
 20
90.0769
 30
0.0
 11
65.5204
 21
93.0271
 31
0.0
  0
LINE
  8
0
 62
     0
 10
65.5204
 20
93.0271
 30
0.0
 11
64.721
 21
93.0271
 31
0.0
  0
LINE
  8
0
 62
     0
 10
64.721
 20
93.0271
 30
0.0
 11
64.721
 21
98.9764
 31
0.0
  0
LINE
  8
0
 62
     0
 10
64.721
 20
98.9764
 30
0.0
 11
65.5204
 21
98.9764
 31
0.0
  0
LINE
  8
0
 62
     0
 10
65.5204
 20
98.9764
 30
0.0
 11
65.5204
 21
101.927
 31
0.0
  0
LINE
  8
0
 62
     0
 10
65.5204
 20
101.927
 30
0.0
 11
64.721
 21
101.927
 31
0.0
  0
LINE
  8
0
 62
     0
 10
64.721
 20
101.927
 30
0.0
 11
64.721
 21
102.927
 31
0.0
  0
LINE
  8
0
 62
     0
 10
64.721
 20
102.927
 30
0.0
 11
50.8702
 21
102.927
 31
0.0
  0
LINE
  8
0
 62
     0
 10
69.9202
 20
102.927
 30
0.0
 11
69.9202
 21
101.927
 31
0.0
  0
LINE
  8
0
 62
     0
 10
69.9202
 20
101.927
 30
0.0
 11
69.1212
 21
101.927
 31
0.0
  0
LINE
  8
0
 62
     0
 10
69.1212
 20
101.927
 30
0.0
 11
69.1212
 21
98.9764
 31
0.0
  0
LINE
  8
0
 62
     0
 10
69.1212
 20
98.9764
 30
0.0
 11
69.9202
 21
98.9764
 31
0.0
  0
LINE
  8
0
 62
     0
 10
69.9202
 20
98.9764
 30
0.0
 11
69.9202
 21
93.0271
 31
0.0
  0
LINE
  8
0
 62
     0
 10
69.9202
 20
93.0271
 30
0.0
 11
69.1212
 21
93.0271
 31
0.0
  0
LINE
  8
0
 62
     0
 10
69.1212
 20
93.0271
 30
0.0
 11
69.1212
 21
90.0769
 31
0.0
  0
LINE
  8
0
 62
     0
 10
69.1212
 20
90.0769
 30
0.0
 11
69.9202
 21
90.0769
 31
0.0
  0
LINE
  8
0
 62
     0
 10
69.9202
 20
90.0769
 30
0.0
 11
69.9202
 21
89.0764
 31
0.0
  0
LINE
  8
0
 62
     0
 10
69.9202
 20
89.0764
 30
0.0
 11
83.771
 21
89.0764
 31
0.0
  0
LINE
  8
0
 62
     0
 10
83.771
 20
89.0764
 30
0.0
 11
83.771
 21
90.0769
 31
0.0
  0
LINE
  8
0
 62
     0
 10
83.771
 20
90.0769
 30
0.0
 11
84.5704
 21
90.0769
 31
0.0
  0
LINE
  8
0
 62
     0
 10
84.5704
 20
90.0769
 30
0.0
 11
84.5704
 21
93.0271
 31
0.0
  0
LINE
  8
0
 62
     0
 10
84.5704
 20
93.0271
 30
0.0
 11
83.771
 21
93.0271
 31
0.0
  0
LINE
  8
0
 62
     0
 10
83.771
 20
93.0271
 30
0.0
 11
83.771
 21
98.9764
 31
0.0
  0
LINE
  8
0
 62
     0
 10
83.771
 20
98.9764
 30
0.0
 11
84.5704
 21
98.9764
 31
0.0
  0
LINE
  8
0
 62
     0
 10
84.5704
 20
98.9764
 30
0.0
 11
84.5704
 21
101.927
 31
0.0
  0
LINE
  8
0
 62
     0
 10
84.5704
 20
101.927
 30
0.0
 11
83.771
 21
101.927
 31
0.0
  0
LINE
  8
0
 62
     0
 10
83.771
 20
101.927
 30
0.0
 11
83.771
 21
102.927
 31
0.0
  0
LINE
  8
0
 62
     0
 10
83.771
 20
102.927
 30
0.0
 11
69.9202
 21
102.927
 31
0.0
  0
LINE
  8
0
 62
     0
 10
88.9702
 20
102.927
 30
0.0
 11
88.9702
 21
101.927
 31
0.0
  0
LINE
  8
0
 62
     0
 10
88.9702
 20
101.927
 30
0.0
 11
88.1712
 21
101.927
 31
0.0
  0
LINE
  8
0
 62
     0
 10
88.1712
 20
101.927
 30
0.0
 11
88.1712
 21
98.9764
 31
0.0
  0
LINE
  8
0
 62
     0
 10
88.1712
 20
98.9764
 30
0.0
 11
88.9702
 21
98.9764
 31
0.0
  0
LINE
  8
0
 62
     0
 10
88.9702
 20
98.9764
 30
0.0
 11
88.9702
 21
93.0271
 31
0.0
  0
LINE
  8
0
 62
     0
 10
88.9702
 20
93.0271
 30
0.0
 11
88.1712
 21
93.0271
 31
0.0
  0
LINE
  8
0
 62
     0
 10
88.1712
 20
93.0271
 30
0.0
 11
88.1712
 21
90.0769
 31
0.0
  0
LINE
  8
0
 62
     0
 10
88.1712
 20
90.0769
 30
0.0
 11
88.9702
 21
90.0769
 31
0.0
  0
LINE
  8
0
 62
     0
 10
88.9702
 20
90.0769
 30
0.0
 11
88.9702
 21
89.0764
 31
0.0
  0
LINE
  8
0
 62
     0
 10
88.9702
 20
89.0764
 30
0.0
 11
102.821
 21
89.0764
 31
0.0
  0
LINE
  8
0
 62
     0
 10
102.821
 20
89.0764
 30
0.0
 11
102.821
 21
90.0769
 31
0.0
  0
LINE
  8
0
 62
     0
 10
102.821
 20
90.0769
 30
0.0
 11
103.619
 21
90.0769
 31
0.0
  0
LINE
  8
0
 62
     0
 10
103.619
 20
90.0769
 30
0.0
 11
103.619
 21
93.0271
 31
0.0
  0
LINE
  8
0
 62
     0
 10
103.619
 20
93.0271
 30
0.0
 11
102.821
 21
93.0271
 31
0.0
  0
LINE
  8
0
 62
     0
 10
102.821
 20
93.0271
 30
0.0
 11
102.821
 21
98.9764
 31
0.0
  0
LINE
  8
0
 62
     0
 10
102.821
 20
98.9764
 30
0.0
 11
103.619
 21
98.9764
 31
0.0
  0
LINE
  8
0
 62
     0
 10
103.619
 20
98.9764
 30
0.0
 11
103.619
 21
101.927
 31
0.0
  0
LINE
  8
0
 62
     0
 10
103.619
 20
101.927
 30
0.0
 11
102.821
 21
101.927
 31
0.0
  0
LINE
  8
0
 62
     0
 10
102.821
 20
101.927
 30
0.0
 11
102.821
 21
102.927
 31
0.0
  0
LINE
  8
0
 62
     0
 10
102.821
 20
102.927
 30
0.0
 11
88.9702
 21
102.927
 31
0.0
  0
LINE
  8
0
 62
     0
 10
108.02
 20
102.927
 30
0.0
 11
108.02
 21
101.927
 31
0.0
  0
LINE
  8
0
 62
     0
 10
108.02
 20
101.927
 30
0.0
 11
107.221
 21
101.927
 31
0.0
  0
LINE
  8
0
 62
     0
 10
107.221
 20
101.927
 30
0.0
 11
107.221
 21
98.9764
 31
0.0
  0
LINE
  8
0
 62
     0
 10
107.221
 20
98.9764
 30
0.0
 11
108.02
 21
98.9764
 31
0.0
  0
LINE
  8
0
 62
     0
 10
108.02
 20
98.9764
 30
0.0
 11
108.02
 21
93.0271
 31
0.0
  0
LINE
  8
0
 62
     0
 10
108.02
 20
93.0271
 30
0.0
 11
107.221
 21
93.0271
 31
0.0
  0
LINE
  8
0
 62
     0
 10
107.221
 20
93.0271
 30
0.0
 11
107.221
 21
90.0769
 31
0.0
  0
LINE
  8
0
 62
     0
 10
107.221
 20
90.0769
 30
0.0
 11
108.02
 21
90.0769
 31
0.0
  0
LINE
  8
0
 62
     0
 10
108.02
 20
90.0769
 30
0.0
 11
108.02
 21
89.0764
 31
0.0
  0
LINE
  8
0
 62
     0
 10
108.02
 20
89.0764
 30
0.0
 11
121.87
 21
89.0764
 31
0.0
  0
LINE
  8
0
 62
     0
 10
121.87
 20
89.0764
 30
0.0
 11
121.87
 21
90.0769
 31
0.0
  0
LINE
  8
0
 62
     0
 10
121.87
 20
90.0769
 30
0.0
 11
122.669
 21
90.0769
 31
0.0
  0
LINE
  8
0
 62
     0
 10
122.669
 20
90.0769
 30
0.0
 11
122.669
 21
93.0271
 31
0.0
  0
LINE
  8
0
 62
     0
 10
122.669
 20
93.0271
 30
0.0
 11
121.87
 21
93.0271
 31
0.0
  0
LINE
  8
0
 62
     0
 10
121.87
 20
93.0271
 30
0.0
 11
121.87
 21
98.9764
 31
0.0
  0
LINE
  8
0
 62
     0
 10
121.87
 20
98.9764
 30
0.0
 11
122.669
 21
98.9764
 31
0.0
  0
LINE
  8
0
 62
     0
 10
122.669
 20
98.9764
 30
0.0
 11
122.669
 21
101.927
 31
0.0
  0
LINE
  8
0
 62
     0
 10
122.669
 20
101.927
 30
0.0
 11
121.87
 21
101.927
 31
0.0
  0
LINE
  8
0
 62
     0
 10
121.87
 20
101.927
 30
0.0
 11
121.87
 21
102.927
 31
0.0
  0
LINE
  8
0
 62
     0
 10
121.87
 20
102.927
 30
0.0
 11
108.02
 21
102.927
 31
0.0
  0
LINE
  8
0
 62
     0
 10
127.07
 20
102.927
 30
0.0
 11
127.07
 21
101.927
 31
0.0
  0
LINE
  8
0
 62
     0
 10
127.07
 20
101.927
 30
0.0
 11
126.271
 21
101.927
 31
0.0
  0
LINE
  8
0
 62
     0
 10
126.271
 20
101.927
 30
0.0
 11
126.271
 21
98.9764
 31
0.0
  0
LINE
  8
0
 62
     0
 10
126.271
 20
98.9764
 30
0.0
 11
127.07
 21
98.9764
 31
0.0
  0
LINE
  8
0
 62
     0
 10
127.07
 20
98.9764
 30
0.0
 11
127.07
 21
93.0271
 31
0.0
  0
LINE
  8
0
 62
     0
 10
127.07
 20
93.0271
 30
0.0
 11
126.271
 21
93.0271
 31
0.0
  0
LINE
  8
0
 62
     0
 10
126.271
 20
93.0271
 30
0.0
 11
126.271
 21
90.0769
 31
0.0
  0
LINE
  8
0
 62
     0
 10
126.271
 20
90.0769
 30
0.0
 11
127.07
 21
90.0769
 31
0.0
  0
LINE
  8
0
 62
     0
 10
127.07
 20
90.0769
 30
0.0
 11
127.07
 21
89.0764
 31
0.0
  0
LINE
  8
0
 62
     0
 10
127.07
 20
89.0764
 30
0.0
 11
140.921
 21
89.0764
 31
0.0
  0
LINE
  8
0
 62
     0
 10
140.921
 20
89.0764
 30
0.0
 11
140.921
 21
90.0769
 31
0.0
  0
LINE
  8
0
 62
     0
 10
140.921
 20
90.0769
 30
0.0
 11
141.72
 21
90.0769
 31
0.0
  0
LINE
  8
0
 62
     0
 10
141.72
 20
90.0769
 30
0.0
 11
141.72
 21
93.0271
 31
0.0
  0
LINE
  8
0
 62
     0
 10
141.72
 20
93.0271
 30
0.0
 11
140.921
 21
93.0271
 31
0.0
  0
LINE
  8
0
 62
     0
 10
140.921
 20
93.0271
 30
0.0
 11
140.921
 21
98.9764
 31
0.0
  0
LINE
  8
0
 62
     0
 10
140.921
 20
98.9764
 30
0.0
 11
141.72
 21
98.9764
 31
0.0
  0
LINE
  8
0
 62
     0
 10
141.72
 20
98.9764
 30
0.0
 11
141.72
 21
101.927
 31
0.0
  0
LINE
  8
0
 62
     0
 10
141.72
 20
101.927
 30
0.0
 11
140.921
 21
101.927
 31
0.0
  0
LINE
  8
0
 62
     0
 10
140.921
 20
101.927
 30
0.0
 11
140.921
 21
102.927
 31
0.0
  0
LINE
  8
0
 62
     0
 10
140.921
 20
102.927
 30
0.0
 11
127.07
 21
102.927
 31
0.0
  0
LINE
  8
0
 62
     0
 10
146.12
 20
102.927
 30
0.0
 11
146.12
 21
101.927
 31
0.0
  0
LINE
  8
0
 62
     0
 10
146.12
 20
101.927
 30
0.0
 11
145.321
 21
101.927
 31
0.0
  0
LINE
  8
0
 62
     0
 10
145.321
 20
101.927
 30
0.0
 11
145.321
 21
98.9764
 31
0.0
  0
LINE
  8
0
 62
     0
 10
145.321
 20
98.9764
 30
0.0
 11
146.12
 21
98.9764
 31
0.0
  0
LINE
  8
0
 62
     0
 10
146.12
 20
98.9764
 30
0.0
 11
146.12
 21
93.0271
 31
0.0
  0
LINE
  8
0
 62
     0
 10
146.12
 20
93.0271
 30
0.0
 11
145.321
 21
93.0271
 31
0.0
  0
LINE
  8
0
 62
     0
 10
145.321
 20
93.0271
 30
0.0
 11
145.321
 21
90.0769
 31
0.0
  0
LINE
  8
0
 62
     0
 10
145.321
 20
90.0769
 30
0.0
 11
146.12
 21
90.0769
 31
0.0
  0
LINE
  8
0
 62
     0
 10
146.12
 20
90.0769
 30
0.0
 11
146.12
 21
89.0764
 31
0.0
  0
LINE
  8
0
 62
     0
 10
146.12
 20
89.0764
 30
0.0
 11
159.971
 21
89.0764
 31
0.0
  0
LINE
  8
0
 62
     0
 10
159.971
 20
89.0764
 30
0.0
 11
159.971
 21
90.0769
 31
0.0
  0
LINE
  8
0
 62
     0
 10
159.971
 20
90.0769
 30
0.0
 11
160.77
 21
90.0769
 31
0.0
  0
LINE
  8
0
 62
     0
 10
160.77
 20
90.0769
 30
0.0
 11
160.77
 21
93.0271
 31
0.0
  0
LINE
  8
0
 62
     0
 10
160.77
 20
93.0271
 30
0.0
 11
159.971
 21
93.0271
 31
0.0
  0
LINE
  8
0
 62
     0
 10
159.971
 20
93.0271
 30
0.0
 11
159.971
 21
98.9764
 31
0.0
  0
LINE
  8
0
 62
     0
 10
159.971
 20
98.9764
 30
0.0
 11
160.77
 21
98.9764
 31
0.0
  0
LINE
  8
0
 62
     0
 10
160.77
 20
98.9764
 30
0.0
 11
160.77
 21
101.927
 31
0.0
  0
LINE
  8
0
 62
     0
 10
160.77
 20
101.927
 30
0.0
 11
159.971
 21
101.927
 31
0.0
  0
LINE
  8
0
 62
     0
 10
159.971
 20
101.927
 30
0.0
 11
159.971
 21
102.927
 31
0.0
  0
LINE
  8
0
 62
     0
 10
159.971
 20
102.927
 30
0.0
 11
146.12
 21
102.927
 31
0.0
  0
LINE
  8
0
 62
     0
 10
165.17
 20
102.927
 30
0.0
 11
165.17
 21
101.927
 31
0.0
  0
LINE
  8
0
 62
     0
 10
165.17
 20
101.927
 30
0.0
 11
164.371
 21
101.927
 31
0.0
  0
LINE
  8
0
 62
     0
 10
164.371
 20
101.927
 30
0.0
 11
164.371
 21
98.9764
 31
0.0
  0
LINE
  8
0
 62
     0
 10
164.371
 20
98.9764
 30
0.0
 11
165.17
 21
98.9764
 31
0.0
  0
LINE
  8
0
 62
     0
 10
165.17
 20
98.9764
 30
0.0
 11
165.17
 21
93.0271
 31
0.0
  0
LINE
  8
0
 62
     0
 10
165.17
 20
93.0271
 30
0.0
 11
164.371
 21
93.0271
 31
0.0
  0
LINE
  8
0
 62
     0
 10
164.371
 20
93.0271
 30
0.0
 11
164.371
 21
90.0769
 31
0.0
  0
LINE
  8
0
 62
     0
 10
164.371
 20
90.0769
 30
0.0
 11
165.17
 21
90.0769
 31
0.0
  0
LINE
  8
0
 62
     0
 10
165.17
 20
90.0769
 30
0.0
 11
165.17
 21
89.0764
 31
0.0
  0
LINE
  8
0
 62
     0
 10
165.17
 20
89.0764
 30
0.0
 11
179.021
 21
89.0764
 31
0.0
  0
LINE
  8
0
 62
     0
 10
179.021
 20
89.0764
 30
0.0
 11
179.021
 21
90.0769
 31
0.0
  0
LINE
  8
0
 62
     0
 10
179.021
 20
90.0769
 30
0.0
 11
179.82
 21
90.0769
 31
0.0
  0
LINE
  8
0
 62
     0
 10
179.82
 20
90.0769
 30
0.0
 11
179.82
 21
93.0271
 31
0.0
  0
LINE
  8
0
 62
     0
 10
179.82
 20
93.0271
 30
0.0
 11
179.021
 21
93.0271
 31
0.0
  0
LINE
  8
0
 62
     0
 10
179.021
 20
93.0271
 30
0.0
 11
179.021
 21
98.9764
 31
0.0
  0
LINE
  8
0
 62
     0
 10
179.021
 20
98.9764
 30
0.0
 11
179.82
 21
98.9764
 31
0.0
  0
LINE
  8
0
 62
     0
 10
179.82
 20
98.9764
 30
0.0
 11
179.82
 21
101.927
 31
0.0
  0
LINE
  8
0
 62
     0
 10
179.82
 20
101.927
 30
0.0
 11
179.021
 21
101.927
 31
0.0
  0
LINE
  8
0
 62
     0
 10
179.021
 20
101.927
 30
0.0
 11
179.021
 21
102.927
 31
0.0
  0
LINE
  8
0
 62
     0
 10
179.021
 20
102.927
 30
0.0
 11
165.17
 21
102.927
 31
0.0
  0
LINE
  8
0
 62
     0
 10
184.22
 20
102.927
 30
0.0
 11
184.22
 21
101.927
 31
0.0
  0
LINE
  8
0
 62
     0
 10
184.22
 20
101.927
 30
0.0
 11
183.421
 21
101.927
 31
0.0
  0
LINE
  8
0
 62
     0
 10
183.421
 20
101.927
 30
0.0
 11
183.421
 21
98.9764
 31
0.0
  0
LINE
  8
0
 62
     0
 10
183.421
 20
98.9764
 30
0.0
 11
184.22
 21
98.9764
 31
0.0
  0
LINE
  8
0
 62
     0
 10
184.22
 20
98.9764
 30
0.0
 11
184.22
 21
93.0271
 31
0.0
  0
LINE
  8
0
 62
     0
 10
184.22
 20
93.0271
 30
0.0
 11
183.421
 21
93.0271
 31
0.0
  0
LINE
  8
0
 62
     0
 10
183.421
 20
93.0271
 30
0.0
 11
183.421
 21
90.0769
 31
0.0
  0
LINE
  8
0
 62
     0
 10
183.421
 20
90.0769
 30
0.0
 11
184.22
 21
90.0769
 31
0.0
  0
LINE
  8
0
 62
     0
 10
184.22
 20
90.0769
 30
0.0
 11
184.22
 21
89.0764
 31
0.0
  0
LINE
  8
0
 62
     0
 10
184.22
 20
89.0764
 30
0.0
 11
198.071
 21
89.0764
 31
0.0
  0
LINE
  8
0
 62
     0
 10
198.071
 20
89.0764
 30
0.0
 11
198.071
 21
90.0769
 31
0.0
  0
LINE
  8
0
 62
     0
 10
198.071
 20
90.0769
 30
0.0
 11
198.87
 21
90.0769
 31
0.0
  0
LINE
  8
0
 62
     0
 10
198.87
 20
90.0769
 30
0.0
 11
198.87
 21
93.0271
 31
0.0
  0
LINE
  8
0
 62
     0
 10
198.87
 20
93.0271
 30
0.0
 11
198.071
 21
93.0271
 31
0.0
  0
LINE
  8
0
 62
     0
 10
198.071
 20
93.0271
 30
0.0
 11
198.071
 21
98.9764
 31
0.0
  0
LINE
  8
0
 62
     0
 10
198.071
 20
98.9764
 30
0.0
 11
198.87
 21
98.9764
 31
0.0
  0
LINE
  8
0
 62
     0
 10
198.87
 20
98.9764
 30
0.0
 11
198.87
 21
101.927
 31
0.0
  0
LINE
  8
0
 62
     0
 10
198.87
 20
101.927
 30
0.0
 11
198.071
 21
101.927
 31
0.0
  0
LINE
  8
0
 62
     0
 10
198.071
 20
101.927
 30
0.0
 11
198.071
 21
102.927
 31
0.0
  0
LINE
  8
0
 62
     0
 10
198.071
 20
102.927
 30
0.0
 11
184.22
 21
102.927
 31
0.0
  0
LINE
  8
0
 62
     0
 10
203.27
 20
102.927
 30
0.0
 11
203.27
 21
101.927
 31
0.0
  0
LINE
  8
0
 62
     0
 10
203.27
 20
101.927
 30
0.0
 11
202.471
 21
101.927
 31
0.0
  0
LINE
  8
0
 62
     0
 10
202.471
 20
101.927
 30
0.0
 11
202.471
 21
98.9764
 31
0.0
  0
LINE
  8
0
 62
     0
 10
202.471
 20
98.9764
 30
0.0
 11
203.27
 21
98.9764
 31
0.0
  0
LINE
  8
0
 62
     0
 10
203.27
 20
98.9764
 30
0.0
 11
203.27
 21
93.0271
 31
0.0
  0
LINE
  8
0
 62
     0
 10
203.27
 20
93.0271
 30
0.0
 11
202.471
 21
93.0271
 31
0.0
  0
LINE
  8
0
 62
     0
 10
202.471
 20
93.0271
 30
0.0
 11
202.471
 21
90.0769
 31
0.0
  0
LINE
  8
0
 62
     0
 10
202.471
 20
90.0769
 30
0.0
 11
203.27
 21
90.0769
 31
0.0
  0
LINE
  8
0
 62
     0
 10
203.27
 20
90.0769
 30
0.0
 11
203.27
 21
89.0764
 31
0.0
  0
LINE
  8
0
 62
     0
 10
203.27
 20
89.0764
 30
0.0
 11
217.121
 21
89.0764
 31
0.0
  0
LINE
  8
0
 62
     0
 10
217.121
 20
89.0764
 30
0.0
 11
217.121
 21
90.0769
 31
0.0
  0
LINE
  8
0
 62
     0
 10
217.121
 20
90.0769
 30
0.0
 11
217.92
 21
90.0769
 31
0.0
  0
LINE
  8
0
 62
     0
 10
217.92
 20
90.0769
 30
0.0
 11
217.92
 21
93.0271
 31
0.0
  0
LINE
  8
0
 62
     0
 10
217.92
 20
93.0271
 30
0.0
 11
217.121
 21
93.0271
 31
0.0
  0
LINE
  8
0
 62
     0
 10
217.121
 20
93.0271
 30
0.0
 11
217.121
 21
98.9764
 31
0.0
  0
LINE
  8
0
 62
     0
 10
217.121
 20
98.9764
 30
0.0
 11
217.92
 21
98.9764
 31
0.0
  0
LINE
  8
0
 62
     0
 10
217.92
 20
98.9764
 30
0.0
 11
217.92
 21
101.927
 31
0.0
  0
LINE
  8
0
 62
     0
 10
217.92
 20
101.927
 30
0.0
 11
217.121
 21
101.927
 31
0.0
  0
LINE
  8
0
 62
     0
 10
217.121
 20
101.927
 30
0.0
 11
217.121
 21
102.927
 31
0.0
  0
LINE
  8
0
 62
     0
 10
217.121
 20
102.927
 30
0.0
 11
203.27
 21
102.927
 31
0.0
  0
LINE
  8
0
 62
     0
 10
222.32
 20
102.927
 30
0.0
 11
222.32
 21
101.927
 31
0.0
  0
LINE
  8
0
 62
     0
 10
222.32
 20
101.927
 30
0.0
 11
221.521
 21
101.927
 31
0.0
  0
LINE
  8
0
 62
     0
 10
221.521
 20
101.927
 30
0.0
 11
221.521
 21
98.9764
 31
0.0
  0
LINE
  8
0
 62
     0
 10
221.521
 20
98.9764
 30
0.0
 11
222.32
 21
98.9764
 31
0.0
  0
LINE
  8
0
 62
     0
 10
222.32
 20
98.9764
 30
0.0
 11
222.32
 21
93.0271
 31
0.0
  0
LINE
  8
0
 62
     0
 10
222.32
 20
93.0271
 30
0.0
 11
221.521
 21
93.0271
 31
0.0
  0
LINE
  8
0
 62
     0
 10
221.521
 20
93.0271
 30
0.0
 11
221.521
 21
90.0769
 31
0.0
  0
LINE
  8
0
 62
     0
 10
221.521
 20
90.0769
 30
0.0
 11
222.32
 21
90.0769
 31
0.0
  0
LINE
  8
0
 62
     0
 10
222.32
 20
90.0769
 30
0.0
 11
222.32
 21
89.0764
 31
0.0
  0
LINE
  8
0
 62
     0
 10
222.32
 20
89.0764
 30
0.0
 11
236.171
 21
89.0764
 31
0.0
  0
LINE
  8
0
 62
     0
 10
236.171
 20
89.0764
 30
0.0
 11
236.171
 21
90.0769
 31
0.0
  0
LINE
  8
0
 62
     0
 10
236.171
 20
90.0769
 30
0.0
 11
236.97
 21
90.0769
 31
0.0
  0
LINE
  8
0
 62
     0
 10
236.97
 20
90.0769
 30
0.0
 11
236.97
 21
93.0271
 31
0.0
  0
LINE
  8
0
 62
     0
 10
236.97
 20
93.0271
 30
0.0
 11
236.171
 21
93.0271
 31
0.0
  0
LINE
  8
0
 62
     0
 10
236.171
 20
93.0271
 30
0.0
 11
236.171
 21
98.9764
 31
0.0
  0
LINE
  8
0
 62
     0
 10
236.171
 20
98.9764
 30
0.0
 11
236.97
 21
98.9764
 31
0.0
  0
LINE
  8
0
 62
     0
 10
236.97
 20
98.9764
 30
0.0
 11
236.97
 21
101.927
 31
0.0
  0
LINE
  8
0
 62
     0
 10
236.97
 20
101.927
 30
0.0
 11
236.171
 21
101.927
 31
0.0
  0
LINE
  8
0
 62
     0
 10
236.171
 20
101.927
 30
0.0
 11
236.171
 21
102.927
 31
0.0
  0
LINE
  8
0
 62
     0
 10
236.171
 20
102.927
 30
0.0
 11
222.32
 21
102.927
 31
0.0
  0
LINE
  8
0
 62
     0
 10
241.37
 20
102.927
 30
0.0
 11
241.37
 21
101.927
 31
0.0
  0
LINE
  8
0
 62
     0
 10
241.37
 20
101.927
 30
0.0
 11
240.571
 21
101.927
 31
0.0
  0
LINE
  8
0
 62
     0
 10
240.571
 20
101.927
 30
0.0
 11
240.571
 21
98.9764
 31
0.0
  0
LINE
  8
0
 62
     0
 10
240.571
 20
98.9764
 30
0.0
 11
241.37
 21
98.9764
 31
0.0
  0
LINE
  8
0
 62
     0
 10
241.37
 20
98.9764
 30
0.0
 11
241.37
 21
93.0271
 31
0.0
  0
LINE
  8
0
 62
     0
 10
241.37
 20
93.0271
 30
0.0
 11
240.571
 21
93.0271
 31
0.0
  0
LINE
  8
0
 62
     0
 10
240.571
 20
93.0271
 30
0.0
 11
240.571
 21
90.0769
 31
0.0
  0
LINE
  8
0
 62
     0
 10
240.571
 20
90.0769
 30
0.0
 11
241.37
 21
90.0769
 31
0.0
  0
LINE
  8
0
 62
     0
 10
241.37
 20
90.0769
 30
0.0
 11
241.37
 21
89.0764
 31
0.0
  0
LINE
  8
0
 62
     0
 10
241.37
 20
89.0764
 30
0.0
 11
255.221
 21
89.0764
 31
0.0
  0
LINE
  8
0
 62
     0
 10
255.221
 20
89.0764
 30
0.0
 11
255.221
 21
90.0769
 31
0.0
  0
LINE
  8
0
 62
     0
 10
255.221
 20
90.0769
 30
0.0
 11
256.02
 21
90.0769
 31
0.0
  0
LINE
  8
0
 62
     0
 10
256.02
 20
90.0769
 30
0.0
 11
256.02
 21
93.0271
 31
0.0
  0
LINE
  8
0
 62
     0
 10
256.02
 20
93.0271
 30
0.0
 11
255.221
 21
93.0271
 31
0.0
  0
LINE
  8
0
 62
     0
 10
255.221
 20
93.0271
 30
0.0
 11
255.221
 21
98.9764
 31
0.0
  0
LINE
  8
0
 62
     0
 10
255.221
 20
98.9764
 30
0.0
 11
256.02
 21
98.9764
 31
0.0
  0
LINE
  8
0
 62
     0
 10
256.02
 20
98.9764
 30
0.0
 11
256.02
 21
101.927
 31
0.0
  0
LINE
  8
0
 62
     0
 10
256.02
 20
101.927
 30
0.0
 11
255.221
 21
101.927
 31
0.0
  0
LINE
  8
0
 62
     0
 10
255.221
 20
101.927
 30
0.0
 11
255.221
 21
102.927
 31
0.0
  0
LINE
  8
0
 62
     0
 10
255.221
 20
102.927
 30
0.0
 11
241.37
 21
102.927
 31
0.0
  0
LINE
  8
0
 62
     0
 10
260.42
 20
102.927
 30
0.0
 11
260.42
 21
101.927
 31
0.0
  0
LINE
  8
0
 62
     0
 10
260.42
 20
101.927
 30
0.0
 11
259.621
 21
101.927
 31
0.0
  0
LINE
  8
0
 62
     0
 10
259.621
 20
101.927
 30
0.0
 11
259.621
 21
98.9764
 31
0.0
  0
LINE
  8
0
 62
     0
 10
259.621
 20
98.9764
 30
0.0
 11
260.42
 21
98.9764
 31
0.0
  0
LINE
  8
0
 62
     0
 10
260.42
 20
98.9764
 30
0.0
 11
260.42
 21
93.0271
 31
0.0
  0
LINE
  8
0
 62
     0
 10
260.42
 20
93.0271
 30
0.0
 11
259.621
 21
93.0271
 31
0.0
  0
LINE
  8
0
 62
     0
 10
259.621
 20
93.0271
 30
0.0
 11
259.621
 21
90.0769
 31
0.0
  0
LINE
  8
0
 62
     0
 10
259.621
 20
90.0769
 30
0.0
 11
260.42
 21
90.0769
 31
0.0
  0
LINE
  8
0
 62
     0
 10
260.42
 20
90.0769
 30
0.0
 11
260.42
 21
89.0764
 31
0.0
  0
LINE
  8
0
 62
     0
 10
260.42
 20
89.0764
 30
0.0
 11
274.271
 21
89.0764
 31
0.0
  0
LINE
  8
0
 62
     0
 10
274.271
 20
89.0764
 30
0.0
 11
274.271
 21
90.0769
 31
0.0
  0
LINE
  8
0
 62
     0
 10
274.271
 20
90.0769
 30
0.0
 11
275.07
 21
90.0769
 31
0.0
  0
LINE
  8
0
 62
     0
 10
275.07
 20
90.0769
 30
0.0
 11
275.07
 21
93.0271
 31
0.0
  0
LINE
  8
0
 62
     0
 10
275.07
 20
93.0271
 30
0.0
 11
274.271
 21
93.0271
 31
0.0
  0
LINE
  8
0
 62
     0
 10
274.271
 20
93.0271
 30
0.0
 11
274.271
 21
98.9764
 31
0.0
  0
LINE
  8
0
 62
     0
 10
274.271
 20
98.9764
 30
0.0
 11
275.07
 21
98.9764
 31
0.0
  0
LINE
  8
0
 62
     0
 10
275.07
 20
98.9764
 30
0.0
 11
275.07
 21
101.927
 31
0.0
  0
LINE
  8
0
 62
     0
 10
275.07
 20
101.927
 30
0.0
 11
274.271
 21
101.927
 31
0.0
  0
LINE
  8
0
 62
     0
 10
274.271
 20
101.927
 30
0.0
 11
274.271
 21
102.927
 31
0.0
  0
LINE
  8
0
 62
     0
 10
274.271
 20
102.927
 30
0.0
 11
260.42
 21
102.927
 31
0.0
  0
LINE
  8
0
 62
     0
 10
279.47
 20
102.927
 30
0.0
 11
279.47
 21
101.927
 31
0.0
  0
LINE
  8
0
 62
     0
 10
279.47
 20
101.927
 30
0.0
 11
278.671
 21
101.927
 31
0.0
  0
LINE
  8
0
 62
     0
 10
278.671
 20
101.927
 30
0.0
 11
278.671
 21
98.9764
 31
0.0
  0
LINE
  8
0
 62
     0
 10
278.671
 20
98.9764
 30
0.0
 11
279.47
 21
98.9764
 31
0.0
  0
LINE
  8
0
 62
     0
 10
279.47
 20
98.9764
 30
0.0
 11
279.47
 21
93.0271
 31
0.0
  0
LINE
  8
0
 62
     0
 10
279.47
 20
93.0271
 30
0.0
 11
278.671
 21
93.0271
 31
0.0
  0
LINE
  8
0
 62
     0
 10
278.671
 20
93.0271
 30
0.0
 11
278.671
 21
90.0769
 31
0.0
  0
LINE
  8
0
 62
     0
 10
278.671
 20
90.0769
 30
0.0
 11
279.47
 21
90.0769
 31
0.0
  0
LINE
  8
0
 62
     0
 10
279.47
 20
90.0769
 30
0.0
 11
279.47
 21
89.0764
 31
0.0
  0
LINE
  8
0
 62
     0
 10
279.47
 20
89.0764
 30
0.0
 11
293.321
 21
89.0764
 31
0.0
  0
LINE
  8
0
 62
     0
 10
293.321
 20
89.0764
 30
0.0
 11
293.321
 21
90.0769
 31
0.0
  0
LINE
  8
0
 62
     0
 10
293.321
 20
90.0769
 30
0.0
 11
294.12
 21
90.0769
 31
0.0
  0
LINE
  8
0
 62
     0
 10
294.12
 20
90.0769
 30
0.0
 11
294.12
 21
93.0271
 31
0.0
  0
LINE
  8
0
 62
     0
 10
294.12
 20
93.0271
 30
0.0
 11
293.321
 21
93.0271
 31
0.0
  0
LINE
  8
0
 62
     0
 10
293.321
 20
93.0271
 30
0.0
 11
293.321
 21
98.9764
 31
0.0
  0
LINE
  8
0
 62
     0
 10
293.321
 20
98.9764
 30
0.0
 11
294.12
 21
98.9764
 31
0.0
  0
LINE
  8
0
 62
     0
 10
294.12
 20
98.9764
 30
0.0
 11
294.12
 21
101.927
 31
0.0
  0
LINE
  8
0
 62
     0
 10
294.12
 20
101.927
 30
0.0
 11
293.321
 21
101.927
 31
0.0
  0
LINE
  8
0
 62
     0
 10
293.321
 20
101.927
 30
0.0
 11
293.321
 21
102.927
 31
0.0
  0
LINE
  8
0
 62
     0
 10
293.321
 20
102.927
 30
0.0
 11
279.47
 21
102.927
 31
0.0
  0
LINE
  8
0
 62
     0
 10
103.467
 20
141.407
 30
0.0
 11
103.21
 21
141.275
 31
0.0
  0
LINE
  8
0
 62
     0
 10
103.21
 20
141.275
 30
0.0
 11
103.005
 21
141.071
 31
0.0
  0
LINE
  8
0
 62
     0
 10
103.005
 20
141.071
 30
0.0
 11
102.873
 21
140.812
 31
0.0
  0
LINE
  8
0
 62
     0
 10
102.873
 20
140.812
 30
0.0
 11
102.828
 21
140.527
 31
0.0
  0
LINE
  8
0
 62
     0
 10
102.828
 20
140.527
 30
0.0
 11
102.873
 21
140.242
 31
0.0
  0
LINE
  8
0
 62
     0
 10
102.873
 20
140.242
 30
0.0
 11
103.005
 21
139.984
 31
0.0
  0
LINE
  8
0
 62
     0
 10
103.005
 20
139.984
 30
0.0
 11
103.21
 21
139.779
 31
0.0
  0
LINE
  8
0
 62
     0
 10
103.21
 20
139.779
 30
0.0
 11
103.467
 21
139.648
 31
0.0
  0
LINE
  8
0
 62
     0
 10
103.467
 20
139.648
 30
0.0
 11
103.754
 21
139.602
 31
0.0
  0
LINE
  8
0
 62
     0
 10
103.754
 20
139.602
 30
0.0
 11
104.039
 21
139.648
 31
0.0
  0
LINE
  8
0
 62
     0
 10
104.039
 20
139.648
 30
0.0
 11
104.297
 21
139.779
 31
0.0
  0
LINE
  8
0
 62
     0
 10
104.297
 20
139.779
 30
0.0
 11
104.502
 21
139.984
 31
0.0
  0
LINE
  8
0
 62
     0
 10
104.502
 20
139.984
 30
0.0
 11
104.633
 21
140.242
 31
0.0
  0
LINE
  8
0
 62
     0
 10
104.633
 20
140.242
 30
0.0
 11
104.679
 21
140.527
 31
0.0
  0
LINE
  8
0
 62
     0
 10
104.679
 20
140.527
 30
0.0
 11
104.633
 21
140.812
 31
0.0
  0
LINE
  8
0
 62
     0
 10
104.633
 20
140.812
 30
0.0
 11
104.502
 21
141.071
 31
0.0
  0
LINE
  8
0
 62
     0
 10
104.502
 20
141.071
 30
0.0
 11
104.297
 21
141.275
 31
0.0
  0
LINE
  8
0
 62
     0
 10
104.297
 20
141.275
 30
0.0
 11
104.039
 21
141.407
 31
0.0
  0
LINE
  8
0
 62
     0
 10
104.039
 20
141.407
 30
0.0
 11
103.754
 21
141.453
 31
0.0
  0
LINE
  8
0
 62
     0
 10
103.754
 20
141.453
 30
0.0
 11
103.467
 21
141.407
 31
0.0
  0
LINE
  8
0
 62
     0
 10
202.052
 20
141.407
 30
0.0
 11
201.793
 21
141.275
 31
0.0
  0
LINE
  8
0
 62
     0
 10
201.793
 20
141.275
 30
0.0
 11
201.589
 21
141.071
 31
0.0
  0
LINE
  8
0
 62
     0
 10
201.589
 20
141.071
 30
0.0
 11
201.458
 21
140.812
 31
0.0
  0
LINE
  8
0
 62
     0
 10
201.458
 20
140.812
 30
0.0
 11
201.413
 21
140.527
 31
0.0
  0
LINE
  8
0
 62
     0
 10
201.413
 20
140.527
 30
0.0
 11
201.458
 21
140.242
 31
0.0
  0
LINE
  8
0
 62
     0
 10
201.458
 20
140.242
 30
0.0
 11
201.589
 21
139.984
 31
0.0
  0
LINE
  8
0
 62
     0
 10
201.589
 20
139.984
 30
0.0
 11
201.793
 21
139.779
 31
0.0
  0
LINE
  8
0
 62
     0
 10
201.793
 20
139.779
 30
0.0
 11
202.052
 21
139.648
 31
0.0
  0
LINE
  8
0
 62
     0
 10
202.052
 20
139.648
 30
0.0
 11
202.337
 21
139.602
 31
0.0
  0
LINE
  8
0
 62
     0
 10
202.337
 20
139.602
 30
0.0
 11
202.624
 21
139.648
 31
0.0
  0
LINE
  8
0
 62
     0
 10
202.624
 20
139.648
 30
0.0
 11
202.882
 21
139.779
 31
0.0
  0
LINE
  8
0
 62
     0
 10
202.882
 20
139.779
 30
0.0
 11
203.086
 21
139.984
 31
0.0
  0
LINE
  8
0
 62
     0
 10
203.086
 20
139.984
 30
0.0
 11
203.218
 21
140.242
 31
0.0
  0
LINE
  8
0
 62
     0
 10
203.218
 20
140.242
 30
0.0
 11
203.262
 21
140.527
 31
0.0
  0
LINE
  8
0
 62
     0
 10
203.262
 20
140.527
 30
0.0
 11
203.218
 21
140.812
 31
0.0
  0
LINE
  8
0
 62
     0
 10
203.218
 20
140.812
 30
0.0
 11
203.086
 21
141.071
 31
0.0
  0
LINE
  8
0
 62
     0
 10
203.086
 20
141.071
 30
0.0
 11
202.882
 21
141.275
 31
0.0
  0
LINE
  8
0
 62
     0
 10
202.882
 20
141.275
 30
0.0
 11
202.624
 21
141.407
 31
0.0
  0
LINE
  8
0
 62
     0
 10
202.624
 20
141.407
 30
0.0
 11
202.337
 21
141.453
 31
0.0
  0
LINE
  8
0
 62
     0
 10
202.337
 20
141.453
 30
0.0
 11
202.052
 21
141.407
 31
0.0
  0
LINE
  8
0
 62
     0
 10
300.635
 20
141.407
 30
0.0
 11
300.378
 21
141.275
 31
0.0
  0
LINE
  8
0
 62
     0
 10
300.378
 20
141.275
 30
0.0
 11
300.173
 21
141.071
 31
0.0
  0
LINE
  8
0
 62
     0
 10
300.173
 20
141.071
 30
0.0
 11
300.042
 21
140.812
 31
0.0
  0
LINE
  8
0
 62
     0
 10
300.042
 20
140.812
 30
0.0
 11
299.996
 21
140.527
 31
0.0
  0
LINE
  8
0
 62
     0
 10
299.996
 20
140.527
 30
0.0
 11
300.042
 21
140.242
 31
0.0
  0
LINE
  8
0
 62
     0
 10
300.042
 20
140.242
 30
0.0
 11
300.173
 21
139.984
 31
0.0
  0
LINE
  8
0
 62
     0
 10
300.173
 20
139.984
 30
0.0
 11
300.378
 21
139.779
 31
0.0
  0
LINE
  8
0
 62
     0
 10
300.378
 20
139.779
 30
0.0
 11
300.635
 21
139.648
 31
0.0
  0
LINE
  8
0
 62
     0
 10
300.635
 20
139.648
 30
0.0
 11
300.921
 21
139.602
 31
0.0
  0
LINE
  8
0
 62
     0
 10
300.921
 20
139.602
 30
0.0
 11
301.206
 21
139.648
 31
0.0
  0
LINE
  8
0
 62
     0
 10
301.206
 20
139.648
 30
0.0
 11
301.465
 21
139.779
 31
0.0
  0
LINE
  8
0
 62
     0
 10
301.465
 20
139.779
 30
0.0
 11
301.669
 21
139.984
 31
0.0
  0
LINE
  8
0
 62
     0
 10
301.669
 20
139.984
 30
0.0
 11
301.8
 21
140.242
 31
0.0
  0
LINE
  8
0
 62
     0
 10
301.8
 20
140.242
 30
0.0
 11
301.847
 21
140.527
 31
0.0
  0
LINE
  8
0
 62
     0
 10
301.847
 20
140.527
 30
0.0
 11
301.8
 21
140.812
 31
0.0
  0
LINE
  8
0
 62
     0
 10
301.8
 20
140.812
 30
0.0
 11
301.669
 21
141.071
 31
0.0
  0
LINE
  8
0
 62
     0
 10
301.669
 20
141.071
 30
0.0
 11
301.465
 21
141.275
 31
0.0
  0
LINE
  8
0
 62
     0
 10
301.465
 20
141.275
 30
0.0
 11
301.206
 21
141.407
 31
0.0
  0
LINE
  8
0
 62
     0
 10
301.206
 20
141.407
 30
0.0
 11
300.921
 21
141.453
 31
0.0
  0
LINE
  8
0
 62
     0
 10
300.921
 20
141.453
 30
0.0
 11
300.635
 21
141.407
 31
0.0
  0
LINE
  8
0
 62
     0
 10
4.88516
 20
141.407
 30
0.0
 11
4.62608
 21
141.275
 31
0.0
  0
LINE
  8
0
 62
     0
 10
4.62608
 20
141.275
 30
0.0
 11
4.42214
 21
141.071
 31
0.0
  0
LINE
  8
0
 62
     0
 10
4.42214
 20
141.071
 30
0.0
 11
4.28985
 21
140.812
 31
0.0
  0
LINE
  8
0
 62
     0
 10
4.28985
 20
140.812
 30
0.0
 11
4.24575
 21
140.528
 31
0.0
  0
LINE
  8
0
 62
     0
 10
4.24575
 20
140.528
 30
0.0
 11
4.28985
 21
140.242
 31
0.0
  0
LINE
  8
0
 62
     0
 10
4.28985
 20
140.242
 30
0.0
 11
4.42214
 21
139.984
 31
0.0
  0
LINE
  8
0
 62
     0
 10
4.42214
 20
139.984
 30
0.0
 11
4.62608
 21
139.779
 31
0.0
  0
LINE
  8
0
 62
     0
 10
4.62608
 20
139.779
 30
0.0
 11
4.88516
 21
139.648
 31
0.0
  0
LINE
  8
0
 62
     0
 10
4.88516
 20
139.648
 30
0.0
 11
5.17042
 21
139.602
 31
0.0
  0
LINE
  8
0
 62
     0
 10
5.17042
 20
139.602
 30
0.0
 11
5.45564
 21
139.648
 31
0.0
  0
LINE
  8
0
 62
     0
 10
5.45564
 20
139.648
 30
0.0
 11
5.71334
 21
139.779
 31
0.0
  0
LINE
  8
0
 62
     0
 10
5.71334
 20
139.779
 30
0.0
 11
5.91866
 21
139.984
 31
0.0
  0
LINE
  8
0
 62
     0
 10
5.91866
 20
139.984
 30
0.0
 11
6.04957
 21
140.242
 31
0.0
  0
LINE
  8
0
 62
     0
 10
6.04957
 20
140.242
 30
0.0
 11
6.09505
 21
140.528
 31
0.0
  0
LINE
  8
0
 62
     0
 10
6.09505
 20
140.528
 30
0.0
 11
6.04957
 21
140.812
 31
0.0
  0
LINE
  8
0
 62
     0
 10
6.04957
 20
140.812
 30
0.0
 11
5.91866
 21
141.071
 31
0.0
  0
LINE
  8
0
 62
     0
 10
5.91866
 20
141.071
 30
0.0
 11
5.71334
 21
141.275
 31
0.0
  0
LINE
  8
0
 62
     0
 10
5.71334
 20
141.275
 30
0.0
 11
5.45564
 21
141.407
 31
0.0
  0
LINE
  8
0
 62
     0
 10
5.45564
 20
141.407
 30
0.0
 11
5.17042
 21
141.453
 31
0.0
  0
LINE
  8
0
 62
     0
 10
5.17042
 20
141.453
 30
0.0
 11
4.88516
 21
141.407
 31
0.0
  0
ENDSEC
  0
EOF
