<?xml version="1.0"?>
<!-- Generated by SVGo -->
<svg width="315.902mm" height="155.402mm"
     viewBox="0.000 0.000 315.902 155.402"
     xmlns="http://www.w3.org/2000/svg" 
     xmlns:xlink="http://www.w3.org/1999/xlink">
<polygon points="308.902,5.001 309.058,5.007 309.214,5.025 309.368,5.056 309.520,5.098 309.667,5.153 309.809,5.218 309.946,5.295 310.077,5.382 310.200,5.480 310.316,5.586 310.422,5.702 310.520,5.825 310.607,5.956 310.684,6.093 310.749,6.235 310.804,6.382 310.846,6.534 310.877,6.688 310.895,6.844 310.902,7.001 310.902,148.402 310.895,148.558 310.877,148.714 310.846,148.868 310.804,149.020 310.749,149.167 310.684,149.309 310.607,149.446 310.520,149.577 310.422,149.700 310.316,149.816 310.200,149.922 310.077,150.020 309.946,150.107 309.809,150.184 309.667,150.249 309.520,150.304 309.368,150.346 309.214,150.377 309.058,150.395 308.901,150.402 7.001,150.402 6.844,150.395 6.688,150.377 6.534,150.346 6.382,150.304 6.235,150.249 6.093,150.184 5.956,150.107 5.825,150.020 5.702,149.922 5.586,149.816 5.480,149.700 5.382,149.577 5.295,149.446 5.218,149.309 5.153,149.167 5.098,149.020 5.056,148.868 5.025,148.714 5.007,148.558 5.000,148.401 5.001,7.001 5.007,6.844 5.025,6.688 5.056,6.534 5.098,6.382 5.153,6.235 5.218,6.093 5.295,5.956 5.382,5.825 5.480,5.702 5.586,5.586 5.702,5.480 5.825,5.382 5.956,5.295 6.093,5.218 6.235,5.153 6.382,5.098 6.534,5.056 6.688,5.025 6.844,5.007 7.001,5.000" style="fill:none;stroke-width:0.050000mm;stroke:black"/>
<polygon points="305.541,144.447 305.283,144.578 305.078,144.783 304.947,145.041 304.902,145.327 304.947,145.612 305.078,145.870 305.283,146.075 305.541,146.206 305.827,146.251 306.112,146.206 306.370,146.075 306.575,145.870 306.706,145.612 306.752,145.327 306.706,145.041 306.575,144.783 306.370,144.578 306.112,144.447 305.827,144.402" style="fill:none;stroke-width:0.050000mm;stroke:black"/>
<polygon points="206.957,144.447 206.699,144.578 206.494,144.783 206.363,145.041 206.318,145.327 206.363,145.612 206.494,145.870 206.699,146.075 206.957,146.206 207.243,146.251 207.529,146.206 207.787,146.075 207.991,145.870 208.123,145.612 208.168,145.327 208.123,145.041 207.991,144.783 207.787,144.578 207.529,144.447 207.243,144.402" style="fill:none;stroke-width:0.050000mm;stroke:black"/>
<polygon points="108.373,144.447 108.115,144.578 107.911,144.783 107.779,145.041 107.734,145.327 107.779,145.612 107.911,145.870 108.115,146.075 108.373,146.206 108.659,146.251 108.945,146.206 109.203,146.075 109.408,145.870 109.539,145.612 109.584,145.327 109.539,145.041 109.408,144.783 109.203,144.578 108.945,144.447 108.659,144.402" style="fill:none;stroke-width:0.050000mm;stroke:black"/>
<polygon points="9.790,144.447 9.532,144.578 9.327,144.783 9.196,145.041 9.151,145.327 9.196,145.612 9.327,145.870 9.532,146.075 9.790,146.206 10.076,146.251 10.361,146.206 10.619,146.075 10.824,145.870 10.955,145.612 11.001,145.327 10.955,145.041 10.824,144.783 10.619,144.578 10.361,144.447 10.076,144.402" style="fill:none;stroke-width:0.050000mm;stroke:black"/>
<polygon points="103.401,123.876 103.401,124.876 102.601,124.876 102.601,127.826 103.401,127.826 103.401,128.575 101.726,128.575 101.726,125.346 95.126,125.346 95.126,128.575 94.301,128.575 94.301,131.226 95.126,131.226 95.126,137.496 96.851,137.496 96.851,138.696 100.001,138.696 100.001,137.496 101.726,137.496 101.726,133.026 103.401,133.026 103.401,133.776 102.601,133.776 102.601,136.726 103.401,136.726 103.401,137.726 117.251,137.726 117.251,136.726 118.051,136.726 118.051,133.776 117.251,133.776 117.251,133.026 118.926,133.026 118.926,137.496 120.651,137.496 120.651,138.696 123.801,138.696 123.801,137.496 125.526,137.496 125.526,131.226 126.351,131.226 126.351,128.575 125.526,128.575 125.526,125.346 118.926,125.346 118.926,128.575 117.251,128.575 117.251,127.826 118.051,127.826 118.051,124.876 117.251,124.876 117.251,123.876" style="fill:none;stroke-width:0.050000mm;stroke:black"/>
<polygon points="141.501,123.876 141.501,124.876 140.701,124.876 140.701,127.826 141.501,127.826 141.501,128.575 139.826,128.575 139.826,125.346 133.226,125.346 133.226,128.575 132.401,128.575 132.401,131.226 133.226,131.226 133.226,137.496 134.951,137.496 134.951,138.696 138.101,138.696 138.101,137.496 139.826,137.496 139.826,133.026 141.501,133.026 141.501,133.776 140.701,133.776 140.701,136.726 141.501,136.726 141.501,137.726 155.351,137.726 155.351,136.726 156.151,136.726 156.151,133.776 155.351,133.776 155.351,133.026 157.026,133.026 157.026,137.496 158.751,137.496 158.751,138.696 161.901,138.696 161.901,137.496 163.626,137.496 163.626,131.226 164.451,131.226 164.451,128.575 163.626,128.575 163.626,125.346 157.026,125.346 157.026,128.575 155.351,128.575 155.351,127.826 156.151,127.826 156.151,124.876 155.351,124.876 155.351,123.876" style="fill:none;stroke-width:0.050000mm;stroke:black"/>
<polygon points="179.601,123.876 179.601,124.876 178.801,124.876 178.801,127.826 179.601,127.826 179.601,128.575 177.926,128.575 177.926,125.346 171.326,125.346 171.326,128.575 170.501,128.575 170.501,131.226 171.326,131.226 171.326,137.496 173.051,137.496 173.051,138.696 176.201,138.696 176.201,137.496 177.926,137.496 177.926,133.026 179.601,133.026 179.601,133.776 178.801,133.776 178.801,136.726 179.601,136.726 179.601,137.726 193.451,137.726 193.451,136.726 194.251,136.726 194.251,133.776 193.451,133.776 193.451,133.026 195.126,133.026 195.126,137.496 196.851,137.496 196.851,138.696 200.001,138.696 200.001,137.496 201.726,137.496 201.726,131.226 202.551,131.226 202.551,128.575 201.726,128.575 201.726,125.346 195.126,125.346 195.126,128.575 193.451,128.575 193.451,127.826 194.251,127.826 194.251,124.876 193.451,124.876 193.451,123.876" style="fill:none;stroke-width:0.050000mm;stroke:black"/>
<polygon points="17.676,123.876 17.676,124.876 16.876,124.876 16.876,127.826 17.676,127.826 17.676,133.776 16.876,133.776 16.876,136.726 17.676,136.726 17.676,137.726 31.526,137.726 31.526,136.726 32.326,136.726 32.326,133.776 31.526,133.776 31.526,127.826 32.326,127.826 32.326,124.876 31.526,124.876 31.526,123.876" style="fill:none;stroke-width:0.050000mm;stroke:black"/>
<polygon points="36.726,123.876 36.726,124.876 35.926,124.876 35.926,127.826 36.726,127.826 36.726,133.776 35.926,133.776 35.926,136.726 36.726,136.726 36.726,137.726 50.576,137.726 50.576,136.726 51.376,136.726 51.376,133.776 50.576,133.776 50.576,127.826 51.376,127.826 51.376,124.876 50.576,124.876 50.576,123.876" style="fill:none;stroke-width:0.050000mm;stroke:black"/>
<polygon points="55.776,123.876 55.776,124.876 54.976,124.876 54.976,127.826 55.776,127.826 55.776,133.776 54.976,133.776 54.976,136.726 55.776,136.726 55.776,137.726 69.626,137.726 69.626,136.726 70.426,136.726 70.426,133.776 69.626,133.776 69.626,127.826 70.426,127.826 70.426,124.876 69.626,124.876 69.626,123.876" style="fill:none;stroke-width:0.050000mm;stroke:black"/>
<polygon points="74.826,123.876 74.826,124.876 74.026,124.876 74.026,127.826 74.826,127.826 74.826,133.776 74.026,133.776 74.026,136.726 74.826,136.726 74.826,137.726 88.676,137.726 88.676,136.726 89.476,136.726 89.476,133.776 88.676,133.776 88.676,127.826 89.476,127.826 89.476,124.876 88.676,124.876 88.676,123.876" style="fill:none;stroke-width:0.050000mm;stroke:black"/>
<polygon points="208.176,123.876 208.176,124.876 207.376,124.876 207.376,127.826 208.176,127.826 208.176,133.776 207.376,133.776 207.376,136.726 208.176,136.726 208.176,137.726 222.026,137.726 222.026,136.726 222.826,136.726 222.826,133.776 222.026,133.776 222.026,127.826 222.826,127.826 222.826,124.876 222.026,124.876 222.026,123.876" style="fill:none;stroke-width:0.050000mm;stroke:black"/>
<polygon points="227.226,123.876 227.226,124.876 226.426,124.876 226.426,127.826 227.226,127.826 227.226,133.776 226.426,133.776 226.426,136.726 227.226,136.726 227.226,137.726 241.076,137.726 241.076,136.726 241.876,136.726 241.876,133.776 241.076,133.776 241.076,127.826 241.876,127.826 241.876,124.876 241.076,124.876 241.076,123.876" style="fill:none;stroke-width:0.050000mm;stroke:black"/>
<polygon points="246.276,123.876 246.276,124.876 245.476,124.876 245.476,127.826 246.276,127.826 246.276,133.776 245.476,133.776 245.476,136.726 246.276,136.726 246.276,137.726 260.126,137.726 260.126,136.726 260.926,136.726 260.926,133.776 260.126,133.776 260.126,127.826 260.926,127.826 260.926,124.876 260.126,124.876 260.126,123.876" style="fill:none;stroke-width:0.050000mm;stroke:black"/>
<polygon points="265.326,123.876 265.326,124.876 264.526,124.876 264.526,127.826 265.326,127.826 265.326,133.776 264.526,133.776 264.526,136.726 265.326,136.726 265.326,137.726 279.176,137.726 279.176,136.726 279.976,136.726 279.976,133.776 279.176,133.776 279.176,127.826 279.976,127.826 279.976,124.876 279.176,124.876 279.176,123.876" style="fill:none;stroke-width:0.050000mm;stroke:black"/>
<polygon points="284.376,123.876 284.376,124.876 283.576,124.876 283.576,127.826 284.376,127.826 284.376,133.776 283.576,133.776 283.576,136.726 284.376,136.726 284.376,137.726 298.226,137.726 298.226,136.726 299.026,136.726 299.026,133.776 298.226,133.776 298.226,127.826 299.026,127.826 299.026,124.876 298.226,124.876 298.226,123.876" style="fill:none;stroke-width:0.050000mm;stroke:black"/>
<polygon points="17.676,104.826 17.676,105.826 16.876,105.826 16.876,108.776 17.676,108.776 17.676,114.726 16.876,114.726 16.876,117.676 17.676,117.676 17.676,118.676 31.526,118.676 31.526,117.676 32.326,117.676 32.326,114.726 31.526,114.726 31.526,108.776 32.326,108.776 32.326,105.826 31.526,105.826 31.526,104.826" style="fill:none;stroke-width:0.050000mm;stroke:black"/>
<polygon points="36.726,104.826 36.726,105.826 35.926,105.826 35.926,108.776 36.726,108.776 36.726,114.726 35.926,114.726 35.926,117.676 36.726,117.676 36.726,118.676 50.576,118.676 50.576,117.676 51.376,117.676 51.376,114.726 50.576,114.726 50.576,108.776 51.376,108.776 51.376,105.826 50.576,105.826 50.576,104.826" style="fill:none;stroke-width:0.050000mm;stroke:black"/>
<polygon points="55.776,104.826 55.776,105.826 54.976,105.826 54.976,108.776 55.776,108.776 55.776,114.726 54.976,114.726 54.976,117.676 55.776,117.676 55.776,118.676 69.626,118.676 69.626,117.676 70.426,117.676 70.426,114.726 69.626,114.726 69.626,108.776 70.426,108.776 70.426,105.826 69.626,105.826 69.626,104.826" style="fill:none;stroke-width:0.050000mm;stroke:black"/>
<polygon points="74.826,104.826 74.826,105.826 74.026,105.826 74.026,108.776 74.826,108.776 74.826,114.726 74.026,114.726 74.026,117.676 74.826,117.676 74.826,118.676 88.676,118.676 88.676,117.676 89.476,117.676 89.476,114.726 88.676,114.726 88.676,108.776 89.476,108.776 89.476,105.826 88.676,105.826 88.676,104.826" style="fill:none;stroke-width:0.050000mm;stroke:black"/>
<polygon points="93.876,104.826 93.876,105.826 93.076,105.826 93.076,108.776 93.876,108.776 93.876,114.726 93.076,114.726 93.076,117.676 93.876,117.676 93.876,118.676 107.726,118.676 107.726,117.676 108.525,117.676 108.525,114.726 107.726,114.726 107.726,108.776 108.525,108.776 108.525,105.826 107.726,105.826 107.726,104.826" style="fill:none;stroke-width:0.050000mm;stroke:black"/>
<polygon points="112.926,104.826 112.926,105.826 112.126,105.826 112.126,108.776 112.926,108.776 112.926,114.726 112.126,114.726 112.126,117.676 112.926,117.676 112.926,118.676 126.775,118.676 126.775,117.676 127.575,117.676 127.575,114.726 126.775,114.726 126.775,108.776 127.575,108.776 127.575,105.826 126.775,105.826 126.775,104.826" style="fill:none;stroke-width:0.050000mm;stroke:black"/>
<polygon points="131.976,104.826 131.976,105.826 131.176,105.826 131.176,108.776 131.976,108.776 131.976,114.726 131.176,114.726 131.176,117.676 131.976,117.676 131.976,118.676 145.826,118.676 145.826,117.676 146.626,117.676 146.626,114.726 145.826,114.726 145.826,108.776 146.626,108.776 146.626,105.826 145.826,105.826 145.826,104.826" style="fill:none;stroke-width:0.050000mm;stroke:black"/>
<polygon points="151.026,104.826 151.026,105.826 150.226,105.826 150.226,108.776 151.026,108.776 151.026,114.726 150.226,114.726 150.226,117.676 151.026,117.676 151.026,118.676 164.876,118.676 164.876,117.676 165.676,117.676 165.676,114.726 164.876,114.726 164.876,108.776 165.676,108.776 165.676,105.826 164.876,105.826 164.876,104.826" style="fill:none;stroke-width:0.050000mm;stroke:black"/>
<polygon points="170.076,104.826 170.076,105.826 169.276,105.826 169.276,108.776 170.076,108.776 170.076,114.726 169.276,114.726 169.276,117.676 170.076,117.676 170.076,118.676 183.926,118.676 183.926,117.676 184.726,117.676 184.726,114.726 183.926,114.726 183.926,108.776 184.726,108.776 184.726,105.826 183.926,105.826 183.926,104.826" style="fill:none;stroke-width:0.050000mm;stroke:black"/>
<polygon points="189.126,104.826 189.126,105.826 188.326,105.826 188.326,108.776 189.126,108.776 189.126,114.726 188.326,114.726 188.326,117.676 189.126,117.676 189.126,118.676 202.976,118.676 202.976,117.676 203.776,117.676 203.776,114.726 202.976,114.726 202.976,108.776 203.776,108.776 203.776,105.826 202.976,105.826 202.976,104.826" style="fill:none;stroke-width:0.050000mm;stroke:black"/>
<polygon points="208.176,104.826 208.176,105.826 207.376,105.826 207.376,108.776 208.176,108.776 208.176,114.726 207.376,114.726 207.376,117.676 208.176,117.676 208.176,118.676 222.026,118.676 222.026,117.676 222.826,117.676 222.826,114.726 222.026,114.726 222.026,108.776 222.826,108.776 222.826,105.826 222.026,105.826 222.026,104.826" style="fill:none;stroke-width:0.050000mm;stroke:black"/>
<polygon points="227.226,104.826 227.226,105.826 226.426,105.826 226.426,108.776 227.226,108.776 227.226,114.726 226.426,114.726 226.426,117.676 227.226,117.676 227.226,118.676 241.076,118.676 241.076,117.676 241.876,117.676 241.876,114.726 241.076,114.726 241.076,108.776 241.876,108.776 241.876,105.826 241.076,105.826 241.076,104.826" style="fill:none;stroke-width:0.050000mm;stroke:black"/>
<polygon points="246.276,104.826 246.276,105.826 245.476,105.826 245.476,108.776 246.276,108.776 246.276,114.726 245.476,114.726 245.476,117.676 246.276,117.676 246.276,118.676 260.126,118.676 260.126,117.676 260.926,117.676 260.926,114.726 260.126,114.726 260.126,108.776 260.926,108.776 260.926,105.826 260.126,105.826 260.126,104.826" style="fill:none;stroke-width:0.050000mm;stroke:black"/>
<polygon points="265.326,104.826 265.326,105.826 264.526,105.826 264.526,108.776 265.326,108.776 265.326,114.726 264.526,114.726 264.526,117.676 265.326,117.676 265.326,118.676 279.176,118.676 279.176,117.676 279.976,117.676 279.976,114.726 279.176,114.726 279.176,108.776 279.976,108.776 279.976,105.826 279.176,105.826 279.176,104.826" style="fill:none;stroke-width:0.050000mm;stroke:black"/>
<polygon points="284.376,104.826 284.376,105.826 283.576,105.826 283.576,108.776 284.376,108.776 284.376,114.726 283.576,114.726 283.576,117.676 284.376,117.676 284.376,118.676 298.226,118.676 298.226,117.676 299.026,117.676 299.026,114.726 298.226,114.726 298.226,108.776 299.026,108.776 299.026,105.826 298.226,105.826 298.226,104.826" style="fill:none;stroke-width:0.050000mm;stroke:black"/>
<polygon points="255.801,85.776 255.801,86.776 255.001,86.776 255.001,89.726 255.801,89.726 255.801,90.476 254.126,90.476 254.126,87.246 247.526,87.246 247.526,90.476 246.701,90.476 246.701,93.126 247.526,93.126 247.526,99.396 249.251,99.396 249.251,100.596 252.401,100.596 252.401,99.396 254.126,99.396 254.126,94.926 255.801,94.926 255.801,95.676 255.001,95.676 255.001,98.626 255.801,98.626 255.801,99.626 269.651,99.626 269.651,98.626 270.451,98.626 270.451,95.676 269.651,95.676 269.651,94.926 271.326,94.926 271.326,99.396 273.051,99.396 273.051,100.596 276.201,100.596 276.201,99.396 277.926,99.396 277.926,93.126 278.751,93.126 278.751,90.476 277.926,90.476 277.926,87.246 271.326,87.246 271.326,90.476 269.651,90.476 269.651,89.726 270.451,89.726 270.451,86.776 269.651,86.776 269.651,85.776" style="fill:none;stroke-width:0.050000mm;stroke:black"/>
<polygon points="17.676,85.776 17.676,86.776 16.876,86.776 16.876,89.726 17.676,89.726 17.676,95.676 16.876,95.676 16.876,98.626 17.676,98.626 17.676,99.626 31.526,99.626 31.526,98.626 32.326,98.626 32.326,95.676 31.526,95.676 31.526,89.726 32.326,89.726 32.326,86.776 31.526,86.776 31.526,85.776" style="fill:none;stroke-width:0.050000mm;stroke:black"/>
<polygon points="36.726,85.776 36.726,86.776 35.926,86.776 35.926,89.726 36.726,89.726 36.726,95.676 35.926,95.676 35.926,98.626 36.726,98.626 36.726,99.626 50.576,99.626 50.576,98.626 51.376,98.626 51.376,95.676 50.576,95.676 50.576,89.726 51.376,89.726 51.376,86.776 50.576,86.776 50.576,85.776" style="fill:none;stroke-width:0.050000mm;stroke:black"/>
<polygon points="55.776,85.776 55.776,86.776 54.976,86.776 54.976,89.726 55.776,89.726 55.776,95.676 54.976,95.676 54.976,98.626 55.776,98.626 55.776,99.626 69.626,99.626 69.626,98.626 70.426,98.626 70.426,95.676 69.626,95.676 69.626,89.726 70.426,89.726 70.426,86.776 69.626,86.776 69.626,85.776" style="fill:none;stroke-width:0.050000mm;stroke:black"/>
<polygon points="74.826,85.776 74.826,86.776 74.026,86.776 74.026,89.726 74.826,89.726 74.826,95.676 74.026,95.676 74.026,98.626 74.826,98.626 74.826,99.626 88.676,99.626 88.676,98.626 89.476,98.626 89.476,95.676 88.676,95.676 88.676,89.726 89.476,89.726 89.476,86.776 88.676,86.776 88.676,85.776" style="fill:none;stroke-width:0.050000mm;stroke:black"/>
<polygon points="93.876,85.776 93.876,86.776 93.076,86.776 93.076,89.726 93.876,89.726 93.876,95.676 93.076,95.676 93.076,98.626 93.876,98.626 93.876,99.626 107.726,99.626 107.726,98.626 108.525,98.626 108.525,95.676 107.726,95.676 107.726,89.726 108.525,89.726 108.525,86.776 107.726,86.776 107.726,85.776" style="fill:none;stroke-width:0.050000mm;stroke:black"/>
<polygon points="112.926,85.776 112.926,86.776 112.126,86.776 112.126,89.726 112.926,89.726 112.926,95.676 112.126,95.676 112.126,98.626 112.926,98.626 112.926,99.626 126.775,99.626 126.775,98.626 127.575,98.626 127.575,95.676 126.775,95.676 126.775,89.726 127.575,89.726 127.575,86.776 126.775,86.776 126.775,85.776" style="fill:none;stroke-width:0.050000mm;stroke:black"/>
<polygon points="131.976,85.776 131.976,86.776 131.176,86.776 131.176,89.726 131.976,89.726 131.976,95.676 131.176,95.676 131.176,98.626 131.976,98.626 131.976,99.626 145.826,99.626 145.826,98.626 146.626,98.626 146.626,95.676 145.826,95.676 145.826,89.726 146.626,89.726 146.626,86.776 145.826,86.776 145.826,85.776" style="fill:none;stroke-width:0.050000mm;stroke:black"/>
<polygon points="151.026,85.776 151.026,86.776 150.226,86.776 150.226,89.726 151.026,89.726 151.026,95.676 150.226,95.676 150.226,98.626 151.026,98.626 151.026,99.626 164.876,99.626 164.876,98.626 165.676,98.626 165.676,95.676 164.876,95.676 164.876,89.726 165.676,89.726 165.676,86.776 164.876,86.776 164.876,85.776" style="fill:none;stroke-width:0.050000mm;stroke:black"/>
<polygon points="170.076,85.776 170.076,86.776 169.276,86.776 169.276,89.726 170.076,89.726 170.076,95.676 169.276,95.676 169.276,98.626 170.076,98.626 170.076,99.626 183.926,99.626 183.926,98.626 184.726,98.626 184.726,95.676 183.926,95.676 183.926,89.726 184.726,89.726 184.726,86.776 183.926,86.776 183.926,85.776" style="fill:none;stroke-width:0.050000mm;stroke:black"/>
<polygon points="189.126,85.776 189.126,86.776 188.326,86.776 188.326,89.726 189.126,89.726 189.126,95.676 188.326,95.676 188.326,98.626 189.126,98.626 189.126,99.626 202.976,99.626 202.976,98.626 203.776,98.626 203.776,95.676 202.976,95.676 202.976,89.726 203.776,89.726 203.776,86.776 202.976,86.776 202.976,85.776" style="fill:none;stroke-width:0.050000mm;stroke:black"/>
<polygon points="208.176,85.776 208.176,86.776 207.376,86.776 207.376,89.726 208.176,89.726 208.176,95.676 207.376,95.676 207.376,98.626 208.176,98.626 208.176,99.626 222.026,99.626 222.026,98.626 222.826,98.626 222.826,95.676 222.026,95.676 222.026,89.726 222.826,89.726 222.826,86.776 222.026,86.776 222.026,85.776" style="fill:none;stroke-width:0.050000mm;stroke:black"/>
<polygon points="227.226,85.776 227.226,86.776 226.426,86.776 226.426,89.726 227.226,89.726 227.226,95.676 226.426,95.676 226.426,98.626 227.226,98.626 227.226,99.626 241.076,99.626 241.076,98.626 241.876,98.626 241.876,95.676 241.076,95.676 241.076,89.726 241.876,89.726 241.876,86.776 241.076,86.776 241.076,85.776" style="fill:none;stroke-width:0.050000mm;stroke:black"/>
<polygon points="284.376,85.776 284.376,86.776 283.576,86.776 283.576,89.726 284.376,89.726 284.376,95.676 283.576,95.676 283.576,98.626 284.376,98.626 284.376,99.626 298.226,99.626 298.226,98.626 299.026,98.626 299.026,95.676 298.226,95.676 298.226,89.726 299.026,89.726 299.026,86.776 298.226,86.776 298.226,85.776" style="fill:none;stroke-width:0.050000mm;stroke:black"/>
<polygon points="17.676,66.726 17.676,67.726 16.876,67.726 16.876,70.676 17.676,70.676 17.676,76.626 16.876,76.626 16.876,79.576 17.676,79.576 17.676,80.576 31.526,80.576 31.526,79.576 32.326,79.576 32.326,76.626 31.526,76.626 31.526,70.676 32.326,70.676 32.326,67.726 31.526,67.726 31.526,66.726" style="fill:none;stroke-width:0.050000mm;stroke:black"/>
<polygon points="36.726,66.726 36.726,67.726 35.926,67.726 35.926,70.676 36.726,70.676 36.726,76.626 35.926,76.626 35.926,79.576 36.726,79.576 36.726,80.576 50.576,80.576 50.576,79.576 51.376,79.576 51.376,76.626 50.576,76.626 50.576,70.676 51.376,70.676 51.376,67.726 50.576,67.726 50.576,66.726" style="fill:none;stroke-width:0.050000mm;stroke:black"/>
<polygon points="55.776,66.726 55.776,67.726 54.976,67.726 54.976,70.676 55.776,70.676 55.776,76.626 54.976,76.626 54.976,79.576 55.776,79.576 55.776,80.576 69.626,80.576 69.626,79.576 70.426,79.576 70.426,76.626 69.626,76.626 69.626,70.676 70.426,70.676 70.426,67.726 69.626,67.726 69.626,66.726" style="fill:none;stroke-width:0.050000mm;stroke:black"/>
<polygon points="74.826,66.726 74.826,67.726 74.026,67.726 74.026,70.676 74.826,70.676 74.826,76.626 74.026,76.626 74.026,79.576 74.826,79.576 74.826,80.576 88.676,80.576 88.676,79.576 89.476,79.576 89.476,76.626 88.676,76.626 88.676,70.676 89.476,70.676 89.476,67.726 88.676,67.726 88.676,66.726" style="fill:none;stroke-width:0.050000mm;stroke:black"/>
<polygon points="93.876,66.726 93.876,67.726 93.076,67.726 93.076,70.676 93.876,70.676 93.876,76.626 93.076,76.626 93.076,79.576 93.876,79.576 93.876,80.576 107.726,80.576 107.726,79.576 108.525,79.576 108.525,76.626 107.726,76.626 107.726,70.676 108.525,70.676 108.525,67.726 107.726,67.726 107.726,66.726" style="fill:none;stroke-width:0.050000mm;stroke:black"/>
<polygon points="112.926,66.726 112.926,67.726 112.126,67.726 112.126,70.676 112.926,70.676 112.926,76.626 112.126,76.626 112.126,79.576 112.926,79.576 112.926,80.576 126.775,80.576 126.775,79.576 127.575,79.576 127.575,76.626 126.775,76.626 126.775,70.676 127.575,70.676 127.575,67.726 126.775,67.726 126.775,66.726" style="fill:none;stroke-width:0.050000mm;stroke:black"/>
<polygon points="131.976,66.726 131.976,67.726 131.176,67.726 131.176,70.676 131.976,70.676 131.976,76.626 131.176,76.626 131.176,79.576 131.976,79.576 131.976,80.576 145.826,80.576 145.826,79.576 146.626,79.576 146.626,76.626 145.826,76.626 145.826,70.676 146.626,70.676 146.626,67.726 145.826,67.726 145.826,66.726" style="fill:none;stroke-width:0.050000mm;stroke:black"/>
<polygon points="151.026,66.726 151.026,67.726 150.226,67.726 150.226,70.676 151.026,70.676 151.026,76.626 150.226,76.626 150.226,79.576 151.026,79.576 151.026,80.576 164.876,80.576 164.876,79.576 165.676,79.576 165.676,76.626 164.876,76.626 164.876,70.676 165.676,70.676 165.676,67.726 164.876,67.726 164.876,66.726" style="fill:none;stroke-width:0.050000mm;stroke:black"/>
<polygon points="170.076,66.726 170.076,67.726 169.276,67.726 169.276,70.676 170.076,70.676 170.076,76.626 169.276,76.626 169.276,79.576 170.076,79.576 170.076,80.576 183.926,80.576 183.926,79.576 184.726,79.576 184.726,76.626 183.926,76.626 183.926,70.676 184.726,70.676 184.726,67.726 183.926,67.726 183.926,66.726" style="fill:none;stroke-width:0.050000mm;stroke:black"/>
<polygon points="189.126,66.726 189.126,67.726 188.326,67.726 188.326,70.676 189.126,70.676 189.126,76.626 188.326,76.626 188.326,79.576 189.126,79.576 189.126,80.576 202.976,80.576 202.976,79.576 203.776,79.576 203.776,76.626 202.976,76.626 202.976,70.676 203.776,70.676 203.776,67.726 202.976,67.726 202.976,66.726" style="fill:none;stroke-width:0.050000mm;stroke:black"/>
<polygon points="208.176,66.726 208.176,67.726 207.376,67.726 207.376,70.676 208.176,70.676 208.176,76.626 207.376,76.626 207.376,79.576 208.176,79.576 208.176,80.576 222.026,80.576 222.026,79.576 222.826,79.576 222.826,76.626 222.026,76.626 222.026,70.676 222.826,70.676 222.826,67.726 222.026,67.726 222.026,66.726" style="fill:none;stroke-width:0.050000mm;stroke:black"/>
<polygon points="227.226,66.726 227.226,67.726 226.426,67.726 226.426,70.676 227.226,70.676 227.226,76.626 226.426,76.626 226.426,79.576 227.226,79.576 227.226,80.576 241.076,80.576 241.076,79.576 241.876,79.576 241.876,76.626 241.076,76.626 241.076,70.676 241.876,70.676 241.876,67.726 241.076,67.726 241.076,66.726" style="fill:none;stroke-width:0.050000mm;stroke:black"/>
<polygon points="246.276,66.726 246.276,67.726 245.476,67.726 245.476,70.676 246.276,70.676 246.276,76.626 245.476,76.626 245.476,79.576 246.276,79.576 246.276,80.576 260.126,80.576 260.126,79.576 260.926,79.576 260.926,76.626 260.126,76.626 260.126,70.676 260.926,70.676 260.926,67.726 260.126,67.726 260.126,66.726" style="fill:none;stroke-width:0.050000mm;stroke:black"/>
<polygon points="265.326,66.726 265.326,67.726 264.526,67.726 264.526,70.676 265.326,70.676 265.326,76.626 264.526,76.626 264.526,79.576 265.326,79.576 265.326,80.576 279.176,80.576 279.176,79.576 279.976,79.576 279.976,76.626 279.176,76.626 279.176,70.676 279.976,70.676 279.976,67.726 279.176,67.726 279.176,66.726" style="fill:none;stroke-width:0.050000mm;stroke:black"/>
<polygon points="284.376,66.726 284.376,67.726 283.576,67.726 283.576,70.676 284.376,70.676 284.376,76.626 283.576,76.626 283.576,79.576 284.376,79.576 284.376,80.576 298.226,80.576 298.226,79.576 299.026,79.576 299.026,76.626 298.226,76.626 298.226,70.676 299.026,70.676 299.026,67.726 298.226,67.726 298.226,66.726" style="fill:none;stroke-width:0.050000mm;stroke:black"/>
<polygon points="17.676,47.676 17.676,48.676 16.876,48.676 16.876,51.626 17.676,51.626 17.676,57.576 16.876,57.576 16.876,60.526 17.676,60.526 17.676,61.526 31.526,61.526 31.526,60.526 32.326,60.526 32.326,57.576 31.526,57.576 31.526,51.626 32.326,51.626 32.326,48.676 31.526,48.676 31.526,47.676" style="fill:none;stroke-width:0.050000mm;stroke:black"/>
<polygon points="36.726,47.676 36.726,48.676 35.926,48.676 35.926,51.626 36.726,51.626 36.726,57.576 35.926,57.576 35.926,60.526 36.726,60.526 36.726,61.526 50.576,61.526 50.576,60.526 51.376,60.526 51.376,57.576 50.576,57.576 50.576,51.626 51.376,51.626 51.376,48.676 50.576,48.676 50.576,47.676" style="fill:none;stroke-width:0.050000mm;stroke:black"/>
<polygon points="55.776,47.676 55.776,48.676 54.976,48.676 54.976,51.626 55.776,51.626 55.776,57.576 54.976,57.576 54.976,60.526 55.776,60.526 55.776,61.526 69.626,61.526 69.626,60.526 70.426,60.526 70.426,57.576 69.626,57.576 69.626,51.626 70.426,51.626 70.426,48.676 69.626,48.676 69.626,47.676" style="fill:none;stroke-width:0.050000mm;stroke:black"/>
<polygon points="74.826,47.676 74.826,48.676 74.026,48.676 74.026,51.626 74.826,51.626 74.826,57.576 74.026,57.576 74.026,60.526 74.826,60.526 74.826,61.526 88.676,61.526 88.676,60.526 89.476,60.526 89.476,57.576 88.676,57.576 88.676,51.626 89.476,51.626 89.476,48.676 88.676,48.676 88.676,47.676" style="fill:none;stroke-width:0.050000mm;stroke:black"/>
<polygon points="93.876,47.676 93.876,48.676 93.076,48.676 93.076,51.626 93.876,51.626 93.876,57.576 93.076,57.576 93.076,60.526 93.876,60.526 93.876,61.526 107.726,61.526 107.726,60.526 108.525,60.526 108.525,57.576 107.726,57.576 107.726,51.626 108.525,51.626 108.525,48.676 107.726,48.676 107.726,47.676" style="fill:none;stroke-width:0.050000mm;stroke:black"/>
<polygon points="112.926,47.676 112.926,48.676 112.126,48.676 112.126,51.626 112.926,51.626 112.926,57.576 112.126,57.576 112.126,60.526 112.926,60.526 112.926,61.526 126.775,61.526 126.775,60.526 127.575,60.526 127.575,57.576 126.775,57.576 126.775,51.626 127.575,51.626 127.575,48.676 126.775,48.676 126.775,47.676" style="fill:none;stroke-width:0.050000mm;stroke:black"/>
<polygon points="131.976,47.676 131.976,48.676 131.176,48.676 131.176,51.626 131.976,51.626 131.976,57.576 131.176,57.576 131.176,60.526 131.976,60.526 131.976,61.526 145.826,61.526 145.826,60.526 146.626,60.526 146.626,57.576 145.826,57.576 145.826,51.626 146.626,51.626 146.626,48.676 145.826,48.676 145.826,47.676" style="fill:none;stroke-width:0.050000mm;stroke:black"/>
<polygon points="151.026,47.676 151.026,48.676 150.226,48.676 150.226,51.626 151.026,51.626 151.026,57.576 150.226,57.576 150.226,60.526 151.026,60.526 151.026,61.526 164.876,61.526 164.876,60.526 165.676,60.526 165.676,57.576 164.876,57.576 164.876,51.626 165.676,51.626 165.676,48.676 164.876,48.676 164.876,47.676" style="fill:none;stroke-width:0.050000mm;stroke:black"/>
<polygon points="170.076,47.676 170.076,48.676 169.276,48.676 169.276,51.626 170.076,51.626 170.076,57.576 169.276,57.576 169.276,60.526 170.076,60.526 170.076,61.526 183.926,61.526 183.926,60.526 184.726,60.526 184.726,57.576 183.926,57.576 183.926,51.626 184.726,51.626 184.726,48.676 183.926,48.676 183.926,47.676" style="fill:none;stroke-width:0.050000mm;stroke:black"/>
<polygon points="189.126,47.676 189.126,48.676 188.326,48.676 188.326,51.626 189.126,51.626 189.126,57.576 188.326,57.576 188.326,60.526 189.126,60.526 189.126,61.526 202.976,61.526 202.976,60.526 203.776,60.526 203.776,57.576 202.976,57.576 202.976,51.626 203.776,51.626 203.776,48.676 202.976,48.676 202.976,47.676" style="fill:none;stroke-width:0.050000mm;stroke:black"/>
<polygon points="208.176,47.676 208.176,48.676 207.376,48.676 207.376,51.626 208.176,51.626 208.176,57.576 207.376,57.576 207.376,60.526 208.176,60.526 208.176,61.526 222.026,61.526 222.026,60.526 222.826,60.526 222.826,57.576 222.026,57.576 222.026,51.626 222.826,51.626 222.826,48.676 222.026,48.676 222.026,47.676" style="fill:none;stroke-width:0.050000mm;stroke:black"/>
<polygon points="227.226,47.676 227.226,48.676 226.426,48.676 226.426,51.626 227.226,51.626 227.226,57.576 226.426,57.576 226.426,60.526 227.226,60.526 227.226,61.526 241.076,61.526 241.076,60.526 241.876,60.526 241.876,57.576 241.076,57.576 241.076,51.626 241.876,51.626 241.876,48.676 241.076,48.676 241.076,47.676" style="fill:none;stroke-width:0.050000mm;stroke:black"/>
<polygon points="246.276,47.676 246.276,48.676 245.476,48.676 245.476,51.626 246.276,51.626 246.276,57.576 245.476,57.576 245.476,60.526 246.276,60.526 246.276,61.526 260.126,61.526 260.126,60.526 260.926,60.526 260.926,57.576 260.126,57.576 260.126,51.626 260.926,51.626 260.926,48.676 260.126,48.676 260.126,47.676" style="fill:none;stroke-width:0.050000mm;stroke:black"/>
<polygon points="265.326,47.676 265.326,48.676 264.526,48.676 264.526,51.626 265.326,51.626 265.326,57.576 264.526,57.576 264.526,60.526 265.326,60.526 265.326,61.526 279.176,61.526 279.176,60.526 279.976,60.526 279.976,57.576 279.176,57.576 279.176,51.626 279.976,51.626 279.976,48.676 279.176,48.676 279.176,47.676" style="fill:none;stroke-width:0.050000mm;stroke:black"/>
<polygon points="284.376,47.676 284.376,48.676 283.576,48.676 283.576,51.626 284.376,51.626 284.376,57.576 283.576,57.576 283.576,60.526 284.376,60.526 284.376,61.526 298.226,61.526 298.226,60.526 299.026,60.526 299.026,57.576 298.226,57.576 298.226,51.626 299.026,51.626 299.026,48.676 298.226,48.676 298.226,47.676" style="fill:none;stroke-width:0.050000mm;stroke:black"/>
<polygon points="108.373,9.196 108.115,9.327 107.911,9.532 107.779,9.790 107.734,10.076 107.779,10.361 107.911,10.619 108.115,10.824 108.373,10.955 108.659,11.001 108.945,10.955 109.203,10.824 109.408,10.619 109.539,10.361 109.584,10.076 109.539,9.790 109.408,9.532 109.203,9.327 108.945,9.196 108.659,9.150" style="fill:none;stroke-width:0.050000mm;stroke:black"/>
<polygon points="206.957,9.196 206.699,9.327 206.494,9.532 206.363,9.790 206.318,10.076 206.363,10.361 206.494,10.619 206.699,10.824 206.957,10.955 207.243,11.001 207.529,10.955 207.787,10.824 207.991,10.619 208.123,10.361 208.168,10.076 208.123,9.790 207.991,9.532 207.787,9.327 207.529,9.196 207.243,9.150" style="fill:none;stroke-width:0.050000mm;stroke:black"/>
<polygon points="305.541,9.196 305.283,9.327 305.078,9.532 304.947,9.790 304.902,10.076 304.947,10.361 305.078,10.619 305.283,10.824 305.541,10.955 305.827,11.001 306.112,10.955 306.370,10.824 306.575,10.619 306.706,10.361 306.752,10.076 306.706,9.790 306.575,9.532 306.370,9.327 306.112,9.196 305.827,9.150" style="fill:none;stroke-width:0.050000mm;stroke:black"/>
<polygon points="9.790,9.196 9.532,9.327 9.327,9.532 9.196,9.790 9.151,10.075 9.196,10.361 9.327,10.619 9.532,10.824 9.790,10.955 10.076,11.000 10.361,10.955 10.619,10.824 10.824,10.619 10.955,10.361 11.001,10.075 10.955,9.790 10.824,9.532 10.619,9.327 10.361,9.196 10.076,9.150" style="fill:none;stroke-width:0.050000mm;stroke:black"/>
</svg>
