  0
SECTION
  2
HEADER
  9
$ACADVER
  1
AC1009
  9
$FILLMODE
 70
 0
  9
$SPLFRAME
 70
 1
  9
$EXTMIN
 10
0
 20
0
 30
0.0
  9
$EXTMAX
 10
1058.33
 20
1058.33
 30
0.0
  0
ENDSEC
  0
SECTION
  2
TABLES
  0
TABLE
  2
LAYER
 70
1
  0
LAYER
  2
0
 70
     0
 62
     7
  6
CONTINUOUS
  0
ENDTAB
  0
ENDSEC
  0
SECTION
  2
ENTITIES
  0
LINE
  8
0
 62
     0
 10
303.997
 20
145.602
 30
0.0
 11
304.152
 21
145.595
 31
0.0
  0
LINE
  8
0
 62
     0
 10
304.152
 20
145.595
 30
0.0
 11
304.308
 21
145.577
 31
0.0
  0
LINE
  8
0
 62
     0
 10
304.308
 20
145.577
 30
0.0
 11
304.462
 21
145.547
 31
0.0
  0
LINE
  8
0
 62
     0
 10
304.462
 20
145.547
 30
0.0
 11
304.614
 21
145.504
 31
0.0
  0
LINE
  8
0
 62
     0
 10
304.614
 20
145.504
 30
0.0
 11
304.762
 21
145.449
 31
0.0
  0
LINE
  8
0
 62
     0
 10
304.762
 20
145.449
 30
0.0
 11
304.903
 21
145.384
 31
0.0
  0
LINE
  8
0
 62
     0
 10
304.903
 20
145.384
 30
0.0
 11
305.041
 21
145.307
 31
0.0
  0
LINE
  8
0
 62
     0
 10
305.041
 20
145.307
 30
0.0
 11
305.172
 21
145.22
 31
0.0
  0
LINE
  8
0
 62
     0
 10
305.172
 20
145.22
 30
0.0
 11
305.295
 21
145.123
 31
0.0
  0
LINE
  8
0
 62
     0
 10
305.295
 20
145.123
 30
0.0
 11
305.41
 21
145.016
 31
0.0
  0
LINE
  8
0
 62
     0
 10
305.41
 20
145.016
 30
0.0
 11
305.516
 21
144.901
 31
0.0
  0
LINE
  8
0
 62
     0
 10
305.516
 20
144.901
 30
0.0
 11
305.615
 21
144.778
 31
0.0
  0
LINE
  8
0
 62
     0
 10
305.615
 20
144.778
 30
0.0
 11
305.701
 21
144.647
 31
0.0
  0
LINE
  8
0
 62
     0
 10
305.701
 20
144.647
 30
0.0
 11
305.778
 21
144.509
 31
0.0
  0
LINE
  8
0
 62
     0
 10
305.778
 20
144.509
 30
0.0
 11
305.843
 21
144.367
 31
0.0
  0
LINE
  8
0
 62
     0
 10
305.843
 20
144.367
 30
0.0
 11
305.898
 21
144.221
 31
0.0
  0
LINE
  8
0
 62
     0
 10
305.898
 20
144.221
 30
0.0
 11
305.941
 21
144.068
 31
0.0
  0
LINE
  8
0
 62
     0
 10
305.941
 20
144.068
 30
0.0
 11
305.971
 21
143.915
 31
0.0
  0
LINE
  8
0
 62
     0
 10
305.971
 20
143.915
 30
0.0
 11
305.989
 21
143.758
 31
0.0
  0
LINE
  8
0
 62
     0
 10
305.989
 20
143.758
 30
0.0
 11
305.996
 21
143.601
 31
0.0
  0
LINE
  8
0
 62
     0
 10
305.996
 20
143.601
 30
0.0
 11
305.996
 21
2.20073
 31
0.0
  0
LINE
  8
0
 62
     0
 10
305.996
 20
2.20073
 30
0.0
 11
305.989
 21
2.04501
 31
0.0
  0
LINE
  8
0
 62
     0
 10
305.989
 20
2.04501
 30
0.0
 11
305.971
 21
1.88929
 31
0.0
  0
LINE
  8
0
 62
     0
 10
305.971
 20
1.88929
 30
0.0
 11
305.941
 21
1.73495
 31
0.0
  0
LINE
  8
0
 62
     0
 10
305.941
 20
1.73495
 30
0.0
 11
305.898
 21
1.58337
 31
0.0
  0
LINE
  8
0
 62
     0
 10
305.898
 20
1.58337
 30
0.0
 11
305.843
 21
1.43591
 31
0.0
  0
LINE
  8
0
 62
     0
 10
305.843
 20
1.43591
 30
0.0
 11
305.778
 21
1.29398
 31
0.0
  0
LINE
  8
0
 62
     0
 10
305.778
 20
1.29398
 30
0.0
 11
305.701
 21
1.15617
 31
0.0
  0
LINE
  8
0
 62
     0
 10
305.701
 20
1.15617
 30
0.0
 11
305.615
 21
1.02526
 31
0.0
  0
LINE
  8
0
 62
     0
 10
305.615
 20
1.02526
 30
0.0
 11
305.516
 21
0.902614
 31
0.0
  0
LINE
  8
0
 62
     0
 10
305.516
 20
0.902614
 30
0.0
 11
305.41
 21
0.78686
 31
0.0
  0
LINE
  8
0
 62
     0
 10
305.41
 20
0.78686
 30
0.0
 11
305.295
 21
0.680752
 31
0.0
  0
LINE
  8
0
 62
     0
 10
305.295
 20
0.680752
 30
0.0
 11
305.172
 21
0.582909
 31
0.0
  0
LINE
  8
0
 62
     0
 10
305.172
 20
0.582909
 30
0.0
 11
305.041
 21
0.496094
 31
0.0
  0
LINE
  8
0
 62
     0
 10
305.041
 20
0.496094
 30
0.0
 11
304.903
 21
0.418924
 31
0.0
  0
LINE
  8
0
 62
     0
 10
304.903
 20
0.418924
 30
0.0
 11
304.762
 21
0.354157
 31
0.0
  0
LINE
  8
0
 62
     0
 10
304.762
 20
0.354157
 30
0.0
 11
304.614
 21
0.299034
 31
0.0
  0
LINE
  8
0
 62
     0
 10
304.614
 20
0.299034
 30
0.0
 11
304.462
 21
0.256315
 31
0.0
  0
LINE
  8
0
 62
     0
 10
304.462
 20
0.256315
 30
0.0
 11
304.308
 21
0.225998
 31
0.0
  0
LINE
  8
0
 62
     0
 10
304.308
 20
0.225998
 30
0.0
 11
304.152
 21
0.208084
 31
0.0
  0
LINE
  8
0
 62
     0
 10
304.152
 20
0.208084
 30
0.0
 11
303.995
 21
0.201194
 31
0.0
  0
LINE
  8
0
 62
     0
 10
303.995
 20
0.201194
 30
0.0
 11
2.096
 21
0.201194
 31
0.0
  0
LINE
  8
0
 62
     0
 10
2.096
 20
0.201194
 30
0.0
 11
1.9389
 21
0.208084
 31
0.0
  0
LINE
  8
0
 62
     0
 10
1.9389
 20
0.208084
 30
0.0
 11
1.7818
 21
0.225998
 31
0.0
  0
LINE
  8
0
 62
     0
 10
1.7818
 20
0.225998
 30
0.0
 11
1.62884
 21
0.256315
 31
0.0
  0
LINE
  8
0
 62
     0
 10
1.62884
 20
0.256315
 30
0.0
 11
1.47588
 21
0.299034
 31
0.0
  0
LINE
  8
0
 62
     0
 10
1.47588
 20
0.299034
 30
0.0
 11
1.32981
 21
0.354157
 31
0.0
  0
LINE
  8
0
 62
     0
 10
1.32981
 20
0.354157
 30
0.0
 11
1.18787
 21
0.418924
 31
0.0
  0
LINE
  8
0
 62
     0
 10
1.18787
 20
0.418924
 30
0.0
 11
1.05006
 21
0.496094
 31
0.0
  0
LINE
  8
0
 62
     0
 10
1.05006
 20
0.496094
 30
0.0
 11
0.919152
 21
0.582909
 31
0.0
  0
LINE
  8
0
 62
     0
 10
0.919152
 20
0.582909
 30
0.0
 11
0.796505
 21
0.680752
 31
0.0
  0
LINE
  8
0
 62
     0
 10
0.796505
 20
0.680752
 30
0.0
 11
0.680752
 21
0.78686
 31
0.0
  0
LINE
  8
0
 62
     0
 10
0.680752
 20
0.78686
 30
0.0
 11
0.574643
 21
0.902614
 31
0.0
  0
LINE
  8
0
 62
     0
 10
0.574643
 20
0.902614
 30
0.0
 11
0.4768
 21
1.02526
 31
0.0
  0
LINE
  8
0
 62
     0
 10
0.4768
 20
1.02526
 30
0.0
 11
0.389985
 21
1.15617
 31
0.0
  0
LINE
  8
0
 62
     0
 10
0.389985
 20
1.15617
 30
0.0
 11
0.312815
 21
1.29398
 31
0.0
  0
LINE
  8
0
 62
     0
 10
0.312815
 20
1.29398
 30
0.0
 11
0.248047
 21
1.43591
 31
0.0
  0
LINE
  8
0
 62
     0
 10
0.248047
 20
1.43591
 30
0.0
 11
0.192925
 21
1.58337
 31
0.0
  0
LINE
  8
0
 62
     0
 10
0.192925
 20
1.58337
 30
0.0
 11
0.150206
 21
1.73495
 31
0.0
  0
LINE
  8
0
 62
     0
 10
0.150206
 20
1.73495
 30
0.0
 11
0.119889
 21
1.88929
 31
0.0
  0
LINE
  8
0
 62
     0
 10
0.119889
 20
1.88929
 30
0.0
 11
0.101975
 21
2.04501
 31
0.0
  0
LINE
  8
0
 62
     0
 10
0.101975
 20
2.04501
 30
0.0
 11
0.0950846
 21
2.20211
 31
0.0
  0
LINE
  8
0
 62
     0
 10
0.0950846
 20
2.20211
 30
0.0
 11
0.0950846
 21
143.601
 31
0.0
  0
LINE
  8
0
 62
     0
 10
0.0950846
 20
143.601
 30
0.0
 11
0.101975
 21
143.758
 31
0.0
  0
LINE
  8
0
 62
     0
 10
0.101975
 20
143.758
 30
0.0
 11
0.119889
 21
143.915
 31
0.0
  0
LINE
  8
0
 62
     0
 10
0.119889
 20
143.915
 30
0.0
 11
0.150206
 21
144.068
 31
0.0
  0
LINE
  8
0
 62
     0
 10
0.150206
 20
144.068
 30
0.0
 11
0.192925
 21
144.221
 31
0.0
  0
LINE
  8
0
 62
     0
 10
0.192925
 20
144.221
 30
0.0
 11
0.248047
 21
144.367
 31
0.0
  0
LINE
  8
0
 62
     0
 10
0.248047
 20
144.367
 30
0.0
 11
0.312815
 21
144.509
 31
0.0
  0
LINE
  8
0
 62
     0
 10
0.312815
 20
144.509
 30
0.0
 11
0.389985
 21
144.647
 31
0.0
  0
LINE
  8
0
 62
     0
 10
0.389985
 20
144.647
 30
0.0
 11
0.4768
 21
144.778
 31
0.0
  0
LINE
  8
0
 62
     0
 10
0.4768
 20
144.778
 30
0.0
 11
0.574643
 21
144.901
 31
0.0
  0
LINE
  8
0
 62
     0
 10
0.574643
 20
144.901
 30
0.0
 11
0.680752
 21
145.016
 31
0.0
  0
LINE
  8
0
 62
     0
 10
0.680752
 20
145.016
 30
0.0
 11
0.796505
 21
145.123
 31
0.0
  0
LINE
  8
0
 62
     0
 10
0.796505
 20
145.123
 30
0.0
 11
0.919152
 21
145.22
 31
0.0
  0
LINE
  8
0
 62
     0
 10
0.919152
 20
145.22
 30
0.0
 11
1.05006
 21
145.307
 31
0.0
  0
LINE
  8
0
 62
     0
 10
1.05006
 20
145.307
 30
0.0
 11
1.18787
 21
145.384
 31
0.0
  0
LINE
  8
0
 62
     0
 10
1.18787
 20
145.384
 30
0.0
 11
1.32981
 21
145.449
 31
0.0
  0
LINE
  8
0
 62
     0
 10
1.32981
 20
145.449
 30
0.0
 11
1.47588
 21
145.504
 31
0.0
  0
LINE
  8
0
 62
     0
 10
1.47588
 20
145.504
 30
0.0
 11
1.62884
 21
145.547
 31
0.0
  0
LINE
  8
0
 62
     0
 10
1.62884
 20
145.547
 30
0.0
 11
1.7818
 21
145.577
 31
0.0
  0
LINE
  8
0
 62
     0
 10
1.7818
 20
145.577
 30
0.0
 11
1.9389
 21
145.595
 31
0.0
  0
LINE
  8
0
 62
     0
 10
1.9389
 20
145.595
 30
0.0
 11
2.096
 21
145.602
 31
0.0
  0
LINE
  8
0
 62
     0
 10
2.096
 20
145.602
 30
0.0
 11
303.997
 21
145.602
 31
0.0
  0
LINE
  8
0
 62
     0
 10
300.635
 20
6.15569
 30
0.0
 11
300.378
 21
6.02477
 31
0.0
  0
LINE
  8
0
 62
     0
 10
300.378
 20
6.02477
 30
0.0
 11
300.173
 21
5.81946
 31
0.0
  0
LINE
  8
0
 62
     0
 10
300.173
 20
5.81946
 30
0.0
 11
300.042
 21
5.56175
 31
0.0
  0
LINE
  8
0
 62
     0
 10
300.042
 20
5.56175
 30
0.0
 11
299.996
 21
5.27512
 31
0.0
  0
LINE
  8
0
 62
     0
 10
299.996
 20
5.27512
 30
0.0
 11
300.042
 21
4.99124
 31
0.0
  0
LINE
  8
0
 62
     0
 10
300.042
 20
4.99124
 30
0.0
 11
300.173
 21
4.7322
 31
0.0
  0
LINE
  8
0
 62
     0
 10
300.173
 20
4.7322
 30
0.0
 11
300.378
 21
4.52822
 31
0.0
  0
LINE
  8
0
 62
     0
 10
300.378
 20
4.52822
 30
0.0
 11
300.635
 21
4.3973
 31
0.0
  0
LINE
  8
0
 62
     0
 10
300.635
 20
4.3973
 30
0.0
 11
300.921
 21
4.35183
 31
0.0
  0
LINE
  8
0
 62
     0
 10
300.921
 20
4.35183
 30
0.0
 11
301.206
 21
4.3973
 31
0.0
  0
LINE
  8
0
 62
     0
 10
301.206
 20
4.3973
 30
0.0
 11
301.465
 21
4.52822
 31
0.0
  0
LINE
  8
0
 62
     0
 10
301.465
 20
4.52822
 30
0.0
 11
301.669
 21
4.7322
 31
0.0
  0
LINE
  8
0
 62
     0
 10
301.669
 20
4.7322
 30
0.0
 11
301.8
 21
4.99124
 31
0.0
  0
LINE
  8
0
 62
     0
 10
301.8
 20
4.99124
 30
0.0
 11
301.847
 21
5.27512
 31
0.0
  0
LINE
  8
0
 62
     0
 10
301.847
 20
5.27512
 30
0.0
 11
301.8
 21
5.56175
 31
0.0
  0
LINE
  8
0
 62
     0
 10
301.8
 20
5.56175
 30
0.0
 11
301.669
 21
5.81946
 31
0.0
  0
LINE
  8
0
 62
     0
 10
301.669
 20
5.81946
 30
0.0
 11
301.465
 21
6.02477
 31
0.0
  0
LINE
  8
0
 62
     0
 10
301.465
 20
6.02477
 30
0.0
 11
301.206
 21
6.15569
 31
0.0
  0
LINE
  8
0
 62
     0
 10
301.206
 20
6.15569
 30
0.0
 11
300.921
 21
6.20116
 31
0.0
  0
LINE
  8
0
 62
     0
 10
300.921
 20
6.20116
 30
0.0
 11
300.635
 21
6.15569
 31
0.0
  0
LINE
  8
0
 62
     0
 10
202.052
 20
6.15569
 30
0.0
 11
201.793
 21
6.02477
 31
0.0
  0
LINE
  8
0
 62
     0
 10
201.793
 20
6.02477
 30
0.0
 11
201.589
 21
5.81946
 31
0.0
  0
LINE
  8
0
 62
     0
 10
201.589
 20
5.81946
 30
0.0
 11
201.458
 21
5.56175
 31
0.0
  0
LINE
  8
0
 62
     0
 10
201.458
 20
5.56175
 30
0.0
 11
201.413
 21
5.27512
 31
0.0
  0
LINE
  8
0
 62
     0
 10
201.413
 20
5.27512
 30
0.0
 11
201.458
 21
4.99124
 31
0.0
  0
LINE
  8
0
 62
     0
 10
201.458
 20
4.99124
 30
0.0
 11
201.589
 21
4.7322
 31
0.0
  0
LINE
  8
0
 62
     0
 10
201.589
 20
4.7322
 30
0.0
 11
201.793
 21
4.52822
 31
0.0
  0
LINE
  8
0
 62
     0
 10
201.793
 20
4.52822
 30
0.0
 11
202.052
 21
4.3973
 31
0.0
  0
LINE
  8
0
 62
     0
 10
202.052
 20
4.3973
 30
0.0
 11
202.337
 21
4.35183
 31
0.0
  0
LINE
  8
0
 62
     0
 10
202.337
 20
4.35183
 30
0.0
 11
202.624
 21
4.3973
 31
0.0
  0
LINE
  8
0
 62
     0
 10
202.624
 20
4.3973
 30
0.0
 11
202.882
 21
4.52822
 31
0.0
  0
LINE
  8
0
 62
     0
 10
202.882
 20
4.52822
 30
0.0
 11
203.086
 21
4.7322
 31
0.0
  0
LINE
  8
0
 62
     0
 10
203.086
 20
4.7322
 30
0.0
 11
203.218
 21
4.99124
 31
0.0
  0
LINE
  8
0
 62
     0
 10
203.218
 20
4.99124
 30
0.0
 11
203.262
 21
5.27512
 31
0.0
  0
LINE
  8
0
 62
     0
 10
203.262
 20
5.27512
 30
0.0
 11
203.218
 21
5.56175
 31
0.0
  0
LINE
  8
0
 62
     0
 10
203.218
 20
5.56175
 30
0.0
 11
203.086
 21
5.81946
 31
0.0
  0
LINE
  8
0
 62
     0
 10
203.086
 20
5.81946
 30
0.0
 11
202.882
 21
6.02477
 31
0.0
  0
LINE
  8
0
 62
     0
 10
202.882
 20
6.02477
 30
0.0
 11
202.624
 21
6.15569
 31
0.0
  0
LINE
  8
0
 62
     0
 10
202.624
 20
6.15569
 30
0.0
 11
202.337
 21
6.20116
 31
0.0
  0
LINE
  8
0
 62
     0
 10
202.337
 20
6.20116
 30
0.0
 11
202.052
 21
6.15569
 31
0.0
  0
LINE
  8
0
 62
     0
 10
103.467
 20
6.15569
 30
0.0
 11
103.21
 21
6.02477
 31
0.0
  0
LINE
  8
0
 62
     0
 10
103.21
 20
6.02477
 30
0.0
 11
103.005
 21
5.81946
 31
0.0
  0
LINE
  8
0
 62
     0
 10
103.005
 20
5.81946
 30
0.0
 11
102.873
 21
5.56175
 31
0.0
  0
LINE
  8
0
 62
     0
 10
102.873
 20
5.56175
 30
0.0
 11
102.828
 21
5.27512
 31
0.0
  0
LINE
  8
0
 62
     0
 10
102.828
 20
5.27512
 30
0.0
 11
102.873
 21
4.99124
 31
0.0
  0
LINE
  8
0
 62
     0
 10
102.873
 20
4.99124
 30
0.0
 11
103.005
 21
4.7322
 31
0.0
  0
LINE
  8
0
 62
     0
 10
103.005
 20
4.7322
 30
0.0
 11
103.21
 21
4.52822
 31
0.0
  0
LINE
  8
0
 62
     0
 10
103.21
 20
4.52822
 30
0.0
 11
103.467
 21
4.3973
 31
0.0
  0
LINE
  8
0
 62
     0
 10
103.467
 20
4.3973
 30
0.0
 11
103.754
 21
4.35183
 31
0.0
  0
LINE
  8
0
 62
     0
 10
103.754
 20
4.35183
 30
0.0
 11
104.039
 21
4.3973
 31
0.0
  0
LINE
  8
0
 62
     0
 10
104.039
 20
4.3973
 30
0.0
 11
104.297
 21
4.52822
 31
0.0
  0
LINE
  8
0
 62
     0
 10
104.297
 20
4.52822
 30
0.0
 11
104.502
 21
4.7322
 31
0.0
  0
LINE
  8
0
 62
     0
 10
104.502
 20
4.7322
 30
0.0
 11
104.633
 21
4.99124
 31
0.0
  0
LINE
  8
0
 62
     0
 10
104.633
 20
4.99124
 30
0.0
 11
104.679
 21
5.27512
 31
0.0
  0
LINE
  8
0
 62
     0
 10
104.679
 20
5.27512
 30
0.0
 11
104.633
 21
5.56175
 31
0.0
  0
LINE
  8
0
 62
     0
 10
104.633
 20
5.56175
 30
0.0
 11
104.502
 21
5.81946
 31
0.0
  0
LINE
  8
0
 62
     0
 10
104.502
 20
5.81946
 30
0.0
 11
104.297
 21
6.02477
 31
0.0
  0
LINE
  8
0
 62
     0
 10
104.297
 20
6.02477
 30
0.0
 11
104.039
 21
6.15569
 31
0.0
  0
LINE
  8
0
 62
     0
 10
104.039
 20
6.15569
 30
0.0
 11
103.754
 21
6.20116
 31
0.0
  0
LINE
  8
0
 62
     0
 10
103.754
 20
6.20116
 30
0.0
 11
103.467
 21
6.15569
 31
0.0
  0
LINE
  8
0
 62
     0
 10
4.88516
 20
6.15569
 30
0.0
 11
4.62608
 21
6.02477
 31
0.0
  0
LINE
  8
0
 62
     0
 10
4.62608
 20
6.02477
 30
0.0
 11
4.42214
 21
5.81946
 31
0.0
  0
LINE
  8
0
 62
     0
 10
4.42214
 20
5.81946
 30
0.0
 11
4.28985
 21
5.56175
 31
0.0
  0
LINE
  8
0
 62
     0
 10
4.28985
 20
5.56175
 30
0.0
 11
4.24575
 21
5.27512
 31
0.0
  0
LINE
  8
0
 62
     0
 10
4.24575
 20
5.27512
 30
0.0
 11
4.28985
 21
4.99124
 31
0.0
  0
LINE
  8
0
 62
     0
 10
4.28985
 20
4.99124
 30
0.0
 11
4.42214
 21
4.7322
 31
0.0
  0
LINE
  8
0
 62
     0
 10
4.42214
 20
4.7322
 30
0.0
 11
4.62608
 21
4.52822
 31
0.0
  0
LINE
  8
0
 62
     0
 10
4.62608
 20
4.52822
 30
0.0
 11
4.88516
 21
4.3973
 31
0.0
  0
LINE
  8
0
 62
     0
 10
4.88516
 20
4.3973
 30
0.0
 11
5.17042
 21
4.35183
 31
0.0
  0
LINE
  8
0
 62
     0
 10
5.17042
 20
4.35183
 30
0.0
 11
5.45564
 21
4.3973
 31
0.0
  0
LINE
  8
0
 62
     0
 10
5.45564
 20
4.3973
 30
0.0
 11
5.71334
 21
4.52822
 31
0.0
  0
LINE
  8
0
 62
     0
 10
5.71334
 20
4.52822
 30
0.0
 11
5.91866
 21
4.7322
 31
0.0
  0
LINE
  8
0
 62
     0
 10
5.91866
 20
4.7322
 30
0.0
 11
6.04957
 21
4.99124
 31
0.0
  0
LINE
  8
0
 62
     0
 10
6.04957
 20
4.99124
 30
0.0
 11
6.09505
 21
5.27512
 31
0.0
  0
LINE
  8
0
 62
     0
 10
6.09505
 20
5.27512
 30
0.0
 11
6.04957
 21
5.56175
 31
0.0
  0
LINE
  8
0
 62
     0
 10
6.04957
 20
5.56175
 30
0.0
 11
5.91866
 21
5.81946
 31
0.0
  0
LINE
  8
0
 62
     0
 10
5.91866
 20
5.81946
 30
0.0
 11
5.71334
 21
6.02477
 31
0.0
  0
LINE
  8
0
 62
     0
 10
5.71334
 20
6.02477
 30
0.0
 11
5.45564
 21
6.15569
 31
0.0
  0
LINE
  8
0
 62
     0
 10
5.45564
 20
6.15569
 30
0.0
 11
5.17042
 21
6.20116
 31
0.0
  0
LINE
  8
0
 62
     0
 10
5.17042
 20
6.20116
 30
0.0
 11
4.88516
 21
6.15569
 31
0.0
  0
LINE
  8
0
 62
     0
 10
10.2457
 20
135.451
 30
0.0
 11
295.847
 21
135.451
 31
0.0
  0
LINE
  8
0
 62
     0
 10
295.847
 20
135.451
 30
0.0
 11
295.847
 21
10.3504
 31
0.0
  0
LINE
  8
0
 62
     0
 10
295.847
 20
10.3504
 30
0.0
 11
10.2457
 21
10.3504
 31
0.0
  0
LINE
  8
0
 62
     0
 10
10.2457
 20
10.3504
 30
0.0
 11
10.2457
 21
135.451
 31
0.0
  0
LINE
  8
0
 62
     0
 10
103.467
 20
141.407
 30
0.0
 11
103.21
 21
141.275
 31
0.0
  0
LINE
  8
0
 62
     0
 10
103.21
 20
141.275
 30
0.0
 11
103.005
 21
141.071
 31
0.0
  0
LINE
  8
0
 62
     0
 10
103.005
 20
141.071
 30
0.0
 11
102.873
 21
140.812
 31
0.0
  0
LINE
  8
0
 62
     0
 10
102.873
 20
140.812
 30
0.0
 11
102.828
 21
140.527
 31
0.0
  0
LINE
  8
0
 62
     0
 10
102.828
 20
140.527
 30
0.0
 11
102.873
 21
140.242
 31
0.0
  0
LINE
  8
0
 62
     0
 10
102.873
 20
140.242
 30
0.0
 11
103.005
 21
139.984
 31
0.0
  0
LINE
  8
0
 62
     0
 10
103.005
 20
139.984
 30
0.0
 11
103.21
 21
139.779
 31
0.0
  0
LINE
  8
0
 62
     0
 10
103.21
 20
139.779
 30
0.0
 11
103.467
 21
139.648
 31
0.0
  0
LINE
  8
0
 62
     0
 10
103.467
 20
139.648
 30
0.0
 11
103.754
 21
139.602
 31
0.0
  0
LINE
  8
0
 62
     0
 10
103.754
 20
139.602
 30
0.0
 11
104.039
 21
139.648
 31
0.0
  0
LINE
  8
0
 62
     0
 10
104.039
 20
139.648
 30
0.0
 11
104.297
 21
139.779
 31
0.0
  0
LINE
  8
0
 62
     0
 10
104.297
 20
139.779
 30
0.0
 11
104.502
 21
139.984
 31
0.0
  0
LINE
  8
0
 62
     0
 10
104.502
 20
139.984
 30
0.0
 11
104.633
 21
140.242
 31
0.0
  0
LINE
  8
0
 62
     0
 10
104.633
 20
140.242
 30
0.0
 11
104.679
 21
140.527
 31
0.0
  0
LINE
  8
0
 62
     0
 10
104.679
 20
140.527
 30
0.0
 11
104.633
 21
140.812
 31
0.0
  0
LINE
  8
0
 62
     0
 10
104.633
 20
140.812
 30
0.0
 11
104.502
 21
141.071
 31
0.0
  0
LINE
  8
0
 62
     0
 10
104.502
 20
141.071
 30
0.0
 11
104.297
 21
141.275
 31
0.0
  0
LINE
  8
0
 62
     0
 10
104.297
 20
141.275
 30
0.0
 11
104.039
 21
141.407
 31
0.0
  0
LINE
  8
0
 62
     0
 10
104.039
 20
141.407
 30
0.0
 11
103.754
 21
141.453
 31
0.0
  0
LINE
  8
0
 62
     0
 10
103.754
 20
141.453
 30
0.0
 11
103.467
 21
141.407
 31
0.0
  0
LINE
  8
0
 62
     0
 10
202.052
 20
141.407
 30
0.0
 11
201.793
 21
141.275
 31
0.0
  0
LINE
  8
0
 62
     0
 10
201.793
 20
141.275
 30
0.0
 11
201.589
 21
141.071
 31
0.0
  0
LINE
  8
0
 62
     0
 10
201.589
 20
141.071
 30
0.0
 11
201.458
 21
140.812
 31
0.0
  0
LINE
  8
0
 62
     0
 10
201.458
 20
140.812
 30
0.0
 11
201.413
 21
140.527
 31
0.0
  0
LINE
  8
0
 62
     0
 10
201.413
 20
140.527
 30
0.0
 11
201.458
 21
140.242
 31
0.0
  0
LINE
  8
0
 62
     0
 10
201.458
 20
140.242
 30
0.0
 11
201.589
 21
139.984
 31
0.0
  0
LINE
  8
0
 62
     0
 10
201.589
 20
139.984
 30
0.0
 11
201.793
 21
139.779
 31
0.0
  0
LINE
  8
0
 62
     0
 10
201.793
 20
139.779
 30
0.0
 11
202.052
 21
139.648
 31
0.0
  0
LINE
  8
0
 62
     0
 10
202.052
 20
139.648
 30
0.0
 11
202.337
 21
139.602
 31
0.0
  0
LINE
  8
0
 62
     0
 10
202.337
 20
139.602
 30
0.0
 11
202.624
 21
139.648
 31
0.0
  0
LINE
  8
0
 62
     0
 10
202.624
 20
139.648
 30
0.0
 11
202.882
 21
139.779
 31
0.0
  0
LINE
  8
0
 62
     0
 10
202.882
 20
139.779
 30
0.0
 11
203.086
 21
139.984
 31
0.0
  0
LINE
  8
0
 62
     0
 10
203.086
 20
139.984
 30
0.0
 11
203.218
 21
140.242
 31
0.0
  0
LINE
  8
0
 62
     0
 10
203.218
 20
140.242
 30
0.0
 11
203.262
 21
140.527
 31
0.0
  0
LINE
  8
0
 62
     0
 10
203.262
 20
140.527
 30
0.0
 11
203.218
 21
140.812
 31
0.0
  0
LINE
  8
0
 62
     0
 10
203.218
 20
140.812
 30
0.0
 11
203.086
 21
141.071
 31
0.0
  0
LINE
  8
0
 62
     0
 10
203.086
 20
141.071
 30
0.0
 11
202.882
 21
141.275
 31
0.0
  0
LINE
  8
0
 62
     0
 10
202.882
 20
141.275
 30
0.0
 11
202.624
 21
141.407
 31
0.0
  0
LINE
  8
0
 62
     0
 10
202.624
 20
141.407
 30
0.0
 11
202.337
 21
141.453
 31
0.0
  0
LINE
  8
0
 62
     0
 10
202.337
 20
141.453
 30
0.0
 11
202.052
 21
141.407
 31
0.0
  0
LINE
  8
0
 62
     0
 10
300.635
 20
141.407
 30
0.0
 11
300.378
 21
141.275
 31
0.0
  0
LINE
  8
0
 62
     0
 10
300.378
 20
141.275
 30
0.0
 11
300.173
 21
141.071
 31
0.0
  0
LINE
  8
0
 62
     0
 10
300.173
 20
141.071
 30
0.0
 11
300.042
 21
140.812
 31
0.0
  0
LINE
  8
0
 62
     0
 10
300.042
 20
140.812
 30
0.0
 11
299.996
 21
140.527
 31
0.0
  0
LINE
  8
0
 62
     0
 10
299.996
 20
140.527
 30
0.0
 11
300.042
 21
140.242
 31
0.0
  0
LINE
  8
0
 62
     0
 10
300.042
 20
140.242
 30
0.0
 11
300.173
 21
139.984
 31
0.0
  0
LINE
  8
0
 62
     0
 10
300.173
 20
139.984
 30
0.0
 11
300.378
 21
139.779
 31
0.0
  0
LINE
  8
0
 62
     0
 10
300.378
 20
139.779
 30
0.0
 11
300.635
 21
139.648
 31
0.0
  0
LINE
  8
0
 62
     0
 10
300.635
 20
139.648
 30
0.0
 11
300.921
 21
139.602
 31
0.0
  0
LINE
  8
0
 62
     0
 10
300.921
 20
139.602
 30
0.0
 11
301.206
 21
139.648
 31
0.0
  0
LINE
  8
0
 62
     0
 10
301.206
 20
139.648
 30
0.0
 11
301.465
 21
139.779
 31
0.0
  0
LINE
  8
0
 62
     0
 10
301.465
 20
139.779
 30
0.0
 11
301.669
 21
139.984
 31
0.0
  0
LINE
  8
0
 62
     0
 10
301.669
 20
139.984
 30
0.0
 11
301.8
 21
140.242
 31
0.0
  0
LINE
  8
0
 62
     0
 10
301.8
 20
140.242
 30
0.0
 11
301.847
 21
140.527
 31
0.0
  0
LINE
  8
0
 62
     0
 10
301.847
 20
140.527
 30
0.0
 11
301.8
 21
140.812
 31
0.0
  0
LINE
  8
0
 62
     0
 10
301.8
 20
140.812
 30
0.0
 11
301.669
 21
141.071
 31
0.0
  0
LINE
  8
0
 62
     0
 10
301.669
 20
141.071
 30
0.0
 11
301.465
 21
141.275
 31
0.0
  0
LINE
  8
0
 62
     0
 10
301.465
 20
141.275
 30
0.0
 11
301.206
 21
141.407
 31
0.0
  0
LINE
  8
0
 62
     0
 10
301.206
 20
141.407
 30
0.0
 11
300.921
 21
141.453
 31
0.0
  0
LINE
  8
0
 62
     0
 10
300.921
 20
141.453
 30
0.0
 11
300.635
 21
141.407
 31
0.0
  0
LINE
  8
0
 62
     0
 10
4.88516
 20
141.407
 30
0.0
 11
4.62608
 21
141.275
 31
0.0
  0
LINE
  8
0
 62
     0
 10
4.62608
 20
141.275
 30
0.0
 11
4.42214
 21
141.071
 31
0.0
  0
LINE
  8
0
 62
     0
 10
4.42214
 20
141.071
 30
0.0
 11
4.28985
 21
140.812
 31
0.0
  0
LINE
  8
0
 62
     0
 10
4.28985
 20
140.812
 30
0.0
 11
4.24575
 21
140.528
 31
0.0
  0
LINE
  8
0
 62
     0
 10
4.24575
 20
140.528
 30
0.0
 11
4.28985
 21
140.242
 31
0.0
  0
LINE
  8
0
 62
     0
 10
4.28985
 20
140.242
 30
0.0
 11
4.42214
 21
139.984
 31
0.0
  0
LINE
  8
0
 62
     0
 10
4.42214
 20
139.984
 30
0.0
 11
4.62608
 21
139.779
 31
0.0
  0
LINE
  8
0
 62
     0
 10
4.62608
 20
139.779
 30
0.0
 11
4.88516
 21
139.648
 31
0.0
  0
LINE
  8
0
 62
     0
 10
4.88516
 20
139.648
 30
0.0
 11
5.17042
 21
139.602
 31
0.0
  0
LINE
  8
0
 62
     0
 10
5.17042
 20
139.602
 30
0.0
 11
5.45564
 21
139.648
 31
0.0
  0
LINE
  8
0
 62
     0
 10
5.45564
 20
139.648
 30
0.0
 11
5.71334
 21
139.779
 31
0.0
  0
LINE
  8
0
 62
     0
 10
5.71334
 20
139.779
 30
0.0
 11
5.91866
 21
139.984
 31
0.0
  0
LINE
  8
0
 62
     0
 10
5.91866
 20
139.984
 30
0.0
 11
6.04957
 21
140.242
 31
0.0
  0
LINE
  8
0
 62
     0
 10
6.04957
 20
140.242
 30
0.0
 11
6.09505
 21
140.528
 31
0.0
  0
LINE
  8
0
 62
     0
 10
6.09505
 20
140.528
 30
0.0
 11
6.04957
 21
140.812
 31
0.0
  0
LINE
  8
0
 62
     0
 10
6.04957
 20
140.812
 30
0.0
 11
5.91866
 21
141.071
 31
0.0
  0
LINE
  8
0
 62
     0
 10
5.91866
 20
141.071
 30
0.0
 11
5.71334
 21
141.275
 31
0.0
  0
LINE
  8
0
 62
     0
 10
5.71334
 20
141.275
 30
0.0
 11
5.45564
 21
141.407
 31
0.0
  0
LINE
  8
0
 62
     0
 10
5.45564
 20
141.407
 30
0.0
 11
5.17042
 21
141.453
 31
0.0
  0
LINE
  8
0
 62
     0
 10
5.17042
 20
141.453
 30
0.0
 11
4.88516
 21
141.407
 31
0.0
  0
ENDSEC
  0
EOF
